<svg width="136" height="51" viewBox="0 0 136 51" fill="none" xmlns="http://www.w3.org/2000/svg">
<path d="M0 9.22206C0 4.12886 4.12127 0 9.2051 0H125.803C130.887 0 135.008 4.12886 135.008 9.22206V41.4993C135.008 46.5925 130.887 50.7213 125.803 50.7213H9.2051C4.12126 50.7213 0 46.5925 0 41.4993V9.22206Z" fill="#273B4A"/>
<path d="M49.789 20.2288C49.2967 20.2288 48.8665 20.1169 48.4986 19.8931C48.1306 19.6694 47.8447 19.3561 47.6408 18.9533C47.4369 18.5505 47.335 18.0806 47.335 17.5436C47.335 17.0115 47.4394 16.5416 47.6482 16.1338C47.8571 15.726 48.153 15.4078 48.5359 15.179C48.9237 14.9453 49.3812 14.8285 49.9083 14.8285C50.505 14.8285 51.0023 14.9727 51.4001 15.2611C51.7979 15.5495 52.0565 15.9473 52.1759 16.4545H51.2808C51.2012 16.1761 51.0446 15.9573 50.8109 15.7981C50.5771 15.639 50.2763 15.5595 49.9083 15.5595C49.3613 15.5595 48.9312 15.736 48.6179 16.089C48.3046 16.4421 48.148 16.9294 48.148 17.551C48.148 18.1726 48.3021 18.6574 48.6105 19.0055C48.9188 19.3536 49.329 19.5277 49.8412 19.5277C50.3583 19.5277 50.7462 19.381 51.0048 19.0876C51.2683 18.7942 51.4225 18.4038 51.4673 17.9165H50.05V17.3049H52.2654V20.1393H51.5418L51.4747 19.371C51.3007 19.6445 51.0819 19.8558 50.8183 20.005C50.5548 20.1542 50.2117 20.2288 49.789 20.2288Z" fill="#D9D9D9"/>
<path d="M54.9256 20.2288C54.5626 20.2288 54.2394 20.1492 53.9559 19.9901C53.6775 19.826 53.4587 19.5998 53.2996 19.3113C53.1404 19.0229 53.0609 18.6873 53.0609 18.3044C53.0609 17.9165 53.1379 17.5759 53.2921 17.2825C53.4512 16.9891 53.67 16.7604 53.9485 16.5963C54.2319 16.4322 54.5601 16.3501 54.9331 16.3501C55.2961 16.3501 55.6118 16.4322 55.8804 16.5963C56.1489 16.7554 56.3577 16.9692 56.5069 17.2377C56.6561 17.5063 56.7307 17.8021 56.7307 18.1254C56.7307 18.1751 56.7282 18.2298 56.7232 18.2895C56.7232 18.3442 56.7208 18.4063 56.7158 18.4759H53.8366C53.8615 18.834 53.9783 19.1075 54.1872 19.2964C54.401 19.4804 54.6471 19.5724 54.9256 19.5724C55.1494 19.5724 55.3359 19.5227 55.485 19.4232C55.6392 19.3188 55.7536 19.1796 55.8282 19.0055H56.6188C56.5194 19.3536 56.3205 19.6445 56.0221 19.8782C55.7287 20.1119 55.3632 20.2288 54.9256 20.2288ZM54.9256 16.999C54.6621 16.999 54.4283 17.0786 54.2245 17.2377C54.0206 17.3919 53.8963 17.6256 53.8515 17.9389H55.94C55.9251 17.6505 55.8232 17.4217 55.6342 17.2527C55.4453 17.0836 55.2091 16.999 54.9256 16.999Z" fill="#D9D9D9"/>
<path d="M59.0079 20.1393C58.6448 20.1393 58.3564 20.0523 58.1426 19.8782C57.9288 19.6992 57.8219 19.3834 57.8219 18.9309V17.1035H57.1879V16.4396H57.8219L57.9188 15.4998H58.6125V16.4396H59.6568V17.1035H58.6125V18.9309C58.6125 19.1348 58.6548 19.2765 58.7393 19.3561C58.8288 19.4307 58.9805 19.468 59.1943 19.468H59.6195V20.1393H59.0079Z" fill="#D9D9D9"/>
<path d="M62.7989 15.7385C62.6497 15.7385 62.5254 15.6937 62.426 15.6042C62.3315 15.5097 62.2842 15.3929 62.2842 15.2536C62.2842 15.1144 62.3315 15 62.426 14.9105C62.5254 14.816 62.6497 14.7688 62.7989 14.7688C62.9481 14.7688 63.0699 14.816 63.1644 14.9105C63.2638 15 63.3136 15.1144 63.3136 15.2536C63.3136 15.3929 63.2638 15.5097 63.1644 15.6042C63.0699 15.6937 62.9481 15.7385 62.7989 15.7385ZM62.4036 20.1393V16.4396H63.1942V20.1393H62.4036Z" fill="#D9D9D9"/>
<path d="M65.7894 20.1393C65.4264 20.1393 65.138 20.0523 64.9242 19.8782C64.7104 19.6992 64.6035 19.3834 64.6035 18.9309V17.1035H63.9694V16.4396H64.6035L64.7004 15.4998H65.3941V16.4396H66.4384V17.1035H65.3941V18.9309C65.3941 19.1348 65.4364 19.2765 65.5209 19.3561C65.6104 19.4307 65.7621 19.468 65.9759 19.468H66.4011V20.1393H65.7894Z" fill="#D9D9D9"/>
<path d="M70.8634 20.2288C70.5104 20.2288 70.1921 20.1492 69.9087 19.9901C69.6302 19.826 69.4089 19.5998 69.2448 19.3113C69.0807 19.018 68.9987 18.6773 68.9987 18.2895C68.9987 17.9016 69.0807 17.5634 69.2448 17.275C69.4139 16.9816 69.6402 16.7554 69.9236 16.5963C70.207 16.4322 70.5228 16.3501 70.8709 16.3501C71.224 16.3501 71.5397 16.4322 71.8182 16.5963C72.1016 16.7554 72.3254 16.9816 72.4895 17.275C72.6586 17.5634 72.7431 17.9016 72.7431 18.2895C72.7431 18.6773 72.6586 19.018 72.4895 19.3113C72.3254 19.5998 72.1016 19.826 71.8182 19.9901C71.5347 20.1492 71.2165 20.2288 70.8634 20.2288ZM70.8634 19.55C71.0524 19.55 71.2264 19.5028 71.3856 19.4083C71.5497 19.3138 71.6814 19.1746 71.7809 18.9906C71.8804 18.8016 71.9301 18.5679 71.9301 18.2895C71.9301 18.011 71.8804 17.7798 71.7809 17.5958C71.6864 17.4068 71.5571 17.2651 71.393 17.1706C71.2339 17.0761 71.0599 17.0289 70.8709 17.0289C70.6819 17.0289 70.5054 17.0761 70.3413 17.1706C70.1822 17.2651 70.0529 17.4068 69.9534 17.5958C69.854 17.7798 69.8043 18.011 69.8043 18.2895C69.8043 18.5679 69.854 18.8016 69.9534 18.9906C70.0529 19.1746 70.1822 19.3138 70.3413 19.4083C70.5004 19.5028 70.6745 19.55 70.8634 19.55Z" fill="#D9D9D9"/>
<path d="M73.5982 20.1393V16.4396H74.2993L74.359 17.0886C74.4733 16.8598 74.6399 16.6808 74.8587 16.5515C75.0825 16.4172 75.3386 16.3501 75.627 16.3501C76.0746 16.3501 76.4251 16.4893 76.6787 16.7678C76.9373 17.0463 77.0666 17.4615 77.0666 18.0135V20.1393H76.2834V18.0955C76.2834 17.3795 75.99 17.0214 75.4032 17.0214C75.1099 17.0214 74.8662 17.1258 74.6723 17.3347C74.4833 17.5436 74.3888 17.8419 74.3888 18.2298V20.1393H73.5982Z" fill="#D9D9D9"/>
<path d="M51.4554 34.4545C50.6677 34.4545 49.9795 34.2755 49.3907 33.9175C48.8019 33.5594 48.3444 33.0622 48.0182 32.4257C47.692 31.7812 47.5289 31.0333 47.5289 30.182C47.5289 29.3227 47.696 28.5669 48.0302 27.9144C48.3723 27.2541 48.8537 26.7409 49.4742 26.3749C50.1028 26.001 50.8467 25.814 51.706 25.814C52.6846 25.814 53.4961 26.0487 54.1406 26.5181C54.7851 26.9875 55.2028 27.636 55.3937 28.4634H53.6871C53.5598 28.0736 53.3291 27.7712 52.9949 27.5564C52.6607 27.3336 52.2311 27.2222 51.706 27.2222C50.8706 27.2222 50.2261 27.4888 49.7726 28.0219C49.3191 28.547 49.0923 29.271 49.0923 30.1939C49.0923 31.1168 49.3151 31.8329 49.7607 32.3421C50.2142 32.8434 50.8268 33.094 51.5986 33.094C52.3544 33.094 52.9233 32.8911 53.3052 32.4853C53.6951 32.0716 53.9298 31.5306 54.0093 30.8622H51.8969V29.7165H55.5489V34.3113H54.1406L54.0213 33.2133C53.7507 33.6111 53.4126 33.9175 53.0068 34.1323C52.6011 34.3471 52.0839 34.4545 51.4554 34.4545Z" fill="white"/>
<path d="M59.8385 34.4545C59.2657 34.4545 58.7485 34.3232 58.2871 34.0607C57.8336 33.7981 57.4716 33.4361 57.201 32.9746C56.9385 32.5052 56.8072 31.9642 56.8072 31.3516C56.8072 30.7389 56.9425 30.2019 57.213 29.7404C57.4835 29.271 57.8455 28.905 58.299 28.6424C58.7605 28.3799 59.2776 28.2486 59.8505 28.2486C60.4154 28.2486 60.9246 28.3799 61.3781 28.6424C61.8396 28.905 62.2016 29.271 62.4641 29.7404C62.7346 30.2019 62.8699 30.7389 62.8699 31.3516C62.8699 31.9642 62.7346 32.5052 62.4641 32.9746C62.2016 33.4361 61.8396 33.7981 61.3781 34.0607C60.9166 34.3232 60.4034 34.4545 59.8385 34.4545ZM59.8385 33.1298C60.2364 33.1298 60.5825 32.9826 60.8768 32.6882C61.1712 32.3859 61.3184 31.9403 61.3184 31.3516C61.3184 30.7628 61.1712 30.3212 60.8768 30.0268C60.5825 29.7245 60.2403 29.5733 59.8505 29.5733C59.4447 29.5733 59.0946 29.7245 58.8003 30.0268C58.5138 30.3212 58.3706 30.7628 58.3706 31.3516C58.3706 31.9403 58.5138 32.3859 58.8003 32.6882C59.0946 32.9826 59.4407 33.1298 59.8385 33.1298Z" fill="white"/>
<path d="M67.0761 34.4545C66.5033 34.4545 65.9861 34.3232 65.5246 34.0607C65.0711 33.7981 64.7091 33.4361 64.4386 32.9746C64.1761 32.5052 64.0448 31.9642 64.0448 31.3516C64.0448 30.7389 64.18 30.2019 64.4506 29.7404C64.7211 29.271 65.0831 28.905 65.5366 28.6424C65.998 28.3799 66.5152 28.2486 67.0881 28.2486C67.653 28.2486 68.1622 28.3799 68.6157 28.6424C69.0771 28.905 69.4391 29.271 69.7017 29.7404C69.9722 30.2019 70.1075 30.7389 70.1075 31.3516C70.1075 31.9642 69.9722 32.5052 69.7017 32.9746C69.4391 33.4361 69.0771 33.7981 68.6157 34.0607C68.1542 34.3232 67.641 34.4545 67.0761 34.4545ZM67.0761 33.1298C67.4739 33.1298 67.82 32.9826 68.1144 32.6882C68.4088 32.3859 68.556 31.9403 68.556 31.3516C68.556 30.7628 68.4088 30.3212 68.1144 30.0268C67.82 29.7245 67.4779 29.5733 67.0881 29.5733C66.6823 29.5733 66.3322 29.7245 66.0378 30.0268C65.7514 30.3212 65.6082 30.7628 65.6082 31.3516C65.6082 31.9403 65.7514 32.3859 66.0378 32.6882C66.3322 32.9826 66.6783 33.1298 67.0761 33.1298Z" fill="white"/>
<path d="M73.6066 32.545C73.3202 32.545 73.0536 32.5132 72.807 32.4495L72.3654 32.8911C72.5007 32.9627 72.6837 33.0224 72.9144 33.0701C73.1451 33.1179 73.5191 33.1656 74.0362 33.2133C74.8239 33.2849 75.3967 33.4719 75.7548 33.7742C76.1128 34.0766 76.2918 34.4943 76.2918 35.0274C76.2918 35.3774 76.1964 35.7076 76.0054 36.0179C75.8145 36.3362 75.5201 36.5908 75.1223 36.7817C74.7244 36.9806 74.2152 37.0801 73.5947 37.0801C72.7513 37.0801 72.071 36.921 71.5539 36.6027C71.0367 36.2924 70.7781 35.823 70.7781 35.1944C70.7781 34.6614 71.0367 34.1999 71.5539 33.81C71.3947 33.7384 71.2555 33.6629 71.1362 33.5833C71.0248 33.5037 70.9253 33.4202 70.8378 33.3327V33.0582L71.8761 31.9602C71.4146 31.5544 71.1839 31.0333 71.1839 30.3968C71.1839 29.999 71.2794 29.637 71.4703 29.3108C71.6692 28.9846 71.9477 28.726 72.3057 28.535C72.6638 28.3441 73.0974 28.2486 73.6066 28.2486C73.9408 28.2486 74.251 28.2963 74.5375 28.3918H76.7811V29.3227L75.7667 29.3943C75.9258 29.6966 76.0054 30.0308 76.0054 30.3968C76.0054 30.7946 75.9099 31.1566 75.719 31.4828C75.528 31.809 75.2496 32.0676 74.8836 32.2586C74.5255 32.4495 74.0999 32.545 73.6066 32.545ZM73.6066 31.3754C73.9169 31.3754 74.1715 31.2919 74.3704 31.1248C74.5773 30.9577 74.6807 30.719 74.6807 30.4087C74.6807 30.0984 74.5773 29.8598 74.3704 29.6927C74.1715 29.5256 73.9169 29.442 73.6066 29.442C73.2804 29.442 73.0178 29.5256 72.8189 29.6927C72.62 29.8598 72.5206 30.0984 72.5206 30.4087C72.5206 30.719 72.62 30.9577 72.8189 31.1248C73.0178 31.2919 73.2804 31.3754 73.6066 31.3754ZM72.1745 35.0393C72.1745 35.3337 72.3097 35.5525 72.5802 35.6957C72.8587 35.8469 73.1968 35.9224 73.5947 35.9224C73.9766 35.9224 74.2868 35.8429 74.5255 35.6838C74.7642 35.5326 74.8836 35.3257 74.8836 35.0632C74.8836 34.8483 74.804 34.6693 74.6449 34.5261C74.4937 34.3829 74.1874 34.2954 73.7259 34.2636C73.3997 34.2397 73.0974 34.2039 72.8189 34.1561C72.5882 34.2834 72.4211 34.4227 72.3177 34.5738C72.2222 34.725 72.1745 34.8802 72.1745 35.0393Z" fill="white"/>
<path d="M77.8951 34.3113V25.7185H79.4227V34.3113H77.8951Z" fill="white"/>
<path d="M83.8597 34.4545C83.263 34.4545 82.7339 34.3272 82.2725 34.0726C81.811 33.818 81.449 33.46 81.1864 32.9985C80.9239 32.537 80.7926 32.004 80.7926 31.3993C80.7926 30.7867 80.9199 30.2417 81.1745 29.7643C81.4371 29.2869 81.7951 28.9169 82.2486 28.6544C82.7101 28.3839 83.2511 28.2486 83.8717 28.2486C84.4525 28.2486 84.9657 28.3759 85.4112 28.6305C85.8568 28.8851 86.2029 29.2352 86.4495 29.6807C86.7041 30.1183 86.8314 30.6076 86.8314 31.1487C86.8314 31.2362 86.8274 31.3277 86.8195 31.4232C86.8195 31.5186 86.8155 31.6181 86.8076 31.7215H82.3083C82.3401 32.183 82.4992 32.545 82.7857 32.8076C83.08 33.0701 83.4341 33.2014 83.8478 33.2014C84.1581 33.2014 84.4167 33.1338 84.6236 32.9985C84.8384 32.8553 84.9975 32.6723 85.1009 32.4495H86.6524C86.541 32.8235 86.354 33.1656 86.0915 33.4759C85.8369 33.7782 85.5186 34.0169 85.1367 34.1919C84.7628 34.367 84.3371 34.4545 83.8597 34.4545ZM83.8717 29.4898C83.4977 29.4898 83.1676 29.5972 82.8811 29.812C82.5947 30.0189 82.4117 30.3371 82.3321 30.7668H85.2799C85.2561 30.3769 85.1129 30.0666 84.8503 29.8359C84.5877 29.6052 84.2615 29.4898 83.8717 29.4898Z" fill="white"/>
<path d="M90.9958 34.3113V25.9572H94.0868C94.7551 25.9572 95.3081 26.0686 95.7457 26.2914C96.1833 26.5141 96.5095 26.8205 96.7243 27.2103C96.9391 27.6002 97.0465 28.0378 97.0465 28.5231C97.0465 28.9846 96.9431 29.4102 96.7362 29.8001C96.5294 30.182 96.2072 30.4923 95.7696 30.731C95.332 30.9617 94.771 31.0771 94.0868 31.0771H92.5234V34.3113H90.9958ZM92.5234 29.8359H93.9913C94.5244 29.8359 94.9063 29.7205 95.137 29.4898C95.3757 29.2511 95.4951 28.9289 95.4951 28.5231C95.4951 28.1094 95.3757 27.7871 95.137 27.5564C94.9063 27.3177 94.5244 27.1984 93.9913 27.1984H92.5234V29.8359Z" fill="white"/>
<path d="M98.2092 34.3113V25.7185H99.7368V34.3113H98.2092Z" fill="white"/>
<path d="M103.339 34.4545C102.829 34.4545 102.412 34.3749 102.085 34.2158C101.759 34.0487 101.517 33.8299 101.357 33.5594C101.198 33.2889 101.119 32.9906 101.119 32.6643C101.119 32.1154 101.334 31.6698 101.763 31.3277C102.193 30.9856 102.837 30.8145 103.697 30.8145H105.2V30.6713C105.2 30.2655 105.085 29.9672 104.854 29.7762C104.623 29.5853 104.337 29.4898 103.995 29.4898C103.685 29.4898 103.414 29.5654 103.183 29.7165C102.953 29.8598 102.809 30.0746 102.754 30.361H101.262C101.302 29.9314 101.445 29.5574 101.692 29.2392C101.946 28.9209 102.272 28.6782 102.67 28.5112C103.068 28.3361 103.514 28.2486 104.007 28.2486C104.85 28.2486 105.515 28.4594 106 28.8811C106.485 29.3028 106.728 29.8995 106.728 30.6713V34.3113H105.427L105.284 33.3565C105.109 33.6748 104.862 33.9373 104.544 34.1442C104.234 34.3511 103.832 34.4545 103.339 34.4545ZM103.685 33.2611C104.122 33.2611 104.46 33.1179 104.699 32.8314C104.946 32.545 105.101 32.1909 105.164 31.7693H103.864C103.458 31.7693 103.167 31.8448 102.992 31.996C102.817 32.1392 102.73 32.3182 102.73 32.5331C102.73 32.7638 102.817 32.9428 102.992 33.0701C103.167 33.1974 103.398 33.2611 103.685 33.2611Z" fill="white"/>
<path d="M108.727 36.9369L110.1 33.9175H109.742L107.439 28.3918H109.097L110.756 32.5569L112.487 28.3918H114.11L110.351 36.9369H108.727Z" fill="white"/>
<path d="M20.3712 14.9182L30.3347 25.3842L33.0664 22.4939L20.9894 15.116C20.7882 14.9924 20.5725 14.9239 20.3712 14.9182ZM19.5373 15.405C19.4475 15.5742 19.3936 15.7739 19.3936 15.9983V36.3369C19.3936 36.5004 19.4259 36.6468 19.4798 36.778L29.6734 26.0687L19.5373 15.405ZM33.9003 22.9959L30.9817 26.0687L33.9003 29.1263L37.4659 26.9662C37.9727 26.6563 38.0446 26.2627 38.041 26.0535C38.0356 25.7074 37.8289 25.3842 37.4803 25.1864C37.1765 25.0134 34.9211 23.6234 33.9003 22.9959ZM30.3347 26.7533L20.285 37.2953C20.4521 37.2858 20.6336 37.2477 20.8025 37.1431C21.1961 36.9016 29.1558 32.0319 29.1558 32.0319L33.0808 29.6436L30.3347 26.7533Z" fill="#FCFCFC"/>
</svg>
