<svg width="181" height="68" viewBox="0 0 181 68" fill="none" xmlns="http://www.w3.org/2000/svg">
<path d="M0 12.3636C0 5.53539 5.52521 0 12.3409 0H168.659C175.475 0 181 5.53539 181 12.3636V55.6364C181 62.4646 175.475 68 168.659 68H12.3409C5.52521 68 0 62.4646 0 55.6364V12.3636Z" fill="#273B4A"/>
<path d="M69.71 27V20H71.98C72.8 20 73.4733 20.1433 74 20.43C74.5333 20.7167 74.9267 21.1233 75.18 21.65C75.44 22.17 75.57 22.79 75.57 23.51C75.57 24.2233 75.44 24.8433 75.18 25.37C74.9267 25.89 74.5333 26.2933 74 26.58C73.4733 26.86 72.8 27 71.98 27H69.71ZM70.77 26.1H71.94C72.5733 26.1 73.0733 25.9967 73.44 25.79C73.8133 25.5833 74.08 25.2867 74.24 24.9C74.4067 24.5133 74.49 24.05 74.49 23.51C74.49 22.97 74.4067 22.5033 74.24 22.11C74.08 21.7167 73.8133 21.4167 73.44 21.21C73.0733 20.9967 72.5733 20.89 71.94 20.89H70.77V26.1ZM79.0213 27.12C78.5479 27.12 78.1213 27.0133 77.7413 26.8C77.3679 26.58 77.0713 26.2767 76.8513 25.89C76.6313 25.4967 76.5213 25.04 76.5213 24.52C76.5213 24 76.6313 23.5467 76.8513 23.16C77.0779 22.7667 77.3813 22.4633 77.7613 22.25C78.1413 22.03 78.5646 21.92 79.0313 21.92C79.5046 21.92 79.9279 22.03 80.3013 22.25C80.6813 22.4633 80.9813 22.7667 81.2013 23.16C81.4279 23.5467 81.5412 24 81.5412 24.52C81.5412 25.04 81.4279 25.4967 81.2013 25.89C80.9813 26.2767 80.6813 26.58 80.3013 26.8C79.9213 27.0133 79.4946 27.12 79.0213 27.12ZM79.0213 26.21C79.2746 26.21 79.5079 26.1467 79.7213 26.02C79.9413 25.8933 80.1179 25.7067 80.2513 25.46C80.3846 25.2067 80.4513 24.8933 80.4513 24.52C80.4513 24.1467 80.3846 23.8367 80.2513 23.59C80.1246 23.3367 79.9513 23.1467 79.7313 23.02C79.5179 22.8933 79.2846 22.83 79.0313 22.83C78.7779 22.83 78.5413 22.8933 78.3213 23.02C78.1079 23.1467 77.9346 23.3367 77.8013 23.59C77.6679 23.8367 77.6013 24.1467 77.6013 24.52C77.6013 24.8933 77.6679 25.2067 77.8013 25.46C77.9346 25.7067 78.1079 25.8933 78.3213 26.02C78.5346 26.1467 78.7679 26.21 79.0213 26.21ZM83.492 27L82.032 22.04H83.092L84.052 25.78L85.132 22.04H86.312L87.392 25.78L88.352 22.04H89.412L87.952 27H86.862L85.722 23.1L84.582 27H83.492ZM90.2852 27V22.04H91.2252L91.3052 22.91C91.4586 22.6033 91.6819 22.3633 91.9752 22.19C92.2752 22.01 92.6186 21.92 93.0052 21.92C93.6052 21.92 94.0752 22.1067 94.4152 22.48C94.7619 22.8533 94.9352 23.41 94.9352 24.15V27H93.8852V24.26C93.8852 23.3 93.4919 22.82 92.7052 22.82C92.3119 22.82 91.9852 22.96 91.7252 23.24C91.4719 23.52 91.3452 23.92 91.3452 24.44V27H90.2852ZM96.1837 27V19.8H97.2437V27H96.1837ZM100.906 27.12C100.433 27.12 100.006 27.0133 99.626 26.8C99.2527 26.58 98.956 26.2767 98.736 25.89C98.516 25.4967 98.406 25.04 98.406 24.52C98.406 24 98.516 23.5467 98.736 23.16C98.9627 22.7667 99.266 22.4633 99.646 22.25C100.026 22.03 100.449 21.92 100.916 21.92C101.389 21.92 101.813 22.03 102.186 22.25C102.566 22.4633 102.866 22.7667 103.086 23.16C103.313 23.5467 103.426 24 103.426 24.52C103.426 25.04 103.313 25.4967 103.086 25.89C102.866 26.2767 102.566 26.58 102.186 26.8C101.806 27.0133 101.379 27.12 100.906 27.12ZM100.906 26.21C101.159 26.21 101.393 26.1467 101.606 26.02C101.826 25.8933 102.003 25.7067 102.136 25.46C102.269 25.2067 102.336 24.8933 102.336 24.52C102.336 24.1467 102.269 23.8367 102.136 23.59C102.009 23.3367 101.836 23.1467 101.616 23.02C101.403 22.8933 101.169 22.83 100.916 22.83C100.663 22.83 100.426 22.8933 100.206 23.02C99.9927 23.1467 99.8193 23.3367 99.686 23.59C99.5527 23.8367 99.486 24.1467 99.486 24.52C99.486 24.8933 99.5527 25.2067 99.686 25.46C99.8193 25.7067 99.9927 25.8933 100.206 26.02C100.419 26.1467 100.653 26.21 100.906 26.21ZM106.252 27.12C105.832 27.12 105.486 27.05 105.212 26.91C104.939 26.77 104.736 26.5867 104.602 26.36C104.469 26.1267 104.402 25.8733 104.402 25.6C104.402 25.12 104.589 24.74 104.962 24.46C105.336 24.18 105.869 24.04 106.562 24.04H107.862V23.95C107.862 23.5633 107.756 23.2733 107.542 23.08C107.336 22.8867 107.066 22.79 106.732 22.79C106.439 22.79 106.182 22.8633 105.962 23.01C105.749 23.15 105.619 23.36 105.572 23.64H104.512C104.546 23.28 104.666 22.9733 104.872 22.72C105.086 22.46 105.352 22.2633 105.672 22.13C105.999 21.99 106.356 21.92 106.742 21.92C107.436 21.92 107.972 22.1033 108.352 22.47C108.732 22.83 108.922 23.3233 108.922 23.95V27H108.002L107.912 26.15C107.772 26.4233 107.569 26.6533 107.302 26.84C107.036 27.0267 106.686 27.12 106.252 27.12ZM106.462 26.26C106.749 26.26 106.989 26.1933 107.182 26.06C107.382 25.92 107.536 25.7367 107.642 25.51C107.756 25.2833 107.826 25.0333 107.852 24.76H106.672C106.252 24.76 105.952 24.8333 105.772 24.98C105.599 25.1267 105.512 25.31 105.512 25.53C105.512 25.7567 105.596 25.9367 105.762 26.07C105.936 26.1967 106.169 26.26 106.462 26.26ZM112.418 27.12C111.938 27.12 111.515 27.0067 111.148 26.78C110.782 26.5533 110.495 26.2433 110.288 25.85C110.082 25.4567 109.978 25.01 109.978 24.51C109.978 24.01 110.082 23.5667 110.288 23.18C110.495 22.7867 110.782 22.48 111.148 22.26C111.522 22.0333 111.948 21.92 112.428 21.92C112.822 21.92 113.165 21.9967 113.458 22.15C113.758 22.3033 113.992 22.52 114.158 22.8V19.8H115.218V27H114.268L114.158 26.23C113.998 26.4633 113.778 26.67 113.498 26.85C113.218 27.03 112.858 27.12 112.418 27.12ZM112.608 26.2C113.062 26.2 113.432 26.0433 113.718 25.73C114.012 25.4167 114.158 25.0133 114.158 24.52C114.158 24.02 114.012 23.6167 113.718 23.31C113.432 22.9967 113.062 22.84 112.608 22.84C112.155 22.84 111.782 22.9967 111.488 23.31C111.195 23.6167 111.048 24.02 111.048 24.52C111.048 24.8467 111.115 25.1367 111.248 25.39C111.382 25.6433 111.565 25.8433 111.798 25.99C112.038 26.13 112.308 26.2 112.608 26.2ZM121.394 27.12C120.921 27.12 120.494 27.0133 120.114 26.8C119.741 26.58 119.444 26.2767 119.224 25.89C119.004 25.4967 118.894 25.04 118.894 24.52C118.894 24 119.004 23.5467 119.224 23.16C119.451 22.7667 119.754 22.4633 120.134 22.25C120.514 22.03 120.938 21.92 121.404 21.92C121.878 21.92 122.301 22.03 122.674 22.25C123.054 22.4633 123.354 22.7667 123.574 23.16C123.801 23.5467 123.914 24 123.914 24.52C123.914 25.04 123.801 25.4967 123.574 25.89C123.354 26.2767 123.054 26.58 122.674 26.8C122.294 27.0133 121.868 27.12 121.394 27.12ZM121.394 26.21C121.648 26.21 121.881 26.1467 122.094 26.02C122.314 25.8933 122.491 25.7067 122.624 25.46C122.758 25.2067 122.824 24.8933 122.824 24.52C122.824 24.1467 122.758 23.8367 122.624 23.59C122.498 23.3367 122.324 23.1467 122.104 23.02C121.891 22.8933 121.658 22.83 121.404 22.83C121.151 22.83 120.914 22.8933 120.694 23.02C120.481 23.1467 120.308 23.3367 120.174 23.59C120.041 23.8367 119.974 24.1467 119.974 24.52C119.974 24.8933 120.041 25.2067 120.174 25.46C120.308 25.7067 120.481 25.8933 120.694 26.02C120.908 26.1467 121.141 26.21 121.394 26.21ZM125.061 27V22.04H126.001L126.081 22.91C126.234 22.6033 126.457 22.3633 126.751 22.19C127.051 22.01 127.394 21.92 127.781 21.92C128.381 21.92 128.851 22.1067 129.191 22.48C129.537 22.8533 129.711 23.41 129.711 24.15V27H128.661V24.26C128.661 23.3 128.267 22.82 127.481 22.82C127.087 22.82 126.761 22.96 126.501 23.24C126.247 23.52 126.121 23.92 126.121 24.44V27H125.061ZM135.559 27C135.072 27 134.685 26.8833 134.399 26.65C134.112 26.41 133.969 25.9867 133.969 25.38V22.93H133.119V22.04H133.969L134.099 20.78H135.029V22.04H136.429V22.93H135.029V25.38C135.029 25.6533 135.085 25.8433 135.199 25.95C135.319 26.05 135.522 26.1 135.809 26.1H136.379V27H135.559ZM137.522 27V19.8H138.582V22.84C138.748 22.5533 138.978 22.33 139.272 22.17C139.572 22.0033 139.902 21.92 140.262 21.92C140.855 21.92 141.322 22.1067 141.662 22.48C142.002 22.8533 142.172 23.41 142.172 24.15V27H141.122V24.26C141.122 23.3 140.738 22.82 139.972 22.82C139.572 22.82 139.238 22.96 138.972 23.24C138.712 23.52 138.582 23.92 138.582 24.44V27H137.522ZM145.74 27.12C145.253 27.12 144.82 27.0133 144.44 26.8C144.067 26.58 143.773 26.2767 143.56 25.89C143.347 25.5033 143.24 25.0533 143.24 24.54C143.24 24.02 143.343 23.5633 143.55 23.17C143.763 22.7767 144.057 22.47 144.43 22.25C144.81 22.03 145.25 21.92 145.75 21.92C146.237 21.92 146.66 22.03 147.02 22.25C147.38 22.4633 147.66 22.75 147.86 23.11C148.06 23.47 148.16 23.8667 148.16 24.3C148.16 24.3667 148.157 24.44 148.15 24.52C148.15 24.5933 148.147 24.6767 148.14 24.77H144.28C144.313 25.25 144.47 25.6167 144.75 25.87C145.037 26.1167 145.367 26.24 145.74 26.24C146.04 26.24 146.29 26.1733 146.49 26.04C146.697 25.9 146.85 25.7133 146.95 25.48H148.01C147.877 25.9467 147.61 26.3367 147.21 26.65C146.817 26.9633 146.327 27.12 145.74 27.12ZM145.74 22.79C145.387 22.79 145.073 22.8967 144.8 23.11C144.527 23.3167 144.36 23.63 144.3 24.05H147.1C147.08 23.6633 146.943 23.3567 146.69 23.13C146.437 22.9033 146.12 22.79 145.74 22.79Z" fill="#D9D9D9"/>
<path d="M69.368 46L73.464 34.8H75.768L79.864 46H77.688L76.792 43.408H72.424L71.512 46H69.368ZM72.984 41.808H76.232L74.6 37.152L72.984 41.808ZM81.2588 49.52V38.064H83.0828L83.3068 39.2C83.5628 38.848 83.8988 38.5387 84.3148 38.272C84.7414 38.0053 85.2908 37.872 85.9628 37.872C86.7094 37.872 87.3761 38.0533 87.9628 38.416C88.5494 38.7787 89.0134 39.2747 89.3548 39.904C89.6961 40.5333 89.8668 41.248 89.8668 42.048C89.8668 42.848 89.6961 43.5627 89.3548 44.192C89.0134 44.8107 88.5494 45.3013 87.9628 45.664C87.3761 46.016 86.7094 46.192 85.9628 46.192C85.3654 46.192 84.8428 46.08 84.3948 45.856C83.9468 45.632 83.5841 45.3173 83.3068 44.912V49.52H81.2588ZM85.5308 44.4C86.1814 44.4 86.7201 44.1813 87.1468 43.744C87.5734 43.3067 87.7868 42.7413 87.7868 42.048C87.7868 41.3547 87.5734 40.784 87.1468 40.336C86.7201 39.888 86.1814 39.664 85.5308 39.664C84.8694 39.664 84.3254 39.888 83.8988 40.336C83.4828 40.7733 83.2748 41.3387 83.2748 42.032C83.2748 42.7253 83.4828 43.296 83.8988 43.744C84.3254 44.1813 84.8694 44.4 85.5308 44.4ZM91.6963 49.52V38.064H93.5203L93.7443 39.2C94.0003 38.848 94.3363 38.5387 94.7523 38.272C95.1789 38.0053 95.7283 37.872 96.4003 37.872C97.1469 37.872 97.8136 38.0533 98.4003 38.416C98.9869 38.7787 99.4509 39.2747 99.7923 39.904C100.134 40.5333 100.304 41.248 100.304 42.048C100.304 42.848 100.134 43.5627 99.7923 44.192C99.4509 44.8107 98.9869 45.3013 98.4003 45.664C97.8136 46.016 97.1469 46.192 96.4003 46.192C95.8029 46.192 95.2803 46.08 94.8323 45.856C94.3843 45.632 94.0216 45.3173 93.7443 44.912V49.52H91.6963ZM95.9683 44.4C96.6189 44.4 97.1576 44.1813 97.5843 43.744C98.0109 43.3067 98.2243 42.7413 98.2243 42.048C98.2243 41.3547 98.0109 40.784 97.5843 40.336C97.1576 39.888 96.6189 39.664 95.9683 39.664C95.3069 39.664 94.7629 39.888 94.3363 40.336C93.9203 40.7733 93.7123 41.3387 93.7123 42.032C93.7123 42.7253 93.9203 43.296 94.3363 43.744C94.7629 44.1813 95.3069 44.4 95.9683 44.4ZM109.818 46.192C108.997 46.192 108.272 46.0533 107.642 45.776C107.013 45.488 106.517 45.0827 106.154 44.56C105.792 44.0267 105.605 43.3813 105.594 42.624H107.754C107.776 43.1467 107.962 43.5893 108.314 43.952C108.677 44.304 109.173 44.48 109.802 44.48C110.346 44.48 110.778 44.352 111.098 44.096C111.418 43.8293 111.578 43.4773 111.578 43.04C111.578 42.5813 111.434 42.224 111.146 41.968C110.869 41.712 110.496 41.504 110.026 41.344C109.557 41.184 109.056 41.0133 108.522 40.832C107.658 40.5333 106.997 40.1493 106.538 39.68C106.09 39.2107 105.866 38.5867 105.866 37.808C105.856 37.1467 106.01 36.5813 106.33 36.112C106.661 35.632 107.109 35.264 107.674 35.008C108.24 34.7413 108.89 34.608 109.626 34.608C110.373 34.608 111.029 34.7413 111.594 35.008C112.17 35.2747 112.618 35.648 112.938 36.128C113.269 36.608 113.445 37.1787 113.466 37.84H111.274C111.264 37.4453 111.109 37.0987 110.81 36.8C110.522 36.4907 110.117 36.336 109.594 36.336C109.146 36.3253 108.768 36.4373 108.458 36.672C108.16 36.896 108.01 37.2267 108.01 37.664C108.01 38.0373 108.128 38.336 108.362 38.56C108.597 38.7733 108.917 38.9547 109.322 39.104C109.728 39.2533 110.192 39.4133 110.714 39.584C111.269 39.776 111.776 40 112.234 40.256C112.693 40.512 113.061 40.8533 113.338 41.28C113.616 41.696 113.754 42.2347 113.754 42.896C113.754 43.4827 113.605 44.0267 113.306 44.528C113.008 45.0293 112.565 45.4347 111.978 45.744C111.392 46.0427 110.672 46.192 109.818 46.192ZM119.029 46C118.197 46 117.53 45.7973 117.029 45.392C116.528 44.9867 116.277 44.2667 116.277 43.232V39.776H114.917V38.064H116.277L116.517 35.936H118.325V38.064H120.469V39.776H118.325V43.248C118.325 43.632 118.405 43.8987 118.565 44.048C118.736 44.1867 119.024 44.256 119.429 44.256H120.421V46H119.029ZM125.832 46.192C125.064 46.192 124.371 46.016 123.752 45.664C123.144 45.312 122.659 44.8267 122.296 44.208C121.944 43.5787 121.768 42.8533 121.768 42.032C121.768 41.2107 121.95 40.4907 122.312 39.872C122.675 39.2427 123.16 38.752 123.768 38.4C124.387 38.048 125.08 37.872 125.848 37.872C126.606 37.872 127.288 38.048 127.896 38.4C128.515 38.752 129 39.2427 129.352 39.872C129.715 40.4907 129.896 41.2107 129.896 42.032C129.896 42.8533 129.715 43.5787 129.352 44.208C129 44.8267 128.515 45.312 127.896 45.664C127.278 46.016 126.59 46.192 125.832 46.192ZM125.832 44.416C126.366 44.416 126.83 44.2187 127.224 43.824C127.619 43.4187 127.816 42.8213 127.816 42.032C127.816 41.2427 127.619 40.6507 127.224 40.256C126.83 39.8507 126.371 39.648 125.848 39.648C125.304 39.648 124.835 39.8507 124.44 40.256C124.056 40.6507 123.864 41.2427 123.864 42.032C123.864 42.8213 124.056 43.4187 124.44 43.824C124.835 44.2187 125.299 44.416 125.832 44.416ZM131.728 46V38.064H133.552L133.744 39.552C134.032 39.04 134.421 38.6347 134.911 38.336C135.413 38.0267 136 37.872 136.672 37.872V40.032H136.096C135.648 40.032 135.248 40.1013 134.896 40.24C134.544 40.3787 134.266 40.6187 134.064 40.96C133.872 41.3013 133.776 41.776 133.776 42.384V46H131.728ZM141.787 46.192C140.987 46.192 140.277 46.0213 139.659 45.68C139.04 45.3387 138.555 44.8587 138.203 44.24C137.851 43.6213 137.675 42.9067 137.675 42.096C137.675 41.2747 137.845 40.544 138.187 39.904C138.539 39.264 139.019 38.768 139.627 38.416C140.245 38.0533 140.971 37.872 141.803 37.872C142.581 37.872 143.269 38.0427 143.867 38.384C144.464 38.7253 144.928 39.1947 145.259 39.792C145.6 40.3787 145.771 41.0347 145.771 41.76C145.771 41.8773 145.765 42 145.755 42.128C145.755 42.256 145.749 42.3893 145.739 42.528H139.707C139.749 43.1467 139.963 43.632 140.347 43.984C140.741 44.336 141.216 44.512 141.771 44.512C142.187 44.512 142.533 44.4213 142.811 44.24C143.099 44.048 143.312 43.8027 143.451 43.504H145.531C145.381 44.0053 145.131 44.464 144.779 44.88C144.437 45.2853 144.011 45.6053 143.499 45.84C142.997 46.0747 142.427 46.192 141.787 46.192ZM141.803 39.536C141.301 39.536 140.859 39.68 140.475 39.968C140.091 40.2453 139.845 40.672 139.739 41.248H143.691C143.659 40.7253 143.467 40.3093 143.115 40C142.763 39.6907 142.325 39.536 141.803 39.536Z" fill="white"/>
<path d="M51.3467 19C49.6471 19.1005 47.696 20.064 46.5359 21.291C45.4879 22.407 44.661 24.0644 44.9986 25.6679C46.8455 25.7174 48.6994 24.7289 49.8093 23.4795C50.8456 22.311 51.6312 20.68 51.3467 19ZM51.4475 25.665C48.7809 25.665 47.666 27.332 45.8191 27.332C43.919 27.332 42.1821 25.7705 39.8826 25.7705C36.7547 25.772 32 28.7204 32 35.6669C32 41.9863 37.6274 48.9998 40.8039 48.9998C42.7334 49.0193 43.2012 47.7652 45.8191 47.7517C48.4399 47.7322 49.0054 49.0163 50.9379 48.9998C53.1136 48.9833 54.8127 46.5503 56.0538 44.6229C56.9441 43.2429 57.3102 42.5383 58 40.9784C52.8807 39.6584 51.8621 31.2574 58 29.5204C56.8414 27.5089 53.4595 25.665 51.4475 25.665Z" fill="#FCFCFC"/>
</svg>
