<svg width="687" height="558" viewBox="0 0 687 558" fill="none" xmlns="http://www.w3.org/2000/svg">
<g filter="url(#filter0_d_1702_16472)">
<rect x="60" y="60" width="567" height="438" rx="50" fill="white"/>
</g>
<path d="M113 151H543.277C559.693 151 573 164.35 573 180.818V378.182C573 394.65 559.693 408 543.277 408H142.723C126.307 408 113 394.65 113 378.182V151Z" fill="#273B4A"/>
<path d="M167.687 238H162.986V232.649C159.682 232.241 157.093 231.035 155.219 229.031C153.346 227.026 152.273 224.801 152 222.354L157.723 220.775C157.859 222.371 158.37 223.781 159.256 225.005C160.142 226.194 161.385 226.975 162.986 227.349V217.972L162.066 217.768C159.307 217.156 157.144 216.052 155.577 214.455C154.044 212.858 153.277 210.837 153.277 208.391C153.277 205.877 154.18 203.685 155.986 201.817C157.825 199.914 160.159 198.776 162.986 198.402V193H167.687V198.453C170.447 198.895 172.576 199.931 174.075 201.562C175.608 203.159 176.578 204.959 176.987 206.964L171.469 208.696C171.06 206.284 169.799 204.67 167.687 203.855V212.977L168.147 213.079C171.111 213.725 173.376 214.914 174.943 216.647C176.544 218.379 177.345 220.418 177.345 222.762C177.345 225.174 176.493 227.315 174.79 229.183C173.087 231.052 170.719 232.19 167.687 232.598V238ZM159.256 208.034C159.256 208.985 159.563 209.835 160.176 210.582C160.823 211.296 161.76 211.771 162.986 212.009V203.651C161.794 203.957 160.874 204.518 160.227 205.333C159.58 206.114 159.256 207.015 159.256 208.034ZM171.418 223.068C171.418 221.029 170.174 219.67 167.687 218.991V227.349C168.914 227.111 169.833 226.601 170.447 225.82C171.094 225.005 171.418 224.087 171.418 223.068Z" fill="white"/>
<path d="M182.449 230.916L184.136 225.922C185.737 226.941 187.712 227.451 190.063 227.451C193.47 227.451 196.11 226.516 197.983 224.648C199.857 222.779 200.879 220.248 201.049 217.054C200.402 218.176 199.363 219.093 197.932 219.806C196.535 220.52 194.883 220.877 192.976 220.877C189.842 220.877 187.15 219.874 184.902 217.87C182.654 215.831 181.529 213.13 181.529 209.767C181.529 206.403 182.722 203.651 185.106 201.511C187.491 199.336 190.455 198.249 193.998 198.249C197.711 198.249 200.811 199.574 203.298 202.224C205.818 204.874 207.079 208.696 207.079 213.691C207.079 219.772 205.631 224.478 202.735 227.807C199.874 231.137 195.667 232.802 190.114 232.802C186.912 232.802 184.357 232.173 182.449 230.916ZM200.232 209.563C200.232 207.796 199.601 206.335 198.341 205.18C197.081 204.025 195.599 203.447 193.895 203.447C192.158 203.447 190.659 204.025 189.399 205.18C188.172 206.301 187.559 207.762 187.559 209.563C187.559 211.431 188.172 212.926 189.399 214.048C190.625 215.169 192.124 215.729 193.895 215.729C195.633 215.729 197.115 215.169 198.341 214.048C199.601 212.892 200.232 211.398 200.232 209.563Z" fill="white"/>
<path d="M220.421 217.054L217.61 212.519L226.757 204.365H211.683V199.014H234.677V204.11L225.684 211.958C228.341 212.026 230.658 212.96 232.633 214.761C234.609 216.562 235.597 218.974 235.597 221.998C235.597 224.988 234.473 227.536 232.225 229.642C229.976 231.749 226.961 232.802 223.18 232.802C219.501 232.802 216.52 231.8 214.238 229.795C211.989 227.757 210.763 225.276 210.559 222.354L216.537 221.131C216.605 223.034 217.253 224.58 218.479 225.769C219.739 226.958 221.289 227.553 223.129 227.553C225.071 227.553 226.604 227.009 227.728 225.922C228.852 224.835 229.414 223.51 229.414 221.947C229.414 220.18 228.818 218.838 227.626 217.921C226.467 216.969 225.105 216.494 223.538 216.494C222.209 216.494 221.17 216.681 220.421 217.054Z" fill="white"/>
<path d="M239.01 222.915L244.784 221.437C244.92 223.238 245.601 224.716 246.828 225.871C248.054 227.026 249.604 227.604 251.478 227.604C253.249 227.604 254.731 227.06 255.923 225.973C257.15 224.852 257.763 223.391 257.763 221.59C257.763 219.653 257.15 218.159 255.923 217.105C254.697 216.018 253.181 215.475 251.375 215.475C249.059 215.475 247.219 216.239 245.857 217.768L240.083 215.678L244.171 199.014H262.311V204.365H248.31L246.266 212.723C247.73 211.194 249.842 210.429 252.602 210.429C255.974 210.429 258.7 211.414 260.778 213.385C262.89 215.356 263.946 218.04 263.946 221.437C263.946 224.631 262.805 227.332 260.522 229.54C258.24 231.749 255.225 232.853 251.478 232.853C248.003 232.853 245.107 231.884 242.791 229.948C240.474 227.977 239.214 225.633 239.01 222.915Z" fill="white"/>
<path d="M269.618 231.171C268.835 230.356 268.443 229.37 268.443 228.215C268.443 227.06 268.835 226.075 269.618 225.259C270.436 224.444 271.424 224.036 272.582 224.036C273.74 224.036 274.728 224.444 275.546 225.259C276.363 226.075 276.772 227.06 276.772 228.215C276.772 229.37 276.363 230.356 275.546 231.171C274.728 231.952 273.74 232.343 272.582 232.343C271.424 232.343 270.436 231.952 269.618 231.171Z" fill="white"/>
<path d="M303.58 199.014V204.365C302.762 205.044 301.962 205.758 301.178 206.505C300.429 207.253 299.39 208.493 298.061 210.225C296.733 211.924 295.574 213.725 294.587 215.627C293.599 217.496 292.645 219.908 291.725 222.864C290.839 225.786 290.26 228.844 289.988 232.037H283.651C283.924 228.606 284.554 225.31 285.542 222.151C286.53 218.957 287.637 216.341 288.864 214.302C290.09 212.23 291.282 210.412 292.44 208.849C293.633 207.287 294.638 206.148 295.455 205.435L296.631 204.365H278.848V199.014H303.58Z" fill="white"/>
<path d="M330.029 199.88L328.292 204.874C326.657 203.991 324.766 203.549 322.62 203.549C319.486 203.549 316.88 204.518 314.802 206.454C312.758 208.357 311.6 210.905 311.327 214.099C313.03 211.482 315.841 210.174 319.758 210.174C323.097 210.174 325.805 211.194 327.883 213.232C329.961 215.271 331 217.972 331 221.335C331 224.699 329.791 227.451 327.372 229.591C324.953 231.732 321.973 232.802 318.43 232.802C314.342 232.802 311.106 231.341 308.721 228.419C306.37 225.497 305.195 221.845 305.195 217.462C305.195 211.584 306.847 206.913 310.152 203.447C313.456 199.982 317.731 198.249 322.977 198.249C325.975 198.249 328.326 198.793 330.029 199.88ZM311.991 221.437C311.991 223.272 312.621 224.767 313.882 225.922C315.176 227.043 316.692 227.604 318.43 227.604C320.235 227.604 321.751 227.043 322.977 225.922C324.238 224.801 324.868 223.306 324.868 221.437C324.868 219.569 324.238 218.074 322.977 216.952C321.751 215.831 320.235 215.271 318.43 215.271C316.624 215.271 315.091 215.831 313.831 216.952C312.604 218.074 311.991 219.569 311.991 221.437Z" fill="white"/>
<path d="M150 317.189C150 320.686 152.09 323 155.632 323C158.996 323 161.06 320.352 161.06 317.164V304.386H158.563V317.344C158.563 319.452 157.441 320.66 155.607 320.66C153.797 320.66 152.497 319.581 152.497 317.164V315.441L150 316.007V317.189Z" fill="#A9BAC7"/>
<path d="M173.221 321.123C173.221 321.637 173.272 322.332 173.323 322.614H175.616C175.565 322.177 175.489 321.303 175.489 320.326V310.248H173.093V317.704C173.093 319.581 172.125 320.866 170.188 320.866C168.175 320.866 167.41 319.375 167.41 317.678V310.248H165.015V318.038C165.015 320.84 166.748 323 169.602 323C171.029 323 172.558 322.409 173.221 321.123Z" fill="#A9BAC7"/>
<path d="M181.947 322.614V315.158C181.947 313.307 183.093 312.022 184.801 312.022C186.636 312.022 187.4 313.256 187.4 314.85V322.614H189.796V315.133C189.796 313.359 190.943 312.022 192.624 312.022C194.434 312.022 195.224 313.23 195.224 314.85V322.614H197.594V314.593C197.594 311.353 195.504 309.888 193.364 309.888C191.809 309.888 190.229 310.453 189.261 312.227C188.598 310.633 187.12 309.888 185.591 309.888C184.164 309.888 182.635 310.53 181.87 311.893V310.248H179.577V322.614H181.947Z" fill="#A9BAC7"/>
<path d="M206.677 320.84C204.638 320.84 202.854 319.298 202.854 316.418C202.854 313.564 204.638 312.022 206.677 312.022C208.716 312.022 210.5 313.564 210.5 316.418C210.5 319.298 208.716 320.84 206.677 320.84ZM206.677 309.862C203.007 309.862 200.408 312.664 200.408 316.418C200.408 320.198 203.007 323 206.677 323C210.347 323 212.946 320.198 212.946 316.418C212.946 312.664 210.347 309.862 206.677 309.862Z" fill="#A9BAC7"/>
<path d="M226.995 310.248H223.682L218.381 315.724V304H216.011V322.614H218.381V318.886L220.088 317.164L224.089 322.614H227.097L221.77 315.467L226.995 310.248Z" fill="#A9BAC7"/>
<path d="M230.308 315.158C230.41 313.564 231.633 311.996 233.646 311.996C235.812 311.996 236.959 313.384 237.01 315.158H230.308ZM237.367 318.372C236.908 319.76 235.914 320.866 233.926 320.866C231.862 320.866 230.282 319.323 230.231 317.112H239.456C239.482 316.958 239.507 316.65 239.507 316.341C239.507 312.484 237.392 309.862 233.621 309.862C230.537 309.862 227.759 312.51 227.759 316.392C227.759 320.583 230.639 323 233.926 323C236.781 323 238.743 321.277 239.431 319.092L237.367 318.372Z" fill="#A9BAC7"/>
<path d="M261.704 322.614H264.405L257.219 304.386H254.339L247.152 322.614H249.828L251.74 317.524H259.742L261.704 322.614ZM255.715 307.008L258.85 315.184H252.632L255.715 307.008Z" fill="#A9BAC7"/>
<path d="M267.884 316.392C267.884 313.847 269.311 312.047 271.503 312.047C273.694 312.047 275.019 313.796 275.019 316.341C275.019 318.886 273.669 320.815 271.477 320.815C269.184 320.815 267.884 318.938 267.884 316.392ZM275.045 320.943C275.045 321.689 275.121 322.332 275.172 322.614H277.491C277.466 322.409 277.364 321.509 277.364 320.326V304H274.994V311.996C274.586 310.993 273.414 309.913 271.248 309.913C267.782 309.913 265.437 312.896 265.437 316.392C265.437 320.069 267.654 322.949 271.248 322.949C273.159 322.949 274.459 321.92 275.045 320.737V320.943Z" fill="#A9BAC7"/>
<path d="M282.993 315.158C283.095 313.564 284.318 311.996 286.332 311.996C288.498 311.996 289.645 313.384 289.696 315.158H282.993ZM290.052 318.372C289.594 319.76 288.6 320.866 286.612 320.866C284.548 320.866 282.968 319.323 282.917 317.112H292.142C292.167 316.958 292.193 316.65 292.193 316.341C292.193 312.484 290.078 309.862 286.306 309.862C283.223 309.862 280.445 312.51 280.445 316.392C280.445 320.583 283.324 323 286.612 323C289.466 323 291.428 321.277 292.117 319.092L290.052 318.372Z" fill="#A9BAC7"/>
<path d="M298.462 306.34H296.27V308.345C296.27 309.425 295.71 310.248 294.384 310.248H293.722V312.433H296.066V319.221C296.066 321.457 297.392 322.743 299.481 322.743C300.297 322.743 300.908 322.589 301.112 322.512V320.455C300.908 320.506 300.475 320.558 300.169 320.558C298.921 320.558 298.462 319.992 298.462 318.861V312.433H301.112V310.248H298.462V306.34Z" fill="#A9BAC7"/>
<path d="M309.435 320.84C307.396 320.84 305.612 319.298 305.612 316.418C305.612 313.564 307.396 312.022 309.435 312.022C311.474 312.022 313.258 313.564 313.258 316.418C313.258 319.298 311.474 320.84 309.435 320.84ZM309.435 309.862C305.765 309.862 303.166 312.664 303.166 316.418C303.166 320.198 305.765 323 309.435 323C313.105 323 315.704 320.198 315.704 316.418C315.704 312.664 313.105 309.862 309.435 309.862Z" fill="#A9BAC7"/>
<path d="M321.164 322.614V304H318.769V322.614H321.164Z" fill="#A9BAC7"/>
<path d="M324.475 319.298C324.475 321.252 326.081 323 328.578 323C330.77 323 331.993 321.817 332.528 320.943C332.528 321.843 332.604 322.306 332.655 322.614H335C334.949 322.306 334.847 321.663 334.847 320.583V314.387C334.847 311.97 333.42 309.862 329.75 309.862C327.1 309.862 324.985 311.507 324.73 313.873L327.023 314.413C327.176 312.973 328.119 311.919 329.801 311.919C331.662 311.919 332.452 312.922 332.452 314.13C332.452 314.567 332.248 314.953 331.509 315.055L328.196 315.544C326.081 315.853 324.475 317.087 324.475 319.298ZM328.909 320.969C327.686 320.969 326.922 320.095 326.922 319.169C326.922 318.064 327.686 317.472 328.705 317.318L332.452 316.752V317.318C332.452 320.018 330.872 320.969 328.909 320.969Z" fill="#A9BAC7"/>
<path d="M150 354.137H155.418V356.717H157.037V354.137H158.928V352.529H157.037V345.265H154.737L150 352.14V354.137ZM155.418 352.529H151.533L155.418 346.926V352.529Z" fill="white"/>
<path d="M167.248 345.265H159.189V346.856H165.408C165.408 346.856 161.353 350.054 160.859 356.717H162.58C163.108 350.655 166.226 347.775 167.248 346.926V345.265Z" fill="white"/>
<path d="M167.687 353.607C167.84 355.409 169.425 357 171.776 357C174.229 357 175.831 355.25 175.831 353.094C175.831 350.726 174.246 349.295 172.083 349.295C171.214 349.295 170.328 349.577 169.834 350.143L170.651 346.856H175.371V345.265H169.544L168.113 350.956C168.675 351.168 169.169 351.398 169.748 351.627C170.225 351.115 170.975 350.797 171.759 350.797C173.037 350.797 174.144 351.592 174.144 353.165C174.144 354.579 173.088 355.48 171.776 355.48C170.396 355.48 169.391 354.526 169.288 353.112L167.687 353.607Z" fill="white"/>
<path d="M185.37 345.636C184.858 345.265 183.989 345 182.984 345C179.764 345 177.294 347.421 177.294 351.68C177.294 355.462 179.491 356.982 181.604 356.982C183.768 356.982 185.693 355.533 185.693 353.077C185.693 350.585 184.092 349.171 181.911 349.171C180.446 349.171 179.44 349.895 178.997 350.655C179.134 348.305 180.582 346.555 182.882 346.555C183.717 346.555 184.449 346.803 184.858 347.05L185.37 345.636ZM179.236 353.077C179.236 351.539 180.343 350.655 181.621 350.655C182.899 350.655 184.007 351.539 184.007 353.077C184.007 354.596 182.916 355.48 181.621 355.48C180.412 355.48 179.236 354.579 179.236 353.077Z" fill="white"/>
<path d="M192.97 349.383C192.953 349.206 192.936 349.029 192.936 348.87C192.936 347.563 193.617 346.52 195.065 346.52C196.463 346.52 197.144 347.492 197.144 348.535C197.144 349.418 196.667 350.231 195.628 350.92L193.788 352.158C191.913 353.412 191.198 354.844 191.164 356.717H198.899V355.109H193.225C193.379 354.402 193.941 353.925 194.571 353.501L196.752 352.052C198.013 351.221 198.831 350.019 198.831 348.517C198.831 346.608 197.468 345 195.099 345C192.68 345 191.283 346.75 191.283 348.711C191.283 348.853 191.283 349.012 191.3 349.171L192.97 349.383Z" fill="white"/>
<path d="M201.988 349.383C201.971 349.206 201.954 349.029 201.954 348.87C201.954 347.563 202.635 346.52 204.083 346.52C205.481 346.52 206.162 347.492 206.162 348.535C206.162 349.418 205.685 350.231 204.646 350.92L202.806 352.158C200.931 353.412 200.216 354.844 200.182 356.717H207.917V355.109H202.243C202.397 354.402 202.959 353.925 203.589 353.501L205.77 352.052C207.031 351.221 207.849 350.019 207.849 348.517C207.849 346.608 206.486 345 204.118 345C201.698 345 200.301 346.75 200.301 348.711C200.301 348.853 200.301 349.012 200.318 349.171L201.988 349.383Z" fill="white"/>
<path d="M213.506 356.717V345.265H212.041C211.786 346.502 210.729 347.386 209.196 347.421V348.641H211.871V356.717H213.506Z" fill="white"/>
<path d="M218.61 351.398C218.9 351.292 219.24 351.221 219.581 351.221C220.672 351.221 221.83 351.857 221.83 353.359C221.83 354.508 221.012 355.48 219.496 355.48C218.167 355.48 217.111 354.526 217.043 353.006L215.407 353.395C215.509 355.268 216.957 357 219.513 357C222.086 357 223.517 355.25 223.517 353.324C223.517 350.973 221.728 349.842 220.109 349.842L223.261 346.82V345.265H215.765V346.856H221.046L217.792 349.966L218.61 351.398Z" fill="white"/>
<path d="M230.958 350.991C230.958 349.242 231.265 348.004 231.929 347.28C232.355 346.82 232.9 346.538 233.684 346.538C234.468 346.538 235.013 346.82 235.439 347.28C236.103 348.004 236.41 349.242 236.41 350.991C236.41 352.741 236.103 353.978 235.439 354.703C235.013 355.162 234.468 355.445 233.684 355.445C232.9 355.445 232.355 355.162 231.929 354.703C231.265 353.978 230.958 352.741 230.958 350.991ZM229.305 350.991C229.305 352.564 229.561 354.013 230.293 355.144C231.009 356.258 232.117 356.982 233.684 356.982C235.251 356.982 236.359 356.258 237.075 355.144C237.807 354.013 238.063 352.564 238.063 350.991C238.063 349.418 237.807 347.969 237.075 346.838C236.359 345.725 235.251 345 233.684 345C232.117 345 231.009 345.725 230.293 346.838C229.561 347.969 229.305 349.418 229.305 350.991Z" fill="white"/>
<path d="M243.572 356.717V345.265H242.107C241.852 346.502 240.795 347.386 239.262 347.421V348.641H241.937V356.717H243.572Z" fill="white"/>
<path d="M245.813 356.311C246.359 356.7 247.517 356.982 248.369 356.982C252.083 356.982 253.889 354.473 253.889 350.267C253.889 346.608 251.76 345 249.596 345C247.432 345 245.524 346.591 245.524 348.959C245.524 351.486 247.432 352.829 249.34 352.829C250.84 352.829 251.811 352.122 252.203 351.362C252.135 353.607 251.044 355.427 248.369 355.427C247.654 355.427 246.836 355.18 246.359 354.879L245.813 356.311ZM251.981 348.923C251.981 350.443 250.823 351.345 249.596 351.345C248.335 351.345 247.211 350.479 247.211 348.923C247.211 347.421 248.369 346.52 249.596 346.52C250.806 346.52 251.981 347.439 251.981 348.923Z" fill="white"/>
<path d="M257.145 349.383C257.128 349.206 257.111 349.029 257.111 348.87C257.111 347.563 257.792 346.52 259.24 346.52C260.637 346.52 261.319 347.492 261.319 348.535C261.319 349.418 260.842 350.231 259.802 350.92L257.962 352.158C256.088 353.412 255.373 354.844 255.339 356.717H263.074V355.109H257.4C257.553 354.402 258.116 353.925 258.746 353.501L260.927 352.052C262.188 351.221 263.006 350.019 263.006 348.517C263.006 346.608 261.643 345 259.274 345C256.855 345 255.458 346.75 255.458 348.711C255.458 348.853 255.458 349.012 255.475 349.171L257.145 349.383Z" fill="white"/>
<path d="M268.991 356.311C269.536 356.7 270.695 356.982 271.547 356.982C275.261 356.982 277.067 354.473 277.067 350.267C277.067 346.608 274.937 345 272.773 345C270.61 345 268.701 346.591 268.701 348.959C268.701 351.486 270.61 352.829 272.518 352.829C274.017 352.829 274.988 352.122 275.38 351.362C275.312 353.607 274.222 355.427 271.547 355.427C270.831 355.427 270.013 355.18 269.536 354.879L268.991 356.311ZM275.159 348.923C275.159 350.443 274 351.345 272.773 351.345C271.513 351.345 270.388 350.479 270.388 348.923C270.388 347.421 271.547 346.52 272.773 346.52C273.983 346.52 275.159 347.439 275.159 348.923Z" fill="white"/>
<path d="M280.341 350.991C280.341 349.242 280.648 348.004 281.312 347.28C281.738 346.82 282.283 346.538 283.067 346.538C283.851 346.538 284.396 346.82 284.822 347.28C285.487 348.004 285.793 349.242 285.793 350.991C285.793 352.741 285.487 353.978 284.822 354.703C284.396 355.162 283.851 355.445 283.067 355.445C282.283 355.445 281.738 355.162 281.312 354.703C280.648 353.978 280.341 352.741 280.341 350.991ZM278.688 350.991C278.688 352.564 278.944 354.013 279.677 355.144C280.392 356.258 281.5 356.982 283.067 356.982C284.635 356.982 285.742 356.258 286.458 355.144C287.19 354.013 287.446 352.564 287.446 350.991C287.446 349.418 287.19 347.969 286.458 346.838C285.742 345.725 284.635 345 283.067 345C281.5 345 280.392 345.725 279.677 346.838C278.944 347.969 278.688 349.418 278.688 350.991Z" fill="white"/>
<path d="M292.956 356.717V345.265H291.49C291.235 346.502 290.178 347.386 288.645 347.421V348.641H291.32V356.717H292.956Z" fill="white"/>
<path d="M298.996 350.143C297.82 350.125 296.952 349.383 296.952 348.27C296.952 347.244 297.752 346.432 298.996 346.432C300.24 346.432 301.041 347.244 301.041 348.27C301.041 349.383 300.172 350.125 298.996 350.143ZM298.996 355.48C297.514 355.48 296.679 354.632 296.679 353.554C296.679 352.458 297.531 351.592 298.996 351.592C300.461 351.592 301.313 352.458 301.313 353.554C301.313 354.632 300.478 355.48 298.996 355.48ZM298.996 356.982C301.535 356.982 303 355.533 303 353.695C303 352.299 302.08 351.256 300.904 350.867C301.927 350.479 302.71 349.418 302.71 348.181C302.71 346.308 301.109 345 298.996 345C296.883 345 295.282 346.308 295.282 348.181C295.282 349.454 296.083 350.479 297.088 350.867C295.912 351.274 294.992 352.299 294.992 353.695C294.992 355.533 296.457 356.982 298.996 356.982Z" fill="white"/>
<path d="M335.365 354.543L331.755 344.383H330L334.505 356.739H336.141L340.747 344.383H339.009L335.365 354.543Z" fill="#A9BAC7"/>
<path d="M340.841 354.491C340.841 355.815 341.904 357 343.557 357C345.008 357 345.818 356.198 346.172 355.606C346.172 356.216 346.223 356.529 346.256 356.739H347.809C347.775 356.529 347.707 356.094 347.707 355.362V351.162C347.707 349.524 346.763 348.095 344.333 348.095C342.578 348.095 341.178 349.21 341.009 350.814L342.528 351.18C342.629 350.204 343.253 349.489 344.367 349.489C345.598 349.489 346.121 350.169 346.121 350.988C346.121 351.284 345.986 351.546 345.497 351.615L343.304 351.946C341.904 352.155 340.841 352.992 340.841 354.491ZM343.776 355.623C342.966 355.623 342.46 355.031 342.46 354.403C342.46 353.654 342.966 353.253 343.641 353.149L346.121 352.765V353.149C346.121 354.979 345.075 355.623 343.776 355.623Z" fill="#A9BAC7"/>
<path d="M351.764 356.739V344.122H350.178V356.739H351.764Z" fill="#A9BAC7"/>
<path d="M356.031 356.739V348.357H354.462V356.739H356.031ZM354.107 345.185C354.107 345.83 354.614 346.353 355.238 346.353C355.879 346.353 356.385 345.83 356.385 345.185C356.385 344.523 355.879 344 355.238 344C354.614 344 354.107 344.523 354.107 345.185Z" fill="#A9BAC7"/>
<path d="M359.674 352.521C359.674 350.796 360.619 349.576 362.07 349.576C363.521 349.576 364.398 350.761 364.398 352.487C364.398 354.212 363.504 355.519 362.053 355.519C360.534 355.519 359.674 354.247 359.674 352.521ZM364.415 355.606C364.415 356.111 364.465 356.547 364.499 356.739H366.035C366.018 356.599 365.95 355.989 365.95 355.188V344.122H364.381V349.542C364.111 348.862 363.335 348.13 361.901 348.13C359.606 348.13 358.054 350.151 358.054 352.521C358.054 355.013 359.522 356.965 361.901 356.965C363.166 356.965 364.027 356.268 364.415 355.466V355.606Z" fill="#A9BAC7"/>
<path d="M374.991 345.708H373.541V347.067C373.541 347.799 373.169 348.357 372.292 348.357H371.853V349.838H373.406V354.438C373.406 355.954 374.283 356.826 375.666 356.826C376.206 356.826 376.611 356.721 376.746 356.669V355.275C376.611 355.31 376.324 355.345 376.122 355.345C375.295 355.345 374.991 354.961 374.991 354.194V349.838H376.746V348.357H374.991V345.708Z" fill="#A9BAC7"/>
<path d="M380.432 356.739V348.357H378.863V356.739H380.432ZM378.509 345.185C378.509 345.83 379.015 346.353 379.639 346.353C380.28 346.353 380.786 345.83 380.786 345.185C380.786 344.523 380.28 344 379.639 344C379.015 344 378.509 344.523 378.509 345.185Z" fill="#A9BAC7"/>
<path d="M384.716 356.739V344.122H383.13V356.739H384.716Z" fill="#A9BAC7"/>
<path d="M389 356.739V344.122H387.414V356.739H389Z" fill="#A9BAC7"/>
<path d="M399.651 351.381C399.651 349.74 399.958 348.58 400.622 347.901C401.047 347.47 401.592 347.204 402.375 347.204C403.158 347.204 403.703 347.47 404.128 347.901C404.792 348.58 405.099 349.74 405.099 351.381C405.099 353.022 404.792 354.182 404.128 354.862C403.703 355.293 403.158 355.558 402.375 355.558C401.592 355.558 401.047 355.293 400.622 354.862C399.958 354.182 399.651 353.022 399.651 351.381ZM398 351.381C398 352.856 398.255 354.215 398.987 355.276C399.702 356.32 400.809 357 402.375 357C403.941 357 405.048 356.32 405.763 355.276C406.495 354.215 406.75 352.856 406.75 351.381C406.75 349.906 406.495 348.547 405.763 347.486C405.048 346.442 403.941 345.762 402.375 345.762C400.809 345.762 399.702 346.442 398.987 347.486C398.255 348.547 398 349.906 398 351.381Z" fill="white"/>
<path d="M410.006 349.873C409.989 349.707 409.972 349.541 409.972 349.392C409.972 348.166 410.653 347.188 412.1 347.188C413.496 347.188 414.177 348.099 414.177 349.077C414.177 349.906 413.7 350.669 412.662 351.315L410.823 352.475C408.951 353.652 408.236 354.994 408.201 356.751H415.93V355.243H410.261C410.415 354.58 410.976 354.133 411.606 353.735L413.785 352.376C415.045 351.597 415.862 350.47 415.862 349.061C415.862 347.271 414.5 345.762 412.134 345.762C409.717 345.762 408.321 347.403 408.321 349.243C408.321 349.376 408.321 349.525 408.338 349.674L410.006 349.873Z" fill="white"/>
<path d="M424.004 345H422.455L416.616 356.751H418.165L424.004 345Z" fill="white"/>
<path d="M426.065 349.873C426.048 349.707 426.031 349.541 426.031 349.392C426.031 348.166 426.712 347.188 428.159 347.188C429.555 347.188 430.236 348.099 430.236 349.077C430.236 349.906 429.759 350.669 428.721 351.315L426.882 352.475C425.01 353.652 424.295 354.994 424.261 356.751H431.989V355.243H426.321C426.474 354.58 427.036 354.133 427.666 353.735L429.845 352.376C431.104 351.597 431.921 350.47 431.921 349.061C431.921 347.271 430.56 345.762 428.193 345.762C425.776 345.762 424.38 347.403 424.38 349.243C424.38 349.376 424.38 349.525 424.397 349.674L426.065 349.873Z" fill="white"/>
<path d="M435.076 349.873C435.059 349.707 435.042 349.541 435.042 349.392C435.042 348.166 435.723 347.188 437.17 347.188C438.566 347.188 439.247 348.099 439.247 349.077C439.247 349.906 438.77 350.669 437.731 351.315L435.893 352.475C434.02 353.652 433.305 354.994 433.271 356.751H441V355.243H435.331C435.484 354.58 436.046 354.133 436.676 353.735L438.855 352.376C440.115 351.597 440.932 350.47 440.932 349.061C440.932 347.271 439.57 345.762 437.204 345.762C434.786 345.762 433.39 347.403 433.39 349.243C433.39 349.376 433.39 349.525 433.408 349.674L435.076 349.873Z" fill="white"/>
<path opacity="0.6" d="M514.5 371C525.822 371 535 361.822 535 350.5C535 339.178 525.822 330 514.5 330C503.178 330 494 339.178 494 350.5C494 361.822 503.178 371 514.5 371Z" fill="white"/>
<path d="M488.5 371C499.822 371 509 361.822 509 350.5C509 339.178 499.822 330 488.5 330C477.178 330 468 339.178 468 350.5C468 361.822 477.178 371 488.5 371Z" fill="white"/>
<path fill-rule="evenodd" clip-rule="evenodd" d="M512.077 203.909C512.848 204.065 528.093 203.976 529.161 203.962C534.527 203.893 536.838 197.507 533.325 193.786C531.481 191.827 529.522 192.027 526.414 192.027C523.577 192.027 520.675 191.966 517.848 192.027C515.31 192.08 513.43 193.536 512.587 195.509C511.77 197.432 512.024 201.472 512.088 203.909" fill="white"/>
<path fill-rule="evenodd" clip-rule="evenodd" d="M514.491 208.573C514.418 211.87 514.013 215.102 515.92 217C517.775 218.845 520.956 219.169 523.059 217C523.746 216.303 524.211 215.42 524.398 214.461C524.585 213.502 524.485 212.509 524.11 211.606C523.736 210.703 523.103 209.931 522.292 209.384C521.48 208.837 520.525 208.541 519.546 208.532C518.253 208.484 515.699 208.414 514.491 208.565V208.573ZM512.012 206.014C511.984 208.504 512.012 211.002 512.012 213.492C511.996 214.483 512.182 215.468 512.559 216.385C512.936 217.303 513.496 218.134 514.206 218.829C515.08 219.693 516.153 220.33 517.332 220.683C518.511 221.037 519.759 221.095 520.966 220.854C522.173 220.613 523.302 220.08 524.253 219.301C525.205 218.522 525.95 217.522 526.423 216.388C526.896 215.254 527.083 214.021 526.966 212.799C526.85 211.576 526.434 210.401 525.755 209.376C525.076 208.352 524.155 207.51 523.074 206.924C521.992 206.338 520.782 206.026 519.551 206.017C517.062 205.98 514.502 206.014 512.012 206.022V206.014Z" fill="#D6AA1B"/>
<defs>
<filter id="filter0_d_1702_16472" x="0" y="0" width="687" height="558" filterUnits="userSpaceOnUse" color-interpolation-filters="sRGB">
<feFlood flood-opacity="0" result="BackgroundImageFix"/>
<feColorMatrix in="SourceAlpha" type="matrix" values="0 0 0 0 0 0 0 0 0 0 0 0 0 0 0 0 0 0 127 0" result="hardAlpha"/>
<feOffset/>
<feGaussianBlur stdDeviation="30"/>
<feComposite in2="hardAlpha" operator="out"/>
<feColorMatrix type="matrix" values="0 0 0 0 0 0 0 0 0 0 0 0 0 0 0 0 0 0 0.05 0"/>
<feBlend mode="normal" in2="BackgroundImageFix" result="effect1_dropShadow_1702_16472"/>
<feBlend mode="normal" in="SourceGraphic" in2="effect1_dropShadow_1702_16472" result="shape"/>
</filter>
</defs>
</svg>
