<svg width="23" height="23" viewBox="0 0 23 23" fill="none" xmlns="http://www.w3.org/2000/svg">
<path d="M22.9757 9.52494L22.0302 17.8219C21.7266 20.4871 19.4747 22.497 16.7921 22.497H6.70786C4.02532 22.497 1.77346 20.4871 1.46974 17.8219L0.524248 9.52494C0.402464 8.45651 0.743301 7.38361 1.45933 6.58134C2.17536 5.77902 3.20284 5.3189 4.27816 5.3189C4.76345 5.3189 5.15683 5.71229 5.15683 6.19758C5.15683 6.68287 4.76345 7.07625 4.27816 7.07625C3.6945 7.07625 3.15903 7.31604 2.77044 7.75151C2.38181 8.18694 2.20418 8.74608 2.27026 9.32596L3.21575 17.6229C3.4182 19.3997 4.9195 20.7396 6.70782 20.7396H16.7921C18.5804 20.7396 20.0816 19.3997 20.2841 17.6229L21.2296 9.32596C21.2957 8.74608 21.118 8.18689 20.7294 7.75147C20.3408 7.31604 19.8054 7.07625 19.2217 7.07625C18.7364 7.07625 18.3431 6.68287 18.3431 6.19758C18.3431 5.71229 18.7364 5.3189 19.2217 5.3189C20.2971 5.3189 21.3245 5.77902 22.0405 6.58129C22.7566 7.38357 23.0975 8.45647 22.9757 9.52494ZM7.66759 13.3588C8.15288 13.3588 8.54626 12.9654 8.54626 12.4801V4.96743C8.54626 3.19902 9.985 1.76028 11.7534 1.76028C13.5218 1.76028 14.9606 3.19902 14.9606 4.96743V5.3189H11.1823C10.697 5.3189 10.3036 5.71229 10.3036 6.19758C10.3036 6.68287 10.697 7.07625 11.1823 7.07625H15.8392C16.3245 7.07625 16.7179 6.68287 16.7179 6.19758V4.96743C16.7179 2.22997 14.4909 0.00292969 11.7534 0.00292969C9.01596 0.00292969 6.78892 2.22997 6.78892 4.96743V12.4801C6.78892 12.9654 7.1823 13.3588 7.66759 13.3588Z" fill="white"/>
</svg>
