<svg width="63" height="63" viewBox="0 0 63 63" fill="none" xmlns="http://www.w3.org/2000/svg">
<path d="M0 0H54.5C58.9183 0 62.5 3.58172 62.5 8V54.5C62.5 58.9183 58.9183 62.5 54.5 62.5H8C3.58172 62.5 0 58.9183 0 54.5V0Z" fill="#FDF9ED"/>
<path d="M43.1278 19.1927L33.897 16.6167C32.1416 16.1268 30.2862 16.1278 28.5315 16.6196L19.3552 19.1913C14.6309 20.6369 15.5587 27.4441 20.5052 27.5586H41.9824C46.9332 27.4426 47.8547 20.6323 43.1278 19.1927ZM41.9824 25.2149H20.5052C18.2796 25.1634 17.8615 22.0981 19.9877 21.4481L29.1639 18.8764C30.5058 18.5003 31.9246 18.4995 33.2669 18.8741L42.4978 21.4502C44.6263 22.099 44.2087 25.1632 41.9824 25.2149ZM33.5875 41.5625C32.9403 41.5625 32.4157 41.0379 32.4157 40.3906V30.9571C32.4775 29.4022 34.6981 29.4034 34.7594 30.9571V40.3906C34.7594 41.0379 34.2348 41.5625 33.5875 41.5625ZM28.8415 41.5625C28.1942 41.5625 27.6696 41.0379 27.6696 40.3906V30.9571C27.7315 29.4022 29.952 29.4034 30.0133 30.9571V40.3906C30.0133 41.0379 29.4887 41.5625 28.8415 41.5625ZM19.4665 41.6211C18.8192 41.6211 18.2946 41.0965 18.2946 40.4492V30.9571C18.3565 29.4022 20.577 29.4034 20.6383 30.9571V40.4492C20.6383 41.0965 20.1137 41.6211 19.4665 41.6211ZM24.2126 41.5625C23.5653 41.5625 23.0407 41.0379 23.0407 40.3906V30.9571C23.1026 29.4022 25.3231 29.4034 25.3844 30.9571V40.3906C25.3844 41.0379 24.8598 41.5625 24.2126 41.5625ZM36.2828 45.0781C36.2828 45.7254 35.7582 46.25 35.111 46.25H17.4157C15.8609 46.1881 15.862 43.9676 17.4157 43.9063H35.111C35.7582 43.9063 36.2828 44.4309 36.2828 45.0781ZM46.2438 40.3658C46.2438 41.3856 45.83 42.3461 45.0785 43.0702C44.5475 43.5819 43.898 43.9276 43.1969 44.0802V45.0781C43.135 46.633 40.9145 46.6318 40.8531 45.0781V43.9955C40.0717 43.8457 39.1554 43.5964 38.2523 43.2375C37.6508 42.9983 37.3571 42.317 37.5962 41.7156C37.8353 41.1141 38.5167 40.8206 39.118 41.0594C40.4467 41.5876 41.8189 41.8252 42.3688 41.8252C43.1988 41.8252 43.9 41.1569 43.9 40.3658C43.9 39.5612 43.0754 38.9065 42.0619 38.9065C40.8497 38.9065 39.7904 38.5432 38.9988 37.8557C36.5984 35.8127 37.8867 31.7233 40.9117 31.3383V30.1953C40.9736 28.6404 43.1941 28.6416 43.2554 30.1953V31.4775C43.8426 31.5936 44.5285 31.7832 45.3208 32.0914C46.7475 32.7125 45.9415 34.7818 44.4713 34.2757C43.0314 33.7157 42.0992 33.6439 41.4479 33.6439C40.6746 33.6439 40.0914 34.2773 40.0914 35.1171C40.0914 35.9818 40.8833 36.5627 42.0619 36.5627C44.3678 36.5628 46.2438 38.2688 46.2438 40.3658ZM31.2438 20.586C30.4348 20.586 29.7789 21.2418 29.7789 22.0508C29.8561 23.9939 32.6318 23.9934 32.7086 22.0508C32.7086 21.2418 32.0528 20.586 31.2438 20.586Z" fill="#D6AA1B"/>
</svg>
