<svg width="657" height="509" viewBox="0 0 657 509" fill="none" xmlns="http://www.w3.org/2000/svg">
<g filter="url(#filter0_d_1702_16917)">
<rect x="230" y="60" width="281" height="71" rx="35.5" fill="#273B4A"/>
<circle cx="295" cy="95.5" r="23" fill="white"/>
<path d="M295 85.5C292.38 85.5 290.25 87.63 290.25 90.25C290.25 92.82 292.26 94.9 294.88 94.99C294.96 94.98 295.04 94.98 295.1 94.99C295.12 94.99 295.13 94.99 295.15 94.99C295.16 94.99 295.16 94.99 295.17 94.99C297.73 94.9 299.74 92.82 299.75 90.25C299.75 87.63 297.62 85.5 295 85.5Z" fill="#273B4A"/>
<path d="M300.08 97.65C297.29 95.79 292.74 95.79 289.93 97.65C288.66 98.5 287.96 99.65 287.96 100.88C287.96 102.11 288.66 103.25 289.92 104.09C291.32 105.03 293.16 105.5 295 105.5C296.84 105.5 298.68 105.03 300.08 104.09C301.34 103.24 302.04 102.1 302.04 100.86C302.03 99.63 301.34 98.49 300.08 97.65Z" fill="#273B4A"/>
<path d="M332.518 102.216C331.294 102.216 330.31 101.874 329.566 101.19C328.834 100.494 328.468 99.51 328.468 98.238H330.772C330.784 98.826 330.922 99.294 331.186 99.642C331.45 99.99 331.876 100.164 332.464 100.164C333.016 100.164 333.418 100.002 333.67 99.678C333.922 99.342 334.048 98.904 334.048 98.364V89.4H336.352V98.364C336.352 99.6 336.004 100.554 335.308 101.226C334.624 101.886 333.694 102.216 332.518 102.216ZM347.354 93.072V102H345.32L345.14 100.488C344.864 101.016 344.462 101.436 343.934 101.748C343.418 102.06 342.806 102.216 342.098 102.216C340.994 102.216 340.136 101.868 339.524 101.172C338.912 100.476 338.606 99.456 338.606 98.112V93.072H340.91V97.896C340.91 98.664 341.066 99.252 341.378 99.66C341.69 100.068 342.176 100.272 342.836 100.272C343.484 100.272 344.012 100.044 344.42 99.588C344.84 99.132 345.05 98.496 345.05 97.68V93.072H347.354ZM349.701 102V93.072H351.735L351.933 94.278C352.221 93.846 352.599 93.504 353.067 93.252C353.547 92.988 354.099 92.856 354.723 92.856C356.103 92.856 357.081 93.39 357.657 94.458C357.981 93.966 358.413 93.576 358.953 93.288C359.505 93 360.105 92.856 360.753 92.856C361.917 92.856 362.811 93.204 363.435 93.9C364.059 94.596 364.371 95.616 364.371 96.96V102H362.067V97.176C362.067 96.408 361.917 95.82 361.617 95.412C361.329 95.004 360.879 94.8 360.267 94.8C359.643 94.8 359.139 95.028 358.755 95.484C358.383 95.94 358.197 96.576 358.197 97.392V102H355.893V97.176C355.893 96.408 355.743 95.82 355.443 95.412C355.143 95.004 354.681 94.8 354.057 94.8C353.445 94.8 352.947 95.028 352.563 95.484C352.191 95.94 352.005 96.576 352.005 97.392V102H349.701ZM370.843 102.216C369.979 102.216 369.199 102.018 368.503 101.622C367.819 101.226 367.273 100.68 366.865 99.984C366.469 99.276 366.271 98.46 366.271 97.536C366.271 96.612 366.475 95.802 366.883 95.106C367.291 94.398 367.837 93.846 368.521 93.45C369.217 93.054 369.997 92.856 370.861 92.856C371.713 92.856 372.481 93.054 373.165 93.45C373.861 93.846 374.407 94.398 374.803 95.106C375.211 95.802 375.415 96.612 375.415 97.536C375.415 98.46 375.211 99.276 374.803 99.984C374.407 100.68 373.861 101.226 373.165 101.622C372.469 102.018 371.695 102.216 370.843 102.216ZM370.843 100.218C371.443 100.218 371.965 99.996 372.409 99.552C372.853 99.096 373.075 98.424 373.075 97.536C373.075 96.648 372.853 95.982 372.409 95.538C371.965 95.082 371.449 94.854 370.861 94.854C370.249 94.854 369.721 95.082 369.277 95.538C368.845 95.982 368.629 96.648 368.629 97.536C368.629 98.424 368.845 99.096 369.277 99.552C369.721 99.996 370.243 100.218 370.843 100.218ZM377.475 102V89.04H379.779V96.69L382.947 93.072H385.683L382.029 97.14L386.277 102H383.397L379.779 97.518V102H377.475ZM391.305 102.216C390.405 102.216 389.607 102.024 388.911 101.64C388.215 101.256 387.669 100.716 387.273 100.02C386.877 99.324 386.679 98.52 386.679 97.608C386.679 96.684 386.871 95.862 387.255 95.142C387.651 94.422 388.191 93.864 388.875 93.468C389.571 93.06 390.387 92.856 391.323 92.856C392.199 92.856 392.973 93.048 393.645 93.432C394.317 93.816 394.839 94.344 395.211 95.016C395.595 95.676 395.787 96.414 395.787 97.23C395.787 97.362 395.781 97.5 395.769 97.644C395.769 97.788 395.763 97.938 395.751 98.094H388.965C389.013 98.79 389.253 99.336 389.685 99.732C390.129 100.128 390.663 100.326 391.287 100.326C391.755 100.326 392.145 100.224 392.457 100.02C392.781 99.804 393.021 99.528 393.177 99.192H395.517C395.349 99.756 395.067 100.272 394.671 100.74C394.287 101.196 393.807 101.556 393.231 101.82C392.667 102.084 392.025 102.216 391.305 102.216ZM391.323 94.728C390.759 94.728 390.261 94.89 389.829 95.214C389.397 95.526 389.121 96.006 389.001 96.654H393.447C393.411 96.066 393.195 95.598 392.799 95.25C392.403 94.902 391.911 94.728 391.323 94.728ZM401.258 102L405.866 89.4H408.458L413.066 102H410.618L409.61 99.084H404.696L403.67 102H401.258ZM405.326 97.284H408.98L407.144 92.046L405.326 97.284ZM418.317 102.216C417.477 102.216 416.727 102.012 416.067 101.604C415.407 101.196 414.885 100.638 414.501 99.93C414.117 99.222 413.925 98.418 413.925 97.518C413.925 96.618 414.117 95.82 414.501 95.124C414.885 94.416 415.407 93.864 416.067 93.468C416.727 93.06 417.477 92.856 418.317 92.856C418.989 92.856 419.577 92.982 420.081 93.234C420.585 93.486 420.993 93.84 421.305 94.296V89.04H423.609V102H421.557L421.305 100.722C421.017 101.118 420.633 101.466 420.153 101.766C419.685 102.066 419.073 102.216 418.317 102.216ZM418.803 100.2C419.547 100.2 420.153 99.954 420.621 99.462C421.101 98.958 421.341 98.316 421.341 97.536C421.341 96.756 421.101 96.12 420.621 95.628C420.153 95.124 419.547 94.872 418.803 94.872C418.071 94.872 417.465 95.118 416.985 95.61C416.505 96.102 416.265 96.738 416.265 97.518C416.265 98.298 416.505 98.94 416.985 99.444C417.465 99.948 418.071 100.2 418.803 100.2ZM430.293 102.216C429.393 102.216 428.595 102.024 427.899 101.64C427.203 101.256 426.657 100.716 426.261 100.02C425.865 99.324 425.667 98.52 425.667 97.608C425.667 96.684 425.859 95.862 426.243 95.142C426.639 94.422 427.179 93.864 427.863 93.468C428.559 93.06 429.375 92.856 430.311 92.856C431.187 92.856 431.961 93.048 432.633 93.432C433.305 93.816 433.827 94.344 434.199 95.016C434.583 95.676 434.775 96.414 434.775 97.23C434.775 97.362 434.769 97.5 434.757 97.644C434.757 97.788 434.751 97.938 434.739 98.094H427.953C428.001 98.79 428.241 99.336 428.673 99.732C429.117 100.128 429.651 100.326 430.275 100.326C430.743 100.326 431.133 100.224 431.445 100.02C431.769 99.804 432.009 99.528 432.165 99.192H434.505C434.337 99.756 434.055 100.272 433.659 100.74C433.275 101.196 432.795 101.556 432.219 101.82C431.655 102.084 431.013 102.216 430.293 102.216ZM430.311 94.728C429.747 94.728 429.249 94.89 428.817 95.214C428.385 95.526 428.109 96.006 427.989 96.654H432.435C432.399 96.066 432.183 95.598 431.787 95.25C431.391 94.902 430.899 94.728 430.311 94.728ZM440.533 102C439.597 102 438.847 101.772 438.283 101.316C437.719 100.86 437.437 100.05 437.437 98.886V94.998H435.907V93.072H437.437L437.707 90.678H439.741V93.072H442.153V94.998H439.741V98.904C439.741 99.336 439.831 99.636 440.011 99.804C440.203 99.96 440.527 100.038 440.983 100.038H442.099V102H440.533ZM448.186 102.216C447.322 102.216 446.542 102.018 445.846 101.622C445.162 101.226 444.616 100.68 444.208 99.984C443.812 99.276 443.614 98.46 443.614 97.536C443.614 96.612 443.818 95.802 444.226 95.106C444.634 94.398 445.18 93.846 445.864 93.45C446.56 93.054 447.34 92.856 448.204 92.856C449.056 92.856 449.824 93.054 450.508 93.45C451.204 93.846 451.75 94.398 452.146 95.106C452.554 95.802 452.758 96.612 452.758 97.536C452.758 98.46 452.554 99.276 452.146 99.984C451.75 100.68 451.204 101.226 450.508 101.622C449.812 102.018 449.038 102.216 448.186 102.216ZM448.186 100.218C448.786 100.218 449.308 99.996 449.752 99.552C450.196 99.096 450.418 98.424 450.418 97.536C450.418 96.648 450.196 95.982 449.752 95.538C449.308 95.082 448.792 94.854 448.204 94.854C447.592 94.854 447.064 95.082 446.62 95.538C446.188 95.982 445.972 96.648 445.972 97.536C445.972 98.424 446.188 99.096 446.62 99.552C447.064 99.996 447.586 100.218 448.186 100.218ZM454.818 102V89.04H457.122V102H454.818ZM462.555 102.216C461.787 102.216 461.157 102.096 460.665 101.856C460.173 101.604 459.807 101.274 459.567 100.866C459.327 100.458 459.207 100.008 459.207 99.516C459.207 98.688 459.531 98.016 460.179 97.5C460.827 96.984 461.799 96.726 463.095 96.726H465.363V96.51C465.363 95.898 465.189 95.448 464.841 95.16C464.493 94.872 464.061 94.728 463.545 94.728C463.077 94.728 462.669 94.842 462.321 95.07C461.973 95.286 461.757 95.61 461.673 96.042H459.423C459.483 95.394 459.699 94.83 460.071 94.35C460.455 93.87 460.947 93.504 461.547 93.252C462.147 92.988 462.819 92.856 463.563 92.856C464.835 92.856 465.837 93.174 466.569 93.81C467.301 94.446 467.667 95.346 467.667 96.51V102H465.705L465.489 100.56C465.225 101.04 464.853 101.436 464.373 101.748C463.905 102.06 463.299 102.216 462.555 102.216ZM463.077 100.416C463.737 100.416 464.247 100.2 464.607 99.768C464.979 99.336 465.213 98.802 465.309 98.166H463.347C462.735 98.166 462.297 98.28 462.033 98.508C461.769 98.724 461.637 98.994 461.637 99.318C461.637 99.666 461.769 99.936 462.033 100.128C462.297 100.32 462.645 100.416 463.077 100.416Z" fill="white"/>
</g>
<g filter="url(#filter1_d_1702_16917)">
<rect x="60" y="226" width="316" height="71" rx="35.5" fill="white"/>
<circle cx="125" cy="261.5" r="23" fill="#273B4A"/>
<path d="M125 251.5C122.38 251.5 120.25 253.63 120.25 256.25C120.25 258.82 122.26 260.9 124.88 260.99C124.96 260.98 125.04 260.98 125.1 260.99C125.12 260.99 125.13 260.99 125.15 260.99C125.16 260.99 125.16 260.99 125.17 260.99C127.73 260.9 129.74 258.82 129.75 256.25C129.75 253.63 127.62 251.5 125 251.5Z" fill="white"/>
<path d="M130.08 263.65C127.29 261.79 122.74 261.79 119.93 263.65C118.66 264.5 117.96 265.65 117.96 266.88C117.96 268.11 118.66 269.25 119.92 270.09C121.32 271.03 123.16 271.5 125 271.5C126.84 271.5 128.68 271.03 130.08 270.09C131.34 269.24 132.04 268.1 132.04 266.86C132.03 265.63 131.34 264.49 130.08 263.65Z" fill="white"/>
<path d="M165.128 268.216C163.868 268.216 162.764 267.94 161.816 267.388C160.88 266.836 160.142 266.074 159.602 265.102C159.074 264.118 158.81 262.984 158.81 261.7C158.81 260.416 159.074 259.288 159.602 258.316C160.142 257.332 160.88 256.564 161.816 256.012C162.764 255.46 163.868 255.184 165.128 255.184C166.376 255.184 167.474 255.46 168.422 256.012C169.37 256.564 170.108 257.332 170.636 258.316C171.164 259.288 171.428 260.416 171.428 261.7C171.428 262.984 171.164 264.118 170.636 265.102C170.108 266.074 169.37 266.836 168.422 267.388C167.474 267.94 166.376 268.216 165.128 268.216ZM165.128 266.146C166.328 266.146 167.282 265.75 167.99 264.958C168.71 264.166 169.07 263.08 169.07 261.7C169.07 260.32 168.71 259.234 167.99 258.442C167.282 257.65 166.328 257.254 165.128 257.254C163.928 257.254 162.968 257.65 162.248 258.442C161.528 259.234 161.168 260.32 161.168 261.7C161.168 263.08 161.528 264.166 162.248 264.958C162.968 265.75 163.928 266.146 165.128 266.146ZM173.408 268V255.04H175.712V268H173.408ZM186.67 259.072V268H184.636L184.456 266.488C184.18 267.016 183.778 267.436 183.25 267.748C182.734 268.06 182.122 268.216 181.414 268.216C180.31 268.216 179.452 267.868 178.84 267.172C178.228 266.476 177.922 265.456 177.922 264.112V259.072H180.226V263.896C180.226 264.664 180.382 265.252 180.694 265.66C181.006 266.068 181.492 266.272 182.152 266.272C182.8 266.272 183.328 266.044 183.736 265.588C184.156 265.132 184.366 264.496 184.366 263.68V259.072H186.67ZM192.798 265.336C192.366 265.336 191.964 265.288 191.592 265.192L190.926 265.858C191.13 265.966 191.406 266.056 191.754 266.128C192.102 266.2 192.666 266.272 193.446 266.344C194.634 266.452 195.498 266.734 196.038 267.19C196.578 267.646 196.848 268.276 196.848 269.08C196.848 269.608 196.704 270.106 196.416 270.574C196.128 271.054 195.684 271.438 195.084 271.726C194.484 272.026 193.716 272.176 192.78 272.176C191.508 272.176 190.482 271.936 189.702 271.456C188.922 270.988 188.532 270.28 188.532 269.332C188.532 268.528 188.922 267.832 189.702 267.244C189.462 267.136 189.252 267.022 189.072 266.902C188.904 266.782 188.754 266.656 188.622 266.524V266.11L190.188 264.454C189.492 263.842 189.144 263.056 189.144 262.096C189.144 261.496 189.288 260.95 189.576 260.458C189.876 259.966 190.296 259.576 190.836 259.288C191.376 259 192.03 258.856 192.798 258.856C193.302 258.856 193.77 258.928 194.202 259.072H197.586V260.476L196.056 260.584C196.296 261.04 196.416 261.544 196.416 262.096C196.416 262.696 196.272 263.242 195.984 263.734C195.696 264.226 195.276 264.616 194.724 264.904C194.184 265.192 193.542 265.336 192.798 265.336ZM192.798 263.572C193.266 263.572 193.65 263.446 193.95 263.194C194.262 262.942 194.418 262.582 194.418 262.114C194.418 261.646 194.262 261.286 193.95 261.034C193.65 260.782 193.266 260.656 192.798 260.656C192.306 260.656 191.91 260.782 191.61 261.034C191.31 261.286 191.16 261.646 191.16 262.114C191.16 262.582 191.31 262.942 191.61 263.194C191.91 263.446 192.306 263.572 192.798 263.572ZM190.638 269.098C190.638 269.542 190.842 269.872 191.25 270.088C191.67 270.316 192.18 270.43 192.78 270.43C193.356 270.43 193.824 270.31 194.184 270.07C194.544 269.842 194.724 269.53 194.724 269.134C194.724 268.81 194.604 268.54 194.364 268.324C194.136 268.108 193.674 267.976 192.978 267.928C192.486 267.892 192.03 267.838 191.61 267.766C191.262 267.958 191.01 268.168 190.854 268.396C190.71 268.624 190.638 268.858 190.638 269.098ZM204.558 268.216C203.886 268.216 203.298 268.09 202.794 267.838C202.29 267.586 201.882 267.232 201.57 266.776L201.318 268H199.266V255.04H201.57V260.35C201.858 259.954 202.236 259.606 202.704 259.306C203.184 259.006 203.802 258.856 204.558 258.856C205.398 258.856 206.148 259.06 206.808 259.468C207.468 259.876 207.99 260.434 208.374 261.142C208.758 261.85 208.95 262.654 208.95 263.554C208.95 264.454 208.758 265.258 208.374 265.966C207.99 266.662 207.468 267.214 206.808 267.622C206.148 268.018 205.398 268.216 204.558 268.216ZM204.072 266.2C204.804 266.2 205.41 265.954 205.89 265.462C206.37 264.97 206.61 264.334 206.61 263.554C206.61 262.774 206.37 262.132 205.89 261.628C205.41 261.124 204.804 260.872 204.072 260.872C203.328 260.872 202.716 261.124 202.236 261.628C201.768 262.12 201.534 262.756 201.534 263.536C201.534 264.316 201.768 264.958 202.236 265.462C202.716 265.954 203.328 266.2 204.072 266.2ZM215.346 268.216C214.446 268.216 213.648 268.024 212.952 267.64C212.256 267.256 211.71 266.716 211.314 266.02C210.918 265.324 210.72 264.52 210.72 263.608C210.72 262.684 210.912 261.862 211.296 261.142C211.692 260.422 212.232 259.864 212.916 259.468C213.612 259.06 214.428 258.856 215.364 258.856C216.24 258.856 217.014 259.048 217.686 259.432C218.358 259.816 218.88 260.344 219.252 261.016C219.636 261.676 219.828 262.414 219.828 263.23C219.828 263.362 219.822 263.5 219.81 263.644C219.81 263.788 219.804 263.938 219.792 264.094H213.006C213.054 264.79 213.294 265.336 213.726 265.732C214.17 266.128 214.704 266.326 215.328 266.326C215.796 266.326 216.186 266.224 216.498 266.02C216.822 265.804 217.062 265.528 217.218 265.192H219.558C219.39 265.756 219.108 266.272 218.712 266.74C218.328 267.196 217.848 267.556 217.272 267.82C216.708 268.084 216.066 268.216 215.346 268.216ZM215.364 260.728C214.8 260.728 214.302 260.89 213.87 261.214C213.438 261.526 213.162 262.006 213.042 262.654H217.488C217.452 262.066 217.236 261.598 216.84 261.25C216.444 260.902 215.952 260.728 215.364 260.728ZM221.766 268V259.072H223.8L223.98 260.584C224.256 260.056 224.652 259.636 225.168 259.324C225.696 259.012 226.314 258.856 227.022 258.856C228.126 258.856 228.984 259.204 229.596 259.9C230.208 260.596 230.514 261.616 230.514 262.96V268H228.21V263.176C228.21 262.408 228.054 261.82 227.742 261.412C227.43 261.004 226.944 260.8 226.284 260.8C225.636 260.8 225.102 261.028 224.682 261.484C224.274 261.94 224.07 262.576 224.07 263.392V268H221.766ZM236.497 265.336C236.065 265.336 235.663 265.288 235.291 265.192L234.625 265.858C234.829 265.966 235.105 266.056 235.453 266.128C235.801 266.2 236.365 266.272 237.145 266.344C238.333 266.452 239.197 266.734 239.737 267.19C240.277 267.646 240.547 268.276 240.547 269.08C240.547 269.608 240.403 270.106 240.115 270.574C239.827 271.054 239.383 271.438 238.783 271.726C238.183 272.026 237.415 272.176 236.479 272.176C235.207 272.176 234.181 271.936 233.401 271.456C232.621 270.988 232.231 270.28 232.231 269.332C232.231 268.528 232.621 267.832 233.401 267.244C233.161 267.136 232.951 267.022 232.771 266.902C232.603 266.782 232.453 266.656 232.321 266.524V266.11L233.887 264.454C233.191 263.842 232.843 263.056 232.843 262.096C232.843 261.496 232.987 260.95 233.275 260.458C233.575 259.966 233.995 259.576 234.535 259.288C235.075 259 235.729 258.856 236.497 258.856C237.001 258.856 237.469 258.928 237.901 259.072H241.285V260.476L239.755 260.584C239.995 261.04 240.115 261.544 240.115 262.096C240.115 262.696 239.971 263.242 239.683 263.734C239.395 264.226 238.975 264.616 238.423 264.904C237.883 265.192 237.241 265.336 236.497 265.336ZM236.497 263.572C236.965 263.572 237.349 263.446 237.649 263.194C237.961 262.942 238.117 262.582 238.117 262.114C238.117 261.646 237.961 261.286 237.649 261.034C237.349 260.782 236.965 260.656 236.497 260.656C236.005 260.656 235.609 260.782 235.309 261.034C235.009 261.286 234.859 261.646 234.859 262.114C234.859 262.582 235.009 262.942 235.309 263.194C235.609 263.446 236.005 263.572 236.497 263.572ZM234.337 269.098C234.337 269.542 234.541 269.872 234.949 270.088C235.369 270.316 235.879 270.43 236.479 270.43C237.055 270.43 237.523 270.31 237.883 270.07C238.243 269.842 238.423 269.53 238.423 269.134C238.423 268.81 238.303 268.54 238.063 268.324C237.835 268.108 237.373 267.976 236.677 267.928C236.185 267.892 235.729 267.838 235.309 267.766C234.961 267.958 234.709 268.168 234.553 268.396C234.409 268.624 234.337 268.858 234.337 269.098ZM246.043 268.216C245.275 268.216 244.645 268.096 244.153 267.856C243.661 267.604 243.295 267.274 243.055 266.866C242.815 266.458 242.695 266.008 242.695 265.516C242.695 264.688 243.019 264.016 243.667 263.5C244.315 262.984 245.287 262.726 246.583 262.726H248.851V262.51C248.851 261.898 248.677 261.448 248.329 261.16C247.981 260.872 247.549 260.728 247.033 260.728C246.565 260.728 246.157 260.842 245.809 261.07C245.461 261.286 245.245 261.61 245.161 262.042H242.911C242.971 261.394 243.187 260.83 243.559 260.35C243.943 259.87 244.435 259.504 245.035 259.252C245.635 258.988 246.307 258.856 247.051 258.856C248.323 258.856 249.325 259.174 250.057 259.81C250.789 260.446 251.155 261.346 251.155 262.51V268H249.193L248.977 266.56C248.713 267.04 248.341 267.436 247.861 267.748C247.393 268.06 246.787 268.216 246.043 268.216ZM246.565 266.416C247.225 266.416 247.735 266.2 248.095 265.768C248.467 265.336 248.701 264.802 248.797 264.166H246.835C246.223 264.166 245.785 264.28 245.521 264.508C245.257 264.724 245.125 264.994 245.125 265.318C245.125 265.666 245.257 265.936 245.521 266.128C245.785 266.32 246.133 266.416 246.565 266.416ZM256.887 268L261.495 255.4H264.087L268.695 268H266.247L265.239 265.084H260.325L259.299 268H256.887ZM260.955 263.284H264.609L262.773 258.046L260.955 263.284ZM270.307 271.96L272.377 267.406H271.837L268.363 259.072H270.865L273.367 265.354L275.977 259.072H278.425L272.755 271.96H270.307ZM283.442 268.216C282.578 268.216 281.798 268.018 281.102 267.622C280.418 267.226 279.872 266.68 279.464 265.984C279.068 265.276 278.87 264.46 278.87 263.536C278.87 262.612 279.074 261.802 279.482 261.106C279.89 260.398 280.436 259.846 281.12 259.45C281.816 259.054 282.596 258.856 283.46 258.856C284.312 258.856 285.08 259.054 285.764 259.45C286.46 259.846 287.006 260.398 287.402 261.106C287.81 261.802 288.014 262.612 288.014 263.536C288.014 264.46 287.81 265.276 287.402 265.984C287.006 266.68 286.46 267.226 285.764 267.622C285.068 268.018 284.294 268.216 283.442 268.216ZM283.442 266.218C284.042 266.218 284.564 265.996 285.008 265.552C285.452 265.096 285.674 264.424 285.674 263.536C285.674 262.648 285.452 261.982 285.008 261.538C284.564 261.082 284.048 260.854 283.46 260.854C282.848 260.854 282.32 261.082 281.876 261.538C281.444 261.982 281.228 262.648 281.228 263.536C281.228 264.424 281.444 265.096 281.876 265.552C282.32 265.996 282.842 266.218 283.442 266.218ZM290.074 268V259.072H292.108L292.306 260.278C292.594 259.846 292.972 259.504 293.44 259.252C293.92 258.988 294.472 258.856 295.096 258.856C296.476 258.856 297.454 259.39 298.03 260.458C298.354 259.966 298.786 259.576 299.326 259.288C299.878 259 300.478 258.856 301.126 258.856C302.29 258.856 303.184 259.204 303.808 259.9C304.432 260.596 304.744 261.616 304.744 262.96V268H302.44V263.176C302.44 262.408 302.29 261.82 301.99 261.412C301.702 261.004 301.252 260.8 300.64 260.8C300.016 260.8 299.512 261.028 299.128 261.484C298.756 261.94 298.57 262.576 298.57 263.392V268H296.266V263.176C296.266 262.408 296.116 261.82 295.816 261.412C295.516 261.004 295.054 260.8 294.43 260.8C293.818 260.8 293.32 261.028 292.936 261.484C292.564 261.94 292.378 262.576 292.378 263.392V268H290.074ZM308.174 257.686C307.754 257.686 307.406 257.56 307.13 257.308C306.866 257.056 306.734 256.738 306.734 256.354C306.734 255.97 306.866 255.658 307.13 255.418C307.406 255.166 307.754 255.04 308.174 255.04C308.594 255.04 308.936 255.166 309.2 255.418C309.476 255.658 309.614 255.97 309.614 256.354C309.614 256.738 309.476 257.056 309.2 257.308C308.936 257.56 308.594 257.686 308.174 257.686ZM307.022 268V259.072H309.326V268H307.022ZM315.835 268.216C314.995 268.216 314.245 268.012 313.585 267.604C312.925 267.196 312.403 266.638 312.019 265.93C311.635 265.222 311.443 264.418 311.443 263.518C311.443 262.618 311.635 261.82 312.019 261.124C312.403 260.416 312.925 259.864 313.585 259.468C314.245 259.06 314.995 258.856 315.835 258.856C316.507 258.856 317.095 258.982 317.599 259.234C318.103 259.486 318.511 259.84 318.823 260.296V255.04H321.127V268H319.075L318.823 266.722C318.535 267.118 318.151 267.466 317.671 267.766C317.203 268.066 316.591 268.216 315.835 268.216ZM316.321 266.2C317.065 266.2 317.671 265.954 318.139 265.462C318.619 264.958 318.859 264.316 318.859 263.536C318.859 262.756 318.619 262.12 318.139 261.628C317.671 261.124 317.065 260.872 316.321 260.872C315.589 260.872 314.983 261.118 314.503 261.61C314.023 262.102 313.783 262.738 313.783 263.518C313.783 264.298 314.023 264.94 314.503 265.444C314.983 265.948 315.589 266.2 316.321 266.2ZM327.811 268.216C326.911 268.216 326.113 268.024 325.417 267.64C324.721 267.256 324.175 266.716 323.779 266.02C323.383 265.324 323.185 264.52 323.185 263.608C323.185 262.684 323.377 261.862 323.761 261.142C324.157 260.422 324.697 259.864 325.381 259.468C326.077 259.06 326.893 258.856 327.829 258.856C328.705 258.856 329.479 259.048 330.151 259.432C330.823 259.816 331.345 260.344 331.717 261.016C332.101 261.676 332.293 262.414 332.293 263.23C332.293 263.362 332.287 263.5 332.275 263.644C332.275 263.788 332.269 263.938 332.257 264.094H325.471C325.519 264.79 325.759 265.336 326.191 265.732C326.635 266.128 327.169 266.326 327.793 266.326C328.261 266.326 328.651 266.224 328.963 266.02C329.287 265.804 329.527 265.528 329.683 265.192H332.023C331.855 265.756 331.573 266.272 331.177 266.74C330.793 267.196 330.313 267.556 329.737 267.82C329.173 268.084 328.531 268.216 327.811 268.216ZM327.829 260.728C327.265 260.728 326.767 260.89 326.335 261.214C325.903 261.526 325.627 262.006 325.507 262.654H329.953C329.917 262.066 329.701 261.598 329.305 261.25C328.909 260.902 328.417 260.728 327.829 260.728Z" fill="#273B4A"/>
</g>
<g filter="url(#filter2_d_1702_16917)">
<rect x="318" y="378" width="279" height="71" rx="35.5" fill="white"/>
<circle cx="383" cy="413.5" r="23" fill="#273B4A"/>
<path d="M383 403.5C380.38 403.5 378.25 405.63 378.25 408.25C378.25 410.82 380.26 412.9 382.88 412.99C382.96 412.98 383.04 412.98 383.1 412.99C383.12 412.99 383.13 412.99 383.15 412.99C383.16 412.99 383.16 412.99 383.17 412.99C385.73 412.9 387.74 410.82 387.75 408.25C387.75 405.63 385.62 403.5 383 403.5Z" fill="white"/>
<path d="M388.08 415.65C385.29 413.79 380.74 413.79 377.93 415.65C376.66 416.5 375.96 417.65 375.96 418.88C375.96 420.11 376.66 421.25 377.92 422.09C379.32 423.03 381.16 423.5 383 423.5C384.84 423.5 386.68 423.03 388.08 422.09C389.34 421.24 390.04 420.1 390.04 418.86C390.03 417.63 389.34 416.49 388.08 415.65Z" fill="white"/>
<path d="M417.224 420V407.4H422.282C423.59 407.4 424.586 407.706 425.27 408.318C425.966 408.918 426.314 409.692 426.314 410.64C426.314 411.432 426.098 412.068 425.666 412.548C425.246 413.016 424.73 413.334 424.118 413.502C424.838 413.646 425.432 414.006 425.9 414.582C426.368 415.146 426.602 415.806 426.602 416.562C426.602 417.558 426.242 418.38 425.522 419.028C424.802 419.676 423.782 420 422.462 420H417.224ZM419.528 412.692H421.94C422.588 412.692 423.086 412.542 423.434 412.242C423.782 411.942 423.956 411.516 423.956 410.964C423.956 410.436 423.782 410.022 423.434 409.722C423.098 409.41 422.588 409.254 421.904 409.254H419.528V412.692ZM419.528 418.128H422.102C422.786 418.128 423.314 417.972 423.686 417.66C424.07 417.336 424.262 416.886 424.262 416.31C424.262 415.722 424.064 415.26 423.668 414.924C423.272 414.588 422.738 414.42 422.066 414.42H419.528V418.128ZM428.525 420V407.04H430.829V420H428.525ZM437.522 420.216C436.622 420.216 435.824 420.024 435.128 419.64C434.432 419.256 433.886 418.716 433.49 418.02C433.094 417.324 432.896 416.52 432.896 415.608C432.896 414.684 433.088 413.862 433.472 413.142C433.868 412.422 434.408 411.864 435.092 411.468C435.788 411.06 436.604 410.856 437.54 410.856C438.416 410.856 439.19 411.048 439.862 411.432C440.534 411.816 441.056 412.344 441.428 413.016C441.812 413.676 442.004 414.414 442.004 415.23C442.004 415.362 441.998 415.5 441.986 415.644C441.986 415.788 441.98 415.938 441.968 416.094H435.182C435.23 416.79 435.47 417.336 435.902 417.732C436.346 418.128 436.88 418.326 437.504 418.326C437.972 418.326 438.362 418.224 438.674 418.02C438.998 417.804 439.238 417.528 439.394 417.192H441.734C441.566 417.756 441.284 418.272 440.888 418.74C440.504 419.196 440.024 419.556 439.448 419.82C438.884 420.084 438.242 420.216 437.522 420.216ZM437.54 412.728C436.976 412.728 436.478 412.89 436.046 413.214C435.614 413.526 435.338 414.006 435.218 414.654H439.664C439.628 414.066 439.412 413.598 439.016 413.25C438.62 412.902 438.128 412.728 437.54 412.728ZM447.631 420.216C446.839 420.216 446.143 420.09 445.543 419.838C444.943 419.574 444.463 419.214 444.103 418.758C443.743 418.302 443.527 417.774 443.455 417.174H445.777C445.849 417.522 446.041 417.822 446.353 418.074C446.677 418.314 447.091 418.434 447.595 418.434C448.099 418.434 448.465 418.332 448.693 418.128C448.933 417.924 449.053 417.69 449.053 417.426C449.053 417.042 448.885 416.784 448.549 416.652C448.213 416.508 447.745 416.37 447.145 416.238C446.761 416.154 446.371 416.052 445.975 415.932C445.579 415.812 445.213 415.662 444.877 415.482C444.553 415.29 444.289 415.05 444.085 414.762C443.881 414.462 443.779 414.096 443.779 413.664C443.779 412.872 444.091 412.206 444.715 411.666C445.351 411.126 446.239 410.856 447.379 410.856C448.435 410.856 449.275 411.102 449.899 411.594C450.535 412.086 450.913 412.764 451.033 413.628H448.855C448.723 412.968 448.225 412.638 447.361 412.638C446.929 412.638 446.593 412.722 446.353 412.89C446.125 413.058 446.011 413.268 446.011 413.52C446.011 413.784 446.185 413.994 446.533 414.15C446.881 414.306 447.343 414.45 447.919 414.582C448.543 414.726 449.113 414.888 449.629 415.068C450.157 415.236 450.577 415.494 450.889 415.842C451.201 416.178 451.357 416.664 451.357 417.3C451.369 417.852 451.225 418.35 450.925 418.794C450.625 419.238 450.193 419.586 449.629 419.838C449.065 420.09 448.399 420.216 447.631 420.216ZM457.089 420.216C456.297 420.216 455.601 420.09 455.001 419.838C454.401 419.574 453.921 419.214 453.561 418.758C453.201 418.302 452.985 417.774 452.913 417.174H455.235C455.307 417.522 455.499 417.822 455.811 418.074C456.135 418.314 456.549 418.434 457.053 418.434C457.557 418.434 457.923 418.332 458.151 418.128C458.391 417.924 458.511 417.69 458.511 417.426C458.511 417.042 458.343 416.784 458.007 416.652C457.671 416.508 457.203 416.37 456.603 416.238C456.219 416.154 455.829 416.052 455.433 415.932C455.037 415.812 454.671 415.662 454.335 415.482C454.011 415.29 453.747 415.05 453.543 414.762C453.339 414.462 453.237 414.096 453.237 413.664C453.237 412.872 453.549 412.206 454.173 411.666C454.809 411.126 455.697 410.856 456.837 410.856C457.893 410.856 458.733 411.102 459.357 411.594C459.993 412.086 460.371 412.764 460.491 413.628H458.313C458.181 412.968 457.683 412.638 456.819 412.638C456.387 412.638 456.051 412.722 455.811 412.89C455.583 413.058 455.469 413.268 455.469 413.52C455.469 413.784 455.643 413.994 455.991 414.15C456.339 414.306 456.801 414.45 457.377 414.582C458.001 414.726 458.571 414.888 459.087 415.068C459.615 415.236 460.035 415.494 460.347 415.842C460.659 416.178 460.815 416.664 460.815 417.3C460.827 417.852 460.683 418.35 460.383 418.794C460.083 419.238 459.651 419.586 459.087 419.838C458.523 420.09 457.857 420.216 457.089 420.216ZM464.098 409.686C463.678 409.686 463.33 409.56 463.054 409.308C462.79 409.056 462.658 408.738 462.658 408.354C462.658 407.97 462.79 407.658 463.054 407.418C463.33 407.166 463.678 407.04 464.098 407.04C464.518 407.04 464.86 407.166 465.124 407.418C465.4 407.658 465.538 407.97 465.538 408.354C465.538 408.738 465.4 409.056 465.124 409.308C464.86 409.56 464.518 409.686 464.098 409.686ZM462.946 420V411.072H465.25V420H462.946ZM467.654 420V411.072H469.688L469.868 412.584C470.144 412.056 470.54 411.636 471.056 411.324C471.584 411.012 472.202 410.856 472.91 410.856C474.014 410.856 474.872 411.204 475.484 411.9C476.096 412.596 476.402 413.616 476.402 414.96V420H474.098V415.176C474.098 414.408 473.942 413.82 473.63 413.412C473.318 413.004 472.832 412.8 472.172 412.8C471.524 412.8 470.99 413.028 470.57 413.484C470.162 413.94 469.958 414.576 469.958 415.392V420H467.654ZM482.386 417.336C481.954 417.336 481.552 417.288 481.18 417.192L480.514 417.858C480.718 417.966 480.994 418.056 481.342 418.128C481.69 418.2 482.254 418.272 483.034 418.344C484.222 418.452 485.086 418.734 485.626 419.19C486.166 419.646 486.436 420.276 486.436 421.08C486.436 421.608 486.292 422.106 486.004 422.574C485.716 423.054 485.272 423.438 484.672 423.726C484.072 424.026 483.304 424.176 482.368 424.176C481.096 424.176 480.07 423.936 479.29 423.456C478.51 422.988 478.12 422.28 478.12 421.332C478.12 420.528 478.51 419.832 479.29 419.244C479.05 419.136 478.84 419.022 478.66 418.902C478.492 418.782 478.342 418.656 478.21 418.524V418.11L479.776 416.454C479.08 415.842 478.732 415.056 478.732 414.096C478.732 413.496 478.876 412.95 479.164 412.458C479.464 411.966 479.884 411.576 480.424 411.288C480.964 411 481.618 410.856 482.386 410.856C482.89 410.856 483.358 410.928 483.79 411.072H487.174V412.476L485.644 412.584C485.884 413.04 486.004 413.544 486.004 414.096C486.004 414.696 485.86 415.242 485.572 415.734C485.284 416.226 484.864 416.616 484.312 416.904C483.772 417.192 483.13 417.336 482.386 417.336ZM482.386 415.572C482.854 415.572 483.238 415.446 483.538 415.194C483.85 414.942 484.006 414.582 484.006 414.114C484.006 413.646 483.85 413.286 483.538 413.034C483.238 412.782 482.854 412.656 482.386 412.656C481.894 412.656 481.498 412.782 481.198 413.034C480.898 413.286 480.748 413.646 480.748 414.114C480.748 414.582 480.898 414.942 481.198 415.194C481.498 415.446 481.894 415.572 482.386 415.572ZM480.226 421.098C480.226 421.542 480.43 421.872 480.838 422.088C481.258 422.316 481.768 422.43 482.368 422.43C482.944 422.43 483.412 422.31 483.772 422.07C484.132 421.842 484.312 421.53 484.312 421.134C484.312 420.81 484.192 420.54 483.952 420.324C483.724 420.108 483.262 419.976 482.566 419.928C482.074 419.892 481.618 419.838 481.198 419.766C480.85 419.958 480.598 420.168 480.442 420.396C480.298 420.624 480.226 420.858 480.226 421.098ZM492.387 420L496.995 407.4H499.587L504.195 420H501.747L500.739 417.084H495.825L494.799 420H492.387ZM496.455 415.284H500.109L498.273 410.046L496.455 415.284ZM505.764 420V411.072H507.798L507.996 412.278C508.284 411.846 508.662 411.504 509.13 411.252C509.61 410.988 510.162 410.856 510.786 410.856C512.166 410.856 513.144 411.39 513.72 412.458C514.044 411.966 514.476 411.576 515.016 411.288C515.568 411 516.168 410.856 516.816 410.856C517.98 410.856 518.874 411.204 519.498 411.9C520.122 412.596 520.434 413.616 520.434 414.96V420H518.13V415.176C518.13 414.408 517.98 413.82 517.68 413.412C517.392 413.004 516.942 412.8 516.33 412.8C515.706 412.8 515.202 413.028 514.818 413.484C514.446 413.94 514.26 414.576 514.26 415.392V420H511.956V415.176C511.956 414.408 511.806 413.82 511.506 413.412C511.206 413.004 510.744 412.8 510.12 412.8C509.508 412.8 509.01 413.028 508.626 413.484C508.254 413.94 508.068 414.576 508.068 415.392V420H505.764ZM525.699 420.216C524.931 420.216 524.301 420.096 523.809 419.856C523.317 419.604 522.951 419.274 522.711 418.866C522.471 418.458 522.351 418.008 522.351 417.516C522.351 416.688 522.675 416.016 523.323 415.5C523.971 414.984 524.943 414.726 526.239 414.726H528.507V414.51C528.507 413.898 528.333 413.448 527.985 413.16C527.637 412.872 527.205 412.728 526.689 412.728C526.221 412.728 525.813 412.842 525.465 413.07C525.117 413.286 524.901 413.61 524.817 414.042H522.567C522.627 413.394 522.843 412.83 523.215 412.35C523.599 411.87 524.091 411.504 524.691 411.252C525.291 410.988 525.963 410.856 526.707 410.856C527.979 410.856 528.981 411.174 529.713 411.81C530.445 412.446 530.811 413.346 530.811 414.51V420H528.849L528.633 418.56C528.369 419.04 527.997 419.436 527.517 419.748C527.049 420.06 526.443 420.216 525.699 420.216ZM526.221 418.416C526.881 418.416 527.391 418.2 527.751 417.768C528.123 417.336 528.357 416.802 528.453 416.166H526.491C525.879 416.166 525.441 416.28 525.177 416.508C524.913 416.724 524.781 416.994 524.781 417.318C524.781 417.666 524.913 417.936 525.177 418.128C525.441 418.32 525.789 418.416 526.221 418.416ZM537.114 420.216C536.274 420.216 535.524 420.012 534.864 419.604C534.204 419.196 533.682 418.638 533.298 417.93C532.914 417.222 532.722 416.418 532.722 415.518C532.722 414.618 532.914 413.82 533.298 413.124C533.682 412.416 534.204 411.864 534.864 411.468C535.524 411.06 536.274 410.856 537.114 410.856C537.786 410.856 538.374 410.982 538.878 411.234C539.382 411.486 539.79 411.84 540.102 412.296V407.04H542.406V420H540.354L540.102 418.722C539.814 419.118 539.43 419.466 538.95 419.766C538.482 420.066 537.87 420.216 537.114 420.216ZM537.6 418.2C538.344 418.2 538.95 417.954 539.418 417.462C539.898 416.958 540.138 416.316 540.138 415.536C540.138 414.756 539.898 414.12 539.418 413.628C538.95 413.124 538.344 412.872 537.6 412.872C536.868 412.872 536.262 413.118 535.782 413.61C535.302 414.102 535.062 414.738 535.062 415.518C535.062 416.298 535.302 416.94 535.782 417.444C536.262 417.948 536.868 418.2 537.6 418.2ZM553.356 411.072V420H551.322L551.142 418.488C550.866 419.016 550.464 419.436 549.936 419.748C549.42 420.06 548.808 420.216 548.1 420.216C546.996 420.216 546.138 419.868 545.526 419.172C544.914 418.476 544.608 417.456 544.608 416.112V411.072H546.912V415.896C546.912 416.664 547.068 417.252 547.38 417.66C547.692 418.068 548.178 418.272 548.838 418.272C549.486 418.272 550.014 418.044 550.422 417.588C550.842 417.132 551.052 416.496 551.052 415.68V411.072H553.356Z" fill="#273B4A"/>
</g>
<defs>
<filter id="filter0_d_1702_16917" x="170" y="0" width="401" height="191" filterUnits="userSpaceOnUse" color-interpolation-filters="sRGB">
<feFlood flood-opacity="0" result="BackgroundImageFix"/>
<feColorMatrix in="SourceAlpha" type="matrix" values="0 0 0 0 0 0 0 0 0 0 0 0 0 0 0 0 0 0 127 0" result="hardAlpha"/>
<feOffset/>
<feGaussianBlur stdDeviation="30"/>
<feComposite in2="hardAlpha" operator="out"/>
<feColorMatrix type="matrix" values="0 0 0 0 0 0 0 0 0 0 0 0 0 0 0 0 0 0 0.05 0"/>
<feBlend mode="normal" in2="BackgroundImageFix" result="effect1_dropShadow_1702_16917"/>
<feBlend mode="normal" in="SourceGraphic" in2="effect1_dropShadow_1702_16917" result="shape"/>
</filter>
<filter id="filter1_d_1702_16917" x="0" y="166" width="436" height="191" filterUnits="userSpaceOnUse" color-interpolation-filters="sRGB">
<feFlood flood-opacity="0" result="BackgroundImageFix"/>
<feColorMatrix in="SourceAlpha" type="matrix" values="0 0 0 0 0 0 0 0 0 0 0 0 0 0 0 0 0 0 127 0" result="hardAlpha"/>
<feOffset/>
<feGaussianBlur stdDeviation="30"/>
<feComposite in2="hardAlpha" operator="out"/>
<feColorMatrix type="matrix" values="0 0 0 0 0 0 0 0 0 0 0 0 0 0 0 0 0 0 0.05 0"/>
<feBlend mode="normal" in2="BackgroundImageFix" result="effect1_dropShadow_1702_16917"/>
<feBlend mode="normal" in="SourceGraphic" in2="effect1_dropShadow_1702_16917" result="shape"/>
</filter>
<filter id="filter2_d_1702_16917" x="258" y="318" width="399" height="191" filterUnits="userSpaceOnUse" color-interpolation-filters="sRGB">
<feFlood flood-opacity="0" result="BackgroundImageFix"/>
<feColorMatrix in="SourceAlpha" type="matrix" values="0 0 0 0 0 0 0 0 0 0 0 0 0 0 0 0 0 0 127 0" result="hardAlpha"/>
<feOffset/>
<feGaussianBlur stdDeviation="30"/>
<feComposite in2="hardAlpha" operator="out"/>
<feColorMatrix type="matrix" values="0 0 0 0 0 0 0 0 0 0 0 0 0 0 0 0 0 0 0.05 0"/>
<feBlend mode="normal" in2="BackgroundImageFix" result="effect1_dropShadow_1702_16917"/>
<feBlend mode="normal" in="SourceGraphic" in2="effect1_dropShadow_1702_16917" result="shape"/>
</filter>
</defs>
</svg>
