<svg width="499" height="499" viewBox="0 0 499 499" fill="none" xmlns="http://www.w3.org/2000/svg">
<path d="M249.5 479.459C375.946 479.459 478.451 418.638 478.451 343.611C478.451 268.585 375.946 207.764 249.5 207.764C123.054 207.764 20.5488 268.585 20.5488 343.611C20.5488 418.638 123.054 479.459 249.5 479.459Z" fill="#F5F5F5"/>
<path d="M328.871 445.707C356.309 445.707 378.551 432.861 378.551 417.014C378.551 401.168 356.309 388.322 328.871 388.322C301.433 388.322 279.191 401.168 279.191 417.014C279.191 432.861 301.433 445.707 328.871 445.707Z" fill="#E0E0E0"/>
<path d="M96.2871 419.06L99.1114 420.687C99.8123 421.092 100.607 421.305 101.417 421.305C102.226 421.305 103.021 421.092 103.722 420.687L350.118 278.871C350.419 278.695 350.667 278.444 350.84 278.142C351.013 277.84 351.104 277.498 351.104 277.15C351.104 276.802 351.013 276.46 350.84 276.158C350.667 275.856 350.419 275.604 350.118 275.428L347.304 273.801C346.603 273.397 345.808 273.184 344.999 273.184C344.189 273.184 343.394 273.397 342.693 273.801L96.2871 415.617C95.9869 415.793 95.738 416.045 95.5651 416.347C95.3921 416.649 95.3011 416.991 95.3011 417.339C95.3011 417.687 95.3921 418.029 95.5651 418.331C95.738 418.633 95.9869 418.884 96.2871 419.06Z" fill="#E0E0E0"/>
<path d="M182.554 64.6206L178.183 67.1355V63.6725C178.183 61.6765 176.536 60.9579 174.52 62.1256L174.371 62.2154C173.443 62.7706 172.647 63.5195 172.035 64.411C171.926 61.0178 169.041 59.8701 165.578 61.8761L165.309 62.0358C161.756 64.0916 158.842 68.6824 158.842 72.2353V78.2932L154.85 80.6285C153.977 81.1409 153.237 81.8514 152.689 82.7026C152.141 83.5538 151.801 84.5219 151.696 85.5287C151.696 87.2353 153.093 87.8241 154.8 86.8361L160.169 83.7423L170.688 77.6744L182.554 70.8581C183.415 70.3324 184.141 69.6129 184.675 68.757C185.209 67.9011 185.535 66.9323 185.628 65.928C185.628 64.2214 184.261 63.6326 182.554 64.6206Z" fill="#E6E6E6"/>
<path d="M131.028 66.5667L124.381 70.399V65.1296C124.381 62.0557 121.876 60.9979 118.812 62.7643L118.572 62.904C117.165 63.7552 115.955 64.8946 115.02 66.2473C114.85 61.0777 110.499 59.3412 105.199 62.3951L104.79 62.6346C99.371 65.7583 94.9398 72.7443 94.9398 78.1635V87.395L88.8221 90.9379C86.2273 92.4349 84.1016 95.7882 84.1016 98.3929C84.1016 100.998 86.2273 101.896 88.8221 100.389L96.9957 95.6784L112.964 86.4369L130.988 76.0278C133.592 74.5308 135.718 71.1775 135.718 68.5727C135.718 65.9679 133.632 65.0597 131.028 66.5667Z" fill="#E6E6E6"/>
<path d="M71.0876 149.82L63.6924 145.568H63.6225L65.4588 140.468L65.9578 139.47L69.0417 133.482L64.0517 130.648L63.7223 130.449H63.6325C62.2652 129.81 60.4589 129.979 58.4629 131.117C56.5901 132.271 54.9926 133.821 53.7823 135.658C51.9573 138.209 50.9168 141.237 50.7883 144.371C50.7883 146.726 51.6066 148.363 52.914 149.221L55.0098 150.419C50.7384 154.54 47.6745 160.957 47.6845 166.387V169.59L52.8641 172.584L56.916 162.414L56.7264 161.596L62.874 158.063L66.866 155.728V152.534C66.866 152.215 66.866 151.906 66.866 151.596C67.3451 151.596 67.8041 151.516 67.864 151.496C67.9239 151.476 71.0876 149.82 71.0876 149.82Z" fill="#D6AA1B"/>
<path d="M47.7942 166.367V169.57L52.9738 172.564L57.0257 162.395L56.8361 161.576L62.874 158.063C61.9259 155.269 61.0177 152.654 61.0177 152.654L55.888 149.7C51.2174 153.692 47.7842 160.588 47.7942 166.367Z" fill="#D6AA1B"/>
<path opacity="0.4" d="M71.0876 149.82L63.6924 145.568H63.6225L65.4588 140.468L65.9578 139.47L69.0417 133.482L64.0517 130.648L63.7223 130.449H63.6325C62.2652 129.81 60.4589 129.979 58.4629 131.117C56.5901 132.271 54.9926 133.821 53.7823 135.658C51.9573 138.209 50.9168 141.237 50.7883 144.371C50.7883 146.726 51.6066 148.363 52.914 149.221L55.0098 150.419C50.7384 154.54 47.6745 160.957 47.6845 166.387V169.59L52.8641 172.584L56.916 162.414L56.7264 161.596L62.874 158.063L66.866 155.728V152.534C66.866 152.215 66.866 151.906 66.866 151.596C67.3451 151.596 67.8041 151.516 67.864 151.496C67.9239 151.476 71.0876 149.82 71.0876 149.82Z" fill="#273B4A"/>
<path d="M63.6824 134.031C61.4518 135.48 59.5955 137.436 58.2652 139.74C56.9348 142.043 56.1682 144.629 56.0277 147.285C56.0277 151.077 58.1335 153.103 61.0177 152.664C56.3571 156.726 52.914 163.572 52.9339 169.36V172.554L74.5107 160.099V156.905C74.5107 151.117 71.0277 148.253 66.367 149.58C69.2812 146.646 71.357 142.215 71.357 138.423C71.367 133.552 67.9239 131.586 63.6824 134.031Z" fill="#D6AA1B"/>
<path d="M381.825 116.197L376.955 113.383L378.162 110.019L378.492 109.371L380.488 105.379L377.244 103.522L377.024 103.393H376.975C376.413 103.182 375.808 103.111 375.213 103.188C374.618 103.264 374.051 103.485 373.561 103.832C372.326 104.591 371.273 105.613 370.478 106.826C369.264 108.501 368.57 110.497 368.482 112.564C368.424 113.173 368.521 113.786 368.766 114.347C369.01 114.907 369.393 115.396 369.879 115.768L371.256 116.556C368.368 119.334 366.642 123.104 366.426 127.105V129.211L369.839 131.207L372.514 124.5L372.384 123.961L376.376 121.646L379.04 120.109V118.003C379.04 117.794 379.04 117.584 379.04 117.385L379.709 117.325C379.869 117.285 381.825 116.197 381.825 116.197Z" fill="#D6AA1B"/>
<path d="M366.466 127.105V129.211L369.879 131.207L372.553 124.5L372.424 123.961L376.416 121.646C375.787 119.81 375.188 118.083 375.188 118.083L371.775 116.087C368.721 118.762 366.456 123.293 366.466 127.105Z" fill="#D6AA1B"/>
<path opacity="0.4" d="M381.825 116.197L376.955 113.383L378.162 110.019L378.492 109.371L380.488 105.379L377.244 103.522L377.024 103.393H376.975C376.413 103.182 375.808 103.111 375.213 103.188C374.618 103.264 374.051 103.485 373.561 103.832C372.326 104.591 371.273 105.613 370.478 106.826C369.264 108.501 368.57 110.497 368.482 112.564C368.424 113.173 368.521 113.786 368.766 114.347C369.01 114.907 369.393 115.396 369.879 115.768L371.256 116.556C368.368 119.334 366.642 123.104 366.426 127.105V129.211L369.839 131.207L372.514 124.5L372.384 123.961L376.376 121.646L379.04 120.109V118.003C379.04 117.794 379.04 117.584 379.04 117.385L379.709 117.325C379.869 117.285 381.825 116.197 381.825 116.197Z" fill="#273B4A"/>
<path d="M376.945 105.788C375.472 106.743 374.247 108.033 373.369 109.552C372.491 111.072 371.986 112.778 371.895 114.53C371.895 117.035 373.282 118.373 375.208 118.083C372.134 120.758 369.869 125.279 369.879 129.061V131.167L384.1 122.954V120.848C384.1 117.025 381.805 115.139 378.721 116.018C380.689 114.057 381.859 111.436 382.005 108.662C382.005 105.469 379.739 104.171 376.945 105.788Z" fill="#D6AA1B"/>
<path d="M412.683 305.029L415.208 306.166L416.156 306.596L418.282 307.594C418.282 307.594 418.691 293.522 423.102 283.182C427.513 272.843 435.368 263.222 436.715 257.414C438.062 251.606 433.631 249.43 433.631 249.43C424.27 245.867 415.188 259.48 412.673 270.817C410.158 282.155 412.683 305.029 412.683 305.029Z" fill="#D6AA1B"/>
<path opacity="0.4" d="M412.683 305.029L415.208 306.166L416.156 306.596L418.282 307.594C418.282 307.594 418.691 293.522 423.102 283.182C427.513 272.843 435.368 263.222 436.715 257.414C438.062 251.606 433.631 249.43 433.631 249.43C424.27 245.867 415.188 259.48 412.673 270.817C410.158 282.155 412.683 305.029 412.683 305.029Z" fill="#273B4A"/>
<path d="M415.168 306.166L416.116 306.596C414.12 267.125 431.615 253.133 431.795 252.993C431.844 252.957 431.885 252.911 431.916 252.858C431.947 252.805 431.967 252.747 431.975 252.686C431.982 252.625 431.977 252.563 431.96 252.505C431.943 252.446 431.914 252.391 431.875 252.344C431.838 252.295 431.792 252.254 431.74 252.223C431.687 252.192 431.628 252.172 431.567 252.164C431.507 252.157 431.445 252.162 431.386 252.179C431.328 252.196 431.273 252.225 431.226 252.264C431.136 252.404 413.362 266.526 415.168 306.166Z" fill="white"/>
<path d="M410.098 298.691C409.949 302.314 413.851 308.821 413.851 308.821L420.547 313.562L421.426 314.19L431.226 321.126C432.789 321.021 434.297 320.504 435.595 319.627C436.894 318.751 437.938 317.547 438.621 316.136C441.226 311.146 437.463 305.717 438.551 302.244C439.639 298.771 446.286 297.763 446.006 293.701C445.727 289.64 439.12 285.218 440.118 281.606C441.116 277.993 443.381 276.566 444.11 273.622C444.287 273.097 444.347 272.541 444.288 271.991C444.228 271.441 444.05 270.91 443.765 270.435C443.48 269.961 443.096 269.554 442.639 269.243C442.181 268.931 441.662 268.723 441.116 268.632C438.871 268.242 435.986 268.751 433.132 271.506C430.278 274.26 429.14 276.167 425.877 276.965C422.613 277.763 419.22 277.254 417.483 279.959C415.747 282.664 417.773 288.212 415.966 290.378C414.16 292.544 410.238 295.059 410.098 298.691Z" fill="#D6AA1B"/>
<path d="M420.547 313.562L421.426 314.19C421.948 307.326 423.374 300.561 425.667 294.071C431.266 292.384 438.831 293.073 438.9 293.073C438.965 293.086 439.032 293.086 439.096 293.072C439.16 293.058 439.221 293.03 439.274 292.991C439.327 292.952 439.372 292.902 439.404 292.845C439.437 292.788 439.457 292.724 439.463 292.659C439.47 292.593 439.462 292.527 439.441 292.464C439.42 292.402 439.386 292.344 439.342 292.296C439.297 292.247 439.243 292.209 439.182 292.183C439.122 292.157 439.056 292.144 438.99 292.144C438.681 292.144 431.715 291.506 426.016 292.993C431.246 278.961 438.771 272.035 438.89 271.905C438.976 271.819 439.025 271.702 439.025 271.581C439.025 271.459 438.976 271.342 438.89 271.256C438.801 271.169 438.681 271.12 438.556 271.12C438.431 271.12 438.311 271.169 438.222 271.256C438.112 271.356 430.168 278.691 424.839 293.432C424.781 293.517 424.749 293.618 424.749 293.721C422.507 300.128 421.095 306.796 420.547 313.562Z" fill="white"/>
<path d="M66.9459 326.645L64.421 327.783L63.4729 328.212L61.3372 329.16C61.3372 329.16 60.928 315.089 56.5168 304.739C52.1057 294.39 44.2514 284.779 42.9141 278.971C41.5768 273.163 45.9879 270.987 45.9879 270.987C55.3492 267.424 64.431 281.027 66.9459 292.364C69.4609 303.701 66.9459 326.645 66.9459 326.645Z" fill="#D6AA1B"/>
<path opacity="0.4" d="M66.9459 326.645L64.421 327.783L63.4729 328.212L61.3372 329.16C61.3372 329.16 60.928 315.089 56.5168 304.739C52.1057 294.39 44.2514 284.779 42.9141 278.971C41.5768 273.163 45.9879 270.987 45.9879 270.987C55.3492 267.424 64.431 281.027 66.9459 292.364C69.4609 303.701 66.9459 326.645 66.9459 326.645Z" fill="#273B4A"/>
<path d="M64.421 327.783L63.4729 328.212C65.4689 288.731 47.974 274.749 47.7843 274.61C47.7015 274.53 47.651 274.422 47.6426 274.307C47.6342 274.192 47.6685 274.078 47.7388 273.986C47.8092 273.895 47.9107 273.833 48.024 273.811C48.1374 273.79 48.2545 273.812 48.3532 273.871C48.5428 274.011 66.2573 288.133 64.421 327.783Z" fill="white"/>
<path d="M69.0217 320.188C69.1714 323.821 65.2593 330.328 65.2593 330.328L58.5727 335.059L57.6845 335.687L47.9041 342.623C46.3408 342.518 44.8333 342.001 43.5345 341.124C42.2357 340.248 41.1919 339.043 40.5089 337.633C37.9041 332.643 41.6666 327.214 40.5787 323.731C39.4909 320.248 32.8442 319.25 33.1237 315.198C33.4031 311.146 39.9999 306.725 38.9919 303.103C37.9839 299.48 35.7285 298.113 34.9999 295.119C34.8302 294.597 34.7749 294.045 34.8378 293.501C34.9007 292.956 35.0804 292.431 35.3646 291.962C35.6488 291.493 36.0308 291.091 36.4846 290.783C36.9383 290.476 37.4532 290.269 37.9939 290.178C40.2394 289.779 43.1236 290.288 45.9779 293.053C48.8322 295.817 49.9699 297.703 53.2334 298.502C56.4968 299.3 59.89 298.791 61.6266 301.496C63.3631 304.2 61.3371 309.759 63.1435 311.925C64.9499 314.091 68.8621 316.566 69.0217 320.188Z" fill="#D6AA1B"/>
<path d="M58.5727 335.059L57.6845 335.687C57.1626 328.824 55.7399 322.06 53.453 315.568C47.8542 313.891 40.2894 314.57 40.2195 314.57C40.1592 314.577 40.098 314.571 40.0397 314.555C39.9813 314.538 39.9269 314.509 39.8796 314.471C39.8322 314.433 39.7929 314.386 39.7639 314.333C39.7349 314.279 39.7167 314.221 39.7105 314.16C39.6994 314.038 39.7371 313.915 39.8156 313.82C39.8941 313.725 40.0069 313.664 40.1297 313.651C44.472 313.285 48.8447 313.567 53.1037 314.49C47.8742 300.468 40.3393 293.532 40.2295 293.412C40.1436 293.326 40.0953 293.209 40.0953 293.088C40.0953 292.966 40.1436 292.849 40.2295 292.763C40.2731 292.719 40.3252 292.684 40.3826 292.66C40.44 292.636 40.5016 292.623 40.5638 292.623C40.6261 292.623 40.6877 292.636 40.7451 292.66C40.8025 292.684 40.8545 292.719 40.8982 292.763C41.0079 292.863 48.952 300.198 54.2813 314.939C54.3406 315.024 54.3719 315.125 54.3712 315.228C56.6127 321.632 58.0247 328.296 58.5727 335.059Z" fill="white"/>
<path d="M353.102 32.2553L345.208 27.6944C344.648 27.251 343.968 26.987 343.255 26.9371C342.543 26.8873 341.832 27.0538 341.216 27.415L97.315 167.814C95.7177 168.731 94.3911 170.054 93.4693 171.649C92.5476 173.244 92.0633 175.053 92.0655 176.895V393.112C92.0623 393.794 92.2553 394.462 92.6216 395.038C92.988 395.613 93.512 396.07 94.1313 396.356L101.896 400.837L103.702 392.603L341.316 255.827C342.91 254.907 344.235 253.583 345.156 251.989C346.078 250.395 346.564 248.587 346.565 246.745V35.0696L353.102 32.2553Z" fill="#D6AA1B"/>
<path opacity="0.7" d="M353.102 32.2553L345.208 27.6944C344.648 27.251 343.968 26.987 343.255 26.9371C342.543 26.8873 341.832 27.0538 341.216 27.415L97.315 167.814C95.7177 168.731 94.3911 170.054 93.4693 171.649C92.5476 173.244 92.0633 175.053 92.0655 176.895V393.112C92.0623 393.794 92.2553 394.462 92.6216 395.038C92.988 395.613 93.512 396.07 94.1313 396.356L101.896 400.837L103.702 392.603L341.316 255.827C342.91 254.907 344.235 253.583 345.156 251.989C346.078 250.395 346.564 248.587 346.565 246.745V35.0696L353.102 32.2553Z" fill="white"/>
<path d="M104.92 178.003V391.895L103.702 392.603L101.896 400.837L94.1314 396.356C93.5133 396.07 92.9895 395.615 92.6218 395.042C92.254 394.469 92.0576 393.803 92.0555 393.122V176.885C92.0563 174.97 92.5846 173.091 93.5825 171.456L104.92 178.003Z" fill="#D6AA1B"/>
<path d="M354.46 35.0397V251.266C354.46 253.109 353.974 254.919 353.05 256.514C352.127 258.109 350.799 259.431 349.2 260.348L129.361 386.885L105.289 400.737C104.747 401.053 104.131 401.221 103.504 401.223C102.876 401.225 102.26 401.061 101.716 400.748C101.172 400.435 100.72 399.984 100.407 399.441C100.093 398.897 99.9286 398.28 99.9298 397.653V181.426C99.9276 179.584 100.412 177.774 101.334 176.18C102.255 174.585 103.582 173.262 105.179 172.345L129.361 158.432L349.09 31.9359C349.635 31.6194 350.253 31.4523 350.882 31.4514C351.512 31.4506 352.13 31.616 352.675 31.931C353.22 32.2461 353.672 32.6995 353.985 33.2453C354.299 33.7912 354.462 34.4102 354.46 35.0397Z" fill="#FAFAFA"/>
<path d="M350.877 32.2153C351.627 32.2153 352.346 32.5125 352.878 33.0419C353.409 33.5713 353.709 34.2897 353.711 35.0396V251.266C353.708 252.976 353.255 254.655 352.399 256.135C351.542 257.615 350.312 258.844 348.831 259.699L128.982 386.226L104.91 400.098C104.481 400.348 103.994 400.48 103.498 400.481C103.002 400.482 102.514 400.352 102.085 400.103C101.655 399.855 101.299 399.498 101.052 399.067C100.805 398.637 100.676 398.149 100.678 397.653V181.426C100.68 179.716 101.132 178.036 101.988 176.556C102.845 175.075 104.076 173.847 105.559 172.993L129.74 159.081L349.47 32.6045C349.895 32.3501 350.381 32.2156 350.877 32.2153ZM350.877 31.4668C350.248 31.4666 349.631 31.6355 349.091 31.9558L129.361 158.432L105.179 172.344C103.582 173.262 102.255 174.585 101.334 176.18C100.412 177.774 99.9276 179.584 99.9298 181.426V397.653C99.9298 398.601 100.306 399.509 100.976 400.179C101.646 400.849 102.555 401.226 103.503 401.226C104.131 401.226 104.748 401.057 105.289 400.737L129.361 386.885L349.2 260.348C350.799 259.431 352.127 258.108 353.05 256.514C353.974 254.919 354.46 253.109 354.46 251.266V35.0396C354.457 34.0911 354.078 33.1824 353.407 32.5127C352.735 31.8429 351.825 31.4668 350.877 31.4668Z" fill="#273B4A"/>
<path d="M129.361 158.432V386.885L105.289 400.737C104.747 401.053 104.131 401.221 103.504 401.223C102.876 401.225 102.26 401.061 101.716 400.748C101.172 400.435 100.72 399.984 100.407 399.441C100.093 398.897 99.9286 398.28 99.9298 397.653V181.426C99.9276 179.584 100.412 177.774 101.334 176.18C102.255 174.585 103.582 173.262 105.179 172.344L129.361 158.432Z" fill="#273B4A"/>
<path d="M191.666 346.196C191.567 346.194 191.473 346.153 191.404 346.082C191.335 346.011 191.297 345.916 191.297 345.817V126.676C191.288 126.622 191.291 126.566 191.306 126.513C191.32 126.46 191.346 126.411 191.382 126.369C191.418 126.327 191.462 126.294 191.512 126.271C191.562 126.248 191.616 126.236 191.671 126.236C191.726 126.236 191.78 126.248 191.83 126.271C191.88 126.294 191.924 126.327 191.96 126.369C191.996 126.411 192.022 126.46 192.036 126.513C192.051 126.566 192.054 126.622 192.045 126.676V345.817C192.045 345.918 192.005 346.014 191.934 346.085C191.863 346.156 191.767 346.196 191.666 346.196Z" fill="#273B4A"/>
<path d="M185.838 333.881V334.44C185.838 334.597 185.796 334.753 185.717 334.889C185.639 335.026 185.525 335.139 185.388 335.218L164.56 347.194C164.513 347.22 164.46 347.233 164.407 347.233C164.353 347.232 164.3 347.217 164.254 347.19C164.208 347.163 164.169 347.124 164.142 347.078C164.116 347.031 164.101 346.978 164.101 346.925V346.376C164.103 346.218 164.145 346.064 164.224 345.928C164.303 345.792 164.415 345.678 164.55 345.597L185.378 333.621C185.425 333.596 185.477 333.582 185.53 333.583C185.583 333.583 185.635 333.597 185.681 333.623C185.727 333.649 185.765 333.686 185.793 333.731C185.82 333.777 185.836 333.828 185.838 333.881Z" fill="#273B4A"/>
<path d="M185.838 337.953V338.502C185.838 338.659 185.796 338.814 185.717 338.951C185.639 339.088 185.525 339.201 185.388 339.28L164.56 351.256C164.514 351.282 164.462 351.295 164.409 351.295C164.356 351.294 164.304 351.281 164.258 351.255C164.212 351.229 164.173 351.191 164.146 351.146C164.118 351.101 164.103 351.049 164.101 350.996V350.438C164.103 350.28 164.145 350.126 164.224 349.99C164.303 349.853 164.415 349.74 164.55 349.659L185.378 337.683C185.426 337.657 185.478 337.644 185.532 337.645C185.586 337.645 185.638 337.66 185.685 337.687C185.731 337.714 185.77 337.753 185.796 337.8C185.823 337.846 185.837 337.899 185.838 337.953Z" fill="#E0E0E0"/>
<path d="M175.428 348.022V348.581C175.429 348.739 175.387 348.894 175.308 349.031C175.229 349.167 175.116 349.281 174.979 349.36L164.56 355.348C164.514 355.373 164.462 355.387 164.409 355.386C164.356 355.386 164.304 355.372 164.258 355.346C164.212 355.32 164.173 355.283 164.146 355.238C164.118 355.193 164.103 355.141 164.101 355.088V354.529C164.103 354.372 164.145 354.218 164.224 354.081C164.303 353.945 164.415 353.831 164.55 353.751L174.969 347.763C175.015 347.734 175.068 347.718 175.122 347.717C175.176 347.716 175.229 347.729 175.276 347.756C175.324 347.782 175.362 347.821 175.389 347.868C175.416 347.915 175.43 347.968 175.428 348.022Z" fill="#E0E0E0"/>
<path d="M156.77 363.49C162.63 355.676 163.799 346.656 159.381 343.342C154.962 340.028 146.63 343.676 140.77 351.49C134.91 359.303 133.741 368.323 138.159 371.637C142.578 374.951 150.91 371.303 156.77 363.49Z" fill="#D6AA1B"/>
<path opacity="0.7" d="M156.77 363.49C162.63 355.676 163.799 346.656 159.381 343.342C154.962 340.028 146.63 343.676 140.77 351.49C134.91 359.303 133.741 368.323 138.159 371.637C142.578 374.951 150.91 371.303 156.77 363.49Z" fill="white"/>
<path d="M141.986 373.741C140.73 373.764 139.49 373.454 138.393 372.843C136.187 371.565 134.97 369.03 134.97 365.687C134.97 358.242 141.017 348.721 148.453 344.39C152.445 342.094 156.237 341.645 158.882 343.182C161.097 344.46 162.315 346.995 162.315 350.338C162.315 357.783 156.267 367.304 148.832 371.635C146.77 372.917 144.411 373.642 141.986 373.741ZM155.289 343.022C153 343.115 150.774 343.803 148.832 345.018C141.596 349.21 135.728 358.482 135.728 365.687C135.728 368.751 136.806 371.056 138.782 372.194C141.187 373.591 144.72 373.192 148.463 370.986C155.698 366.815 161.576 357.543 161.576 350.338C161.576 347.274 160.488 344.969 158.522 343.831C157.535 343.279 156.419 343 155.289 343.022Z" fill="#273B4A"/>
<path d="M160.309 361.625C160.214 362.566 159.902 363.472 159.396 364.27C158.89 365.069 158.205 365.739 157.395 366.226C155.788 367.154 154.48 366.595 154.48 364.989C154.573 364.047 154.885 363.141 155.391 362.342C155.897 361.543 156.583 360.874 157.395 360.388C159.001 359.46 160.309 360.009 160.309 361.625Z" fill="#D6AA1B"/>
<path d="M185.838 296.007V296.566C185.838 296.723 185.796 296.878 185.717 297.015C185.639 297.152 185.525 297.265 185.388 297.344L164.56 309.32C164.513 309.346 164.46 309.359 164.407 309.359C164.353 309.358 164.3 309.343 164.254 309.316C164.208 309.289 164.169 309.25 164.142 309.204C164.116 309.157 164.101 309.104 164.101 309.051V308.502C164.103 308.344 164.145 308.19 164.224 308.054C164.303 307.917 164.415 307.804 164.55 307.723L185.378 295.747C185.425 295.722 185.477 295.708 185.53 295.708C185.583 295.709 185.635 295.723 185.681 295.749C185.727 295.775 185.765 295.812 185.793 295.857C185.82 295.902 185.836 295.954 185.838 296.007Z" fill="#273B4A"/>
<path d="M185.838 300.079V300.628C185.838 300.785 185.796 300.94 185.717 301.077C185.639 301.214 185.525 301.327 185.388 301.406L164.56 313.382C164.514 313.408 164.462 313.421 164.409 313.421C164.356 313.42 164.304 313.407 164.258 313.381C164.212 313.355 164.173 313.317 164.146 313.272C164.118 313.227 164.103 313.175 164.101 313.122V312.564C164.103 312.406 164.145 312.252 164.224 312.116C164.303 311.979 164.415 311.866 164.55 311.785L185.378 299.809C185.426 299.783 185.478 299.77 185.532 299.771C185.586 299.771 185.638 299.786 185.685 299.813C185.731 299.84 185.77 299.879 185.796 299.926C185.823 299.972 185.837 300.025 185.838 300.079Z" fill="#E0E0E0"/>
<path d="M175.428 310.148V310.707C175.429 310.865 175.387 311.02 175.308 311.157C175.229 311.293 175.116 311.407 174.979 311.486L164.56 317.474C164.514 317.499 164.462 317.513 164.409 317.512C164.356 317.512 164.304 317.498 164.258 317.472C164.212 317.446 164.173 317.409 164.146 317.364C164.118 317.319 164.103 317.267 164.101 317.214V316.655C164.103 316.498 164.145 316.344 164.224 316.207C164.303 316.071 164.415 315.957 164.55 315.877L174.969 309.889C175.015 309.86 175.068 309.844 175.122 309.843C175.176 309.842 175.229 309.855 175.276 309.882C175.324 309.908 175.362 309.947 175.389 309.994C175.416 310.041 175.43 310.094 175.428 310.148Z" fill="#E0E0E0"/>
<path d="M156.74 325.655C162.6 317.842 163.769 308.821 159.351 305.508C154.932 302.194 146.6 305.842 140.74 313.655C134.88 321.469 133.711 330.489 138.129 333.803C142.547 337.117 150.88 333.469 156.74 325.655Z" fill="#D6AA1B"/>
<path opacity="0.7" d="M156.74 325.655C162.6 317.842 163.769 308.821 159.351 305.508C154.932 302.194 146.6 305.842 140.74 313.655C134.88 321.469 133.711 330.489 138.129 333.803C142.547 337.117 150.88 333.469 156.74 325.655Z" fill="white"/>
<path d="M141.986 335.867C140.73 335.89 139.49 335.58 138.393 334.969C136.187 333.691 134.97 331.156 134.97 327.813C134.97 320.368 141.017 310.847 148.453 306.516C152.445 304.21 156.237 303.771 158.882 305.308C161.097 306.576 162.315 309.12 162.315 312.454C162.315 319.909 156.267 329.47 148.832 333.761C146.77 335.043 144.411 335.768 141.986 335.867ZM155.289 305.148C153 305.241 150.774 305.929 148.832 307.144C141.596 311.376 135.728 320.597 135.728 327.813C135.728 330.877 136.806 333.182 138.782 334.32C141.187 335.717 144.72 335.318 148.463 333.112C155.698 328.941 161.576 319.669 161.576 312.454C161.576 309.4 160.488 307.085 158.522 305.957C157.535 305.405 156.419 305.126 155.289 305.148Z" fill="#273B4A"/>
<path d="M160.309 323.751C160.215 324.691 159.903 325.595 159.397 326.393C158.891 327.19 158.205 327.857 157.395 328.342C155.788 329.28 154.48 328.721 154.48 327.114C154.573 326.173 154.885 325.267 155.391 324.468C155.897 323.669 156.583 323 157.395 322.514C159.001 321.586 160.309 322.134 160.309 323.751Z" fill="#D6AA1B"/>
<path d="M185.838 258.133V258.692C185.838 258.849 185.796 259.004 185.717 259.141C185.639 259.278 185.525 259.391 185.388 259.47L164.56 271.446C164.513 271.472 164.46 271.485 164.407 271.485C164.353 271.484 164.3 271.469 164.254 271.442C164.208 271.415 164.169 271.376 164.142 271.33C164.116 271.283 164.101 271.23 164.101 271.177V270.628C164.102 270.47 164.144 270.315 164.223 270.179C164.301 270.042 164.414 269.929 164.55 269.849L185.378 257.873C185.425 257.848 185.477 257.834 185.53 257.834C185.583 257.835 185.635 257.848 185.681 257.874C185.727 257.901 185.765 257.938 185.793 257.983C185.82 258.028 185.836 258.08 185.838 258.133Z" fill="#273B4A"/>
<path d="M185.838 262.194V262.753C185.838 262.911 185.796 263.066 185.717 263.203C185.639 263.339 185.525 263.453 185.388 263.532L164.56 275.508C164.514 275.533 164.462 275.547 164.409 275.547C164.356 275.546 164.304 275.533 164.258 275.506C164.212 275.48 164.173 275.443 164.146 275.398C164.118 275.353 164.103 275.301 164.101 275.248V274.689C164.103 274.532 164.145 274.378 164.224 274.242C164.303 274.105 164.415 273.991 164.55 273.911L185.378 261.935C185.425 261.909 185.477 261.896 185.53 261.896C185.583 261.896 185.635 261.91 185.681 261.936C185.727 261.962 185.765 262 185.793 262.045C185.82 262.09 185.836 262.142 185.838 262.194Z" fill="#E0E0E0"/>
<path d="M175.428 272.274V272.833C175.429 272.991 175.387 273.146 175.308 273.283C175.229 273.419 175.116 273.533 174.979 273.612L164.56 279.6C164.514 279.625 164.462 279.639 164.409 279.638C164.356 279.638 164.304 279.624 164.258 279.598C164.212 279.572 164.173 279.535 164.146 279.49C164.118 279.444 164.103 279.393 164.101 279.34V278.781C164.103 278.624 164.145 278.47 164.224 278.333C164.303 278.197 164.415 278.083 164.55 278.003L174.969 272.015C175.015 271.986 175.068 271.97 175.122 271.969C175.176 271.967 175.229 271.981 175.276 272.007C175.324 272.034 175.362 272.073 175.389 272.12C175.416 272.167 175.43 272.22 175.428 272.274Z" fill="#E0E0E0"/>
<path d="M156.71 287.831C162.57 280.018 163.739 270.997 159.321 267.683C154.903 264.37 146.57 268.018 140.71 275.831C134.85 283.645 133.681 292.665 138.099 295.979C142.518 299.292 150.85 295.645 156.71 287.831Z" fill="#D6AA1B"/>
<path opacity="0.7" d="M156.71 287.831C162.57 280.018 163.739 270.997 159.321 267.683C154.903 264.37 146.57 268.018 140.71 275.831C134.85 283.645 133.681 292.665 138.099 295.979C142.518 299.292 150.85 295.645 156.71 287.831Z" fill="white"/>
<path d="M141.986 297.993C140.73 298.016 139.49 297.706 138.393 297.095C136.187 295.817 134.97 293.282 134.97 289.939C134.97 282.484 141.017 272.973 148.453 268.642C152.445 266.336 156.237 265.897 158.882 267.434C161.097 268.701 162.315 271.246 162.315 274.58C162.315 282.035 156.267 291.596 148.832 295.887C146.77 297.169 144.411 297.894 141.986 297.993ZM155.289 267.274C153 267.367 150.774 268.055 148.832 269.27C141.596 273.452 135.728 282.723 135.728 289.939C135.728 293.003 136.806 295.308 138.782 296.446C141.187 297.843 144.72 297.444 148.463 295.238C155.698 291.067 161.576 281.795 161.576 274.58C161.576 271.526 160.488 269.21 158.522 268.073C157.533 267.528 156.418 267.253 155.289 267.274Z" fill="#273B4A"/>
<path d="M160.309 285.877C160.215 286.817 159.903 287.721 159.397 288.518C158.891 289.316 158.205 289.983 157.395 290.468C155.788 291.406 154.48 290.847 154.48 289.24C154.573 288.299 154.885 287.393 155.391 286.594C155.897 285.795 156.583 285.126 157.395 284.639C159.001 283.711 160.309 284.26 160.309 285.877Z" fill="#D6AA1B"/>
<path d="M185.838 220.259V220.817C185.838 220.975 185.796 221.13 185.717 221.267C185.639 221.404 185.525 221.517 185.388 221.596L164.56 233.572C164.513 233.598 164.46 233.611 164.407 233.61C164.353 233.61 164.3 233.595 164.254 233.568C164.208 233.541 164.169 233.502 164.142 233.455C164.116 233.409 164.101 233.356 164.101 233.302V232.754C164.102 232.596 164.144 232.441 164.223 232.305C164.301 232.168 164.414 232.055 164.55 231.975L185.378 219.999C185.425 219.973 185.477 219.96 185.53 219.96C185.583 219.961 185.635 219.974 185.681 220C185.727 220.026 185.765 220.064 185.793 220.109C185.82 220.154 185.836 220.206 185.838 220.259Z" fill="#273B4A"/>
<path d="M185.838 224.32V224.879C185.838 225.037 185.796 225.192 185.717 225.329C185.639 225.465 185.525 225.579 185.388 225.658L164.56 237.634C164.513 237.66 164.46 237.673 164.407 237.672C164.353 237.672 164.3 237.657 164.254 237.63C164.208 237.603 164.169 237.564 164.142 237.517C164.116 237.471 164.101 237.418 164.101 237.364V236.815C164.103 236.658 164.145 236.504 164.224 236.367C164.303 236.231 164.415 236.117 164.55 236.037L185.378 224.061C185.425 224.035 185.477 224.022 185.53 224.022C185.583 224.022 185.635 224.036 185.681 224.062C185.727 224.088 185.765 224.126 185.793 224.171C185.82 224.216 185.836 224.268 185.838 224.32Z" fill="#E0E0E0"/>
<path d="M175.428 234.4V234.959C175.429 235.117 175.387 235.272 175.308 235.408C175.229 235.545 175.116 235.659 174.979 235.737L164.56 241.725C164.514 241.751 164.462 241.764 164.409 241.764C164.356 241.764 164.304 241.75 164.258 241.724C164.212 241.698 164.173 241.661 164.146 241.616C164.118 241.57 164.103 241.519 164.101 241.466V240.907C164.103 240.75 164.145 240.595 164.224 240.459C164.303 240.323 164.415 240.209 164.55 240.129L174.969 234.141C175.015 234.112 175.068 234.096 175.122 234.095C175.176 234.093 175.229 234.107 175.276 234.133C175.324 234.16 175.362 234.199 175.389 234.246C175.416 234.293 175.43 234.346 175.428 234.4Z" fill="#E0E0E0"/>
<path d="M156.68 249.997C162.54 242.183 163.709 233.163 159.291 229.849C154.873 226.536 146.54 230.183 140.68 237.997C134.82 245.811 133.651 254.831 138.069 258.145C142.488 261.458 150.82 257.81 156.68 249.997Z" fill="#D6AA1B"/>
<path opacity="0.7" d="M156.68 249.997C162.54 242.183 163.709 233.163 159.291 229.849C154.873 226.536 146.54 230.183 140.68 237.997C134.82 245.811 133.651 254.831 138.069 258.145C142.488 261.458 150.82 257.81 156.68 249.997Z" fill="white"/>
<path d="M141.986 260.119C140.73 260.142 139.49 259.832 138.393 259.22C136.187 257.943 134.97 255.408 134.97 252.065C134.97 244.61 141.017 235.099 148.453 230.767C152.445 228.462 156.237 228.023 158.882 229.55C161.097 230.827 162.315 233.372 162.315 236.706C162.315 244.161 156.267 253.672 148.832 258.013C146.77 259.294 144.411 260.02 141.986 260.119ZM155.289 229.4C153 229.493 150.774 230.181 148.832 231.396C141.596 235.568 135.718 244.829 135.718 252.045C135.718 255.109 136.796 257.414 138.772 258.552C141.177 259.949 144.71 259.55 148.453 257.344C155.688 253.173 161.566 243.901 161.566 236.686C161.566 233.632 160.478 231.316 158.512 230.179C157.524 229.643 156.413 229.375 155.289 229.4Z" fill="#273B4A"/>
<path d="M160.309 248.003C160.215 248.943 159.903 249.847 159.397 250.644C158.891 251.442 158.205 252.109 157.395 252.594C155.788 253.522 154.48 252.973 154.48 251.366C154.573 250.425 154.885 249.519 155.391 248.72C155.897 247.921 156.583 247.252 157.395 246.765C159.001 245.837 160.309 246.386 160.309 248.003Z" fill="#D6AA1B"/>
<path d="M172.726 187.751C183.033 174.048 185.105 158.212 177.352 152.381C169.6 146.549 154.959 152.931 144.652 166.634C134.344 180.338 132.273 196.174 140.025 202.005C147.778 207.836 162.418 201.455 172.726 187.751Z" fill="#D6AA1B"/>
<path opacity="0.7" d="M172.726 187.751C183.033 174.048 185.105 158.212 177.352 152.381C169.6 146.549 154.959 152.931 144.652 166.634C134.344 180.338 132.273 196.174 140.025 202.005C147.778 207.836 162.418 201.455 172.726 187.751Z" fill="white"/>
<path d="M170.838 190.129C168.971 186.905 164.091 183.652 164.091 183.652L160.738 184.321L152.963 185.827L149.311 186.825C145.059 190.189 148.313 202.205 148.902 204.051C152.369 203.56 155.7 202.368 158.692 200.548C163.306 197.794 167.414 194.27 170.838 190.129Z" fill="#D6AA1B"/>
<path opacity="0.2" d="M170.838 190.129C168.971 186.905 164.091 183.652 164.091 183.652L160.738 184.321L152.963 185.827L149.311 186.825C145.059 190.189 148.313 202.205 148.902 204.051C152.369 203.56 155.7 202.368 158.692 200.548C163.306 197.794 167.414 194.27 170.838 190.129Z" fill="#273B4A"/>
<path d="M164.091 188.093C164.091 189.021 162.145 190.528 158.303 189.41C156.157 188.875 154.265 187.608 152.953 185.827V182.534L153.023 177.155L160.738 178.941V184.32C162.045 185.119 164.121 187.165 164.091 188.093Z" fill="#977F41"/>
<path d="M160.738 180.159V182.744C159.057 182.308 157.433 181.678 155.898 180.868C154.974 180.238 154.316 179.289 154.051 178.203L160.738 180.159Z" fill="#794242"/>
<path d="M168.383 171.007C168.544 173.441 168.373 175.885 167.874 178.273C167.065 180.927 165.938 182.165 163.273 181.895C161.141 181.653 159.036 181.212 156.985 180.578C155.835 180.259 154.85 179.513 154.231 178.492C153.936 177.96 153.523 177.503 153.023 177.155L151.307 178.343C150.211 177.612 149.277 176.665 148.562 175.558C147.754 174.051 148.303 168.572 148.303 168.572L160.399 164.301C160.399 164.301 166.586 163.033 166.706 163.053C167.347 163.344 167.871 163.844 168.193 164.47C168.532 165.289 169.371 166.726 169.191 167.035C169.011 167.345 168.383 171.007 168.383 171.007Z" fill="#977F41"/>
<path d="M161.676 172.844C161.676 172.978 161.636 173.109 161.562 173.221C161.487 173.332 161.381 173.419 161.257 173.471C161.133 173.522 160.997 173.535 160.865 173.509C160.733 173.483 160.612 173.418 160.518 173.324C160.423 173.229 160.358 173.108 160.332 172.976C160.306 172.844 160.319 172.708 160.37 172.584C160.422 172.46 160.509 172.354 160.62 172.279C160.732 172.205 160.863 172.165 160.997 172.165C161.177 172.165 161.35 172.237 161.477 172.364C161.604 172.491 161.676 172.664 161.676 172.844Z" fill="#263238"/>
<path d="M167.265 172.334C167.267 172.471 167.228 172.605 167.154 172.72C167.079 172.834 166.972 172.924 166.847 172.978C166.721 173.031 166.582 173.046 166.448 173.021C166.314 172.996 166.19 172.931 166.093 172.835C165.996 172.739 165.929 172.616 165.902 172.483C165.874 172.349 165.887 172.21 165.939 172.083C165.991 171.957 166.079 171.849 166.193 171.773C166.306 171.697 166.44 171.656 166.576 171.656C166.666 171.655 166.756 171.671 166.839 171.705C166.922 171.738 166.998 171.788 167.063 171.851C167.127 171.914 167.178 171.989 167.212 172.072C167.247 172.155 167.265 172.245 167.265 172.334Z" fill="#263238"/>
<path d="M166.017 169.66L167.634 170.359C167.634 170.359 167.963 169.56 167.265 169.261C167.044 169.166 166.796 169.154 166.566 169.227C166.337 169.301 166.142 169.454 166.017 169.66Z" fill="#263238"/>
<path d="M163.852 171.965L164.381 176.257L166.576 175.279L163.852 171.965Z" fill="#794242"/>
<path d="M164.011 177.734C164.007 177.99 163.928 178.24 163.784 178.452C163.641 178.665 163.439 178.831 163.203 178.931C163.144 178.962 163.079 178.982 163.013 178.991C162.807 179.037 162.593 179.04 162.385 178.998C162.177 178.956 161.981 178.872 161.808 178.75C161.635 178.627 161.489 178.47 161.38 178.288C161.272 178.107 161.203 177.904 161.177 177.694C161.146 177.515 161.146 177.333 161.177 177.155L164.011 177.734Z" fill="#794242"/>
<path d="M171.486 185.428C169.322 183.951 166.691 183.319 164.091 183.652L169.081 192.055C170.577 190.448 171.974 188.752 173.263 186.975C172.724 186.436 172.115 185.907 171.486 185.428Z" fill="#977F41"/>
<path d="M163.013 178.991C162.807 179.037 162.593 179.04 162.385 178.998C162.177 178.956 161.981 178.872 161.808 178.75C161.635 178.627 161.489 178.47 161.38 178.288C161.272 178.107 161.203 177.904 161.177 177.694C161.42 177.627 161.675 177.621 161.921 177.677C162.166 177.733 162.394 177.848 162.584 178.013C162.829 178.284 162.98 178.627 163.013 178.991Z" fill="#794242"/>
<path d="M152.884 172.314L153.083 175.109C153.354 175.076 153.615 174.986 153.849 174.844C154.082 174.703 154.283 174.515 154.439 174.29C154.594 174.066 154.701 173.811 154.751 173.543C154.801 173.275 154.794 172.999 154.73 172.734C154.73 172.734 164.221 171.875 166.427 164.161C166.427 164.161 168.423 166.247 168.423 171.007C169.215 170.521 169.801 169.759 170.066 168.867C170.331 167.976 170.258 167.017 169.86 166.177C170.283 166.009 170.63 165.692 170.836 165.286C171.042 164.879 171.092 164.412 170.977 163.971C170.918 163.557 170.738 163.169 170.459 162.856C170.181 162.544 169.816 162.321 169.411 162.215C169.411 162.215 171.556 158.722 168.842 156.995C166.127 155.269 162.275 158.502 162.275 158.502C162.275 158.502 156.067 156.506 152.904 159.39C149.74 162.275 149.61 164.45 149.61 164.45C148.518 164.83 147.592 165.576 146.989 166.563C146.387 167.55 146.146 168.715 146.307 169.859C146.566 174.241 149.51 177.285 150.658 178.941C151.806 180.598 153.003 182.524 153.003 182.524L153.063 177.155C153.063 177.155 151.706 178.153 150.069 176.596C148.433 175.039 148.323 172.604 149.69 171.526C150.076 171.202 150.559 171.017 151.062 171.001C151.565 170.985 152.059 171.138 152.465 171.436C152.593 171.544 152.698 171.678 152.77 171.83C152.842 171.981 152.881 172.147 152.884 172.314Z" fill="#263238"/>
<path d="M177.824 196.935V198.881C177.824 199.143 177.755 199.4 177.624 199.626C177.492 199.852 177.303 200.04 177.075 200.169L142.445 220.129C142.367 220.175 142.279 220.199 142.189 220.2C142.099 220.201 142.011 220.177 141.933 220.133C141.855 220.088 141.79 220.024 141.745 219.946C141.7 219.868 141.676 219.78 141.676 219.69V217.694C141.678 217.432 141.748 217.176 141.879 216.95C142.01 216.724 142.198 216.537 142.425 216.406L177.065 196.446C177.146 196.4 177.238 196.377 177.331 196.38C177.424 196.382 177.514 196.41 177.593 196.461C177.671 196.511 177.734 196.582 177.774 196.666C177.815 196.749 177.832 196.843 177.824 196.935Z" fill="#273B4A"/>
<path d="M169.48 206.815V207.863C169.482 208.003 169.446 208.141 169.375 208.263C169.305 208.384 169.204 208.484 169.081 208.552L150.429 219.29C150.387 219.316 150.339 219.329 150.291 219.33C150.242 219.33 150.194 219.317 150.153 219.293C150.111 219.268 150.076 219.233 150.053 219.19C150.029 219.148 150.018 219.1 150.019 219.051V218.003C150.019 217.863 150.056 217.726 150.126 217.605C150.196 217.484 150.297 217.384 150.419 217.314L169.071 206.586C169.112 206.564 169.158 206.553 169.205 206.554C169.252 206.554 169.298 206.567 169.338 206.589C169.379 206.612 169.413 206.645 169.438 206.684C169.463 206.724 169.477 206.769 169.48 206.815Z" fill="#E0E0E0"/>
<path d="M182.045 180.538C182.045 184.46 178.872 189.47 174.949 191.736C171.027 194.001 167.844 192.654 167.844 188.742C167.844 184.83 171.027 179.76 174.949 177.544C178.872 175.329 182.045 176.646 182.045 180.538Z" fill="#D6AA1B"/>
<path d="M175.229 180.957C176.327 180.319 176.456 180.249 176.886 180.019C177.123 179.884 177.378 179.783 177.644 179.72C177.797 179.673 177.96 179.673 178.113 179.72C178.181 179.745 178.244 179.784 178.297 179.833C178.35 179.883 178.393 179.943 178.422 180.009C178.517 180.223 178.564 180.454 178.562 180.688C178.562 181.117 178.562 181.237 178.562 182.334C178.562 183.432 178.562 183.562 178.562 184.001C178.555 184.289 178.508 184.574 178.422 184.849C178.353 185.08 178.248 185.299 178.113 185.498C177.98 185.709 177.822 185.903 177.644 186.077C177.414 186.298 177.16 186.493 176.886 186.656C176.456 186.925 176.327 187.005 175.229 187.654C174.131 188.303 174.001 188.352 173.572 188.582C173.337 188.722 173.081 188.823 172.814 188.881C172.662 188.933 172.497 188.933 172.345 188.881C172.275 188.855 172.212 188.815 172.159 188.764C172.105 188.712 172.063 188.65 172.035 188.582C171.938 188.369 171.891 188.137 171.896 187.903C171.896 187.484 171.896 187.354 171.896 186.267C171.896 185.179 171.896 185.039 171.896 184.59C171.902 184.305 171.949 184.023 172.035 183.752C172.105 183.521 172.209 183.302 172.345 183.103C172.475 182.891 172.633 182.696 172.814 182.524C173.043 182.303 173.298 182.108 173.572 181.945C174.001 181.676 174.131 181.596 175.229 180.947V180.957ZM175.229 180.209C174.121 180.847 173.981 180.937 173.542 181.207C173.18 181.421 172.844 181.679 172.544 181.975C172.266 182.24 172.021 182.539 171.816 182.863C171.617 183.174 171.459 183.51 171.347 183.861C171.234 184.22 171.17 184.593 171.157 184.969C171.157 185.418 171.157 185.558 171.157 186.666C171.157 187.774 171.157 187.923 171.157 188.342C171.156 188.649 171.221 188.952 171.347 189.231C171.438 189.436 171.607 189.597 171.816 189.68C172.046 189.775 172.301 189.796 172.544 189.74C172.894 189.66 173.23 189.528 173.542 189.35C173.981 189.121 174.121 189.041 175.229 188.352C176.337 187.664 176.476 187.624 176.915 187.354C177.274 187.133 177.608 186.876 177.913 186.586C178.192 186.321 178.437 186.023 178.642 185.698C178.845 185.389 179.003 185.053 179.111 184.7C179.224 184.341 179.288 183.968 179.301 183.592C179.301 183.143 179.301 183.003 179.301 181.885C179.301 180.768 179.301 180.638 179.301 180.209C179.301 179.906 179.236 179.606 179.111 179.33C179.02 179.123 178.852 178.958 178.642 178.871C178.404 178.801 178.151 178.801 177.913 178.871C177.562 178.947 177.225 179.078 176.915 179.261C176.476 179.49 176.347 179.56 175.229 180.259" fill="white"/>
<path d="M175.229 182.215C174.644 182.565 174.149 183.047 173.783 183.622C173.417 184.197 173.191 184.85 173.123 185.528C173.123 186.696 174.071 187.085 175.229 186.416C175.814 186.067 176.309 185.585 176.675 185.009C177.04 184.434 177.266 183.781 177.335 183.103C177.335 181.935 176.387 181.536 175.229 182.215ZM175.229 185.678C174.47 186.117 173.862 185.858 173.862 185.099C173.906 184.658 174.052 184.234 174.29 183.859C174.527 183.485 174.849 183.171 175.229 182.943C175.987 182.514 176.596 182.774 176.596 183.522C176.555 183.964 176.41 184.39 176.172 184.765C175.934 185.139 175.611 185.452 175.229 185.678Z" fill="white"/>
<path d="M177.904 180.578C177.89 180.738 177.839 180.891 177.754 181.027C177.669 181.162 177.552 181.275 177.415 181.357C177.145 181.516 176.925 181.416 176.925 181.147C176.939 180.987 176.99 180.834 177.075 180.698C177.16 180.563 177.277 180.45 177.415 180.369C177.684 180.219 177.904 180.309 177.904 180.578Z" fill="white"/>
<path d="M149.311 186.815C143.742 187.584 143.023 193.921 143.023 193.921V203.592C145.077 204.224 147.249 204.375 149.371 204.031C150.311 200.868 151.06 197.652 151.616 194.4C152.474 188.402 149.311 186.815 149.311 186.815Z" fill="#977F41"/>
<path d="M348.751 64.7302V114.56C348.753 115.657 348.465 116.735 347.916 117.685C347.368 118.635 346.578 119.423 345.627 119.969L200.259 203.642C199.936 203.829 199.569 203.929 199.196 203.929C198.822 203.93 198.455 203.833 198.131 203.647C197.807 203.46 197.538 203.192 197.351 202.869C197.164 202.546 197.065 202.179 197.065 201.805V151.965C197.065 150.868 197.355 149.79 197.905 148.84C198.456 147.89 199.247 147.102 200.199 146.556L345.558 62.8739C345.882 62.6887 346.25 62.592 346.624 62.5935C346.998 62.5951 347.365 62.6948 347.689 62.8828C348.012 63.0707 348.28 63.3403 348.467 63.6645C348.653 63.9887 348.751 64.3562 348.751 64.7302Z" fill="#D6AA1B"/>
<path opacity="0.7" d="M348.751 64.7302V114.56C348.753 115.657 348.465 116.735 347.916 117.685C347.368 118.635 346.578 119.423 345.627 119.969L200.259 203.642C199.936 203.829 199.569 203.929 199.196 203.929C198.822 203.93 198.455 203.833 198.131 203.647C197.807 203.46 197.538 203.192 197.351 202.869C197.164 202.546 197.065 202.179 197.065 201.805V151.965C197.065 150.868 197.355 149.79 197.905 148.84C198.456 147.89 199.247 147.102 200.199 146.556L345.558 62.8739C345.882 62.6887 346.25 62.592 346.624 62.5935C346.998 62.5951 347.365 62.6948 347.689 62.8828C348.012 63.0707 348.28 63.3403 348.467 63.6645C348.653 63.9887 348.751 64.3562 348.751 64.7302Z" fill="white"/>
<path d="M252.354 125.838V164.45C252.353 165.301 252.127 166.137 251.699 166.873C251.272 167.609 250.658 168.219 249.919 168.642L205.239 194.35C204.988 194.496 204.703 194.573 204.414 194.574C204.124 194.574 203.839 194.498 203.588 194.354C203.337 194.209 203.128 194 202.983 193.749C202.839 193.498 202.763 193.213 202.764 192.923V154.321C202.763 153.47 202.987 152.635 203.413 151.899C203.839 151.163 204.451 150.552 205.189 150.129L249.869 124.41C250.12 124.265 250.405 124.189 250.696 124.188C250.986 124.188 251.271 124.264 251.523 124.409C251.774 124.553 251.983 124.761 252.129 125.012C252.275 125.263 252.353 125.547 252.354 125.838Z" fill="white"/>
<path d="M252.354 159.111V164.45C252.354 165.302 252.128 166.138 251.701 166.874C251.273 167.61 250.658 168.22 249.919 168.642L242.185 173.093L226.476 182.135L234.32 165.798L239.949 154.081C240.947 151.945 243.243 150.638 244.271 151.596L252.354 159.111Z" fill="#273B4A"/>
<path d="M242.185 173.093L226.476 182.135L205.239 194.351C204.988 194.496 204.703 194.573 204.414 194.574C204.124 194.575 203.839 194.499 203.588 194.354C203.337 194.209 203.128 194.001 202.983 193.749C202.839 193.498 202.763 193.213 202.764 192.923V189.46L218.193 157.325C219.191 155.199 221.476 153.892 222.504 154.84L234.32 165.818L242.185 173.093Z" fill="#455A64"/>
<path d="M247.833 138.832C247.833 141.995 245.269 146.037 242.105 147.814C238.941 149.59 236.386 148.552 236.386 145.389C236.386 142.225 238.941 138.193 242.105 136.407C245.269 134.62 247.833 135.728 247.833 138.832Z" fill="#455A64"/>
<path d="M342.613 92.8638V93.8618C342.615 94.1313 342.544 94.3964 342.409 94.6297C342.274 94.863 342.079 95.0561 341.845 95.1891L257.205 143.862C257.124 143.907 257.033 143.93 256.941 143.93C256.849 143.929 256.759 143.904 256.679 143.858C256.599 143.811 256.533 143.745 256.487 143.665C256.441 143.585 256.416 143.495 256.416 143.402V142.404C256.418 142.133 256.491 141.867 256.627 141.632C256.764 141.398 256.96 141.203 257.195 141.067L341.825 92.4047C341.905 92.3595 341.996 92.336 342.088 92.3367C342.181 92.3374 342.271 92.3621 342.351 92.4085C342.43 92.4549 342.496 92.5213 342.543 92.6012C342.589 92.681 342.613 92.7716 342.613 92.8638Z" fill="white"/>
<path d="M342.613 99.7999V100.798C342.615 101.067 342.544 101.333 342.409 101.566C342.274 101.799 342.079 101.992 341.845 102.125L257.205 150.798C257.125 150.843 257.035 150.866 256.944 150.866C256.852 150.866 256.763 150.842 256.683 150.796C256.604 150.751 256.537 150.686 256.491 150.608C256.444 150.529 256.418 150.44 256.416 150.349V149.351C256.417 149.08 256.489 148.815 256.626 148.582C256.763 148.348 256.959 148.156 257.195 148.023L341.825 99.3508C341.905 99.306 341.994 99.2825 342.086 99.2827C342.177 99.2829 342.267 99.3068 342.346 99.3521C342.426 99.3973 342.492 99.4623 342.539 99.5408C342.586 99.6193 342.611 99.7086 342.613 99.7999Z" fill="white"/>
<path d="M342.613 78.9317V79.9297C342.613 80.2004 342.543 80.4663 342.408 80.701C342.273 80.9357 342.079 81.1309 341.845 81.2671L257.205 129.93C257.125 129.974 257.035 129.998 256.944 129.998C256.852 129.997 256.763 129.974 256.683 129.928C256.604 129.883 256.537 129.818 256.491 129.74C256.444 129.661 256.418 129.572 256.416 129.48V128.482C256.417 128.212 256.489 127.947 256.626 127.714C256.763 127.48 256.959 127.288 257.195 127.155L341.825 78.4826C341.905 78.4378 341.994 78.4143 342.086 78.4146C342.177 78.4148 342.267 78.4387 342.346 78.4839C342.426 78.5291 342.492 78.5941 342.539 78.6726C342.586 78.7511 342.611 78.8404 342.613 78.9317Z" fill="white"/>
<path d="M342.613 85.8979V86.8958C342.614 87.1652 342.543 87.4299 342.408 87.663C342.273 87.8961 342.079 88.0894 341.845 88.2232L257.205 136.886C257.125 136.934 257.035 136.96 256.942 136.961C256.85 136.962 256.759 136.939 256.678 136.893C256.598 136.847 256.531 136.781 256.485 136.701C256.439 136.62 256.415 136.529 256.416 136.437V135.439C256.418 135.168 256.491 134.903 256.627 134.67C256.764 134.437 256.96 134.245 257.195 134.111L341.825 85.4488C341.904 85.4007 341.995 85.3746 342.087 85.3733C342.18 85.372 342.271 85.3955 342.351 85.4413C342.432 85.4871 342.498 85.5536 342.545 85.6339C342.591 85.7142 342.614 85.8053 342.613 85.8979Z" fill="white"/>
<path d="M324.769 117.115V118.113C324.769 118.384 324.696 118.649 324.559 118.882C324.423 119.115 324.226 119.308 323.991 119.441L257.205 157.794C257.125 157.839 257.035 157.862 256.944 157.862C256.852 157.862 256.763 157.838 256.683 157.793C256.604 157.747 256.537 157.682 256.491 157.604C256.444 157.525 256.418 157.436 256.416 157.345V156.347C256.417 156.076 256.489 155.811 256.626 155.578C256.763 155.345 256.959 155.152 257.195 155.019L323.981 116.666C324.06 116.621 324.15 116.598 324.242 116.598C324.333 116.598 324.423 116.622 324.502 116.667C324.582 116.713 324.648 116.778 324.695 116.856C324.741 116.935 324.767 117.024 324.769 117.115Z" fill="white"/>
<path d="M253.143 179.84V180.838C253.141 181.108 253.069 181.373 252.934 181.607C252.8 181.842 252.607 182.037 252.374 182.175L197.854 213.532C197.773 213.577 197.682 213.601 197.59 213.6C197.498 213.599 197.408 213.575 197.328 213.528C197.248 213.482 197.182 213.415 197.136 213.336C197.09 213.256 197.065 213.165 197.065 213.073V212.125C197.064 211.855 197.134 211.59 197.269 211.357C197.404 211.124 197.599 210.931 197.834 210.798L252.354 179.43C252.431 179.387 252.518 179.363 252.606 179.361C252.694 179.359 252.781 179.38 252.86 179.421C252.938 179.461 253.005 179.521 253.055 179.594C253.104 179.667 253.134 179.752 253.143 179.84Z" fill="#455A64"/>
<path d="M253.143 108.033V109.031C253.142 109.3 253.071 109.565 252.936 109.798C252.801 110.031 252.607 110.224 252.374 110.359L197.854 141.716C197.774 141.764 197.684 141.79 197.591 141.791C197.499 141.793 197.408 141.769 197.327 141.723C197.247 141.677 197.18 141.611 197.134 141.531C197.088 141.45 197.064 141.359 197.065 141.267V140.269C197.065 139.999 197.136 139.735 197.271 139.502C197.406 139.268 197.6 139.075 197.834 138.941L252.354 107.584C252.434 107.539 252.524 107.516 252.615 107.516C252.707 107.516 252.796 107.54 252.876 107.585C252.955 107.631 253.021 107.696 253.068 107.774C253.115 107.853 253.141 107.942 253.143 108.033Z" fill="#455A64"/>
<path d="M348.751 200.748V250.578C348.753 251.675 348.465 252.752 347.917 253.702C347.368 254.652 346.578 255.44 345.627 255.987L200.259 339.659C199.935 339.847 199.567 339.947 199.193 339.947C198.819 339.947 198.451 339.849 198.127 339.661C197.803 339.474 197.534 339.205 197.348 338.88C197.161 338.555 197.064 338.187 197.065 337.813V287.983C197.065 286.885 197.355 285.807 197.905 284.857C198.456 283.908 199.247 283.12 200.199 282.574L345.558 198.901C345.882 198.716 346.249 198.62 346.622 198.621C346.995 198.622 347.361 198.721 347.684 198.908C348.007 199.094 348.276 199.363 348.463 199.685C348.65 200.008 348.75 200.374 348.751 200.748Z" fill="#D6AA1B"/>
<path opacity="0.7" d="M348.751 200.748V250.578C348.753 251.675 348.465 252.752 347.917 253.702C347.368 254.652 346.578 255.44 345.627 255.987L200.259 339.659C199.935 339.847 199.567 339.947 199.193 339.947C198.819 339.947 198.451 339.849 198.127 339.661C197.803 339.474 197.534 339.205 197.348 338.88C197.161 338.555 197.064 338.187 197.065 337.813V287.983C197.065 286.885 197.355 285.807 197.905 284.857C198.456 283.908 199.247 283.12 200.199 282.574L345.558 198.901C345.882 198.716 346.249 198.62 346.622 198.621C346.995 198.622 347.361 198.721 347.684 198.908C348.007 199.094 348.276 199.363 348.463 199.685C348.65 200.008 348.75 200.374 348.751 200.748Z" fill="white"/>
<path d="M252.354 261.855V300.468C252.353 301.319 252.127 302.154 251.699 302.89C251.272 303.626 250.658 304.236 249.919 304.659L205.239 330.338C204.988 330.484 204.703 330.561 204.414 330.561C204.124 330.562 203.839 330.486 203.588 330.341C203.337 330.196 203.128 329.988 202.983 329.737C202.839 329.486 202.763 329.201 202.764 328.911V290.338C202.763 289.488 202.987 288.652 203.413 287.916C203.839 287.18 204.451 286.57 205.189 286.146L249.869 260.478C250.117 260.335 250.397 260.258 250.683 260.255C250.969 260.253 251.251 260.324 251.502 260.463C251.752 260.602 251.962 260.803 252.111 261.047C252.261 261.291 252.344 261.569 252.354 261.855Z" fill="white"/>
<path d="M252.354 295.128V300.458C252.356 301.309 252.131 302.146 251.703 302.883C251.276 303.619 250.66 304.229 249.919 304.649L242.185 309.11L226.476 318.152L234.32 301.815L239.949 290.099C240.947 287.963 243.243 286.655 244.271 287.613L252.354 295.128Z" fill="#273B4A"/>
<path d="M242.185 309.11L226.476 318.152L205.239 330.338C204.988 330.484 204.703 330.561 204.414 330.561C204.124 330.562 203.839 330.486 203.588 330.341C203.337 330.196 203.128 329.988 202.983 329.737C202.839 329.486 202.763 329.201 202.764 328.911V325.438L218.193 293.312C219.191 291.186 221.476 289.879 222.504 290.827L234.32 301.805L242.185 309.11Z" fill="#455A64"/>
<path d="M247.833 274.849C247.833 278.013 245.269 282.055 242.105 283.881C238.941 285.707 236.386 284.62 236.386 281.456C236.386 278.292 238.941 274.26 242.105 272.474C245.269 270.688 247.833 271.696 247.833 274.849Z" fill="#455A64"/>
<path d="M342.613 228.881V229.879C342.615 230.149 342.544 230.414 342.409 230.647C342.274 230.881 342.079 231.074 341.845 231.207L257.205 279.839C257.124 279.884 257.033 279.908 256.941 279.907C256.849 279.906 256.759 279.882 256.679 279.835C256.599 279.789 256.533 279.722 256.487 279.643C256.441 279.563 256.416 279.472 256.416 279.38V278.442C256.418 278.171 256.491 277.904 256.627 277.67C256.764 277.435 256.96 277.24 257.195 277.105L341.825 228.442C341.904 228.398 341.993 228.374 342.083 228.374C342.174 228.374 342.263 228.397 342.342 228.441C342.421 228.485 342.488 228.548 342.535 228.626C342.583 228.703 342.61 228.791 342.613 228.881Z" fill="white"/>
<path d="M342.613 235.847V236.845C342.615 237.115 342.544 237.38 342.409 237.613C342.274 237.847 342.079 238.04 341.845 238.173L257.205 286.845C257.124 286.89 257.033 286.914 256.941 286.913C256.849 286.912 256.759 286.888 256.679 286.841C256.599 286.795 256.533 286.728 256.487 286.649C256.441 286.569 256.416 286.478 256.416 286.386V285.428C256.417 285.158 256.489 284.892 256.626 284.659C256.763 284.426 256.959 284.233 257.195 284.101L341.825 235.428C341.902 235.384 341.99 235.361 342.079 235.359C342.168 235.358 342.256 235.379 342.334 235.421C342.413 235.463 342.48 235.524 342.529 235.598C342.577 235.673 342.606 235.759 342.613 235.847Z" fill="white"/>
<path d="M342.613 214.949V215.947C342.615 216.217 342.544 216.482 342.409 216.715C342.274 216.948 342.079 217.142 341.845 217.275L257.205 265.947C257.125 265.992 257.035 266.015 256.944 266.015C256.852 266.015 256.763 265.991 256.683 265.946C256.604 265.901 256.537 265.836 256.491 265.757C256.444 265.679 256.418 265.589 256.416 265.498V264.5C256.417 264.23 256.489 263.964 256.626 263.731C256.763 263.498 256.959 263.305 257.195 263.173L341.825 214.5C341.905 214.455 341.994 214.432 342.086 214.432C342.177 214.432 342.267 214.456 342.346 214.501C342.426 214.547 342.492 214.612 342.539 214.69C342.586 214.769 342.611 214.858 342.613 214.949Z" fill="white"/>
<path d="M342.613 221.915V222.913C342.614 223.183 342.543 223.447 342.408 223.68C342.273 223.913 342.079 224.107 341.845 224.241L257.205 272.903C257.125 272.951 257.035 272.977 256.942 272.978C256.85 272.98 256.759 272.956 256.678 272.91C256.598 272.865 256.531 272.798 256.485 272.718C256.439 272.638 256.415 272.546 256.416 272.454V271.456C256.418 271.186 256.491 270.921 256.627 270.688C256.764 270.455 256.96 270.262 257.195 270.129L341.825 221.466C341.904 221.418 341.995 221.392 342.087 221.391C342.18 221.389 342.271 221.413 342.351 221.459C342.432 221.504 342.498 221.571 342.545 221.651C342.591 221.731 342.614 221.823 342.613 221.915Z" fill="white"/>
<path d="M324.769 253.133V254.131C324.769 254.401 324.696 254.666 324.559 254.9C324.423 255.133 324.226 255.325 323.991 255.458L257.205 293.811C257.125 293.856 257.035 293.879 256.944 293.879C256.852 293.879 256.763 293.855 256.683 293.81C256.604 293.765 256.537 293.7 256.491 293.621C256.444 293.543 256.418 293.453 256.416 293.362V292.364C256.417 292.094 256.489 291.828 256.626 291.595C256.763 291.362 256.959 291.169 257.195 291.037L323.981 252.684C324.06 252.639 324.15 252.615 324.242 252.615C324.333 252.616 324.423 252.64 324.502 252.685C324.582 252.73 324.648 252.795 324.695 252.874C324.741 252.952 324.767 253.041 324.769 253.133Z" fill="white"/>
<path d="M327.514 52.6743C327.426 53.5487 327.135 54.3905 326.664 55.1323C326.192 55.874 325.554 56.4951 324.799 56.9457C323.302 57.804 322.095 57.295 322.095 55.798C322.18 54.9242 322.47 54.0827 322.939 53.3409C323.409 52.5991 324.046 51.9777 324.799 51.5266C326.346 50.6583 327.514 51.1772 327.514 52.6743Z" fill="#D6AA1B"/>
<path d="M336.805 47.3052C336.718 48.1812 336.427 49.0248 335.956 49.7682C335.485 50.5117 334.846 51.1344 334.091 51.5867C332.594 52.4449 331.386 51.936 331.386 50.439C331.47 49.5647 331.759 48.7226 332.229 47.9806C332.698 47.2386 333.336 46.6175 334.091 46.1675C335.588 45.2993 336.805 45.8082 336.805 47.3052Z" fill="#D6AA1B"/>
<path d="M346.086 41.916C346.002 42.7902 345.714 43.6324 345.244 44.3744C344.774 45.1164 344.136 45.7375 343.382 46.1874C341.885 47.0557 340.667 46.5367 340.667 45.0397C340.755 44.1653 341.046 43.3235 341.517 42.5817C341.989 41.84 342.627 41.2189 343.382 40.7683C344.879 39.92 346.086 40.4489 346.086 41.916Z" fill="#D6AA1B"/>
<path opacity="0.4" d="M327.514 52.6743C327.426 53.5487 327.135 54.3905 326.664 55.1323C326.192 55.874 325.554 56.4951 324.799 56.9457C323.302 57.804 322.095 57.295 322.095 55.798C322.18 54.9242 322.47 54.0827 322.939 53.3409C323.409 52.5991 324.046 51.9777 324.799 51.5266C326.346 50.6583 327.514 51.1772 327.514 52.6743Z" fill="#273B4A"/>
<path opacity="0.4" d="M336.805 47.3052C336.718 48.1812 336.427 49.0248 335.956 49.7682C335.485 50.5117 334.846 51.1344 334.091 51.5867C332.594 52.4449 331.386 51.936 331.386 50.439C331.47 49.5647 331.759 48.7226 332.229 47.9806C332.698 47.2386 333.336 46.6175 334.091 46.1675C335.588 45.2993 336.805 45.8082 336.805 47.3052Z" fill="#273B4A"/>
<path opacity="0.4" d="M346.086 41.916C346.002 42.7902 345.714 43.6324 345.244 44.3744C344.774 45.1164 344.136 45.7375 343.382 46.1874C341.885 47.0557 340.667 46.5367 340.667 45.0397C340.755 44.1653 341.046 43.3235 341.517 42.5817C341.989 41.84 342.627 41.2189 343.382 40.7683C344.879 39.92 346.086 40.4489 346.086 41.916Z" fill="#273B4A"/>
<path d="M355.049 134.73L350.178 131.866C349.844 131.614 349.444 131.467 349.027 131.442C348.61 131.417 348.194 131.516 347.833 131.726L200.249 216.706C199.282 217.26 198.479 218.059 197.92 219.023C197.362 219.987 197.067 221.081 197.065 222.195V272.793C197.072 273.237 197.217 273.668 197.48 274.026C197.743 274.383 198.111 274.65 198.532 274.789L203.143 277.594L202.983 273.093L347.893 189.68C348.859 189.125 349.662 188.326 350.221 187.362C350.78 186.399 351.075 185.305 351.076 184.191V136.806L355.049 134.73Z" fill="#D6AA1B"/>
<path d="M352.793 134.73L205.209 219.65C204.241 220.205 203.437 221.006 202.878 221.971C202.319 222.937 202.025 224.033 202.025 225.149V275.747C202.025 276.133 202.128 276.512 202.325 276.844C202.522 277.176 202.804 277.449 203.143 277.634C203.467 277.817 203.833 277.914 204.206 277.914C204.578 277.914 204.944 277.817 205.269 277.634L352.853 192.684C353.82 192.131 354.625 191.332 355.184 190.368C355.743 189.404 356.037 188.309 356.036 187.195V136.596C356.034 136.218 355.933 135.846 355.742 135.519C355.552 135.192 355.279 134.92 354.951 134.731C354.623 134.542 354.251 134.443 353.872 134.443C353.493 134.442 353.121 134.541 352.793 134.73Z" fill="#D6AA1B"/>
<path opacity="0.4" d="M356.036 136.576V187.175C356.037 188.289 355.743 189.384 355.184 190.348C354.625 191.312 353.82 192.111 352.853 192.664L205.269 277.613C204.94 277.802 204.568 277.901 204.189 277.901C203.811 277.901 203.439 277.801 203.111 277.612C202.782 277.423 202.509 277.152 202.319 276.825C202.128 276.497 202.027 276.126 202.025 275.747V225.149C202.025 224.033 202.319 222.937 202.878 221.971C203.437 221.006 204.241 220.205 205.209 219.65L352.793 134.73C353.12 134.542 353.49 134.443 353.867 134.442C354.244 134.442 354.615 134.539 354.942 134.726C355.27 134.912 355.543 135.181 355.735 135.506C355.927 135.83 356.031 136.199 356.036 136.576Z" fill="white"/>
<path d="M258.153 198.602V237.793C258.153 238.657 257.927 239.505 257.496 240.253C257.065 241.001 256.445 241.622 255.698 242.055L210.329 268.162C210.074 268.309 209.785 268.387 209.491 268.387C209.198 268.387 208.909 268.31 208.654 268.164C208.399 268.017 208.188 267.806 208.04 267.552C207.893 267.298 207.814 267.009 207.814 266.715V227.544C207.813 226.681 208.04 225.833 208.473 225.086C208.906 224.339 209.529 223.72 210.279 223.292L255.638 197.175C255.891 197.029 256.178 196.951 256.47 196.95C256.762 196.949 257.05 197.024 257.304 197.168C257.558 197.313 257.77 197.521 257.919 197.772C258.068 198.024 258.148 198.31 258.153 198.602Z" fill="white"/>
<path d="M258.163 232.394V237.813C258.163 238.679 257.935 239.529 257.5 240.278C257.065 241.026 256.44 241.646 255.688 242.075L247.843 246.596L231.875 255.777L239.859 239.191L245.578 227.294C246.626 225.129 248.921 223.801 249.959 224.769L258.163 232.394Z" fill="#D6AA1B"/>
<path opacity="0.2" d="M258.163 232.394V237.813C258.163 238.679 257.935 239.529 257.5 240.278C257.065 241.026 256.44 241.646 255.688 242.075L247.843 246.596L231.875 255.777L239.859 239.191L245.578 227.294C246.626 225.129 248.921 223.801 249.959 224.769L258.163 232.394Z" fill="#273B4A"/>
<path d="M247.843 246.596L231.875 255.777L210.319 268.183C210.064 268.329 209.775 268.407 209.481 268.407C209.188 268.407 208.899 268.33 208.644 268.184C208.389 268.037 208.178 267.826 208.03 267.572C207.883 267.318 207.804 267.029 207.804 266.735V263.212L223.472 230.588C224.47 228.422 226.806 227.095 227.843 228.063L239.819 239.191L247.843 246.596Z" fill="#D6AA1B"/>
<path d="M253.572 211.815C253.572 215.019 250.967 219.131 247.754 220.977C244.54 222.823 241.945 221.736 241.945 218.522C241.945 215.308 244.55 211.207 247.754 209.36C250.957 207.514 253.572 208.582 253.572 211.815Z" fill="#D6AA1B"/>
<path d="M349.799 165.139V166.137C349.798 166.41 349.725 166.678 349.589 166.914C349.452 167.15 349.256 167.347 349.021 167.484L263.083 216.895C263.002 216.94 262.912 216.964 262.819 216.963C262.727 216.963 262.637 216.938 262.557 216.891C262.477 216.845 262.411 216.779 262.365 216.699C262.319 216.619 262.295 216.528 262.294 216.436V215.438C262.293 215.163 262.364 214.893 262.501 214.655C262.637 214.416 262.835 214.218 263.073 214.081L349.001 164.67C349.082 164.622 349.175 164.596 349.269 164.596C349.364 164.596 349.457 164.621 349.538 164.669C349.62 164.717 349.687 164.786 349.733 164.868C349.779 164.951 349.802 165.044 349.799 165.139Z" fill="white"/>
<path d="M349.799 172.215V173.213C349.799 173.487 349.727 173.757 349.59 173.995C349.454 174.233 349.257 174.431 349.021 174.57L263.083 223.951C263.002 223.996 262.912 224.02 262.819 224.019C262.727 224.019 262.637 223.994 262.557 223.947C262.477 223.901 262.411 223.835 262.365 223.755C262.319 223.675 262.295 223.584 262.294 223.492V222.494C262.293 222.219 262.364 221.949 262.501 221.711C262.637 221.472 262.835 221.274 263.073 221.137L349.001 171.726C349.083 171.677 349.178 171.651 349.275 171.651C349.371 171.652 349.465 171.679 349.547 171.729C349.63 171.78 349.697 171.851 349.741 171.937C349.785 172.023 349.805 172.119 349.799 172.215Z" fill="white"/>
<path d="M349.799 150.987V151.985C349.798 152.258 349.725 152.526 349.589 152.762C349.452 152.999 349.256 153.195 349.021 153.333L263.083 202.744C263.002 202.789 262.912 202.812 262.819 202.812C262.727 202.811 262.637 202.786 262.557 202.74C262.477 202.693 262.411 202.627 262.365 202.547C262.319 202.467 262.295 202.377 262.294 202.285V201.287C262.291 201.013 262.362 200.743 262.499 200.506C262.636 200.269 262.834 200.073 263.073 199.939L349.001 150.518C349.082 150.473 349.175 150.45 349.268 150.452C349.361 150.453 349.453 150.479 349.533 150.526C349.614 150.573 349.68 150.641 349.727 150.721C349.774 150.802 349.798 150.894 349.799 150.987Z" fill="white"/>
<path d="M349.799 158.063V159.061C349.798 159.334 349.725 159.602 349.589 159.838C349.452 160.075 349.256 160.271 349.021 160.409L263.083 209.819C263.002 209.865 262.912 209.888 262.819 209.887C262.727 209.887 262.637 209.862 262.557 209.816C262.477 209.769 262.411 209.703 262.365 209.623C262.319 209.543 262.295 209.453 262.294 209.36V208.362C262.293 208.088 262.364 207.817 262.501 207.579C262.637 207.34 262.835 207.143 263.073 207.005L349.001 157.594C349.082 157.546 349.175 157.52 349.269 157.52C349.364 157.52 349.457 157.545 349.538 157.593C349.62 157.641 349.687 157.71 349.733 157.793C349.779 157.875 349.802 157.969 349.799 158.063Z" fill="white"/>
<path d="M331.675 189.77V190.768C331.677 191.041 331.606 191.31 331.469 191.547C331.332 191.784 331.135 191.98 330.897 192.115L263.083 231.037C263.002 231.082 262.912 231.106 262.819 231.105C262.727 231.104 262.637 231.079 262.557 231.033C262.477 230.987 262.411 230.92 262.365 230.84C262.319 230.76 262.295 230.67 262.294 230.578V229.58C262.293 229.305 262.364 229.035 262.501 228.796C262.637 228.558 262.835 228.36 263.073 228.222L330.887 189.3C330.968 189.255 331.06 189.231 331.153 189.232C331.246 189.234 331.337 189.259 331.417 189.307C331.497 189.354 331.563 189.422 331.608 189.503C331.654 189.585 331.677 189.676 331.675 189.77Z" fill="white"/>
<path d="M368.142 397.913C368.142 397.913 369.25 398.332 369.14 400.098C369.031 401.865 367.963 404.729 367.683 406.555C367.404 408.382 368.142 412.473 367.553 413.432C366.965 414.39 358.751 418.022 358.751 418.022L359.54 404.859C359.54 404.859 361.795 399.4 363.721 398.471C365.121 397.903 366.645 397.71 368.142 397.913Z" fill="#D6AA1B"/>
<path opacity="0.4" d="M368.142 397.913C368.142 397.913 369.25 398.332 369.14 400.098C369.031 401.865 367.963 404.729 367.683 406.555C367.404 408.382 368.142 412.473 367.553 413.432C366.965 414.39 358.751 418.022 358.751 418.022L359.54 404.859C359.54 404.859 361.795 399.4 363.721 398.471C365.121 397.903 366.645 397.71 368.142 397.913Z" fill="#273B4A"/>
<path d="M366.755 396.954L368.142 397.952C367.201 397.942 366.271 398.166 365.438 398.605C364.605 399.044 363.895 399.684 363.372 400.467C361.705 403.132 361.605 409.699 361.516 412.114C361.426 414.529 360.897 417.284 358.422 418.212C355.947 419.14 351.915 417.783 350.148 415.946C349.935 415.167 350.002 414.337 350.338 413.601C350.927 412.793 357.244 412.853 357.244 412.853C357.244 412.853 359.35 401.984 359.35 401.875C359.35 401.765 361.795 396.974 361.795 396.974L366.755 396.954Z" fill="#273B4A"/>
<path d="M314.5 419.669C314.5 419.669 315.109 421.356 314.34 421.815C312.782 422.546 311.07 422.889 309.35 422.813C307.105 422.813 302.803 421.595 301.366 421.515C299.929 421.435 296.905 421.785 293.282 421.675C290.713 421.648 288.194 420.961 285.967 419.679C285.576 419.348 285.266 418.93 285.064 418.459C284.861 417.988 284.771 417.476 284.799 416.964C284.959 416.475 314.5 419.669 314.5 419.669Z" fill="#273B4A"/>
<path d="M284.709 416.745C284.989 417.463 286.396 419.36 289.699 420.248C289.974 420.324 290.254 420.381 290.538 420.417C293.402 420.847 298.522 420.497 300.807 420.467C303.382 420.467 305.797 421.575 308.991 421.545C312.184 421.515 313.701 421.056 314.35 419.908C314.999 418.761 314.53 418.142 314.35 415.916C314.17 413.691 314.13 410.687 313.941 409.439C313.941 409.439 313.671 408.242 313.073 408.172L303.781 407.713C303.262 407.962 302.953 409.659 301.785 410.378C300.617 411.096 296.516 410.657 294.29 410.378C292.065 410.098 288.811 409.879 286.576 411.376C285.796 412.008 285.208 412.846 284.879 413.795C284.549 414.743 284.49 415.765 284.709 416.745Z" fill="#455A64"/>
<path d="M313.372 402.513L313.142 408.142C313.142 408.142 312.444 411.346 308.312 411.346C308.312 411.346 303.851 411.435 303.851 407.863L304.131 400.877L313.372 402.513Z" fill="#977F41"/>
<path d="M284.709 416.745C284.989 417.463 286.396 419.359 289.699 420.248C289.974 420.324 290.254 420.381 290.538 420.417C289.28 411.835 294.28 410.308 294.28 410.308C292.045 409.988 288.801 409.809 286.566 411.306C285.775 411.946 285.182 412.795 284.854 413.758C284.525 414.72 284.475 415.755 284.709 416.745Z" fill="#D6AA1B"/>
<path d="M359.1 385.228L362.014 392.743L355.078 397.913L350.557 391.316C350.557 391.316 353.122 384.47 359.1 385.228Z" fill="#977F41"/>
<path d="M350.737 414.529C351.758 415.699 353.185 416.437 354.729 416.595C354.879 416.585 355.029 416.585 355.178 416.595C357.853 416.705 359.17 415.986 359.589 414.15C360.009 412.314 359.809 403.461 361.236 400.827C362.663 398.192 364.699 397.024 366.715 396.925L361.975 392.713C361.237 392.478 360.45 392.441 359.694 392.606C358.937 392.77 358.237 393.131 357.663 393.651C357.663 393.651 354.729 395.408 355.029 397.883C355.328 400.358 356.635 401.276 356.575 404.37C356.56 406.061 356.416 407.749 356.146 409.419C356.146 409.419 353.512 408.631 351.915 410.338C351.18 411.097 350.645 412.026 350.358 413.042C350.287 413.302 350.285 413.575 350.352 413.836C350.418 414.096 350.551 414.335 350.737 414.529Z" fill="#455A64"/>
<path d="M302.135 410.088C301.926 410.021 301.705 410.004 301.489 410.036C301.272 410.069 301.066 410.152 300.887 410.278C299.969 410.837 299.779 414.2 300.059 414.759C300.338 415.318 300.797 414.759 300.937 413.481C301.044 412.268 301.456 411.1 302.135 410.088Z" fill="white"/>
<path d="M299.111 410.717C299.111 410.717 298.691 410.926 298.322 412.054C297.953 413.182 298.093 414.639 297.703 414.839C297.314 415.038 297.184 414.07 297.174 413.092C297.081 412.242 297.282 411.386 297.743 410.667C297.935 410.499 298.183 410.411 298.437 410.421C298.691 410.43 298.932 410.536 299.111 410.717Z" fill="white"/>
<path d="M296.476 410.567C295.921 411.06 295.473 411.661 295.159 412.334C294.42 413.711 294.41 414.499 294.161 414.609C293.911 414.719 293.741 414.3 293.801 413.531C293.915 412.357 294.442 411.26 295.288 410.438C295.374 410.366 295.473 410.312 295.58 410.28C295.687 410.248 295.799 410.237 295.91 410.249C296.021 410.262 296.128 410.296 296.225 410.351C296.323 410.405 296.408 410.479 296.476 410.567Z" fill="white"/>
<path d="M350.737 414.529C351.758 415.699 353.185 416.437 354.729 416.595C354.879 416.585 355.029 416.585 355.178 416.595C354.897 414.157 355.24 411.688 356.176 409.419C356.176 409.419 353.541 408.631 351.945 410.338C351.21 411.097 350.675 412.026 350.388 413.042C350.313 413.299 350.306 413.571 350.367 413.832C350.429 414.092 350.556 414.332 350.737 414.529Z" fill="#D6AA1B"/>
<path d="M356.386 402.194C356.752 402.917 357.34 403.504 358.062 403.871C358.104 403.912 358.134 403.962 358.153 404.017C358.171 404.072 358.176 404.13 358.167 404.188C358.158 404.245 358.136 404.3 358.102 404.347C358.068 404.394 358.024 404.433 357.973 404.459C357.563 404.709 356.605 403.761 356.605 403.761C356.605 403.761 355.807 402.753 356.386 402.194Z" fill="white"/>
<path d="M356.575 405.617C356.838 406.256 357.172 406.862 357.573 407.423C358.152 408.172 358.182 408.681 357.783 408.691C357.384 408.701 356.785 407.972 356.486 407.154C356.316 406.649 356.349 406.099 356.575 405.617Z" fill="white"/>
<path d="M356.366 408.292C356.69 409.039 357.106 409.743 357.603 410.387C358.232 411.096 357.444 411.385 356.965 410.877C356.486 410.368 355.677 408.801 356.366 408.292Z" fill="white"/>
<path d="M300.628 354.589C300.807 358.112 302.364 375.547 302.624 380.787C302.883 386.026 303.801 402.843 303.801 402.843C305.557 403.647 307.451 404.105 309.38 404.19C312.793 404.439 313.781 403.072 313.781 403.072C313.781 403.072 314.28 398.801 314.959 395.398C315.638 391.994 318.741 372.853 318.612 366.406C318.616 362.925 318.115 359.463 317.125 356.126L322.284 324.5C322.284 324.5 323.372 331.336 324.6 338.532C325.827 345.767 327.204 353.352 327.763 354.699C328.881 357.404 350.577 391.306 350.577 391.306C352.003 389.624 353.605 388.102 355.358 386.765C356.466 385.947 357.758 385.416 359.12 385.218C359.12 385.218 350.298 360.757 348.302 356.985C346.877 354.506 344.866 352.416 342.444 350.897C342.444 350.897 342.214 301.995 341.945 298.821C341.709 296.636 341.272 294.478 340.637 292.374L303.582 297.673C303.582 297.673 300.588 328.512 300.298 334.031C300.009 339.55 300.398 351.056 300.628 354.589Z" fill="#273B4A"/>
<path d="M324.58 338.542L324.26 324.879L327.184 312.903C334.659 312.204 336.576 306.546 336.576 306.546C333.462 309.407 329.459 311.113 325.238 311.376L322.244 324.47C322.244 324.47 323.352 331.336 324.58 338.542Z" fill="#263238"/>
<path d="M335.677 242.773C337.891 243.806 339.742 245.482 340.987 247.584C343.212 251.207 352.045 274.44 351.576 276.666C351.106 278.891 338.711 294.799 338.711 294.799C338.711 294.799 334.29 289.49 333.602 286.695C333.602 286.695 338.711 277.224 339.919 276.196C339.919 276.196 336.705 267.843 335.777 265.049C334.849 262.254 330.268 246.506 335.677 242.773Z" fill="#977F41"/>
<path d="M309.38 222.035C309.38 222.035 306.655 225.688 306.595 226.646C306.536 227.604 309.38 227.544 309.38 227.544V222.035Z" fill="#794242"/>
<path d="M311.146 236.187C311.395 236.401 311.683 236.564 311.995 236.666C313.67 237.057 315.424 236.942 317.035 236.336V243.083H329.2C329.2 243.083 328.781 237.833 328.741 236.027C328.701 234.221 331.885 229.6 329.47 220.308C327.055 211.017 317.075 209.62 312.504 212.893C311.19 214.823 310.127 216.913 309.34 219.111C308.582 221.815 307.953 233.412 311.146 236.187Z" fill="#977F41"/>
<path d="M305.388 271.306L303.222 297.404C303.222 297.404 306.336 300.797 319.19 300.877H320.308C334.051 300.747 341.615 292.384 341.615 292.384L334.739 274.61C337.085 269.63 338.721 264.345 339.599 258.911C339.749 257.913 339.889 256.915 339.989 255.817C340.987 245.408 336.406 242.005 332.124 241.845C327.843 241.686 314.47 243.841 314.47 243.841L302.204 257.284C302.204 257.284 301.466 263.272 301.895 266.386C302.324 269.5 305.388 271.306 305.388 271.306Z" fill="#D6AA1B"/>
<path opacity="0.2" d="M319.16 300.827H320.268C334.011 300.697 341.575 292.334 341.575 292.334L334.699 274.56C337.045 269.58 338.681 264.296 339.559 258.861C339.34 259.61 335.817 271.616 328.502 276.536C328.502 276.536 337.114 278.771 335.817 286.755C334.52 294.739 327.085 299.46 319.16 300.827Z" fill="#273B4A"/>
<path d="M311.146 236.187C311.395 236.401 311.683 236.564 311.995 236.666C313.67 237.057 315.424 236.942 317.035 236.336L317.234 234.989C317.234 234.989 313.771 236.815 311.136 236.197L311.146 236.187Z" fill="#794242"/>
<path d="M318.572 222.055C318.976 221.916 319.405 221.864 319.831 221.9C320.257 221.936 320.671 222.06 321.046 222.265C321.422 222.469 321.75 222.75 322.011 223.088C322.273 223.427 322.461 223.816 322.564 224.231C322.714 224.82 322.714 225.438 322.564 226.027C321.985 228.512 320.358 230.558 317.065 230.348C317.065 230.348 317.154 234.72 320.498 235.787C323.841 236.855 328.811 236.017 328.811 236.017C329.743 234.663 330.785 233.388 331.925 232.205C333.412 230.767 340.059 224.031 339.589 217.993C339.12 211.955 334.859 211.257 334.859 211.257C335.39 210.465 335.661 209.528 335.636 208.575C335.611 207.622 335.291 206.7 334.719 205.937C334.244 205.219 333.516 204.707 332.679 204.503C331.843 204.3 330.96 204.42 330.208 204.839C330.208 204.839 329.61 200.917 325.887 200.498C324.857 200.36 323.809 200.536 322.88 201.005C321.952 201.473 321.188 202.212 320.687 203.123C320.687 203.123 317.524 199.48 313.252 201.127C312.677 201.303 312.143 201.595 311.684 201.984C311.224 202.373 310.849 202.851 310.58 203.39C310.311 203.928 310.155 204.516 310.12 205.117C310.085 205.718 310.173 206.319 310.378 206.885C310.378 206.885 306.386 205.219 304.061 208.602C301.735 211.985 304.48 217.524 309.35 219.101C309.861 217.633 310.65 216.277 311.675 215.109C311.675 215.109 312.184 217.803 313.721 218.043C313.721 218.043 311.955 222.314 314.56 223.891C314.56 223.891 313.302 227.284 314.56 227.424C314.56 227.424 315.148 227.963 315.558 226.137C315.917 224.809 316.845 222.684 318.572 222.055Z" fill="#263238"/>
<path d="M314.44 243.771C315.323 246.498 315.171 249.454 314.011 252.075C312.434 255.691 309.493 258.539 305.827 259.999C302.364 261.366 280.588 263.412 279.26 263.282C277.264 263.103 254.051 249.31 252.504 248.732C250.957 248.153 242.654 245.508 241.596 243.742C241.281 243.306 241.111 242.782 241.111 242.245C241.111 241.707 241.281 241.183 241.596 240.748C241.596 240.748 241.107 238.752 242.594 237.963C242.502 237.355 242.611 236.734 242.905 236.193C243.198 235.653 243.66 235.223 244.221 234.969C244.221 234.969 239.77 228.881 239.58 228.143C239.39 227.404 241.855 226.845 244.57 229.949C245.637 231.271 246.816 232.5 248.093 233.622L252.344 237.135C252.344 237.135 253.951 231.346 256.785 231.885C256.785 231.885 257.245 232.045 257.105 232.883C256.965 233.722 256.416 235.249 256.247 236.666C256.187 238.217 256.233 239.771 256.386 241.316C256.386 241.316 276.785 251.496 278.143 251.496C279.5 251.496 304.889 243.881 308.731 243.811C312.574 243.742 314.44 243.771 314.44 243.771Z" fill="#977F41"/>
</svg>
