<svg width="63" height="63" viewBox="0 0 63 63" fill="none" xmlns="http://www.w3.org/2000/svg">
<path d="M0 0H54.5C58.9183 0 62.5 3.58172 62.5 8V54.5C62.5 58.9183 58.9183 62.5 54.5 62.5H8C3.58172 62.5 0 58.9183 0 54.5V0Z" fill="#FDF9ED"/>
<path d="M41.3965 41.9727H22.3535C18.988 41.9727 16.25 39.2346 16.25 35.8691V26.1035C16.25 22.738 18.988 20 22.3535 20H41.3965C44.762 20 47.5 22.738 47.5 26.1035V35.8691C47.5 39.2346 44.762 41.9727 41.3965 41.9727ZM22.3535 22.4414C20.3342 22.4414 18.6914 24.0842 18.6914 26.1035V35.8691C18.6914 37.8884 20.3342 39.5312 22.3535 39.5312H41.3965C43.4158 39.5312 45.0586 37.8884 45.0586 35.8691V26.1035C45.0586 24.0842 43.4158 22.4414 41.3965 22.4414H22.3535Z" fill="#D6AA1B"/>
<path d="M41.3965 27.3242H22.3535C21.6793 27.3242 21.1328 26.7777 21.1328 26.1035C21.1328 25.4293 21.6793 24.8828 22.3535 24.8828H41.3965C42.0707 24.8828 42.6172 25.4293 42.6172 26.1035C42.6172 26.7777 42.0707 27.3242 41.3965 27.3242Z" fill="#D6AA1B"/>
<path d="M26.9922 37.0898H22.3535C21.6793 37.0898 21.1328 36.5433 21.1328 35.8691C21.1328 35.1949 21.6793 34.6484 22.3535 34.6484H26.9922C27.6664 34.6484 28.2129 35.1949 28.2129 35.8691C28.2129 36.5433 27.6664 37.0898 26.9922 37.0898Z" fill="#D6AA1B"/>
</svg>
