<svg width="317" height="342" viewBox="0 0 317 342" fill="none" xmlns="http://www.w3.org/2000/svg">
<path d="M134.312 341.5L91.5115 316.785L254.933 222.43L297.733 247.144L134.312 341.5Z" fill="#E0E0E0"/>
<path d="M91.4254 316.833L48.6157 292.119L212.047 197.773L254.847 222.478L91.4254 316.833Z" fill="#E0E0E0"/>
<path d="M280.928 224.685C280.928 224.685 279.53 213.19 283.045 203.094C286.561 192.997 292.95 185.774 299.981 183.504C307.013 181.234 314.35 186.454 307.779 192.805C301.207 199.156 288.62 207.011 286.417 225.442L280.928 224.685Z" fill="#D6AA1B"/>
<g opacity="0.15">
<path opacity="0.15" d="M280.928 224.685C280.928 224.685 279.53 213.19 283.045 203.094C286.561 192.997 292.95 185.774 299.981 183.504C307.013 181.234 314.35 186.454 307.779 192.805C301.207 199.156 288.62 207.011 286.417 225.442L280.928 224.685Z" fill="black"/>
</g>
<path d="M282.336 221.275H282.25C282.198 221.268 282.149 221.251 282.104 221.224C282.06 221.197 282.021 221.162 281.99 221.12C281.96 221.078 281.938 221.03 281.927 220.979C281.916 220.928 281.915 220.876 281.924 220.825C285.057 200.402 297.605 189.213 303.803 186.138C303.85 186.108 303.902 186.088 303.957 186.079C304.012 186.07 304.068 186.073 304.122 186.088C304.175 186.103 304.225 186.129 304.268 186.164C304.311 186.199 304.346 186.243 304.371 186.293C304.395 186.343 304.409 186.398 304.411 186.453C304.413 186.509 304.403 186.564 304.382 186.616C304.361 186.667 304.329 186.713 304.289 186.752C304.249 186.79 304.201 186.819 304.148 186.838C298.084 189.846 285.785 200.843 282.7 220.949C282.685 221.037 282.641 221.117 282.575 221.176C282.509 221.235 282.425 221.27 282.336 221.275Z" fill="white"/>
<path d="M316.908 209.387C316.64 210.91 315.318 212.002 314.034 212.922C312.75 213.841 311.409 214.838 310.978 216.303C310.116 219.311 313.536 222.386 312.54 225.346C312.284 225.954 311.908 226.503 311.434 226.961C310.959 227.419 310.397 227.775 309.781 228.009C308.772 228.421 307.743 228.779 306.696 229.082C306.191 229.196 305.679 229.282 305.164 229.341C303.621 229.372 302.131 229.914 300.93 230.883C299.138 232.578 299.148 235.376 298.382 237.722C297.9 239.119 297.12 240.395 296.096 241.46C295.072 242.525 293.829 243.355 292.452 243.891C290.153 244.801 286.475 245.146 285.603 244.255C284.932 243.575 285.727 240.826 285.526 239.897C285.009 237.509 284.721 235.078 284.664 232.636C284.688 231.524 284.573 230.414 284.319 229.331C284.013 228.124 283.716 226.917 283.419 225.7C283.122 224.484 282.537 223.44 282.681 222.003C282.88 220.633 283.281 219.3 283.869 218.047C284.405 216.801 284.942 215.556 285.488 214.32C286.085 212.832 286.863 211.422 287.806 210.125C288.67 209.031 289.749 208.127 290.977 207.468C292.204 206.809 293.554 206.409 294.943 206.293C297.242 206.111 299.732 206.81 301.945 206.14C304.158 205.469 306.15 204.358 308.449 203.956C309.65 203.693 310.895 203.706 312.09 203.995C313.285 204.284 314.398 204.84 315.346 205.622C315.898 206.071 316.33 206.65 316.603 207.308C316.875 207.965 316.98 208.679 316.908 209.387Z" fill="#D6AA1B"/>
<path d="M286.101 237.895C286.009 237.893 285.921 237.854 285.856 237.788C285.792 237.722 285.756 237.633 285.756 237.541C286.12 215.585 307.079 207.203 312.243 206.312C312.287 206.303 312.334 206.302 312.379 206.311C312.424 206.32 312.466 206.338 312.504 206.364C312.542 206.39 312.574 206.424 312.598 206.462C312.622 206.501 312.638 206.545 312.645 206.59C312.653 206.635 312.653 206.681 312.643 206.725C312.634 206.769 312.616 206.812 312.59 206.849C312.564 206.886 312.531 206.918 312.493 206.943C312.455 206.967 312.412 206.984 312.367 206.992C307.309 207.874 286.81 216.073 286.455 237.55C286.455 237.596 286.446 237.642 286.428 237.684C286.41 237.727 286.384 237.765 286.351 237.797C286.318 237.83 286.279 237.855 286.236 237.872C286.193 237.888 286.147 237.896 286.101 237.895Z" fill="white"/>
<path d="M307.606 221.457C307.541 221.479 307.47 221.479 307.405 221.457C304.969 220.22 302.291 219.536 299.561 219.454C296.83 219.371 294.115 219.891 291.609 220.978C291.522 221.01 291.427 221.009 291.341 220.973C291.256 220.938 291.187 220.871 291.149 220.786C291.114 220.7 291.115 220.603 291.151 220.517C291.186 220.431 291.255 220.363 291.341 220.327C293.949 219.199 296.775 218.662 299.615 218.755C302.455 218.847 305.24 219.567 307.769 220.863C307.809 220.887 307.843 220.918 307.87 220.955C307.897 220.992 307.917 221.034 307.927 221.078C307.938 221.123 307.94 221.169 307.932 221.215C307.925 221.26 307.909 221.303 307.884 221.342C307.851 221.382 307.808 221.413 307.759 221.433C307.711 221.453 307.658 221.462 307.606 221.457Z" fill="white"/>
<path d="M87.1529 273.966C87.2487 266.13 81.7694 249.817 73.742 239.538C65.7146 229.26 53.0221 221.635 43.9026 224.633C35.425 227.43 36.1818 238.523 46.3645 246.024C56.5472 253.524 71.8644 262.931 76.2326 275.719L85.5149 291.439L87.1529 273.966Z" fill="#37474F"/>
<path d="M87.5839 284.676C87.4593 284.665 87.3418 284.613 87.2499 284.528C87.1581 284.443 87.097 284.33 87.0762 284.206C82.1429 257.385 60.7525 235.352 47.8493 230.4C47.709 230.344 47.5963 230.236 47.5354 230.098C47.4744 229.96 47.4702 229.803 47.5236 229.662C47.5489 229.591 47.5885 229.526 47.6399 229.471C47.6913 229.415 47.7533 229.371 47.8224 229.341C47.8914 229.31 47.9659 229.294 48.0413 229.293C48.1168 229.293 48.1916 229.307 48.2612 229.336C61.4135 234.394 83.1967 256.771 88.197 284.005C88.2108 284.079 88.2098 284.155 88.1941 284.228C88.1784 284.301 88.1482 284.37 88.1054 284.432C88.0627 284.493 88.0081 284.546 87.9449 284.586C87.8816 284.626 87.8111 284.654 87.7372 284.666L87.5839 284.676Z" fill="white"/>
<path d="M83.3882 301.746C82.1813 297.33 76.8839 289.992 68.253 283.881C58.6738 277.118 46.5465 273.909 43.7972 268.707C40.4924 262.452 45.7993 256.647 55.6851 257.988C65.5709 259.329 82.7943 273.047 85.3328 293.431L83.3882 301.746Z" fill="#455A64"/>
<path d="M85.3519 297.158C85.2424 297.147 85.1381 297.106 85.0515 297.038C84.9649 296.97 84.8996 296.878 84.8634 296.774C76.9318 273.784 59.5359 265.489 51.451 264.339C51.3761 264.329 51.304 264.303 51.2389 264.265C51.1738 264.226 51.1169 264.175 51.0715 264.115C51.0261 264.054 50.9931 263.985 50.9744 263.912C50.9557 263.839 50.9516 263.763 50.9625 263.688C50.9719 263.613 50.996 263.541 51.0335 263.476C51.071 263.411 51.1211 263.354 51.1809 263.309C51.2406 263.263 51.3088 263.23 51.3815 263.211C51.4542 263.193 51.53 263.188 51.6043 263.199C60.5513 264.473 77.8514 272.893 85.9459 296.401C85.9948 296.544 85.985 296.702 85.9186 296.838C85.8522 296.974 85.7346 297.079 85.5914 297.129C85.5152 297.158 85.4329 297.168 85.3519 297.158Z" fill="white"/>
<path d="M82.1717 182.964L240.804 91.3286L247.126 94.9975C247.993 95.5667 248.714 96.3312 249.231 97.2295C249.748 98.1279 250.048 99.1351 250.105 100.17V217.19C250.046 218.224 249.746 219.229 249.229 220.126C248.712 221.022 247.991 221.785 247.126 222.353L94.4619 310.483C93.5366 310.95 92.5145 311.193 91.4779 311.193C90.4413 311.193 89.4193 310.95 88.494 310.483L85.1317 308.567C84.2623 308 83.5388 307.236 83.0195 306.337C82.5003 305.439 82.2 304.43 82.1429 303.394L82.1717 182.964Z" fill="#D6AA1B"/>
<path opacity="0.3" d="M82.1717 182.964L240.804 91.3286L247.126 94.9975C247.993 95.5667 248.714 96.3312 249.231 97.2295C249.748 98.1279 250.048 99.1351 250.105 100.17V217.19C250.046 218.224 249.746 219.229 249.229 220.126C248.712 221.022 247.991 221.785 247.126 222.353L94.4619 310.483C93.5366 310.95 92.5145 311.193 91.4779 311.193C90.4413 311.193 89.4193 310.95 88.494 310.483L85.1317 308.567C84.2623 308 83.5388 307.236 83.0195 306.337C82.5003 305.439 82.2 304.43 82.1429 303.394L82.1717 182.964Z" fill="black"/>
<path d="M239.932 81.05L240.584 80.6956L238.112 79.2587C237.906 79.1353 237.688 79.0326 237.461 78.9522L167.619 53.0786C166.659 52.7602 165.623 52.7537 164.659 53.06C163.696 53.3663 162.854 53.9697 162.254 54.7837L84.1833 168.834C82.968 170.798 82.2755 173.041 82.1717 175.348V182.964L84.5952 184.372L240.804 91.3285V83.7609C240.778 82.7926 240.475 81.852 239.932 81.05Z" fill="#D6AA1B"/>
<path opacity="0.05" d="M165.521 55.3392C165.209 55.5821 164.935 55.8693 164.706 56.1918L86.6069 170.233C85.9669 171.246 85.4765 172.346 85.1508 173.499L82.7273 172.091C82.9048 171.505 83.1159 170.929 83.3595 170.367L83.6948 169.677C83.7176 169.644 83.7368 169.609 83.7523 169.572C83.8785 169.333 84.0192 169.103 84.1738 168.882L162.264 54.889C162.379 54.7169 162.51 54.5565 162.657 54.41L163.068 54.0269L165.521 55.3392Z" fill="black"/>
<path opacity="0.35" d="M240.555 80.6864C240.342 80.5568 240.118 80.4478 239.884 80.3607L170.061 54.4967C169.293 54.2457 168.474 54.1932 167.68 54.3439C166.886 54.4947 166.143 54.8438 165.521 55.3589L163.087 53.9507C163.716 53.4403 164.463 53.0951 165.259 52.9462C166.055 52.7973 166.876 52.8495 167.647 53.0982L237.461 78.9621C237.688 79.0494 237.906 79.1585 238.112 79.2878L240.555 80.6864Z" fill="white"/>
<path d="M83.7715 169.552C83.9056 169.303 84.0493 169.074 84.1834 168.863C84.0493 169.045 83.9056 169.275 83.7715 169.552Z" fill="#D6AA1B"/>
<path d="M162.676 54.3143C162.809 54.1793 162.95 54.0514 163.097 53.9312C162.95 54.0514 162.809 54.1793 162.676 54.3143Z" fill="#D6AA1B"/>
<path d="M82.7273 172.091C82.9005 171.503 83.1117 170.927 83.3595 170.367C83.1117 170.927 82.9005 171.503 82.7273 172.091Z" fill="#D6AA1B"/>
<path d="M83.3787 170.319C83.484 170.08 83.599 169.85 83.7139 169.629C83.599 169.85 83.484 170.08 83.3787 170.319Z" fill="#D6AA1B"/>
<path opacity="0.2" d="M83.3213 170.367C83.3213 170.367 83.3705 170.347 83.3213 170.367V170.367Z" fill="black"/>
<path opacity="0.2" d="M83.7139 169.63L83.7719 169.524L83.7139 169.63Z" fill="black"/>
<path opacity="0.2" d="M162.283 54.7838C162.398 54.6148 162.529 54.4575 162.675 54.3145C162.529 54.4575 162.398 54.6148 162.283 54.7838Z" fill="black"/>
<path d="M164.745 56.1919L86.6069 170.242C85.3915 172.203 84.6989 174.442 84.5952 176.747V184.324L243.227 92.7271V85.1595C243.178 84.1274 242.837 83.1304 242.246 82.2831C241.654 81.4358 240.836 80.7726 239.884 80.3699L170.071 54.506C169.118 54.1944 168.092 54.1895 167.137 54.492C166.181 54.7944 165.345 55.389 164.745 56.1919Z" fill="#D6AA1B"/>
<path opacity="0.15" d="M164.745 56.1919L86.6069 170.242C85.3915 172.203 84.6989 174.442 84.5952 176.747V184.324L243.227 92.7271V85.1595C243.178 84.1274 242.837 83.1304 242.246 82.2831C241.654 81.4358 240.836 80.7726 239.884 80.3699L170.071 54.506C169.118 54.1944 168.092 54.1895 167.137 54.492C166.181 54.7944 165.345 55.389 164.745 56.1919Z" fill="black"/>
<path opacity="0.1" d="M243.227 85.1596C243.199 84.2095 242.904 83.2865 242.375 82.4966L85.1508 173.499C84.8219 174.545 84.6382 175.632 84.6047 176.728V184.305L243.227 92.7272V85.1596Z" fill="black"/>
<path d="M236.455 53.0212C236.487 52.7023 236.435 52.3805 236.304 52.0879C236.173 51.7954 235.967 51.5425 235.708 51.3544L230.841 48.5573C230.549 48.4233 230.227 48.3696 229.907 48.4016C229.587 48.4336 229.281 48.5501 229.021 48.7393L98.9257 123.86C98.1733 124.356 97.5481 125.022 97.1005 125.804C96.6529 126.586 96.3954 127.462 96.3489 128.362V284.149C96.3145 284.469 96.3666 284.793 96.4997 285.086C96.6328 285.379 96.8421 285.631 97.1057 285.816L101.895 288.604C102.188 288.738 102.51 288.791 102.83 288.759C103.15 288.727 103.455 288.611 103.715 288.422L233.83 213.301C234.579 212.813 235.203 212.156 235.651 211.382C236.099 210.608 236.358 209.739 236.407 208.847L236.455 53.0212Z" fill="#F0F0F0"/>
<path d="M103.763 288.421L233.878 213.301C234.627 212.813 235.251 212.156 235.699 211.382C236.147 210.608 236.406 209.739 236.455 208.847V53.0212C236.455 51.3735 235.296 50.7126 233.878 51.5268L103.763 126.647C103.016 127.139 102.394 127.799 101.946 128.574C101.499 129.349 101.239 130.218 101.186 131.111V286.937C101.186 288.584 102.336 289.293 103.763 288.421Z" fill="#FAFAFA"/>
<path d="M101.177 286.937C101.152 287.228 101.195 287.521 101.301 287.793C101.407 288.066 101.575 288.31 101.79 288.508C100.918 288.019 97.5367 286.055 97.1152 285.816C96.8499 285.635 96.6386 285.385 96.5037 285.093C96.3687 284.801 96.3153 284.478 96.3489 284.159V128.362C96.3789 127.466 96.6431 126.594 97.1152 125.833L101.905 128.611C101.434 129.38 101.17 130.258 101.139 131.159L101.177 286.937Z" fill="#E0E0E0"/>
<path d="M221.732 75.3601L198.607 88.7039C198.017 89.0753 197.523 89.5799 197.163 90.1772C196.804 90.7745 196.59 91.4478 196.538 92.1429C196.538 93.3882 197.496 93.8576 198.617 93.1966L221.732 79.8527C222.323 79.4804 222.818 78.9743 223.178 78.3753C223.537 77.7762 223.75 77.101 223.801 76.4042C223.801 75.1685 222.872 74.7182 221.732 75.3601Z" fill="#E0E0E0"/>
<path d="M116.925 144.848L159.476 120.286C160.616 119.625 161.545 120.095 161.545 121.34C161.494 122.035 161.279 122.709 160.92 123.306C160.561 123.903 160.066 124.408 159.476 124.779L116.925 149.34C115.785 150.001 114.856 149.532 114.856 148.296C114.905 147.599 115.118 146.923 115.477 146.324C115.837 145.725 116.333 145.219 116.925 144.848Z" fill="#E0E0E0"/>
<path d="M116.925 158.326L221.732 97.8232C222.872 97.1623 223.801 97.6317 223.801 98.8674C223.751 99.5642 223.537 100.239 223.178 100.838C222.818 101.438 222.323 101.944 221.732 102.316L116.925 162.847C115.785 163.518 114.856 163.039 114.856 161.803C114.903 161.102 115.116 160.421 115.475 159.817C115.835 159.213 116.331 158.702 116.925 158.326Z" fill="#E0E0E0"/>
<path d="M116.925 167.321L221.732 106.808C222.872 106.148 223.801 106.617 223.801 107.853C223.751 108.549 223.537 109.225 223.178 109.824C222.818 110.423 222.323 110.929 221.732 111.301L116.925 171.813C115.785 172.474 114.856 172.005 114.856 170.759C114.908 170.064 115.122 169.391 115.481 168.794C115.841 168.196 116.335 167.692 116.925 167.321Z" fill="#E0E0E0"/>
<path d="M116.925 176.306L221.732 115.794C222.872 115.133 223.801 115.602 223.801 116.847C223.749 117.542 223.535 118.216 223.176 118.813C222.816 119.41 222.322 119.915 221.732 120.286L116.925 180.798C115.785 181.459 114.856 180.99 114.856 179.745C114.908 179.049 115.122 178.376 115.481 177.779C115.841 177.182 116.335 176.677 116.925 176.306Z" fill="#E0E0E0"/>
<path d="M116.925 191.068L221.732 130.565C222.872 129.904 223.801 130.374 223.801 131.609C223.751 132.306 223.537 132.981 223.178 133.581C222.818 134.18 222.323 134.686 221.732 135.058L116.925 195.56C115.785 196.221 114.856 195.752 114.856 194.516C114.906 193.82 115.12 193.144 115.479 192.545C115.839 191.946 116.334 191.44 116.925 191.068Z" fill="#E0E0E0"/>
<path d="M116.925 200.053L221.732 139.55C222.872 138.889 223.801 139.359 223.801 140.594C223.751 141.291 223.537 141.966 223.178 142.565C222.818 143.164 222.323 143.671 221.732 144.043L116.925 204.545C115.785 205.206 114.856 204.737 114.856 203.501C114.906 202.804 115.12 202.129 115.479 201.53C115.839 200.931 116.334 200.425 116.925 200.053Z" fill="#E0E0E0"/>
<path d="M116.925 209.048L221.732 148.536C222.872 147.875 223.801 148.344 223.801 149.58C223.751 150.277 223.537 150.952 223.178 151.551C222.818 152.15 222.323 152.656 221.732 153.029L116.925 213.541C115.785 214.202 114.856 213.732 114.856 212.487C114.906 211.792 115.12 211.118 115.479 210.52C115.839 209.923 116.334 209.418 116.925 209.048Z" fill="#E0E0E0"/>
<path d="M246.111 218.742C246.065 218.828 246.011 218.908 245.948 218.982L179.851 198.022C177.341 196.908 174.512 196.74 171.887 197.548C169.262 198.356 167.018 200.086 165.569 202.419L94.8833 307.494L92.2682 309.007C91.9766 309.21 91.6393 309.337 91.2865 309.377C90.9338 309.417 90.5766 309.369 90.2469 309.237L162.925 200.992C164.379 198.659 166.626 196.928 169.253 196.119C171.88 195.31 174.711 195.475 177.226 196.585L246.111 218.742Z" fill="#D6AA1B"/>
<path opacity="0.4" d="M159.045 212.726L159.218 212.592L94.8834 307.494L92.2682 308.998C91.9741 309.195 91.6367 309.318 91.2847 309.356C90.9327 309.394 90.5767 309.347 90.247 309.218L156.535 211.213L159.045 212.726Z" fill="white"/>
<path opacity="0.4" d="M246.168 218.752C246.118 218.836 246.06 218.917 245.996 218.991L179.899 198.022C177.387 196.907 174.557 196.739 171.93 197.547C169.304 198.355 167.058 200.085 165.607 202.419L162.992 200.896C164.449 198.575 166.693 196.855 169.314 196.051C171.934 195.248 174.756 195.413 177.265 196.518L246.168 218.752Z" fill="white"/>
<path d="M250.086 99.423C249.942 98.5609 249.492 98.3214 248.908 98.7333C248.618 98.9528 248.363 99.2144 248.151 99.5092L247.816 99.9786L182.562 199.153L172.82 212.726C172.192 213.516 171.361 214.12 170.416 214.474C169.471 214.828 168.448 214.919 167.456 214.738L159.055 212.736L94.8737 189.104C94.4404 189.019 93.9947 189.019 93.5614 189.104C93.3974 189.14 93.2371 189.192 93.0824 189.257L95.4964 187.859L157.033 210.418L165.137 213.291C166.13 213.477 167.155 213.388 168.1 213.033C169.046 212.679 169.876 212.072 170.502 211.28L180.244 197.716L245.795 98.0915C245.996 97.8209 246.246 97.5902 246.532 97.4114L240.861 94.1449L243.237 92.775L247.165 95.0357C247.919 95.5354 248.567 96.1809 249.068 96.9344C249.57 97.6878 249.916 98.5339 250.086 99.423Z" fill="#D6AA1B"/>
<path opacity="0.4" d="M182.562 199.152L172.82 212.717C172.194 213.509 171.364 214.116 170.418 214.47C169.473 214.825 168.448 214.914 167.456 214.728L159.045 212.726L159.218 212.592L159.62 211.941L165.128 213.253C166.121 213.44 167.145 213.351 168.091 212.997C169.037 212.642 169.867 212.035 170.492 211.242L180.139 197.831L182.562 199.152Z" fill="white"/>
<path opacity="0.05" d="M247.126 94.9878L243.199 92.7271L240.823 94.0969L246.494 97.3634C246.209 97.5433 245.959 97.7738 245.756 98.0435L180.196 197.668L180.11 197.792L182.533 199.114L247.768 99.9306L248.103 99.4708C248.308 99.1669 248.564 98.901 248.86 98.6853C249.444 98.283 249.895 98.5225 250.038 99.375C249.869 98.4869 249.524 97.6414 249.024 96.8881C248.524 96.1348 247.879 95.4888 247.126 94.9878Z" fill="black"/>
<path d="M96.1669 191L82.1716 182.963V303.384C82.2287 304.42 82.529 305.429 83.0482 306.327C83.5675 307.226 84.291 307.99 85.1604 308.557L88.5227 310.473C89.4479 310.94 90.47 311.183 91.5066 311.183C92.5432 311.183 93.5653 310.94 94.4905 310.473L96.1669 309.515V191Z" fill="#D6AA1B"/>
<path opacity="0.3" d="M96.1669 191L82.1716 182.963V303.384C82.2287 304.42 82.529 305.429 83.0482 306.327C83.5675 307.226 84.291 307.99 85.1604 308.557L88.5227 310.473C89.4479 310.94 90.47 311.183 91.5066 311.183C92.5432 311.183 93.5653 310.94 94.4905 310.473L96.1669 309.515V191Z" fill="black"/>
<path d="M250.144 100.17V217.181C250.099 218.257 249.768 219.302 249.186 220.208C248.74 220.974 248.143 221.642 247.433 222.171L247.318 222.229C247.258 222.279 247.194 222.324 247.126 222.363L94.4714 310.492C94.1796 310.698 93.841 310.827 93.4864 310.869C93.1318 310.911 92.7723 310.864 92.4406 310.732C92.1872 310.584 91.9735 310.377 91.8183 310.128C91.663 309.88 91.5708 309.597 91.5498 309.304C91.5348 309.126 91.5348 308.946 91.5498 308.768V191.748C91.5235 191.329 91.5993 190.91 91.7706 190.526C91.9419 190.143 92.2036 189.807 92.5332 189.547C92.8629 189.287 93.2506 189.111 93.6633 189.034C94.076 188.957 94.5012 188.981 94.9025 189.104L159.083 212.736L167.484 214.738C168.477 214.919 169.5 214.828 170.445 214.474C171.389 214.12 172.22 213.516 172.849 212.726L182.562 199.152L247.797 99.9786L248.132 99.5092C249.234 97.9765 250.144 98.2639 250.144 100.17Z" fill="#D6AA1B"/>
<path opacity="0.2" d="M250.144 100.17V217.181C250.099 218.257 249.768 219.302 249.186 220.208C248.74 220.974 248.143 221.642 247.433 222.171L247.318 222.229C247.258 222.279 247.194 222.324 247.126 222.363L94.4714 310.492C94.1796 310.698 93.841 310.827 93.4864 310.869C93.1318 310.911 92.7723 310.864 92.4406 310.732C92.1872 310.584 91.9735 310.377 91.8183 310.128C91.663 309.88 91.5708 309.597 91.5498 309.304C91.5348 309.126 91.5348 308.946 91.5498 308.768V191.748C91.5235 191.329 91.5993 190.91 91.7706 190.526C91.9419 190.143 92.2036 189.807 92.5332 189.547C92.8629 189.287 93.2506 189.111 93.6633 189.034C94.076 188.957 94.5012 188.981 94.9025 189.104L155.807 211.529L158.681 212.592L159.074 212.736L167.475 214.738C168.467 214.919 169.49 214.828 170.435 214.474C171.38 214.12 172.211 213.516 172.839 212.726L182.562 199.152L247.797 99.9786L248.132 99.5092C249.234 97.9765 250.144 98.2639 250.144 100.17Z" fill="black"/>
<path d="M158.662 212.592L92.4311 310.732C92.1049 310.525 91.8425 310.233 91.6733 309.886C91.5041 309.539 91.4348 309.152 91.4732 308.768V306.852L156.612 210.255L158.662 212.592Z" fill="#D6AA1B"/>
<path opacity="0.25" d="M165.559 202.419L92.431 310.731C92.1048 310.525 91.8424 310.232 91.6733 309.886C91.5041 309.539 91.4348 309.152 91.4731 308.768V306.852L162.867 200.963L165.559 202.419Z" fill="black"/>
<path d="M247.126 222.363L247.318 222.229L247.433 222.162C248.144 221.652 248.741 220.999 249.186 220.246C249.76 219.357 250.09 218.333 250.144 217.276L182.572 199.152L227.814 233.523L247.126 222.363Z" fill="#D6AA1B"/>
<path opacity="0.25" d="M247.126 222.363L247.318 222.229L247.433 222.162C248.144 221.652 248.741 220.999 249.186 220.246C249.76 219.357 250.09 218.333 250.144 217.276L182.572 199.152L227.814 233.523L247.126 222.363Z" fill="black"/>
<path d="M249.214 220.208C248.769 220.961 248.172 221.613 247.462 222.123L247.347 222.191L94.4906 310.492C94.1994 310.699 93.8602 310.829 93.5049 310.87C93.1496 310.91 92.79 310.859 92.4598 310.722L165.559 202.381C167.025 200.042 169.283 198.309 171.922 197.498C174.56 196.688 177.402 196.853 179.928 197.965L249.214 220.208Z" fill="#D6AA1B"/>
<path opacity="0.15" d="M249.214 220.208C248.769 220.961 248.172 221.613 247.462 222.123L247.347 222.191L94.4906 310.492C94.1994 310.699 93.8602 310.829 93.5049 310.87C93.1496 310.91 92.79 310.859 92.4598 310.722L165.559 202.381C167.025 200.042 169.283 198.309 171.922 197.498C174.56 196.688 177.402 196.853 179.928 197.965L249.214 220.208Z" fill="black"/>
<path opacity="0.15" d="M82.7272 172.091L85.1508 173.499C84.8144 174.553 84.6274 175.65 84.5952 176.756V184.314L82.1716 182.963V175.3C82.2081 174.21 82.3951 173.13 82.7272 172.091Z" fill="black"/>
<path d="M95.4868 187.811L93.0633 189.209L90.6206 187.801L84.5856 184.324L86.9325 182.935L95.4868 187.811Z" fill="#D6AA1B"/>
<path opacity="0.05" d="M95.5921 187.858L86.9708 182.935L84.6239 184.324L90.6588 187.801L93.1111 189.209C93.2579 189.142 93.4123 189.094 93.5709 189.065C94.0033 188.971 94.4509 188.971 94.8833 189.065L99.7591 190.857L155.788 211.49L156.66 210.188L95.5921 187.858Z" fill="black"/>
<path d="M124.675 206.911C124.732 205.842 125.041 204.801 125.577 203.873C126.113 202.946 126.861 202.159 127.759 201.576L279.897 113.744C280.852 113.257 281.909 113.004 282.981 113.004C284.053 113.004 285.11 113.257 286.066 113.744L289.543 115.746C290.44 116.333 291.187 117.122 291.723 118.051C292.258 118.979 292.568 120.021 292.628 121.091V242.048C292.567 243.117 292.256 244.156 291.72 245.083C291.185 246.01 290.439 246.798 289.543 247.384L137.396 335.216C136.441 335.697 135.386 335.948 134.316 335.948C133.247 335.948 132.192 335.697 131.237 335.216L127.759 333.214C126.863 332.626 126.118 331.836 125.582 330.908C125.046 329.979 124.736 328.938 124.675 327.868V206.911Z" fill="#D6AA1B"/>
<path d="M125.556 203.923L134.312 208.971L291.699 118.093C291.181 117.154 290.433 116.362 289.524 115.794L286.037 113.792C285.087 113.301 284.032 113.045 282.962 113.045C281.892 113.045 280.838 113.301 279.887 113.792L127.74 201.614C126.828 202.186 126.077 202.98 125.556 203.923Z" fill="#D6AA1B"/>
<path opacity="0.35" d="M125.556 203.923L134.312 208.971L291.699 118.093C291.181 117.154 290.433 116.362 289.524 115.794L286.037 113.792C285.087 113.301 284.032 113.045 282.962 113.045C281.892 113.045 280.838 113.301 279.887 113.792L127.74 201.614C126.828 202.186 126.077 202.98 125.556 203.923Z" fill="white"/>
<path opacity="0.1" d="M124.656 206.959V327.878C124.712 328.949 125.021 329.992 125.557 330.921C126.093 331.85 126.841 332.639 127.74 333.223L131.218 335.273C131.487 335.426 131.769 335.554 132.061 335.656C132.476 335.79 132.902 335.886 133.335 335.944C134.145 336.05 134.967 336.02 135.768 335.858C135.972 335.818 136.173 335.767 136.371 335.704L136.745 335.58C136.506 335.67 136.252 335.711 135.997 335.701C135.742 335.691 135.491 335.63 135.26 335.522C134.928 335.306 134.662 335.002 134.493 334.643C134.323 334.284 134.257 333.886 134.302 333.492V208.961L125.547 203.913C124.995 204.836 124.688 205.885 124.656 206.959Z" fill="black"/>
<path d="M151.114 219.47L195.322 193.941C196.012 193.549 196.567 193.865 196.567 194.66V195.014C196.544 195.446 196.419 195.866 196.202 196.241C195.986 196.615 195.684 196.934 195.322 197.17L151.114 222.689C150.434 223.081 149.878 222.765 149.878 221.97V221.625C149.9 221.194 150.024 220.775 150.238 220.4C150.453 220.026 150.753 219.707 151.114 219.47Z" fill="#455A64"/>
<path d="M151.114 226.847L195.322 201.318C196.012 200.925 196.567 201.241 196.567 202.036V202.391C196.542 202.822 196.417 203.242 196.2 203.616C195.984 203.991 195.683 204.309 195.322 204.546L151.114 230.065C150.434 230.458 149.878 230.142 149.878 229.347V229.002C149.9 228.571 150.024 228.151 150.238 227.777C150.453 227.402 150.753 227.084 151.114 226.847Z" fill="#455A64"/>
<path d="M151.114 234.212L195.322 208.693C196.012 208.301 196.567 208.617 196.567 209.412V209.785C196.542 210.217 196.417 210.637 196.2 211.011C195.984 211.385 195.683 211.704 195.322 211.941L151.114 237.46C150.434 237.853 149.878 237.536 149.878 236.741V236.387C149.9 235.953 150.023 235.53 150.237 235.153C150.452 234.775 150.752 234.453 151.114 234.212Z" fill="#455A64"/>
<path d="M231.416 231.942L275.615 206.423C276.305 206.031 276.86 206.347 276.86 207.142V207.487C276.838 207.918 276.715 208.337 276.5 208.712C276.285 209.086 275.985 209.405 275.625 209.642L231.416 235.171C230.727 235.563 230.171 235.247 230.171 234.452V234.098C230.196 233.666 230.322 233.247 230.538 232.872C230.754 232.498 231.055 232.18 231.416 231.942Z" fill="#455A64"/>
<path d="M231.416 239.318L275.615 213.799C276.305 213.406 276.86 213.722 276.86 214.517V214.862C276.838 215.293 276.715 215.713 276.5 216.087C276.285 216.462 275.985 216.78 275.625 217.017L231.416 242.546C230.727 242.939 230.171 242.613 230.171 241.828V241.473C230.195 241.041 230.32 240.621 230.536 240.247C230.752 239.872 231.054 239.554 231.416 239.318Z" fill="#455A64"/>
<path d="M231.416 246.694L275.615 221.175C276.305 220.773 276.86 221.098 276.86 221.894V222.238C276.838 222.669 276.715 223.089 276.5 223.464C276.285 223.838 275.985 224.157 275.625 224.394L231.416 249.922C230.727 250.315 230.171 249.989 230.171 249.204V248.85C230.195 248.418 230.32 247.997 230.536 247.623C230.752 247.248 231.054 246.93 231.416 246.694Z" fill="#455A64"/>
<path d="M231.416 254.07L275.615 228.551C276.305 228.149 276.86 228.474 276.86 229.269V229.614C276.838 230.045 276.715 230.465 276.5 230.839C276.285 231.214 275.985 231.532 275.625 231.769L231.416 257.289C230.727 257.691 230.171 257.365 230.171 256.57V256.225C230.195 255.793 230.32 255.373 230.536 254.999C230.752 254.624 231.054 254.306 231.416 254.07Z" fill="#455A64"/>
<path opacity="0.1" d="M257.51 157.617L257.865 158.048C258.315 158.594 259.129 158.124 259.579 157.09L259.924 156.266C260.374 155.193 261.189 154.724 261.639 155.308L261.993 155.739C262.444 156.285 263.258 155.816 263.708 154.781L264.053 153.948C264.503 152.875 265.317 152.405 265.768 152.99L266.122 153.411C266.572 153.957 267.377 153.488 267.837 152.453L268.182 151.62C268.632 150.557 269.446 150.087 269.896 150.662L270.251 151.084C270.701 151.63 271.506 151.16 271.956 150.126L272.31 149.292C272.76 148.229 273.575 147.76 274.025 148.334L274.59 149.024C274.954 149.465 275.548 149.244 276.056 148.507L276.286 148.143C277.244 146.706 278.345 147.482 277.952 149.283C277.761 150.116 277.952 150.863 278.326 151.093L278.834 151.39C279.437 151.744 279.437 153.133 278.834 154.178C278.24 155.212 278.24 156.611 278.834 156.956C279.437 157.3 279.437 158.689 278.834 159.734C278.24 160.778 278.24 162.167 278.834 162.512C279.437 162.866 279.437 164.255 278.834 165.299C278.24 166.343 278.24 167.732 278.834 168.077C279.437 168.422 279.437 169.811 278.834 170.855C278.24 171.899 278.24 173.288 278.834 173.643C279.437 173.987 279.437 175.376 278.834 176.421L278.326 177.311C277.919 177.983 277.785 178.786 277.952 179.553C278.345 180.894 277.205 182.992 276.286 182.609L276.056 182.513C275.586 182.321 274.954 182.82 274.59 183.691L274.025 185.032C273.575 186.105 272.76 186.575 272.31 185.99L271.956 185.559C271.506 185.013 270.701 185.483 270.251 186.517L269.896 187.341C269.446 188.414 268.632 188.883 268.182 188.299L267.837 187.868C267.377 187.322 266.572 187.791 266.122 188.826L265.768 189.659C265.317 190.732 264.503 191.201 264.053 190.617L263.708 190.196C263.258 189.65 262.444 190.119 261.993 191.153L261.639 191.987C261.189 193.05 260.374 193.52 259.924 192.945L259.579 192.542C259.129 191.996 258.315 192.456 257.865 193.5L257.51 194.334C257.06 195.397 256.246 195.866 255.796 195.292L255.23 194.602C254.866 194.152 254.272 194.372 253.765 195.119L253.535 195.483C252.577 196.92 251.475 196.144 251.868 194.343C252.05 193.51 251.868 192.772 251.495 192.542L250.977 192.246C250.374 191.891 250.374 190.502 250.977 189.458C251.581 188.414 251.581 187.025 250.977 186.68C250.374 186.335 250.374 184.946 250.977 183.902C251.581 182.858 251.581 181.469 250.977 181.114C250.374 180.77 250.374 179.381 250.977 178.336C251.581 177.292 251.581 175.903 250.977 175.558C250.374 175.214 250.374 173.815 250.977 172.78C251.581 171.736 251.581 170.347 250.977 169.993C250.374 169.648 250.374 168.259 250.977 167.215L251.495 166.324C251.893 165.649 252.026 164.85 251.868 164.083C251.475 162.741 252.615 160.644 253.535 161.027L253.765 161.123C254.234 161.314 254.866 160.816 255.23 159.944L255.796 158.594C256.246 157.54 257.06 157.099 257.51 157.617Z" fill="black"/>
<path d="M258.621 157.291L258.966 157.712C259.417 158.258 260.231 157.789 260.681 156.754L261.035 155.921C261.486 154.848 262.3 154.388 262.75 154.963L263.095 155.385C263.545 155.931 264.359 155.461 264.81 154.427L265.164 153.593C265.614 152.53 266.419 152.061 266.869 152.635L267.224 153.057C267.674 153.612 268.488 153.143 268.938 152.099L269.293 151.266C269.743 150.202 270.548 149.733 270.998 150.308L271.352 150.739C271.803 151.285 272.617 150.815 273.067 149.781L273.412 148.957C273.862 147.884 274.676 147.415 275.127 147.999L275.701 148.689C276.065 149.139 276.659 148.919 277.167 148.171L277.397 147.817C278.355 146.371 279.456 147.146 279.054 148.947C278.872 149.781 279.054 150.518 279.428 150.748L279.945 151.055C280.548 151.4 280.548 152.789 279.945 153.833C279.341 154.877 279.341 156.266 279.945 156.611C280.548 156.965 280.548 158.354 279.945 159.398C279.341 160.433 279.341 161.822 279.945 162.176C280.548 162.521 280.548 163.91 279.945 164.954C279.341 165.998 279.341 167.387 279.945 167.732C280.548 168.087 280.548 169.476 279.945 170.52C279.341 171.564 279.341 172.953 279.945 173.298C280.548 173.643 280.548 175.032 279.945 176.076L279.428 176.976C279.029 177.648 278.896 178.444 279.054 179.208C279.456 180.549 278.316 182.647 277.397 182.274L277.167 182.178C276.688 181.977 276.065 182.484 275.701 183.356L275.127 184.697C274.676 185.76 273.862 186.23 273.412 185.655L273.067 185.233C272.617 184.678 271.803 185.147 271.352 186.191L270.998 187.025C270.548 188.088 269.743 188.557 269.293 187.983L268.938 187.552C268.488 187.006 267.674 187.475 267.224 188.51L266.869 189.333C266.419 190.406 265.614 190.876 265.164 190.291L264.81 189.86C264.359 189.314 263.545 189.784 263.095 190.818L262.75 191.642C262.3 192.715 261.486 193.184 261.035 192.6L260.681 192.169C260.231 191.623 259.417 192.092 258.966 193.127L258.621 193.96C258.171 195.033 257.357 195.502 256.907 194.918L256.342 194.228C255.968 193.788 255.384 194.008 254.866 194.746L254.637 195.11C253.679 196.556 252.577 195.771 252.979 193.97C253.161 193.136 252.979 192.399 252.606 192.159L252.088 191.862C251.485 191.517 251.485 190.128 252.088 189.084C252.692 188.04 252.692 186.651 252.088 186.297C251.485 185.952 251.485 184.563 252.088 183.519C252.692 182.475 252.692 181.086 252.088 180.741C251.485 180.386 251.485 178.997 252.088 177.963C252.692 176.919 252.692 175.53 252.088 175.175C251.485 174.83 251.485 173.441 252.088 172.397C252.692 171.353 252.692 169.964 252.088 169.619C251.485 169.265 251.485 167.876 252.088 166.832L252.606 165.941C253.005 165.266 253.138 164.467 252.979 163.699C252.577 162.358 253.717 160.27 254.637 160.644L254.866 160.739C255.345 160.931 255.968 160.433 256.342 159.561L256.907 158.22C257.347 157.205 258.162 156.735 258.621 157.291Z" fill="#F0F0F0"/>
<path d="M257.596 160.989L274.418 151.276C276.027 150.318 277.291 151.094 277.291 152.952V176.737C277.24 177.742 276.953 178.721 276.454 179.594C275.955 180.468 275.257 181.212 274.418 181.766L257.596 191.48C255.987 192.438 254.723 191.652 254.723 189.803V166.018C254.772 165.013 255.059 164.034 255.558 163.16C256.057 162.286 256.756 161.542 257.596 160.989Z" fill="#455A64"/>
<path d="M271.592 171.535C271.585 171.544 271.576 171.55 271.566 171.555C271.556 171.559 271.545 171.561 271.534 171.561C271.523 171.561 271.513 171.559 271.503 171.555C271.493 171.55 271.484 171.544 271.477 171.535L270.433 169.687L268.517 162.473C268.494 162.326 268.517 162.176 268.584 162.042L269.657 160.127V159.877L269.216 160.127C269.139 160.127 269.072 160.127 269.072 159.992C269.072 159.934 269.085 159.876 269.11 159.823C269.134 159.77 269.171 159.723 269.216 159.686L269.714 159.399C269.839 159.322 269.944 159.399 269.944 159.619V160.002C269.939 160.116 269.91 160.227 269.858 160.328L268.804 162.244L270.72 169.38L271.745 171.171C271.762 171.226 271.767 171.283 271.759 171.34C271.751 171.396 271.729 171.45 271.697 171.497C271.666 171.518 271.63 171.532 271.592 171.535Z" fill="#D6AA1B"/>
<path d="M271.592 176.641C269.676 177.743 268.153 176.239 268.153 173.298C268.153 170.357 269.695 167.081 271.592 165.98C273.488 164.878 275.031 166.392 275.031 169.332C275.031 172.273 273.488 175.549 271.592 176.641ZM271.592 166.574C269.906 167.531 268.536 170.463 268.536 173.078C268.536 175.693 269.906 177.025 271.592 176.057C273.278 175.089 274.648 172.158 274.648 169.543C274.648 166.928 273.278 165.596 271.592 166.574Z" fill="#F0F0F0"/>
<path d="M275.309 169.313C275.261 169.313 275.213 169.313 275.213 169.217C275.213 166.123 273.594 164.543 271.592 165.702C269.59 166.861 267.971 170.309 267.971 173.365C267.972 173.404 267.963 173.442 267.947 173.477C267.93 173.512 267.906 173.542 267.875 173.566C267.818 173.566 267.779 173.566 267.779 173.48C267.779 170.213 269.494 166.583 271.611 165.366C273.728 164.15 275.443 165.817 275.443 169.073C275.449 169.123 275.439 169.172 275.415 169.215C275.391 169.259 275.354 169.293 275.309 169.313Z" fill="#D6AA1B"/>
<path opacity="0.2" d="M275.309 169.313C275.261 169.313 275.213 169.313 275.213 169.217C275.213 166.123 273.594 164.543 271.592 165.702C269.59 166.861 267.971 170.309 267.971 173.365C267.972 173.404 267.963 173.442 267.947 173.477C267.93 173.512 267.906 173.542 267.875 173.566C267.818 173.566 267.779 173.566 267.779 173.48C267.779 170.213 269.494 166.583 271.611 165.366C273.728 164.15 275.443 165.817 275.443 169.073C275.449 169.123 275.439 169.172 275.415 169.215C275.391 169.259 275.354 169.293 275.309 169.313Z" fill="black"/>
<path d="M264.139 175.76C264.091 175.76 264.043 175.76 264.043 175.674C264.043 172.579 262.424 170.999 260.422 172.148C258.42 173.298 256.801 176.756 256.801 179.812C256.801 179.852 256.792 179.891 256.776 179.927C256.759 179.964 256.735 179.996 256.706 180.023C256.648 180.023 256.61 180.023 256.61 179.927C256.61 176.67 258.315 173.03 260.442 171.813C262.568 170.597 264.273 172.263 264.273 175.52C264.28 175.569 264.27 175.619 264.246 175.662C264.222 175.705 264.184 175.74 264.139 175.76Z" fill="#D6AA1B"/>
<path opacity="0.2" d="M264.139 175.76C264.091 175.76 264.043 175.76 264.043 175.674C264.043 172.579 262.424 170.999 260.422 172.148C258.42 173.298 256.801 176.756 256.801 179.812C256.801 179.852 256.792 179.891 256.776 179.927C256.759 179.964 256.735 179.996 256.706 180.023C256.648 180.023 256.61 180.023 256.61 179.927C256.61 176.67 258.315 173.03 260.442 171.813C262.568 170.597 264.273 172.263 264.273 175.52C264.28 175.569 264.27 175.619 264.246 175.662C264.222 175.705 264.184 175.74 264.139 175.76Z" fill="black"/>
<path d="M260.422 183.098C258.506 184.19 256.983 182.686 256.983 179.745C256.983 176.804 258.526 173.528 260.422 172.426C262.319 171.325 263.861 172.838 263.861 175.779C263.861 178.72 262.319 182.006 260.422 183.098ZM260.422 173.02C258.736 173.978 257.367 176.919 257.367 179.525C257.367 182.13 258.736 183.481 260.422 182.504C262.108 181.527 263.478 178.615 263.478 175.999C263.478 173.384 262.108 172.053 260.422 173.02Z" fill="#F0F0F0"/>
<path d="M265.107 176.364L260.432 177.983C260.374 177.983 260.336 177.983 260.317 177.906C260.29 177.828 260.29 177.744 260.317 177.667L263.478 170.367C263.536 170.243 263.622 170.185 263.679 170.233C263.709 170.279 263.725 170.332 263.725 170.386C263.725 170.441 263.709 170.494 263.679 170.54L260.7 177.427L265.039 175.923L269.475 165.721C269.523 165.597 269.618 165.539 269.676 165.587C269.706 165.633 269.722 165.686 269.722 165.74C269.722 165.795 269.706 165.848 269.676 165.894L265.212 176.258C265.185 176.301 265.149 176.337 265.107 176.364Z" fill="#D6AA1B"/>
<path d="M265.106 176.363C265.039 176.363 264.992 176.363 264.972 176.286L262.693 167.751C262.681 167.693 262.683 167.632 262.698 167.574C262.713 167.516 262.74 167.462 262.779 167.416C262.846 167.33 262.932 167.349 262.961 167.416L265.241 175.951C265.256 176.07 265.225 176.19 265.154 176.286L265.106 176.363Z" fill="#D6AA1B"/>
<path d="M264.771 175.108L260.94 176.861C260.863 176.861 260.806 176.861 260.806 176.699C260.81 176.641 260.825 176.585 260.852 176.534C260.878 176.483 260.914 176.438 260.959 176.402L264.791 174.658C264.867 174.658 264.925 174.658 264.925 174.821C264.913 174.933 264.858 175.036 264.771 175.108Z" fill="#D6AA1B"/>
<path d="M263.258 166.497C262.97 166.593 262.99 166.449 262.463 166.794C262.242 166.931 262.061 167.124 261.937 167.352C261.812 167.58 261.749 167.837 261.754 168.097C261.754 168.231 261.821 168.298 261.907 168.231C262.042 168.117 262.198 168.033 262.367 167.982C262.458 167.995 262.552 167.99 262.641 167.965C262.73 167.94 262.813 167.897 262.884 167.838C263.057 167.685 263.287 167.273 263.593 166.995C263.815 166.824 264.056 166.679 264.312 166.564L264.494 166.449C264.542 166.405 264.578 166.349 264.6 166.287C264.621 166.226 264.628 166.159 264.618 166.095C264.57 165.922 264.474 165.74 264.283 165.817C264.091 165.893 263.574 166.401 263.258 166.497Z" fill="#D6AA1B"/>
<path opacity="0.2" d="M263.258 166.497C262.97 166.593 262.99 166.449 262.463 166.794C262.242 166.931 262.061 167.124 261.937 167.352C261.812 167.58 261.749 167.837 261.754 168.097C261.754 168.231 261.821 168.298 261.907 168.231C262.042 168.117 262.198 168.033 262.367 167.982C262.458 167.995 262.552 167.99 262.641 167.965C262.73 167.94 262.813 167.897 262.884 167.838C263.057 167.685 263.287 167.273 263.593 166.995C263.815 166.824 264.056 166.679 264.312 166.564L264.494 166.449C264.542 166.405 264.578 166.349 264.6 166.287C264.621 166.226 264.628 166.159 264.618 166.095C264.57 165.922 264.474 165.74 264.283 165.817C264.091 165.893 263.574 166.401 263.258 166.497Z" fill="black"/>
<path d="M264.57 174.342C264.513 174.342 264.465 174.342 264.436 174.275C264.425 174.216 264.426 174.155 264.441 174.097C264.456 174.039 264.484 173.985 264.522 173.94C267.004 170.979 268.504 167.32 268.814 163.469C268.814 163.414 268.83 163.36 268.858 163.313C268.887 163.266 268.928 163.227 268.977 163.201C269.053 163.201 269.111 163.259 269.101 163.383C268.779 167.411 267.216 171.239 264.628 174.342H264.57Z" fill="#D6AA1B"/>
<path d="M267.655 170.511C267.655 170.511 267.588 170.511 267.559 170.511L267.156 170.223C267.089 170.223 267.08 170.051 267.156 169.926C267.233 169.802 267.291 169.735 267.348 169.783L267.76 170.06C267.817 170.06 267.827 170.233 267.76 170.357C267.74 170.418 267.704 170.471 267.655 170.511Z" fill="#D6AA1B"/>
<path d="M265.107 177.503C264.618 177.791 264.216 177.398 264.216 176.651C264.206 176.284 264.281 175.92 264.435 175.588C264.59 175.255 264.82 174.963 265.107 174.735C265.586 174.457 265.988 174.84 265.988 175.597C265.998 175.961 265.924 176.323 265.771 176.654C265.618 176.985 265.391 177.275 265.107 177.503ZM265.107 175.08C264.887 175.253 264.711 175.474 264.591 175.727C264.471 175.98 264.412 176.256 264.417 176.536C264.417 177.111 264.723 177.417 265.107 177.197C265.323 177.022 265.497 176.8 265.615 176.547C265.733 176.295 265.792 176.019 265.787 175.741C265.787 175.156 265.48 174.859 265.107 175.08Z" fill="#F0F0F0"/>
<path d="M266.649 177.293C266.639 177.3 266.627 177.303 266.615 177.303C266.603 177.303 266.592 177.3 266.582 177.293L265.04 176.258C265.04 176.258 264.992 176.134 265.04 176.047C265.087 175.961 265.145 175.913 265.183 175.942L266.726 176.9C266.773 176.9 266.783 177.015 266.726 177.101C266.737 177.137 266.735 177.176 266.721 177.211C266.707 177.245 266.682 177.274 266.649 177.293Z" fill="#F0F0F0"/>
<path d="M266.965 177.111L266.208 177.551C266.16 177.551 266.112 177.551 266.112 177.446C266.112 177.406 266.121 177.367 266.137 177.33C266.154 177.294 266.178 177.261 266.208 177.235L266.965 176.804C267.022 176.804 267.061 176.804 267.061 176.9C267.063 176.94 267.055 176.98 267.039 177.017C267.022 177.054 266.997 177.086 266.965 177.111Z" fill="#D6AA1B"/>
<path opacity="0.2" d="M266.965 177.111L266.208 177.551C266.16 177.551 266.112 177.551 266.112 177.446C266.112 177.406 266.121 177.367 266.137 177.33C266.154 177.294 266.178 177.261 266.208 177.235L266.965 176.804C267.022 176.804 267.061 176.804 267.061 176.9C267.063 176.94 267.055 176.98 267.039 177.017C267.022 177.054 266.997 177.086 266.965 177.111Z" fill="black"/>
<path d="M268.459 160.26C268.451 160.095 268.481 159.93 268.545 159.777C268.61 159.624 268.708 159.488 268.833 159.379C269.044 159.255 269.207 159.456 269.207 159.829C269.217 159.995 269.188 160.161 269.123 160.314C269.059 160.467 268.959 160.603 268.833 160.711C268.632 160.835 268.459 160.624 268.459 160.26Z" fill="#D6AA1B"/>
<path opacity="0.4" d="M268.459 160.26C268.451 160.095 268.481 159.93 268.545 159.777C268.61 159.624 268.708 159.488 268.833 159.379C269.044 159.255 269.207 159.456 269.207 159.829C269.217 159.995 269.188 160.161 269.123 160.314C269.059 160.467 268.959 160.603 268.833 160.711C268.632 160.835 268.459 160.624 268.459 160.26Z" fill="black"/>
<path d="M268.833 160.357L267.587 161.075C267.425 161.171 267.425 160.548 267.587 160.453L268.833 159.734C268.967 159.657 268.967 160.28 268.833 160.357Z" fill="#D6AA1B"/>
<path opacity="0.2" d="M268.833 160.357L267.587 161.075C267.425 161.171 267.425 160.548 267.587 160.453L268.833 159.734C268.967 159.657 268.967 160.28 268.833 160.357Z" fill="black"/>
<path d="M271.352 171.468C271.35 171.371 271.371 171.275 271.412 171.187C271.454 171.098 271.515 171.021 271.592 170.961C271.726 170.884 271.831 170.961 271.831 171.2C271.833 171.296 271.812 171.391 271.771 171.478C271.729 171.564 271.668 171.64 271.592 171.698C271.458 171.756 271.352 171.65 271.352 171.468Z" fill="#F0F0F0"/>
<path d="M260.183 177.896C260.181 177.8 260.202 177.705 260.243 177.618C260.285 177.532 260.346 177.456 260.422 177.398C260.556 177.321 260.662 177.398 260.662 177.628C260.664 177.725 260.643 177.822 260.602 177.91C260.56 177.998 260.499 178.075 260.422 178.135C260.288 178.174 260.183 178.107 260.183 177.896Z" fill="#F0F0F0"/>
</svg>
