<svg width="537" height="261" viewBox="0 0 537 261" fill="none" xmlns="http://www.w3.org/2000/svg">
<path d="M38.6422 96.3253C20.8668 96.3253 6.44043 110.752 6.44043 128.527C6.44043 146.302 20.8668 160.729 38.6422 160.729C56.4176 160.729 70.8439 146.302 70.8439 128.527C70.8439 110.752 56.4176 96.3253 38.6422 96.3253ZM27.8546 137.447C27.5004 138.413 26.5665 139.025 25.6005 139.025C25.3107 139.025 25.053 138.993 24.7632 138.864C22.1549 137.898 19.9652 135.998 18.5805 133.518C15.3603 127.722 17.3568 120.155 22.9921 116.645L30.5273 111.975C33.2967 110.269 36.5491 109.753 39.6404 110.558C42.7318 111.364 45.3402 113.392 46.918 116.226C50.1382 122.022 48.1417 129.59 42.5064 133.1L41.6692 133.712C40.5743 134.484 39.0608 134.227 38.288 133.164C37.5151 132.069 37.7727 130.556 38.8354 129.783L39.8337 129.074C43.4403 126.82 44.6639 122.151 42.6996 118.577C41.7658 116.902 40.2523 115.711 38.449 115.228C36.6457 114.745 34.7458 115.035 33.1035 116.065L25.5039 120.766C22.0261 122.924 20.8024 127.593 22.7667 131.2C23.5718 132.649 24.8598 133.776 26.4055 134.356C27.6614 134.806 28.3054 136.191 27.8546 137.447ZM54.4855 140.281L46.9502 144.95C45.0503 146.141 42.925 146.721 40.7675 146.721C39.8015 146.721 38.8032 146.592 37.8371 146.335C34.7458 145.53 32.1374 143.501 30.5917 140.667C27.3716 134.871 29.3681 127.303 35.0034 123.793L35.8406 123.182C36.9355 122.409 38.449 122.666 39.2218 123.729C39.9947 124.824 39.737 126.337 38.6744 127.11L37.6761 127.819C34.0695 130.073 32.8459 134.742 34.8102 138.316C35.744 139.991 37.2575 141.182 39.0608 141.665C40.8641 142.148 42.764 141.859 44.4063 140.828L51.9415 136.159C55.4193 134.001 56.643 129.332 54.6787 125.725C53.8736 124.276 52.5856 123.149 51.0399 122.57C49.784 122.119 49.14 120.734 49.623 119.478C50.0738 118.222 51.4907 117.578 52.7144 118.061C55.3227 119.028 57.5124 120.927 58.8971 123.407C62.0851 129.203 60.1208 136.771 54.4855 140.281Z" fill="#D6AA1B"/>
<path fill-rule="evenodd" clip-rule="evenodd" d="M167.262 31.4816C152.833 31.4816 141.135 43.7937 141.135 58.9816V129.807H228.947V134.807H141.135V201.853C141.135 217.041 152.833 229.353 167.262 229.353H228.947V234.353H167.262C150.209 234.353 136.384 219.802 136.384 201.853V134.807H85.6846V129.807H136.384V58.9816C136.384 41.0323 150.209 26.4816 167.262 26.4816H228.947V31.4816H167.262Z" fill="#E0E0E0"/>
<path d="M240.571 29.5C240.571 13.2076 253.12 0 268.599 0H508.973C524.452 0 537 13.2076 537 29.5C537 45.7924 524.452 59 508.973 59H268.599C253.12 59 240.571 45.7924 240.571 29.5Z" fill="#D6AA1B"/>
<path d="M312.374 38.3C310.727 38.3 309.302 37.925 308.099 37.175C306.911 36.4083 305.993 35.35 305.343 34C304.694 32.6333 304.37 31.0583 304.37 29.275C304.37 27.475 304.694 25.9 305.343 24.55C305.993 23.1833 306.911 22.1167 308.099 21.35C309.302 20.5833 310.727 20.2 312.374 20.2C314.322 20.2 315.913 20.7 317.148 21.7C318.383 22.7 319.167 24.1 319.5 25.9H316.697C316.475 24.8833 316 24.075 315.272 23.475C314.544 22.875 313.57 22.575 312.35 22.575C310.688 22.575 309.373 23.175 308.408 24.375C307.442 25.5583 306.959 27.1917 306.959 29.275C306.959 31.3417 307.442 32.9667 308.408 34.15C309.373 35.3333 310.688 35.925 312.35 35.925C313.57 35.925 314.544 35.6417 315.272 35.075C316 34.5083 316.475 33.7333 316.697 32.75H319.5C319.167 34.4833 318.383 35.8417 317.148 36.825C315.913 37.8083 314.322 38.3 312.374 38.3Z" fill="white"/>
<path d="M326.163 38.3C325.165 38.3 324.342 38.125 323.693 37.775C323.043 37.425 322.56 36.9667 322.244 36.4C321.927 35.8167 321.769 35.1833 321.769 34.5C321.769 33.3 322.212 32.35 323.099 31.65C323.985 30.95 325.252 30.6 326.899 30.6H329.987V30.375C329.987 29.4083 329.734 28.6833 329.227 28.2C328.736 27.7167 328.095 27.475 327.303 27.475C326.606 27.475 325.996 27.6583 325.474 28.025C324.967 28.375 324.658 28.9 324.548 29.6H322.03C322.109 28.7 322.394 27.9333 322.885 27.3C323.392 26.65 324.025 26.1583 324.785 25.825C325.561 25.475 326.408 25.3 327.327 25.3C328.973 25.3 330.248 25.7583 331.151 26.675C332.053 27.575 332.505 28.8083 332.505 30.375V38H330.319L330.106 35.875C329.773 36.5583 329.29 37.1333 328.657 37.6C328.023 38.0667 327.192 38.3 326.163 38.3ZM326.662 36.15C327.342 36.15 327.913 35.9833 328.372 35.65C328.847 35.3 329.211 34.8417 329.464 34.275C329.734 33.7083 329.9 33.0833 329.963 32.4H327.16C326.163 32.4 325.45 32.5833 325.023 32.95C324.611 33.3167 324.405 33.775 324.405 34.325C324.405 34.8917 324.603 35.3417 324.999 35.675C325.411 35.9917 325.965 36.15 326.662 36.15Z" fill="white"/>
<path d="M335.44 38V25.6H337.697L337.911 27.95C338.322 27.1333 338.892 26.4917 339.621 26.025C340.365 25.5417 341.26 25.3 342.305 25.3V28.075H341.616C340.919 28.075 340.294 28.2 339.739 28.45C339.201 28.6833 338.766 29.0917 338.433 29.675C338.116 30.2417 337.958 31.0333 337.958 32.05V38H335.44Z" fill="white"/>
<path d="M349.507 38.3C348.367 38.3 347.361 38.0167 346.49 37.45C345.619 36.8833 344.938 36.1083 344.447 35.125C343.957 34.1417 343.711 33.025 343.711 31.775C343.711 30.525 343.957 29.4167 344.447 28.45C344.938 27.4667 345.619 26.7 346.49 26.15C347.377 25.5833 348.39 25.3 349.53 25.3C350.465 25.3 351.28 25.4917 351.977 25.875C352.689 26.2583 353.244 26.8 353.64 27.5V20H356.157V38H353.901L353.64 36.075C353.26 36.6583 352.737 37.175 352.072 37.625C351.407 38.075 350.552 38.3 349.507 38.3ZM349.958 36C351.035 36 351.914 35.6083 352.594 34.825C353.291 34.0417 353.64 33.0333 353.64 31.8C353.64 30.55 353.291 29.5417 352.594 28.775C351.914 27.9917 351.035 27.6 349.958 27.6C348.881 27.6 347.994 27.9917 347.298 28.775C346.601 29.5417 346.253 30.55 346.253 31.8C346.253 32.6167 346.411 33.3417 346.728 33.975C347.044 34.6083 347.48 35.1083 348.034 35.475C348.604 35.825 349.245 36 349.958 36Z" fill="white"/>
<path d="M365.316 43.5V25.6H367.573L367.834 27.525C368.214 26.9417 368.737 26.425 369.402 25.975C370.067 25.525 370.922 25.3 371.967 25.3C373.107 25.3 374.113 25.5833 374.983 26.15C375.854 26.7167 376.535 27.4917 377.026 28.475C377.533 29.4583 377.786 30.575 377.786 31.825C377.786 33.075 377.533 34.1917 377.026 35.175C376.535 36.1417 375.854 36.9083 374.983 37.475C374.113 38.025 373.099 38.3 371.943 38.3C371.025 38.3 370.209 38.1083 369.497 37.725C368.8 37.3417 368.246 36.8 367.834 36.1V43.5H365.316ZM371.516 36C372.592 36 373.479 35.6167 374.176 34.85C374.873 34.0667 375.221 33.05 375.221 31.8C375.221 30.9833 375.063 30.2583 374.746 29.625C374.429 28.9917 373.994 28.5 373.44 28.15C372.885 27.7833 372.244 27.6 371.516 27.6C370.439 27.6 369.552 27.9917 368.855 28.775C368.174 29.5583 367.834 30.5667 367.834 31.8C367.834 33.05 368.174 34.0667 368.855 34.85C369.552 35.6167 370.439 36 371.516 36Z" fill="white"/>
<path d="M384.5 38.3C383.502 38.3 382.679 38.125 382.03 37.775C381.38 37.425 380.897 36.9667 380.581 36.4C380.264 35.8167 380.106 35.1833 380.106 34.5C380.106 33.3 380.549 32.35 381.436 31.65C382.322 30.95 383.589 30.6 385.236 30.6H388.324V30.375C388.324 29.4083 388.071 28.6833 387.564 28.2C387.073 27.7167 386.432 27.475 385.64 27.475C384.943 27.475 384.333 27.6583 383.811 28.025C383.304 28.375 382.995 28.9 382.885 29.6H380.367C380.446 28.7 380.731 27.9333 381.222 27.3C381.729 26.65 382.362 26.1583 383.122 25.825C383.898 25.475 384.745 25.3 385.664 25.3C387.31 25.3 388.585 25.7583 389.488 26.675C390.39 27.575 390.842 28.8083 390.842 30.375V38H388.656L388.443 35.875C388.11 36.5583 387.627 37.1333 386.994 37.6C386.36 38.0667 385.529 38.3 384.5 38.3ZM384.999 36.15C385.679 36.15 386.25 35.9833 386.709 35.65C387.184 35.3 387.548 34.8417 387.801 34.275C388.071 33.7083 388.237 33.0833 388.3 32.4H385.497C384.5 32.4 383.787 32.5833 383.36 32.95C382.948 33.3167 382.742 33.775 382.742 34.325C382.742 34.8917 382.94 35.3417 383.336 35.675C383.748 35.9917 384.302 36.15 384.999 36.15Z" fill="white"/>
<path d="M394.784 43.5L397.61 36.975H396.921L392.266 25.6H394.998L398.608 34.775L402.385 25.6H405.045L397.444 43.5H394.784Z" fill="white"/>
<path d="M407.115 38V25.6H409.347L409.561 27.35C409.941 26.7167 410.44 26.2167 411.058 25.85C411.691 25.4833 412.419 25.3 413.243 25.3C415.111 25.3 416.41 26.075 417.138 27.625C417.566 26.9083 418.136 26.3417 418.848 25.925C419.577 25.5083 420.361 25.3 421.2 25.3C422.673 25.3 423.828 25.7667 424.668 26.7C425.507 27.6333 425.927 29.025 425.927 30.875V38H423.409V31.15C423.409 28.75 422.538 27.55 420.796 27.55C419.909 27.55 419.181 27.9 418.611 28.6C418.057 29.3 417.78 30.3 417.78 31.6V38H415.262V31.15C415.262 28.75 414.383 27.55 412.625 27.55C411.754 27.55 411.034 27.9 410.464 28.6C409.91 29.3 409.632 30.3 409.632 31.6V38H407.115Z" fill="white"/>
<path d="M434.383 38.3C433.227 38.3 432.198 38.0333 431.295 37.5C430.408 36.95 429.711 36.1917 429.205 35.225C428.698 34.2583 428.445 33.1333 428.445 31.85C428.445 30.55 428.69 29.4083 429.181 28.425C429.688 27.4417 430.384 26.675 431.271 26.125C432.174 25.575 433.219 25.3 434.407 25.3C435.562 25.3 436.568 25.575 437.423 26.125C438.278 26.6583 438.943 27.375 439.418 28.275C439.893 29.175 440.131 30.1667 440.131 31.25C440.131 31.4167 440.123 31.6 440.107 31.8C440.107 31.9833 440.099 32.1917 440.083 32.425H430.915C430.994 33.625 431.366 34.5417 432.031 35.175C432.712 35.7917 433.496 36.1 434.383 36.1C435.095 36.1 435.689 35.9333 436.164 35.6C436.655 35.25 437.019 34.7833 437.257 34.2H439.775C439.458 35.3667 438.824 36.3417 437.874 37.125C436.94 37.9083 435.776 38.3 434.383 38.3ZM434.383 27.475C433.544 27.475 432.799 27.7417 432.15 28.275C431.501 28.7917 431.105 29.575 430.962 30.625H437.613C437.566 29.6583 437.241 28.8917 436.639 28.325C436.038 27.7583 435.285 27.475 434.383 27.475Z" fill="white"/>
<path d="M442.743 38V25.6H444.976L445.166 27.775C445.53 27.0083 446.061 26.4083 446.757 25.975C447.47 25.525 448.285 25.3 449.204 25.3C450.629 25.3 451.745 25.7667 452.553 26.7C453.376 27.6333 453.788 29.025 453.788 30.875V38H451.294V31.15C451.294 28.75 450.36 27.55 448.491 27.55C447.557 27.55 446.781 27.9 446.164 28.6C445.562 29.3 445.261 30.3 445.261 31.6V38H442.743Z" fill="white"/>
<path d="M461.694 38C460.538 38 459.62 37.7083 458.939 37.125C458.258 36.525 457.917 35.4667 457.917 33.95V27.825H455.898V25.6H457.917L458.226 22.45H460.435V25.6H463.76V27.825H460.435V33.95C460.435 34.6333 460.57 35.1083 460.839 35.375C461.124 35.625 461.607 35.75 462.288 35.75H463.642V38H461.694Z" fill="white"/>
<path d="M240.571 133.5C240.571 117.208 253.12 104 268.599 104H508.973C524.452 104 537 117.208 537 133.5C537 149.792 524.452 163 508.973 163H268.599C253.12 163 240.571 149.792 240.571 133.5Z" fill="#D6AA1B"/>
<path d="M314.464 142V124.5H320.735C322.461 124.5 323.767 124.925 324.654 125.775C325.541 126.625 325.984 127.692 325.984 128.975C325.984 130.092 325.699 130.983 325.129 131.65C324.559 132.3 323.87 132.742 323.063 132.975C323.696 133.108 324.258 133.375 324.749 133.775C325.256 134.175 325.652 134.675 325.937 135.275C326.222 135.875 326.364 136.525 326.364 137.225C326.364 138.125 326.15 138.942 325.723 139.675C325.311 140.392 324.702 140.958 323.894 141.375C323.086 141.792 322.097 142 320.925 142H314.464ZM316.982 132H320.426C321.392 132 322.128 131.767 322.635 131.3C323.142 130.817 323.395 130.158 323.395 129.325C323.395 128.508 323.142 127.858 322.635 127.375C322.144 126.892 321.392 126.65 320.379 126.65H316.982V132ZM316.982 139.825H320.592C321.606 139.825 322.39 139.575 322.944 139.075C323.514 138.575 323.799 137.875 323.799 136.975C323.799 136.075 323.506 135.367 322.92 134.85C322.334 134.317 321.543 134.05 320.545 134.05H316.982V139.825Z" fill="white"/>
<path d="M333.019 142.3C332.022 142.3 331.198 142.125 330.549 141.775C329.9 141.425 329.417 140.967 329.1 140.4C328.784 139.817 328.625 139.183 328.625 138.5C328.625 137.3 329.069 136.35 329.955 135.65C330.842 134.95 332.109 134.6 333.756 134.6H336.843V134.375C336.843 133.408 336.59 132.683 336.083 132.2C335.593 131.717 334.951 131.475 334.159 131.475C333.463 131.475 332.853 131.658 332.331 132.025C331.824 132.375 331.515 132.9 331.404 133.6H328.886C328.966 132.7 329.251 131.933 329.742 131.3C330.248 130.65 330.882 130.158 331.642 129.825C332.418 129.475 333.265 129.3 334.183 129.3C335.83 129.3 337.105 129.758 338.007 130.675C338.91 131.575 339.361 132.808 339.361 134.375V142H337.176L336.962 139.875C336.63 140.558 336.147 141.133 335.513 141.6C334.88 142.067 334.049 142.3 333.019 142.3ZM333.518 140.15C334.199 140.15 334.769 139.983 335.228 139.65C335.703 139.3 336.068 138.842 336.321 138.275C336.59 137.708 336.756 137.083 336.82 136.4H334.017C333.019 136.4 332.307 136.583 331.879 136.95C331.468 137.317 331.262 137.775 331.262 138.325C331.262 138.892 331.46 139.342 331.856 139.675C332.267 139.992 332.821 140.15 333.518 140.15Z" fill="white"/>
<path d="M342.297 142V129.6H344.53L344.72 131.775C345.084 131.008 345.614 130.408 346.311 129.975C347.024 129.525 347.839 129.3 348.758 129.3C350.183 129.3 351.299 129.767 352.107 130.7C352.93 131.633 353.342 133.025 353.342 134.875V142H350.848V135.15C350.848 132.75 349.913 131.55 348.045 131.55C347.111 131.55 346.335 131.9 345.717 132.6C345.115 133.3 344.815 134.3 344.815 135.6V142H342.297Z" fill="white"/>
<path d="M356.307 142V124H358.825V134.725L363.338 129.6H366.354L361.343 135.225L367.091 142H363.908L358.825 135.65V142H356.307Z" fill="white"/>
<path d="M379.966 142C378.81 142 377.892 141.708 377.211 141.125C376.53 140.525 376.19 139.467 376.19 137.95V131.825H374.171V129.6H376.19L376.499 126.45H378.708V129.6H382.033V131.825H378.708V137.95C378.708 138.633 378.842 139.108 379.111 139.375C379.396 139.625 379.879 139.75 380.56 139.75H381.914V142H379.966Z" fill="white"/>
<path d="M384.629 142V129.6H386.885L387.099 131.95C387.511 131.133 388.081 130.492 388.809 130.025C389.554 129.542 390.448 129.3 391.493 129.3V132.075H390.805C390.108 132.075 389.482 132.2 388.928 132.45C388.39 132.683 387.954 133.092 387.622 133.675C387.305 134.242 387.147 135.033 387.147 136.05V142H384.629Z" fill="white"/>
<path d="M397.642 142.3C396.645 142.3 395.821 142.125 395.172 141.775C394.523 141.425 394.04 140.967 393.723 140.4C393.407 139.817 393.248 139.183 393.248 138.5C393.248 137.3 393.692 136.35 394.578 135.65C395.465 134.95 396.732 134.6 398.379 134.6H401.467V134.375C401.467 133.408 401.213 132.683 400.706 132.2C400.216 131.717 399.574 131.475 398.782 131.475C398.086 131.475 397.476 131.658 396.954 132.025C396.447 132.375 396.138 132.9 396.027 133.6H393.509C393.589 132.7 393.874 131.933 394.365 131.3C394.871 130.65 395.505 130.158 396.265 129.825C397.041 129.475 397.888 129.3 398.806 129.3C400.453 129.3 401.728 129.758 402.63 130.675C403.533 131.575 403.984 132.808 403.984 134.375V142H401.799L401.585 139.875C401.253 140.558 400.77 141.133 400.136 141.6C399.503 142.067 398.672 142.3 397.642 142.3ZM398.141 140.15C398.822 140.15 399.392 139.983 399.851 139.65C400.326 139.3 400.691 138.842 400.944 138.275C401.213 137.708 401.379 137.083 401.443 136.4H398.64C397.642 136.4 396.93 136.583 396.502 136.95C396.091 137.317 395.885 137.775 395.885 138.325C395.885 138.892 396.083 139.342 396.479 139.675C396.89 139.992 397.444 140.15 398.141 140.15Z" fill="white"/>
<path d="M406.92 142V129.6H409.153L409.343 131.775C409.707 131.008 410.237 130.408 410.934 129.975C411.647 129.525 412.462 129.3 413.381 129.3C414.806 129.3 415.922 129.767 416.73 130.7C417.553 131.633 417.965 133.025 417.965 134.875V142H415.471V135.15C415.471 132.75 414.536 131.55 412.668 131.55C411.734 131.55 410.958 131.9 410.34 132.6C409.739 133.3 409.438 134.3 409.438 135.6V142H406.92Z" fill="white"/>
<path d="M425.633 142.3C424.145 142.3 422.917 141.917 421.951 141.15C420.985 140.383 420.431 139.367 420.289 138.1H422.83C422.957 138.667 423.258 139.158 423.733 139.575C424.208 139.975 424.833 140.175 425.609 140.175C426.369 140.175 426.924 140.008 427.272 139.675C427.62 139.342 427.794 138.958 427.794 138.525C427.794 137.892 427.549 137.467 427.058 137.25C426.583 137.017 425.918 136.808 425.063 136.625C424.398 136.475 423.733 136.275 423.068 136.025C422.419 135.775 421.872 135.425 421.429 134.975C421.001 134.508 420.788 133.883 420.788 133.1C420.788 132.017 421.183 131.117 421.975 130.4C422.767 129.667 423.875 129.3 425.3 129.3C426.615 129.3 427.676 129.633 428.483 130.3C429.307 130.967 429.79 131.908 429.932 133.125H427.509C427.43 132.592 427.193 132.175 426.797 131.875C426.417 131.575 425.902 131.425 425.253 131.425C424.62 131.425 424.129 131.567 423.78 131.85C423.432 132.117 423.258 132.467 423.258 132.9C423.258 133.333 423.495 133.675 423.97 133.925C424.461 134.175 425.103 134.4 425.894 134.6C426.686 134.783 427.414 135 428.079 135.25C428.76 135.483 429.307 135.833 429.718 136.3C430.13 136.767 430.336 137.45 430.336 138.35C430.352 139.483 429.932 140.425 429.077 141.175C428.238 141.925 427.09 142.3 425.633 142.3Z" fill="white"/>
<path d="M433.678 142V131.825H431.992V129.6H433.678V127.8C433.678 126.45 433.995 125.483 434.628 124.9C435.278 124.3 436.188 124 437.36 124H438.595V126.25H437.74C437.186 126.25 436.79 126.375 436.552 126.625C436.315 126.858 436.196 127.258 436.196 127.825V129.6H438.904V131.825H436.196V142H433.678Z" fill="white"/>
<path d="M446.342 142.3C445.187 142.3 444.157 142.033 443.255 141.5C442.368 140.95 441.671 140.192 441.164 139.225C440.658 138.258 440.404 137.133 440.404 135.85C440.404 134.55 440.65 133.408 441.141 132.425C441.647 131.442 442.344 130.675 443.231 130.125C444.133 129.575 445.179 129.3 446.366 129.3C447.522 129.3 448.528 129.575 449.383 130.125C450.238 130.658 450.903 131.375 451.378 132.275C451.853 133.175 452.09 134.167 452.09 135.25C452.09 135.417 452.083 135.6 452.067 135.8C452.067 135.983 452.059 136.192 452.043 136.425H442.875C442.954 137.625 443.326 138.542 443.991 139.175C444.672 139.792 445.456 140.1 446.342 140.1C447.055 140.1 447.649 139.933 448.124 139.6C448.615 139.25 448.979 138.783 449.216 138.2H451.734C451.418 139.367 450.784 140.342 449.834 141.125C448.9 141.908 447.736 142.3 446.342 142.3ZM446.342 131.475C445.503 131.475 444.759 131.742 444.11 132.275C443.46 132.792 443.065 133.575 442.922 134.625H449.573C449.525 133.658 449.201 132.892 448.599 132.325C447.997 131.758 447.245 131.475 446.342 131.475Z" fill="white"/>
<path d="M454.703 142V129.6H456.959L457.173 131.95C457.585 131.133 458.155 130.492 458.883 130.025C459.628 129.542 460.522 129.3 461.567 129.3V132.075H460.878C460.182 132.075 459.556 132.2 459.002 132.45C458.464 132.683 458.028 133.092 457.696 133.675C457.379 134.242 457.221 135.033 457.221 136.05V142H454.703Z" fill="white"/>
<path d="M240.571 231.5C240.571 215.208 253.12 202 268.599 202H508.973C524.452 202 537 215.208 537 231.5C537 247.792 524.452 261 508.973 261H268.599C253.12 261 240.571 247.792 240.571 231.5Z" fill="#D6AA1B"/>
<path d="M277.221 240.3C275.574 240.3 274.149 239.925 272.945 239.175C271.758 238.408 270.839 237.35 270.19 236C269.541 234.633 269.216 233.058 269.216 231.275C269.216 229.475 269.541 227.9 270.19 226.55C270.839 225.183 271.758 224.117 272.945 223.35C274.149 222.583 275.574 222.2 277.221 222.2C279.169 222.2 280.76 222.7 281.995 223.7C283.23 224.7 284.014 226.1 284.347 227.9H281.544C281.322 226.883 280.847 226.075 280.119 225.475C279.39 224.875 278.416 224.575 277.197 224.575C275.534 224.575 274.22 225.175 273.254 226.375C272.288 227.558 271.805 229.192 271.805 231.275C271.805 233.342 272.288 234.967 273.254 236.15C274.22 237.333 275.534 237.925 277.197 237.925C278.416 237.925 279.39 237.642 280.119 237.075C280.847 236.508 281.322 235.733 281.544 234.75H284.347C284.014 236.483 283.23 237.842 281.995 238.825C280.76 239.808 279.169 240.3 277.221 240.3Z" fill="white"/>
<path d="M287.019 240V222H289.537V229.6C289.933 228.883 290.479 228.325 291.176 227.925C291.888 227.508 292.672 227.3 293.527 227.3C294.936 227.3 296.045 227.767 296.853 228.7C297.66 229.633 298.064 231.025 298.064 232.875V240H295.57V233.15C295.57 230.75 294.659 229.55 292.838 229.55C291.888 229.55 291.097 229.9 290.463 230.6C289.846 231.3 289.537 232.3 289.537 233.6V240H287.019Z" fill="white"/>
<path d="M305.02 240.3C304.022 240.3 303.199 240.125 302.549 239.775C301.9 239.425 301.417 238.967 301.1 238.4C300.784 237.817 300.625 237.183 300.625 236.5C300.625 235.3 301.069 234.35 301.956 233.65C302.842 232.95 304.109 232.6 305.756 232.6H308.844V232.375C308.844 231.408 308.59 230.683 308.084 230.2C307.593 229.717 306.951 229.475 306.16 229.475C305.463 229.475 304.853 229.658 304.331 230.025C303.824 230.375 303.515 230.9 303.404 231.6H300.887C300.966 230.7 301.251 229.933 301.742 229.3C302.248 228.65 302.882 228.158 303.642 227.825C304.418 227.475 305.265 227.3 306.183 227.3C307.83 227.3 309.105 227.758 310.008 228.675C310.91 229.575 311.361 230.808 311.361 232.375V240H309.176L308.962 237.875C308.63 238.558 308.147 239.133 307.514 239.6C306.88 240.067 306.049 240.3 305.02 240.3ZM305.518 238.15C306.199 238.15 306.769 237.983 307.229 237.65C307.704 237.3 308.068 236.842 308.321 236.275C308.59 235.708 308.757 235.083 308.82 234.4H306.017C305.02 234.4 304.307 234.583 303.879 234.95C303.468 235.317 303.262 235.775 303.262 236.325C303.262 236.892 303.46 237.342 303.856 237.675C304.267 237.992 304.822 238.15 305.518 238.15Z" fill="white"/>
<path d="M314.297 240V227.6H316.554L316.767 229.95C317.179 229.133 317.749 228.492 318.478 228.025C319.222 227.542 320.116 227.3 321.162 227.3V230.075H320.473C319.776 230.075 319.15 230.2 318.596 230.45C318.058 230.683 317.622 231.092 317.29 231.675C316.973 232.242 316.815 233.033 316.815 234.05V240H314.297Z" fill="white"/>
<path d="M327.864 236.2C327.246 236.2 326.676 236.125 326.153 235.975L325.132 237.025C325.306 237.142 325.52 237.242 325.773 237.325C326.027 237.408 326.383 237.483 326.842 237.55C327.301 237.617 327.927 237.683 328.719 237.75C330.286 237.9 331.418 238.3 332.115 238.95C332.812 239.583 333.16 240.433 333.16 241.5C333.16 242.233 332.97 242.925 332.59 243.575C332.226 244.242 331.648 244.775 330.856 245.175C330.08 245.592 329.083 245.8 327.864 245.8C326.217 245.8 324.879 245.467 323.849 244.8C322.836 244.15 322.329 243.158 322.329 241.825C322.329 241.308 322.456 240.792 322.709 240.275C322.979 239.775 323.398 239.3 323.968 238.85C323.636 238.7 323.343 238.542 323.089 238.375C322.852 238.192 322.638 238.008 322.448 237.825V237.225L324.491 235.025C323.572 234.192 323.113 233.1 323.113 231.75C323.113 230.933 323.295 230.192 323.659 229.525C324.039 228.842 324.586 228.3 325.298 227.9C326.011 227.5 326.866 227.3 327.864 227.3C328.529 227.3 329.146 227.4 329.716 227.6H334.11V229.35L332.02 229.475C332.4 230.158 332.59 230.917 332.59 231.75C332.59 232.583 332.4 233.333 332.02 234C331.656 234.667 331.118 235.2 330.405 235.6C329.708 236 328.861 236.2 327.864 236.2ZM327.864 234.125C328.592 234.125 329.178 233.925 329.621 233.525C330.08 233.108 330.31 232.525 330.31 231.775C330.31 231.008 330.08 230.425 329.621 230.025C329.178 229.625 328.592 229.425 327.864 229.425C327.119 229.425 326.518 229.625 326.058 230.025C325.615 230.425 325.393 231.008 325.393 231.775C325.393 232.525 325.615 233.108 326.058 233.525C326.518 233.925 327.119 234.125 327.864 234.125ZM324.705 241.575C324.705 242.292 325.005 242.825 325.607 243.175C326.209 243.542 326.961 243.725 327.864 243.725C328.734 243.725 329.439 243.525 329.978 243.125C330.516 242.742 330.785 242.225 330.785 241.575C330.785 241.092 330.603 240.675 330.239 240.325C329.875 239.992 329.186 239.783 328.172 239.7C327.412 239.65 326.739 239.575 326.153 239.475C325.599 239.792 325.219 240.133 325.013 240.5C324.807 240.867 324.705 241.225 324.705 241.575Z" fill="white"/>
<path d="M341.403 240.3C340.247 240.3 339.218 240.033 338.315 239.5C337.428 238.95 336.731 238.192 336.225 237.225C335.718 236.258 335.465 235.133 335.465 233.85C335.465 232.55 335.71 231.408 336.201 230.425C336.708 229.442 337.404 228.675 338.291 228.125C339.194 227.575 340.239 227.3 341.427 227.3C342.582 227.3 343.588 227.575 344.443 228.125C345.298 228.658 345.963 229.375 346.438 230.275C346.913 231.175 347.151 232.167 347.151 233.25C347.151 233.417 347.143 233.6 347.127 233.8C347.127 233.983 347.119 234.192 347.103 234.425H337.935C338.014 235.625 338.386 236.542 339.051 237.175C339.732 237.792 340.516 238.1 341.403 238.1C342.115 238.1 342.709 237.933 343.184 237.6C343.675 237.25 344.039 236.783 344.277 236.2H346.795C346.478 237.367 345.844 238.342 344.894 239.125C343.96 239.908 342.796 240.3 341.403 240.3ZM341.403 229.475C340.564 229.475 339.819 229.742 339.17 230.275C338.521 230.792 338.125 231.575 337.982 232.625H344.633C344.586 231.658 344.261 230.892 343.659 230.325C343.058 229.758 342.305 229.475 341.403 229.475Z" fill="white"/>
<path d="M362.375 240.3C361.456 240.3 360.641 240.108 359.928 239.725C359.231 239.342 358.677 238.8 358.265 238.1L358.004 240H355.748V222H358.265V229.525C358.645 228.942 359.168 228.425 359.833 227.975C360.498 227.525 361.353 227.3 362.398 227.3C363.538 227.3 364.544 227.583 365.415 228.15C366.286 228.717 366.967 229.492 367.458 230.475C367.964 231.458 368.218 232.575 368.218 233.825C368.218 235.075 367.964 236.192 367.458 237.175C366.967 238.142 366.286 238.908 365.415 239.475C364.544 240.025 363.531 240.3 362.375 240.3ZM361.947 238C363.024 238 363.911 237.617 364.607 236.85C365.304 236.067 365.652 235.05 365.652 233.8C365.652 232.983 365.494 232.258 365.177 231.625C364.861 230.992 364.425 230.5 363.871 230.15C363.317 229.783 362.675 229.6 361.947 229.6C360.87 229.6 359.984 229.992 359.287 230.775C358.606 231.558 358.265 232.567 358.265 233.8C358.265 235.05 358.606 236.067 359.287 236.85C359.984 237.617 360.87 238 361.947 238Z" fill="white"/>
<path d="M374.931 240.3C373.934 240.3 373.11 240.125 372.461 239.775C371.812 239.425 371.329 238.967 371.012 238.4C370.695 237.817 370.537 237.183 370.537 236.5C370.537 235.3 370.98 234.35 371.867 233.65C372.754 232.95 374.021 232.6 375.668 232.6H378.755V232.375C378.755 231.408 378.502 230.683 377.995 230.2C377.504 229.717 376.863 229.475 376.071 229.475C375.375 229.475 374.765 229.658 374.242 230.025C373.736 230.375 373.427 230.9 373.316 231.6H370.798C370.877 230.7 371.163 229.933 371.653 229.3C372.16 228.65 372.793 228.158 373.554 227.825C374.329 227.475 375.177 227.3 376.095 227.3C377.742 227.3 379.017 227.758 379.919 228.675C380.822 229.575 381.273 230.808 381.273 232.375V240H379.088L378.874 237.875C378.542 238.558 378.059 239.133 377.425 239.6C376.792 240.067 375.96 240.3 374.931 240.3ZM375.43 238.15C376.111 238.15 376.681 237.983 377.14 237.65C377.615 237.3 377.979 236.842 378.233 236.275C378.502 235.708 378.668 235.083 378.732 234.4H375.929C374.931 234.4 374.219 234.583 373.791 234.95C373.379 235.317 373.174 235.775 373.174 236.325C373.174 236.892 373.371 237.342 373.767 237.675C374.179 237.992 374.733 238.15 375.43 238.15Z" fill="white"/>
<path d="M384.209 240V227.6H386.441L386.631 229.775C386.996 229.008 387.526 228.408 388.223 227.975C388.935 227.525 389.751 227.3 390.669 227.3C392.094 227.3 393.211 227.767 394.018 228.7C394.842 229.633 395.254 231.025 395.254 232.875V240H392.76V233.15C392.76 230.75 391.825 229.55 389.957 229.55C389.023 229.55 388.247 229.9 387.629 230.6C387.027 231.3 386.726 232.3 386.726 233.6V240H384.209Z" fill="white"/>
<path d="M398.219 240V222H400.737V232.725L405.25 227.6H408.266L403.254 233.225L409.002 240H405.82L400.737 233.65V240H398.219Z" fill="white"/>
<path d="M420.928 240.3C419.931 240.3 419.107 240.125 418.458 239.775C417.809 239.425 417.326 238.967 417.009 238.4C416.692 237.817 416.534 237.183 416.534 236.5C416.534 235.3 416.977 234.35 417.864 233.65C418.751 232.95 420.018 232.6 421.664 232.6H424.752V232.375C424.752 231.408 424.499 230.683 423.992 230.2C423.501 229.717 422.86 229.475 422.068 229.475C421.372 229.475 420.762 229.658 420.239 230.025C419.733 230.375 419.424 230.9 419.313 231.6H416.795C416.874 230.7 417.159 229.933 417.65 229.3C418.157 228.65 418.79 228.158 419.551 227.825C420.326 227.475 421.174 227.3 422.092 227.3C423.739 227.3 425.014 227.758 425.916 228.675C426.819 229.575 427.27 230.808 427.27 232.375V240H425.085L424.871 237.875C424.538 238.558 424.056 239.133 423.422 239.6C422.789 240.067 421.957 240.3 420.928 240.3ZM421.427 238.15C422.108 238.15 422.678 237.983 423.137 237.65C423.612 237.3 423.976 236.842 424.23 236.275C424.499 235.708 424.665 235.083 424.729 234.4H421.926C420.928 234.4 420.216 234.583 419.788 234.95C419.376 235.317 419.17 235.775 419.17 236.325C419.17 236.892 419.368 237.342 419.764 237.675C420.176 237.992 420.73 238.15 421.427 238.15Z" fill="white"/>
<path d="M435.787 240.3C434.632 240.3 433.594 240.025 432.676 239.475C431.773 238.925 431.061 238.167 430.538 237.2C430.031 236.217 429.778 235.083 429.778 233.8C429.778 232.517 430.031 231.392 430.538 230.425C431.061 229.442 431.773 228.675 432.676 228.125C433.594 227.575 434.632 227.3 435.787 227.3C437.244 227.3 438.464 227.7 439.445 228.5C440.443 229.3 441.084 230.383 441.369 231.75H438.733C438.574 231.067 438.226 230.533 437.688 230.15C437.149 229.767 436.516 229.575 435.787 229.575C435.17 229.575 434.6 229.742 434.077 230.075C433.555 230.392 433.135 230.867 432.818 231.5C432.502 232.117 432.343 232.883 432.343 233.8C432.343 234.717 432.502 235.492 432.818 236.125C433.135 236.742 433.555 237.217 434.077 237.55C434.6 237.883 435.17 238.05 435.787 238.05C436.516 238.05 437.149 237.858 437.688 237.475C438.226 237.092 438.574 236.55 438.733 235.85H441.369C441.1 237.183 440.467 238.258 439.469 239.075C438.471 239.892 437.244 240.3 435.787 240.3Z" fill="white"/>
<path d="M449.682 240.3C448.526 240.3 447.488 240.025 446.57 239.475C445.667 238.925 444.955 238.167 444.432 237.2C443.926 236.217 443.672 235.083 443.672 233.8C443.672 232.517 443.926 231.392 444.432 230.425C444.955 229.442 445.667 228.675 446.57 228.125C447.488 227.575 448.526 227.3 449.682 227.3C451.138 227.3 452.358 227.7 453.339 228.5C454.337 229.3 454.978 230.383 455.263 231.75H452.627C452.469 231.067 452.12 230.533 451.582 230.15C451.043 229.767 450.41 229.575 449.682 229.575C449.064 229.575 448.494 229.742 447.971 230.075C447.449 230.392 447.029 230.867 446.713 231.5C446.396 232.117 446.238 232.883 446.238 233.8C446.238 234.717 446.396 235.492 446.713 236.125C447.029 236.742 447.449 237.217 447.971 237.55C448.494 237.883 449.064 238.05 449.682 238.05C450.41 238.05 451.043 237.858 451.582 237.475C452.12 237.092 452.469 236.55 452.627 235.85H455.263C454.994 237.183 454.361 238.258 453.363 239.075C452.366 239.892 451.138 240.3 449.682 240.3Z" fill="white"/>
<path d="M463.505 240.3C462.38 240.3 461.367 240.033 460.464 239.5C459.577 238.95 458.873 238.192 458.35 237.225C457.828 236.242 457.566 235.1 457.566 233.8C457.566 232.5 457.828 231.367 458.35 230.4C458.889 229.417 459.609 228.658 460.512 228.125C461.414 227.575 462.42 227.3 463.528 227.3C464.653 227.3 465.658 227.575 466.545 228.125C467.447 228.658 468.16 229.417 468.683 230.4C469.221 231.367 469.49 232.5 469.49 233.8C469.49 235.1 469.221 236.242 468.683 237.225C468.16 238.192 467.447 238.95 466.545 239.5C465.642 240.033 464.629 240.3 463.505 240.3ZM463.505 238.025C464.106 238.025 464.66 237.867 465.167 237.55C465.69 237.233 466.109 236.767 466.426 236.15C466.743 235.517 466.901 234.733 466.901 233.8C466.901 232.867 466.743 232.092 466.426 231.475C466.125 230.842 465.714 230.367 465.191 230.05C464.684 229.733 464.13 229.575 463.528 229.575C462.927 229.575 462.364 229.733 461.842 230.05C461.335 230.367 460.923 230.842 460.607 231.475C460.29 232.092 460.132 232.867 460.132 233.8C460.132 234.733 460.29 235.517 460.607 236.15C460.923 236.767 461.335 237.233 461.842 237.55C462.349 237.867 462.903 238.025 463.505 238.025Z" fill="white"/>
<path d="M483.044 227.6V240H480.811L480.621 237.825C480.257 238.592 479.719 239.2 479.006 239.65C478.309 240.083 477.502 240.3 476.583 240.3C475.158 240.3 474.034 239.833 473.211 238.9C472.403 237.967 471.999 236.575 471.999 234.725V227.6H474.493V234.45C474.493 236.85 475.427 238.05 477.296 238.05C478.23 238.05 478.998 237.7 479.6 237C480.217 236.3 480.526 235.3 480.526 234V227.6H483.044Z" fill="white"/>
<path d="M486.223 240V227.6H488.456L488.646 229.775C489.01 229.008 489.54 228.408 490.237 227.975C490.95 227.525 491.765 227.3 492.684 227.3C494.109 227.3 495.225 227.767 496.033 228.7C496.856 229.633 497.268 231.025 497.268 232.875V240H494.774V233.15C494.774 230.75 493.84 229.55 491.971 229.55C491.037 229.55 490.261 229.9 489.643 230.6C489.042 231.3 488.741 232.3 488.741 233.6V240H486.223Z" fill="white"/>
<path d="M505.174 240C504.018 240 503.099 239.708 502.418 239.125C501.738 238.525 501.397 237.467 501.397 235.95V229.825H499.378V227.6H501.397L501.706 224.45H503.915V227.6H507.24V229.825H503.915V235.95C503.915 236.633 504.049 237.108 504.319 237.375C504.604 237.625 505.087 237.75 505.768 237.75H507.121V240H505.174Z" fill="white"/>
</svg>
