<svg width="92" height="85" viewBox="0 0 92 85" fill="none" xmlns="http://www.w3.org/2000/svg">
<path d="M0 8C0 3.58172 3.58172 0 8 0H73.0714C83.0126 0 91.0714 8.05888 91.0714 18V67C91.0714 76.9411 83.0126 85 73.0714 85H18C8.05886 85 0 76.9411 0 67V8Z" fill="#D6AA1B"/>
<path d="M44.7625 53.025C50.9826 53.025 56.025 47.9826 56.025 41.7625C56.025 35.5424 50.9826 30.5 44.7625 30.5C38.5424 30.5 33.5 35.5424 33.5 41.7625C33.5 47.9826 38.5424 53.025 44.7625 53.025Z" fill="white"/>
<path d="M58.4874 51.6875C58.0749 50.925 57.1999 50.5 56.0249 50.5C55.1374 50.5 54.3749 50.8625 53.9249 51.4875C53.4749 52.1125 53.3749 52.95 53.6499 53.7875C54.1874 55.4125 55.1249 55.775 55.6374 55.8375C55.7124 55.85 55.7874 55.85 55.8749 55.85C56.4249 55.85 57.2749 55.6125 58.0999 54.375C58.7624 53.4125 58.8874 52.45 58.4874 51.6875Z" fill="white"/>
</svg>
