<svg width="75" height="70" viewBox="0 0 75 70" fill="none" xmlns="http://www.w3.org/2000/svg">
<path d="M0 8C0 3.58172 3.58172 0 8 0H57C66.9411 0 75 8.05888 75 18V52C75 61.9411 66.9411 70 57 70H18C8.05888 70 0 61.9411 0 52V8Z" fill="#D6AA1B"/>
<path d="M37.5 22.5833C30.383 22.5833 24.5834 28.3829 24.5834 35.5C24.5834 42.6171 30.383 48.4167 37.5 48.4167C44.6171 48.4167 50.4167 42.6171 50.4167 35.5C50.4167 28.3829 44.6171 22.5833 37.5 22.5833ZM43.1188 40.1112C42.938 40.4212 42.615 40.5892 42.2792 40.5892C42.1113 40.5892 41.9434 40.5504 41.7884 40.4471L37.7842 38.0575C36.7896 37.4633 36.0534 36.1587 36.0534 35.0092V29.7133C36.0534 29.1837 36.4925 28.7446 37.0221 28.7446C37.5517 28.7446 37.9909 29.1837 37.9909 29.7133V35.0092C37.9909 35.4742 38.3784 36.1587 38.7788 36.3912L42.783 38.7808C43.248 39.0521 43.403 39.6462 43.1188 40.1112Z" fill="white"/>
</svg>
