<svg width="623" height="592" viewBox="0 0 623 592" fill="none" xmlns="http://www.w3.org/2000/svg">
<g filter="url(#filter0_d_1702_16385)">
<rect x="60" y="60" width="503" height="472" rx="50" fill="white"/>
</g>
<path d="M179.404 141.052C183.088 141.052 184.976 138.618 185.476 136.607L183.088 135.888C182.736 137.105 181.644 138.562 179.404 138.562C177.293 138.562 175.331 137.031 175.331 134.246C175.331 131.277 177.405 129.875 179.367 129.875C181.644 129.875 182.662 131.258 182.976 132.512L185.383 131.756C184.865 129.635 182.995 127.422 179.367 127.422C175.85 127.422 172.684 130.078 172.684 134.246C172.684 138.415 175.738 141.052 179.404 141.052Z" fill="#273B4A"/>
<path d="M186.605 138.304C186.605 139.724 187.789 141.034 189.733 141.034C191.085 141.034 191.955 140.407 192.417 139.687C192.417 140.038 192.454 140.536 192.51 140.776H194.768C194.713 140.462 194.657 139.816 194.657 139.337V134.873C194.657 133.047 193.584 131.424 190.696 131.424C188.252 131.424 186.938 132.992 186.79 134.412L188.974 134.873C189.048 134.08 189.641 133.398 190.714 133.398C191.751 133.398 192.251 133.933 192.251 134.578C192.251 134.892 192.084 135.15 191.566 135.224L189.326 135.556C187.808 135.777 186.605 136.681 186.605 138.304ZM190.252 139.208C189.456 139.208 189.067 138.691 189.067 138.156C189.067 137.456 189.567 137.105 190.196 137.013L192.251 136.699V137.105C192.251 138.71 191.288 139.208 190.252 139.208Z" fill="#273B4A"/>
<path d="M196.361 138.249C196.473 139.282 197.417 141.052 200.156 141.052C202.544 141.052 203.692 139.54 203.692 138.064C203.692 136.736 202.785 135.648 200.989 135.279L199.694 135.002C199.194 134.91 198.861 134.634 198.861 134.191C198.861 133.674 199.379 133.287 200.027 133.287C201.063 133.287 201.452 133.97 201.526 134.504L203.581 134.043C203.47 133.066 202.6 131.424 200.008 131.424C198.046 131.424 196.602 132.771 196.602 134.394C196.602 135.666 197.398 136.718 199.157 137.105L200.36 137.382C201.063 137.529 201.341 137.861 201.341 138.267C201.341 138.747 200.952 139.171 200.138 139.171C199.064 139.171 198.527 138.507 198.472 137.788L196.361 138.249Z" fill="#273B4A"/>
<path d="M211.56 140.776H213.911C213.874 140.462 213.818 139.835 213.818 139.134V131.701H211.356V136.976C211.356 138.027 210.727 138.765 209.635 138.765C208.487 138.765 207.969 137.954 207.969 136.939V131.701H205.507V137.437C205.507 139.411 206.766 141.015 208.968 141.015C209.931 141.015 210.986 140.646 211.486 139.798C211.486 140.167 211.523 140.591 211.56 140.776Z" fill="#273B4A"/>
<path d="M215.891 138.304C215.891 139.724 217.075 141.034 219.019 141.034C220.37 141.034 221.24 140.407 221.703 139.687C221.703 140.038 221.74 140.536 221.796 140.776H224.054C223.999 140.462 223.943 139.816 223.943 139.337V134.873C223.943 133.047 222.869 131.424 219.982 131.424C217.538 131.424 216.224 132.992 216.076 134.412L218.26 134.873C218.334 134.08 218.926 133.398 220 133.398C221.037 133.398 221.537 133.933 221.537 134.578C221.537 134.892 221.37 135.15 220.852 135.224L218.612 135.556C217.094 135.777 215.891 136.681 215.891 138.304ZM219.537 139.208C218.741 139.208 218.353 138.691 218.353 138.156C218.353 137.456 218.852 137.105 219.482 137.013L221.537 136.699V137.105C221.537 138.71 220.574 139.208 219.537 139.208Z" fill="#273B4A"/>
<path d="M228.887 140.776V127.422H226.425V140.776H228.887Z" fill="#273B4A"/>
<path d="M236.281 127.698V140.776H241.354C243.816 140.776 245.408 139.245 245.408 137.124C245.408 135.5 244.371 134.338 243.094 134.025C244.186 133.656 245 132.568 245 131.221C245 129.192 243.556 127.698 241.002 127.698H236.281ZM238.799 133.103V129.838H240.595C241.835 129.838 242.483 130.465 242.483 131.461C242.483 132.457 241.779 133.103 240.613 133.103H238.799ZM238.799 138.654V135.205H240.909C242.187 135.205 242.853 135.925 242.853 136.958C242.853 138.009 242.113 138.654 240.872 138.654H238.799Z" fill="#273B4A"/>
<path d="M246.821 138.304C246.821 139.724 248.006 141.034 249.95 141.034C251.301 141.034 252.171 140.407 252.634 139.687C252.634 140.038 252.671 140.536 252.727 140.776H254.985C254.929 140.462 254.874 139.816 254.874 139.337V134.873C254.874 133.047 253.8 131.424 250.912 131.424C248.469 131.424 247.155 132.992 247.007 134.412L249.191 134.873C249.265 134.08 249.857 133.398 250.931 133.398C251.968 133.398 252.467 133.933 252.467 134.578C252.467 134.892 252.301 135.15 251.783 135.224L249.543 135.556C248.025 135.777 246.821 136.681 246.821 138.304ZM250.468 139.208C249.672 139.208 249.283 138.691 249.283 138.156C249.283 137.456 249.783 137.105 250.413 137.013L252.467 136.699V137.105C252.467 138.71 251.505 139.208 250.468 139.208Z" fill="#273B4A"/>
<path d="M261.411 133.693C262.632 133.693 263.206 134.468 263.428 135.224L265.631 134.486C265.242 132.955 263.836 131.424 261.355 131.424C258.708 131.424 256.635 133.435 256.635 136.238C256.635 139.023 258.745 141.052 261.429 141.052C263.854 141.052 265.279 139.503 265.687 137.99L263.521 137.271C263.317 137.972 262.688 138.802 261.429 138.802C260.17 138.802 259.097 137.88 259.097 136.238C259.097 134.597 260.152 133.693 261.411 133.693Z" fill="#273B4A"/>
<path d="M276.327 131.701H273.106L269.959 135.076V127.422H267.497V140.776H269.959V138.378L270.977 137.308L273.384 140.776H276.401L272.68 135.519L276.327 131.701Z" fill="#273B4A"/>
<path d="M280.3 144.28V139.89C280.744 140.499 281.67 140.997 282.928 140.997C285.501 140.997 287.223 138.968 287.223 136.22C287.223 133.527 285.687 131.498 283.021 131.498C281.651 131.498 280.633 132.107 280.226 132.808V131.701H277.838V144.28H280.3ZM284.798 136.238C284.798 137.861 283.798 138.802 282.54 138.802C281.281 138.802 280.263 137.843 280.263 136.238C280.263 134.634 281.281 133.693 282.54 133.693C283.798 133.693 284.798 134.634 284.798 136.238Z" fill="#273B4A"/>
<path d="M288.617 138.304C288.617 139.724 289.802 141.034 291.745 141.034C293.097 141.034 293.967 140.407 294.43 139.687C294.43 140.038 294.467 140.536 294.522 140.776H296.781C296.725 140.462 296.669 139.816 296.669 139.337V134.873C296.669 133.047 295.596 131.424 292.708 131.424C290.265 131.424 288.95 132.992 288.802 134.412L290.986 134.873C291.061 134.08 291.653 133.398 292.727 133.398C293.763 133.398 294.263 133.933 294.263 134.578C294.263 134.892 294.096 135.15 293.578 135.224L291.338 135.556C289.82 135.777 288.617 136.681 288.617 138.304ZM292.264 139.208C291.468 139.208 291.079 138.691 291.079 138.156C291.079 137.456 291.579 137.105 292.208 137.013L294.263 136.699V137.105C294.263 138.71 293.3 139.208 292.264 139.208Z" fill="#273B4A"/>
<path d="M303.206 133.693C304.428 133.693 305.002 134.468 305.224 135.224L307.427 134.486C307.038 132.955 305.631 131.424 303.151 131.424C300.503 131.424 298.43 133.435 298.43 136.238C298.43 139.023 300.54 141.052 303.225 141.052C305.65 141.052 307.075 139.503 307.482 137.99L305.316 137.271C305.113 137.972 304.483 138.802 303.225 138.802C301.966 138.802 300.892 137.88 300.892 136.238C300.892 134.597 301.947 133.693 303.206 133.693Z" fill="#273B4A"/>
<path d="M318.123 131.701H314.902L311.755 135.076V127.422H309.293V140.776H311.755V138.378L312.773 137.308L315.179 140.776H318.197L314.476 135.519L318.123 131.701Z" fill="#273B4A"/>
<path d="M174.161 163.047V159.29H176.302C177.583 159.29 178.367 160.032 178.367 161.192C178.367 162.32 177.583 163.047 176.302 163.047H174.161ZM176.573 164.408C178.548 164.408 179.875 163.032 179.875 161.176C179.875 159.336 178.548 157.929 176.573 157.929H172.684V168.892H174.161V164.408H176.573Z" fill="#8C8C8C"/>
<path d="M180.619 166.897C180.619 168.072 181.569 169.124 183.046 169.124C184.343 169.124 185.066 168.412 185.383 167.887C185.383 168.428 185.428 168.706 185.458 168.892H186.845C186.815 168.706 186.755 168.32 186.755 167.67V163.944C186.755 162.49 185.911 161.223 183.74 161.223C182.172 161.223 180.921 162.212 180.77 163.635L182.127 163.959C182.217 163.094 182.775 162.46 183.77 162.46C184.87 162.46 185.338 163.063 185.338 163.789C185.338 164.052 185.217 164.284 184.78 164.346L182.82 164.64C181.569 164.825 180.619 165.567 180.619 166.897ZM183.242 167.902C182.519 167.902 182.067 167.376 182.067 166.82C182.067 166.155 182.519 165.799 183.122 165.707L185.338 165.366V165.707C185.338 167.33 184.403 167.902 183.242 167.902Z" fill="#8C8C8C"/>
<path d="M190.364 168.892V161.455H188.962V168.892H190.364ZM188.646 158.64C188.646 159.213 189.098 159.676 189.656 159.676C190.228 159.676 190.681 159.213 190.681 158.64C190.681 158.053 190.228 157.589 189.656 157.589C189.098 157.589 188.646 158.053 188.646 158.64Z" fill="#8C8C8C"/>
<path d="M193.619 165.15C193.619 163.619 194.463 162.537 195.76 162.537C197.056 162.537 197.84 163.588 197.84 165.119C197.84 166.65 197.041 167.809 195.745 167.809C194.388 167.809 193.619 166.681 193.619 165.15ZM197.855 167.887C197.855 168.335 197.9 168.722 197.93 168.892H199.302C199.287 168.768 199.227 168.227 199.227 167.516V157.697H197.825V162.506C197.584 161.903 196.89 161.254 195.609 161.254C193.559 161.254 192.172 163.047 192.172 165.15C192.172 167.361 193.483 169.093 195.609 169.093C196.74 169.093 197.508 168.474 197.855 167.763V167.887Z" fill="#8C8C8C"/>
<path d="M473.47 132.14H474.553V127.422H477.485L478.978 132.14H480.636V127.422H482.702V132.14H483.768V133.547H482.702V134.927H483.768V136.335H482.702V141.053H479.761L478.268 136.335H476.629V141.053H474.553V136.335H473.47V134.927H474.553V133.547H473.47V132.14ZM476.629 134.927H477.822L477.394 133.547H476.629V134.927ZM479.871 134.927H480.636V133.547H479.425L479.871 134.927ZM476.456 130.555L476.566 132.14H476.939L476.456 130.555ZM480.799 137.846C480.781 137.684 480.745 137.181 480.69 136.335H480.317L480.799 137.846Z" fill="#72AE1E"/>
<path d="M487.95 135.554C488.211 135.458 488.528 135.363 489.05 135.363C490.206 135.363 491.026 136.031 491.026 137.196C491.026 138.227 490.262 139.067 488.975 139.067C487.707 139.067 486.831 138.151 486.775 136.89L484.295 137.387C484.444 139.468 486.159 141.339 488.975 141.339C491.903 141.339 493.618 139.373 493.618 137.234C493.618 134.962 491.94 133.53 490.113 133.453L493.246 130.78V128.66H484.686V130.933H489.982L486.812 133.721L487.95 135.554Z" fill="#72AE1E"/>
<path d="M495.149 139.525C495.149 140.442 495.783 141.11 496.697 141.11C496.902 141.11 497.107 141.053 497.181 140.996C497.144 142.046 496.249 142.867 495.41 143.058V144.28C496.79 144.108 498.692 142.924 498.692 140.117C498.692 138.876 498.002 137.921 496.846 137.921C495.876 137.921 495.149 138.609 495.149 139.525Z" fill="#72AE1E"/>
<path d="M500.361 137.578C500.51 139.525 502.338 141.358 504.967 141.358C507.876 141.358 509.61 139.354 509.61 137.043C509.61 134.389 507.895 132.899 505.471 132.899C504.669 132.899 503.811 133.167 503.289 133.663L503.886 130.933H508.958V128.66H502.133L500.697 135.019C500.958 135.095 502.804 135.745 503.046 135.84C503.438 135.382 504.091 135 504.911 135C506.03 135 507.056 135.668 507.056 137.081C507.056 138.322 506.123 139.105 504.967 139.105C503.68 139.105 502.823 138.17 502.767 137.024L500.361 137.578Z" fill="#72AE1E"/>
<path d="M513.372 133.453C513.316 133.243 513.279 132.995 513.279 132.766C513.279 131.601 513.913 130.704 515.199 130.704C516.411 130.704 517.027 131.506 517.027 132.403C517.027 133.262 516.617 133.912 515.591 134.542L513.596 135.764C511.432 137.1 510.761 138.876 510.743 141.053H519.693V138.781H513.894C514.08 138.303 514.472 137.96 514.938 137.654L517.269 136.203C518.761 135.267 519.619 133.969 519.619 132.365C519.619 130.207 517.959 128.374 515.255 128.374C512.439 128.374 510.836 130.341 510.836 132.518C510.836 132.823 510.892 133.205 510.929 133.377L513.372 133.453Z" fill="#72AE1E"/>
<path d="M523.609 134.866C523.609 133.568 523.795 132.46 524.261 131.716C524.634 131.105 525.213 130.704 526.089 130.704C526.984 130.704 527.525 131.105 527.898 131.716C528.383 132.46 528.569 133.568 528.569 134.866C528.569 136.165 528.383 137.272 527.898 138.017C527.525 138.628 526.984 139.029 526.089 139.029C525.213 139.029 524.634 138.628 524.261 138.017C523.795 137.272 523.609 136.165 523.609 134.866ZM521.035 134.866C521.035 136.451 521.278 137.998 522.098 139.277C522.9 140.499 524.206 141.358 526.089 141.358C527.972 141.358 529.278 140.499 530.061 139.277C530.881 137.998 531.142 136.451 531.142 134.866C531.142 133.281 530.881 131.735 530.061 130.455C529.278 129.233 527.972 128.374 526.089 128.374C524.206 128.374 522.9 129.233 522.098 130.455C521.278 131.735 521.035 133.281 521.035 134.866Z" fill="#72AE1E"/>
<path d="M450.124 168.014V159.81H452.372C454.375 159.81 456.027 161.19 456.027 163.935C456.027 166.664 454.345 168.014 452.342 168.014H450.124ZM452.388 169.347C455.14 169.347 457.571 167.492 457.571 163.935C457.571 160.362 455.171 158.476 452.418 158.476H448.626V169.347H452.388Z" fill="#8C8C8C"/>
<path d="M460.411 164.901C460.472 163.95 461.206 163.015 462.414 163.015C463.714 163.015 464.402 163.843 464.433 164.901H460.411ZM464.647 166.818C464.371 167.646 463.775 168.305 462.582 168.305C461.344 168.305 460.396 167.385 460.365 166.066H465.901C465.916 165.974 465.931 165.79 465.931 165.606C465.931 163.306 464.662 161.742 462.399 161.742C460.549 161.742 458.882 163.322 458.882 165.637C458.882 168.136 460.61 169.577 462.582 169.577C464.295 169.577 465.472 168.55 465.885 167.247L464.647 166.818Z" fill="#8C8C8C"/>
<path d="M470.855 163.076C472.109 163.076 472.644 163.92 472.827 164.64L474.127 164.088C473.821 162.969 472.812 161.742 470.855 161.742C468.76 161.742 467.154 163.352 467.154 165.652C467.154 167.891 468.729 169.577 470.87 169.577C472.781 169.577 473.836 168.336 474.188 167.278L472.919 166.726C472.751 167.308 472.246 168.244 470.87 168.244C469.677 168.244 468.622 167.339 468.622 165.652C468.622 163.935 469.693 163.076 470.855 163.076Z" fill="#8C8C8C"/>
<path d="M480.63 162.984C480.615 162.831 480.599 162.678 480.599 162.54C480.599 161.405 481.211 160.5 482.511 160.5C483.764 160.5 484.376 161.344 484.376 162.248C484.376 163.015 483.948 163.72 483.015 164.318L481.364 165.392C479.682 166.48 479.04 167.722 479.009 169.347H485.951V167.952H480.859C480.997 167.339 481.501 166.925 482.067 166.557L484.024 165.3C485.156 164.579 485.89 163.536 485.89 162.233C485.89 160.577 484.667 159.182 482.541 159.182C480.37 159.182 479.116 160.7 479.116 162.402C479.116 162.524 479.116 162.662 479.131 162.8L480.63 162.984Z" fill="#8C8C8C"/>
<path d="M490.967 169.347V159.412H489.652C489.423 160.485 488.475 161.252 487.099 161.282V162.34H489.5V169.347H490.967Z" fill="#8C8C8C"/>
<path d="M493.028 168.366C493.028 169.025 493.487 169.409 494.053 169.409C494.221 169.409 494.343 169.363 494.389 169.332C494.374 170.068 493.869 170.819 493.12 170.988V171.785C494.068 171.663 495.383 170.819 495.383 168.796C495.383 167.83 494.802 167.339 494.145 167.339C493.502 167.339 493.028 167.814 493.028 168.366Z" fill="#8C8C8C"/>
<path d="M502.431 162.984C502.416 162.831 502.401 162.678 502.401 162.54C502.401 161.405 503.012 160.5 504.312 160.5C505.566 160.5 506.178 161.344 506.178 162.248C506.178 163.015 505.75 163.72 504.817 164.318L503.165 165.392C501.483 166.48 500.841 167.722 500.811 169.347H507.753V167.952H502.661C502.798 167.339 503.303 166.925 503.869 166.557L505.826 165.3C506.958 164.579 507.691 163.536 507.691 162.233C507.691 160.577 506.468 159.182 504.343 159.182C502.171 159.182 500.918 160.7 500.918 162.402C500.918 162.524 500.918 162.662 500.933 162.8L502.431 162.984Z" fill="#8C8C8C"/>
<path d="M510.617 164.38C510.617 162.862 510.892 161.788 511.488 161.16C511.87 160.761 512.36 160.516 513.063 160.516C513.767 160.516 514.256 160.761 514.638 161.16C515.234 161.788 515.51 162.862 515.51 164.38C515.51 165.898 515.234 166.971 514.638 167.6C514.256 167.998 513.767 168.244 513.063 168.244C512.36 168.244 511.87 167.998 511.488 167.6C510.892 166.971 510.617 165.898 510.617 164.38ZM509.133 164.38C509.133 165.744 509.363 167.002 510.02 167.983C510.662 168.949 511.656 169.577 513.063 169.577C514.47 169.577 515.464 168.949 516.106 167.983C516.764 167.002 516.993 165.744 516.993 164.38C516.993 163.015 516.764 161.758 516.106 160.776C515.464 159.81 514.47 159.182 513.063 159.182C511.656 159.182 510.662 159.81 510.02 160.776C509.363 161.758 509.133 163.015 509.133 164.38Z" fill="#8C8C8C"/>
<path d="M519.917 162.984C519.902 162.831 519.887 162.678 519.887 162.54C519.887 161.405 520.498 160.5 521.798 160.5C523.052 160.5 523.664 161.344 523.664 162.248C523.664 163.015 523.236 163.72 522.303 164.318L520.651 165.392C518.969 166.48 518.327 167.722 518.297 169.347H525.239V167.952H520.147C520.284 167.339 520.789 166.925 521.355 166.557L523.312 165.3C524.444 164.579 525.178 163.536 525.178 162.233C525.178 160.577 523.954 159.182 521.829 159.182C519.657 159.182 518.404 160.7 518.404 162.402C518.404 162.524 518.404 162.662 518.419 162.8L519.917 162.984Z" fill="#8C8C8C"/>
<path d="M530.255 169.347V159.412H528.94C528.711 160.485 527.763 161.252 526.386 161.282V162.34H528.787V169.347H530.255Z" fill="#8C8C8C"/>
<path d="M90.1675 115H143.319C150.226 115 155.826 120.599 155.826 127.506V168.152C155.826 175.059 150.226 180.658 143.319 180.658H102.674C95.7668 180.658 90.1675 175.059 90.1675 168.152V115Z" fill="#72AE1E" fill-opacity="0.1"/>
<path d="M136.873 143.031C136.42 142.502 135.864 142.078 135.241 141.788C134.617 141.497 133.941 141.346 133.257 141.345H130.997V138.752C130.997 136.688 130.201 134.709 128.784 133.25C127.366 131.791 125.444 130.971 123.44 130.971C121.436 130.971 119.514 131.791 118.096 133.25C116.679 134.709 115.883 136.688 115.883 138.752V141.345H113.623C112.94 141.345 112.264 141.495 111.64 141.785C111.017 142.075 110.461 142.498 110.008 143.025C109.555 143.553 109.217 144.174 109.015 144.847C108.813 145.52 108.753 146.229 108.837 146.928L110.306 159.028C110.499 160.589 111.237 162.025 112.383 163.067C113.529 164.108 115.004 164.684 116.533 164.687H130.347C131.876 164.685 133.352 164.108 134.498 163.067C135.645 162.025 136.383 160.589 136.575 159.027L138.044 146.928C138.128 146.23 138.066 145.522 137.864 144.85C137.663 144.178 137.325 143.558 136.873 143.031ZM118.402 138.752C118.402 137.376 118.933 136.057 119.878 135.084C120.822 134.111 122.104 133.564 123.44 133.564C124.776 133.564 126.058 134.111 127.002 135.084C127.947 136.057 128.478 137.376 128.478 138.752V141.345H118.402V138.752ZM135.544 146.606L134.075 158.705C133.96 159.64 133.519 160.5 132.832 161.124C132.146 161.747 131.263 162.092 130.347 162.094H116.533C115.618 162.092 114.734 161.747 114.048 161.124C113.362 160.5 112.92 159.64 112.805 158.705L111.336 146.606C111.296 146.272 111.325 145.933 111.421 145.612C111.517 145.29 111.679 144.994 111.895 144.741C112.112 144.489 112.378 144.287 112.676 144.149C112.974 144.01 113.297 143.939 113.623 143.939H133.257C133.583 143.939 133.907 144.01 134.205 144.149C134.502 144.287 134.768 144.489 134.985 144.741C135.201 144.994 135.363 145.29 135.459 145.612C135.556 145.933 135.584 146.272 135.544 146.606Z" fill="#72AE1E"/>
<path d="M116.786 149.604C117.766 149.604 118.56 148.809 118.56 147.829C118.56 146.849 117.766 146.055 116.786 146.055C115.806 146.055 115.011 146.849 115.011 147.829C115.011 148.809 115.806 149.604 116.786 149.604Z" fill="#72AE1E"/>
<path d="M130.095 149.604C131.075 149.604 131.869 148.809 131.869 147.829C131.869 146.849 131.075 146.055 130.095 146.055C129.115 146.055 128.32 146.849 128.32 147.829C128.32 148.809 129.115 149.604 130.095 149.604Z" fill="#72AE1E"/>
<path d="M175.338 251.294C175.338 248.458 177.417 247.111 179.44 247.111C181.481 247.111 183.56 248.458 183.56 251.294C183.56 254.129 181.481 255.476 179.44 255.476C177.417 255.476 175.338 254.129 175.338 251.294ZM172.684 251.312C172.684 255.352 175.876 257.851 179.44 257.851C183.021 257.851 186.214 255.352 186.214 251.312C186.214 247.253 183.021 244.754 179.44 244.754C175.876 244.754 172.684 247.253 172.684 251.312Z" fill="#273B4A"/>
<path d="M190.588 257.585V256.522C191.071 257.266 192.036 257.798 193.298 257.798C195.896 257.798 197.604 255.831 197.604 253.19C197.604 250.603 196.063 248.636 193.391 248.636C192.036 248.636 191.034 249.203 190.625 249.823V244.754H188.194V257.585H190.588ZM195.135 253.208C195.135 254.803 194.133 255.689 192.871 255.689C191.628 255.689 190.588 254.785 190.588 253.208C190.588 251.613 191.628 250.744 192.871 250.744C194.133 250.744 195.135 251.613 195.135 253.208Z" fill="#273B4A"/>
<path d="M198.778 255.157C198.89 256.15 199.836 257.851 202.583 257.851C204.977 257.851 206.128 256.398 206.128 254.98C206.128 253.704 205.218 252.658 203.418 252.304L202.119 252.038C201.618 251.95 201.284 251.684 201.284 251.258C201.284 250.762 201.804 250.39 202.453 250.39C203.492 250.39 203.882 251.046 203.956 251.56L206.016 251.117C205.905 250.177 205.033 248.6 202.435 248.6C200.467 248.6 199.02 249.894 199.02 251.453C199.02 252.676 199.818 253.686 201.581 254.058L202.787 254.324C203.492 254.466 203.771 254.785 203.771 255.175C203.771 255.636 203.381 256.043 202.564 256.043C201.488 256.043 200.95 255.405 200.894 254.714L198.778 255.157Z" fill="#273B4A"/>
<path d="M210.581 257.585V248.866H208.112V257.585H210.581ZM207.816 246.013C207.816 246.792 208.502 247.448 209.337 247.448C210.191 247.448 210.859 246.792 210.859 246.013C210.859 245.198 210.191 244.542 209.337 244.542C208.502 244.542 207.816 245.198 207.816 246.013Z" fill="#273B4A"/>
<path d="M221.928 244.754H219.496V249.734C219.237 249.274 218.494 248.653 216.917 248.653C214.337 248.653 212.537 250.656 212.537 253.208C212.537 255.848 214.393 257.798 216.991 257.798C218.216 257.798 219.144 257.266 219.552 256.575C219.552 256.983 219.608 257.408 219.645 257.585H222.002C221.965 257.231 221.928 256.593 221.928 256.008V244.754ZM215.024 253.208C215.024 251.648 216.026 250.762 217.288 250.762C218.55 250.762 219.534 251.631 219.534 253.19C219.534 254.767 218.55 255.689 217.288 255.689C215.989 255.689 215.024 254.767 215.024 253.208Z" fill="#273B4A"/>
<path d="M227.074 257.585V248.866H224.605V257.585H227.074ZM224.308 246.013C224.308 246.792 224.995 247.448 225.83 247.448C226.684 247.448 227.352 246.792 227.352 246.013C227.352 245.198 226.684 244.542 225.83 244.542C224.995 244.542 224.308 245.198 224.308 246.013Z" fill="#273B4A"/>
<path d="M229.16 255.21C229.16 256.575 230.347 257.833 232.296 257.833C233.651 257.833 234.523 257.231 234.987 256.539C234.987 256.876 235.024 257.355 235.08 257.585H237.344C237.289 257.284 237.233 256.664 237.233 256.203V251.914C237.233 250.16 236.156 248.6 233.261 248.6C230.811 248.6 229.494 250.106 229.345 251.471L231.535 251.914C231.609 251.152 232.203 250.496 233.28 250.496C234.319 250.496 234.82 251.01 234.82 251.631C234.82 251.932 234.653 252.18 234.133 252.251L231.888 252.57C230.366 252.782 229.16 253.651 229.16 255.21ZM232.816 256.079C232.018 256.079 231.628 255.583 231.628 255.069C231.628 254.395 232.129 254.058 232.76 253.97L234.82 253.669V254.058C234.82 255.6 233.855 256.079 232.816 256.079Z" fill="#273B4A"/>
<path d="M242.189 252.57C242.189 251.56 242.82 250.762 243.897 250.762C245.084 250.762 245.586 251.524 245.586 252.499V257.585H248.054V252.091C248.054 250.177 247.015 248.636 244.75 248.636C243.767 248.636 242.672 249.043 242.115 249.947V248.866H239.721V257.585H242.189V252.57Z" fill="#273B4A"/>
<path d="M267.672 253.704L264.74 245.02H262.086L259.172 253.669L256.759 245.02H254.05L257.706 257.585H260.378L263.385 248.636L266.391 257.585H269.027L272.664 245.02H270.047L267.672 253.704Z" fill="#273B4A"/>
<path d="M275.304 252.233C275.36 251.436 276.065 250.514 277.346 250.514C278.756 250.514 279.35 251.365 279.387 252.233H275.304ZM279.629 254.501C279.332 255.281 278.701 255.831 277.55 255.831C276.325 255.831 275.304 254.998 275.249 253.846H281.782C281.782 253.81 281.819 253.456 281.819 253.119C281.819 250.319 280.13 248.6 277.309 248.6C274.97 248.6 272.818 250.408 272.818 253.19C272.818 256.132 275.026 257.851 277.532 257.851C279.777 257.851 281.225 256.593 281.689 255.086L279.629 254.501Z" fill="#273B4A"/>
<path d="M283.206 255.21C283.206 256.575 284.393 257.833 286.342 257.833C287.697 257.833 288.569 257.231 289.033 256.539C289.033 256.876 289.07 257.355 289.126 257.585H291.39C291.335 257.284 291.279 256.664 291.279 256.203V251.914C291.279 250.16 290.202 248.6 287.307 248.6C284.857 248.6 283.54 250.106 283.391 251.471L285.581 251.914C285.655 251.152 286.249 250.496 287.326 250.496C288.365 250.496 288.866 251.01 288.866 251.631C288.866 251.932 288.699 252.18 288.18 252.251L285.934 252.57C284.412 252.782 283.206 253.651 283.206 255.21ZM286.862 256.079C286.064 256.079 285.674 255.583 285.674 255.069C285.674 254.395 286.175 254.058 286.806 253.97L288.866 253.669V254.058C288.866 255.6 287.901 256.079 286.862 256.079Z" fill="#273B4A"/>
<path d="M296.235 257.585V244.754H293.767V257.585H296.235Z" fill="#273B4A"/>
<path d="M301.922 246.261H299.695V247.484C299.695 248.263 299.249 248.866 298.284 248.866H297.82V250.957H299.472V255.015C299.472 256.699 300.585 257.709 302.367 257.709C303.091 257.709 303.536 257.585 303.759 257.496V255.547C303.629 255.583 303.295 255.618 302.998 255.618C302.293 255.618 301.922 255.37 301.922 254.608V250.957H303.759V248.866H301.922V246.261Z" fill="#273B4A"/>
<path d="M307.871 252.463C307.927 251.506 308.539 250.762 309.578 250.762C310.766 250.762 311.267 251.524 311.267 252.499V257.585H313.736V252.091C313.736 250.177 312.659 248.636 310.339 248.636C309.467 248.636 308.465 248.919 307.871 249.593V244.754H305.403V257.585H307.871V252.463Z" fill="#273B4A"/>
<path d="M321.012 245.02V257.585H326.097C328.565 257.585 330.161 256.114 330.161 254.076C330.161 252.517 329.122 251.4 327.842 251.099C328.937 250.744 329.753 249.699 329.753 248.405C329.753 246.456 328.306 245.02 325.744 245.02H321.012ZM323.536 250.213V247.076H325.336C326.58 247.076 327.229 247.679 327.229 248.636C327.229 249.593 326.524 250.213 325.355 250.213H323.536ZM323.536 255.547V252.233H325.652C326.932 252.233 327.6 252.924 327.6 253.917C327.6 254.927 326.858 255.547 325.614 255.547H323.536Z" fill="#273B4A"/>
<path d="M337.685 248.83C337.5 248.813 337.314 248.795 337.11 248.795C336.33 248.795 335.068 249.008 334.512 250.16V248.866H332.118V257.585H334.586V253.598C334.586 251.719 335.681 251.134 336.943 251.134C337.166 251.134 337.407 251.152 337.685 251.205V248.83Z" fill="#273B4A"/>
<path d="M338.919 255.21C338.919 256.575 340.107 257.833 342.056 257.833C343.41 257.833 344.283 257.231 344.747 256.539C344.747 256.876 344.784 257.355 344.839 257.585H347.104C347.048 257.284 346.992 256.664 346.992 256.203V251.914C346.992 250.16 345.916 248.6 343.021 248.6C340.571 248.6 339.253 250.106 339.105 251.471L341.295 251.914C341.369 251.152 341.963 250.496 343.039 250.496C344.079 250.496 344.58 251.01 344.58 251.631C344.58 251.932 344.413 252.18 343.893 252.251L341.647 252.57C340.125 252.782 338.919 253.651 338.919 255.21ZM342.575 256.079C341.777 256.079 341.387 255.583 341.387 255.069C341.387 254.395 341.889 254.058 342.52 253.97L344.58 253.669V254.058C344.58 255.6 343.615 256.079 342.575 256.079Z" fill="#273B4A"/>
<path d="M353.546 250.78C354.771 250.78 355.346 251.524 355.569 252.251L357.777 251.542C357.387 250.071 355.977 248.6 353.49 248.6C350.836 248.6 348.757 250.532 348.757 253.226C348.757 255.901 350.873 257.851 353.564 257.851C355.996 257.851 357.425 256.362 357.833 254.909L355.661 254.218C355.457 254.891 354.826 255.689 353.564 255.689C352.302 255.689 351.226 254.803 351.226 253.226C351.226 251.648 352.284 250.78 353.546 250.78Z" fill="#273B4A"/>
<path d="M361.358 252.233C361.413 251.436 362.119 250.514 363.399 250.514C364.81 250.514 365.404 251.365 365.441 252.233H361.358ZM365.682 254.501C365.385 255.281 364.754 255.831 363.603 255.831C362.378 255.831 361.358 254.998 361.302 253.846H367.835C367.835 253.81 367.872 253.456 367.872 253.119C367.872 250.319 366.183 248.6 363.362 248.6C361.024 248.6 358.871 250.408 358.871 253.19C358.871 256.132 361.079 257.851 363.585 257.851C365.83 257.851 367.278 256.593 367.742 255.086L365.682 254.501Z" fill="#273B4A"/>
<path d="M372.284 257.585V244.754H369.816V257.585H372.284Z" fill="#273B4A"/>
<path d="M376.727 252.233C376.783 251.436 377.488 250.514 378.768 250.514C380.179 250.514 380.773 251.365 380.81 252.233H376.727ZM381.051 254.501C380.754 255.281 380.123 255.831 378.973 255.831C377.748 255.831 376.727 254.998 376.671 253.846H383.204C383.204 253.81 383.241 253.456 383.241 253.119C383.241 250.319 381.552 248.6 378.731 248.6C376.393 248.6 374.24 250.408 374.24 253.19C374.24 256.132 376.448 257.851 378.954 257.851C381.2 257.851 382.647 256.593 383.111 255.086L381.051 254.501Z" fill="#273B4A"/>
<path d="M388.229 246.261H386.001V247.484C386.001 248.263 385.556 248.866 384.591 248.866H384.127V250.957H385.779V255.015C385.779 256.699 386.892 257.709 388.674 257.709C389.398 257.709 389.843 257.585 390.066 257.496V255.547C389.936 255.583 389.602 255.618 389.305 255.618C388.6 255.618 388.229 255.37 388.229 254.608V250.957H390.066V248.866H388.229V246.261Z" fill="#273B4A"/>
<path d="M174.161 279.28V275.523H176.302C177.583 275.523 178.367 276.265 178.367 277.424C178.367 278.553 177.583 279.28 176.302 279.28H174.161ZM176.573 280.64C178.548 280.64 179.875 279.264 179.875 277.409C179.875 275.569 178.548 274.162 176.573 274.162H172.684V285.124H174.161V280.64H176.573Z" fill="#8C8C8C"/>
<path d="M180.619 283.13C180.619 284.305 181.569 285.356 183.046 285.356C184.343 285.356 185.066 284.645 185.383 284.119C185.383 284.661 185.428 284.939 185.458 285.124H186.845C186.815 284.939 186.755 284.552 186.755 283.903V280.177C186.755 278.723 185.911 277.455 183.74 277.455C182.172 277.455 180.921 278.445 180.77 279.867L182.127 280.192C182.217 279.326 182.775 278.692 183.77 278.692C184.87 278.692 185.338 279.295 185.338 280.022C185.338 280.285 185.217 280.517 184.78 280.579L182.82 280.872C181.569 281.058 180.619 281.8 180.619 283.13ZM183.242 284.135C182.519 284.135 182.067 283.609 182.067 283.053C182.067 282.388 182.519 282.032 183.122 281.939L185.338 281.599V281.939C185.338 283.563 184.403 284.135 183.242 284.135Z" fill="#8C8C8C"/>
<path d="M190.364 285.124V277.687H188.962V285.124H190.364ZM188.646 274.873C188.646 275.445 189.098 275.909 189.656 275.909C190.228 275.909 190.681 275.445 190.681 274.873C190.681 274.286 190.228 273.822 189.656 273.822C189.098 273.822 188.646 274.286 188.646 274.873Z" fill="#8C8C8C"/>
<path d="M193.619 281.383C193.619 279.852 194.463 278.77 195.76 278.77C197.056 278.77 197.84 279.821 197.84 281.352C197.84 282.882 197.041 284.042 195.745 284.042C194.388 284.042 193.619 282.913 193.619 281.383ZM197.855 284.119C197.855 284.568 197.9 284.954 197.93 285.124H199.302C199.287 285.001 199.227 284.46 199.227 283.748V273.93H197.825V278.739C197.584 278.136 196.89 277.486 195.609 277.486C193.559 277.486 192.172 279.28 192.172 281.383C192.172 283.594 193.483 285.325 195.609 285.325C196.74 285.325 197.508 284.707 197.855 283.996V284.119Z" fill="#8C8C8C"/>
<path d="M490.328 249.047H491.402V244.542H494.31L495.792 249.047H497.435V244.542H499.485V249.047H500.542V250.392H499.485V251.709H500.542V253.054H499.485V257.559H496.568L495.087 253.054H493.462V257.559H491.402V253.054H490.328V251.709H491.402V250.392H490.328V249.047ZM493.462 251.709H494.645L494.22 250.392H493.462V251.709ZM496.677 251.709H497.435V250.392H496.234L496.677 251.709ZM493.29 247.533L493.398 249.047H493.769L493.29 247.533ZM497.598 254.496C497.58 254.342 497.544 253.861 497.49 253.054H497.119L497.598 254.496Z" fill="#72AE1E"/>
<path d="M505.985 250.575C504.875 250.557 504.228 249.864 504.228 249.025C504.228 248.241 504.875 247.53 505.985 247.53C507.113 247.53 507.76 248.241 507.76 249.025C507.76 249.864 507.113 250.557 505.985 250.575ZM505.985 255.754C504.671 255.754 503.969 254.952 503.969 254.113C503.969 253.256 504.634 252.435 505.985 252.435C507.335 252.435 508.019 253.256 508.019 254.113C508.019 254.952 507.316 255.754 505.985 255.754ZM505.985 257.833C508.722 257.833 510.516 256.41 510.516 254.368C510.516 253.092 509.665 251.943 508.408 251.487C509.61 251.049 510.276 249.882 510.276 248.843C510.276 246.855 508.482 245.451 505.985 245.451C503.488 245.451 501.694 246.855 501.694 248.843C501.694 249.9 502.378 251.049 503.58 251.487C502.304 251.961 501.453 253.092 501.453 254.368C501.453 256.41 503.247 257.833 505.985 257.833Z" fill="#72AE1E"/>
<path d="M511.726 254.24C511.874 256.1 513.687 257.851 516.295 257.851C519.18 257.851 520.901 255.936 520.901 253.73C520.901 251.195 519.199 249.773 516.794 249.773C515.999 249.773 515.148 250.028 514.63 250.502L515.222 247.895H520.253V245.725H513.484L512.059 251.797C512.318 251.87 514.149 252.49 514.39 252.581C514.778 252.143 515.426 251.779 516.24 251.779C517.349 251.779 518.367 252.417 518.367 253.766C518.367 254.952 517.442 255.699 516.295 255.699C515.019 255.699 514.168 254.806 514.112 253.712L511.726 254.24Z" fill="#72AE1E"/>
<path d="M521.968 254.24C522.116 256.1 523.929 257.851 526.537 257.851C529.422 257.851 531.142 255.936 531.142 253.73C531.142 251.195 529.441 249.773 527.036 249.773C526.241 249.773 525.39 250.028 524.872 250.502L525.464 247.895H530.495V245.725H523.725L522.301 251.797C522.56 251.87 524.391 252.49 524.632 252.581C525.02 252.143 525.667 251.779 526.481 251.779C527.591 251.779 528.608 252.417 528.608 253.766C528.608 254.952 527.683 255.699 526.537 255.699C525.26 255.699 524.41 254.806 524.354 253.712L521.968 254.24Z" fill="#72AE1E"/>
<path d="M450.124 283.61V275.954H452.372C454.375 275.954 456.027 277.242 456.027 279.804C456.027 282.351 454.345 283.61 452.342 283.61H450.124ZM452.388 284.855C455.14 284.855 457.571 283.124 457.571 279.804C457.571 276.469 455.171 274.709 452.418 274.709H448.626V284.855H452.388Z" fill="#8C8C8C"/>
<path d="M460.411 280.705C460.472 279.818 461.206 278.945 462.414 278.945C463.714 278.945 464.402 279.718 464.433 280.705H460.411ZM464.647 282.494C464.371 283.267 463.775 283.882 462.582 283.882C461.344 283.882 460.396 283.024 460.365 281.793H465.901C465.916 281.707 465.931 281.535 465.931 281.364C465.931 279.217 464.662 277.757 462.399 277.757C460.549 277.757 458.882 279.231 458.882 281.392C458.882 283.725 460.61 285.07 462.582 285.07C464.295 285.07 465.472 284.111 465.885 282.895L464.647 282.494Z" fill="#8C8C8C"/>
<path d="M470.855 279.002C472.109 279.002 472.644 279.789 472.827 280.462L474.127 279.947C473.821 278.902 472.812 277.757 470.855 277.757C468.76 277.757 467.154 279.26 467.154 281.407C467.154 283.496 468.729 285.07 470.87 285.07C472.781 285.07 473.836 283.911 474.188 282.924L472.919 282.408C472.751 282.952 472.246 283.825 470.87 283.825C469.677 283.825 468.622 282.981 468.622 281.407C468.622 279.804 469.693 279.002 470.855 279.002Z" fill="#8C8C8C"/>
<path d="M480.63 278.916C480.615 278.773 480.599 278.63 480.599 278.501C480.599 277.442 481.211 276.598 482.511 276.598C483.764 276.598 484.376 277.385 484.376 278.23C484.376 278.945 483.948 279.603 483.015 280.162L481.364 281.163C479.682 282.179 479.04 283.339 479.009 284.855H485.951V283.553H480.859C480.997 282.981 481.501 282.594 482.067 282.251L484.024 281.077C485.156 280.405 485.89 279.432 485.89 278.215C485.89 276.67 484.667 275.367 482.541 275.367C480.37 275.367 479.116 276.784 479.116 278.373C479.116 278.487 479.116 278.616 479.131 278.745L480.63 278.916Z" fill="#8C8C8C"/>
<path d="M490.967 284.855V275.582H489.652C489.423 276.584 488.475 277.299 487.099 277.328V278.315H489.5V284.855H490.967Z" fill="#8C8C8C"/>
<path d="M493.028 283.94C493.028 284.555 493.487 284.913 494.053 284.913C494.221 284.913 494.343 284.87 494.389 284.841C494.374 285.528 493.869 286.229 493.12 286.387V287.131C494.068 287.016 495.383 286.229 495.383 284.34C495.383 283.439 494.802 282.981 494.145 282.981C493.502 282.981 493.028 283.424 493.028 283.94Z" fill="#8C8C8C"/>
<path d="M502.431 278.916C502.416 278.773 502.401 278.63 502.401 278.501C502.401 277.442 503.012 276.598 504.312 276.598C505.566 276.598 506.178 277.385 506.178 278.23C506.178 278.945 505.75 279.603 504.817 280.162L503.165 281.163C501.483 282.179 500.841 283.339 500.811 284.855H507.753V283.553H502.661C502.798 282.981 503.303 282.594 503.869 282.251L505.826 281.077C506.958 280.405 507.691 279.432 507.691 278.215C507.691 276.67 506.468 275.367 504.343 275.367C502.171 275.367 500.918 276.784 500.918 278.373C500.918 278.487 500.918 278.616 500.933 278.745L502.431 278.916Z" fill="#8C8C8C"/>
<path d="M510.617 280.219C510.617 278.802 510.892 277.8 511.488 277.213C511.87 276.841 512.36 276.612 513.063 276.612C513.767 276.612 514.256 276.841 514.638 277.213C515.234 277.8 515.51 278.802 515.51 280.219C515.51 281.636 515.234 282.637 514.638 283.224C514.256 283.596 513.767 283.825 513.063 283.825C512.36 283.825 511.87 283.596 511.488 283.224C510.892 282.637 510.617 281.636 510.617 280.219ZM509.133 280.219C509.133 281.492 509.363 282.666 510.02 283.582C510.662 284.483 511.656 285.07 513.063 285.07C514.47 285.07 515.464 284.483 516.106 283.582C516.764 282.666 516.993 281.492 516.993 280.219C516.993 278.945 516.764 277.772 516.106 276.856C515.464 275.954 514.47 275.367 513.063 275.367C511.656 275.367 510.662 275.954 510.02 276.856C509.363 277.772 509.133 278.945 509.133 280.219Z" fill="#8C8C8C"/>
<path d="M519.917 278.916C519.902 278.773 519.887 278.63 519.887 278.501C519.887 277.442 520.498 276.598 521.798 276.598C523.052 276.598 523.664 277.385 523.664 278.23C523.664 278.945 523.236 279.603 522.303 280.162L520.651 281.163C518.969 282.179 518.327 283.339 518.297 284.855H525.239V283.553H520.147C520.284 282.981 520.789 282.594 521.355 282.251L523.312 281.077C524.444 280.405 525.178 279.432 525.178 278.215C525.178 276.67 523.954 275.367 521.829 275.367C519.657 275.367 518.404 276.784 518.404 278.373C518.404 278.487 518.404 278.616 518.419 278.745L519.917 278.916Z" fill="#8C8C8C"/>
<path d="M530.255 284.855V275.582H528.94C528.711 276.584 527.763 277.299 526.386 277.328V278.315H528.787V284.855H530.255Z" fill="#8C8C8C"/>
<path d="M90.1675 230.345H143.319C150.226 230.345 155.826 235.945 155.826 242.852V283.497C155.826 290.404 150.226 296.004 143.319 296.004H102.674C95.7668 296.004 90.1675 290.404 90.1675 283.497V230.345Z" fill="#72AE1E" fill-opacity="0.1"/>
<path d="M135.985 258.376C135.533 257.848 134.977 257.424 134.354 257.133C133.73 256.842 133.054 256.692 132.369 256.691H130.11V254.097C130.11 252.033 129.314 250.054 127.896 248.595C126.479 247.136 124.557 246.316 122.553 246.316C120.549 246.316 118.626 247.136 117.209 248.595C115.792 250.054 114.996 252.033 114.996 254.097V256.691H112.736C112.052 256.691 111.376 256.841 110.753 257.131C110.13 257.42 109.573 257.843 109.121 258.371C108.668 258.899 108.33 259.52 108.128 260.193C107.926 260.865 107.866 261.575 107.95 262.273L109.419 274.374C109.611 275.935 110.35 277.371 111.496 278.412C112.642 279.454 114.117 280.03 115.646 280.033H129.46C130.989 280.03 132.465 279.454 133.611 278.412C134.757 277.37 135.496 275.934 135.688 274.372L137.157 262.273C137.24 261.575 137.179 260.867 136.977 260.195C136.775 259.524 136.437 258.904 135.985 258.376ZM117.515 254.097C117.515 252.721 118.046 251.402 118.99 250.429C119.935 249.456 121.217 248.91 122.553 248.91C123.889 248.91 125.17 249.456 126.115 250.429C127.06 251.402 127.591 252.721 127.591 254.097V256.691H117.515V254.097ZM134.657 261.952L133.188 274.051C133.073 274.986 132.631 275.846 131.945 276.469C131.259 277.093 130.375 277.438 129.46 277.439H115.646C114.73 277.438 113.847 277.093 113.161 276.469C112.474 275.846 112.032 274.986 111.918 274.051L110.449 261.952C110.408 261.618 110.437 261.279 110.534 260.957C110.63 260.636 110.792 260.339 111.008 260.087C111.225 259.834 111.49 259.632 111.788 259.494C112.086 259.356 112.409 259.284 112.736 259.284H132.369C132.696 259.284 133.019 259.356 133.317 259.494C133.615 259.632 133.881 259.834 134.097 260.087C134.314 260.339 134.476 260.636 134.572 260.957C134.668 261.279 134.697 261.618 134.657 261.952Z" fill="#72AE1E"/>
<path d="M117.673 266.724C118.653 266.724 119.448 265.929 119.448 264.949C119.448 263.969 118.653 263.175 117.673 263.175C116.693 263.175 115.898 263.969 115.898 264.949C115.898 265.929 116.693 266.724 117.673 266.724Z" fill="#72AE1E"/>
<path d="M130.982 266.724C131.962 266.724 132.757 265.929 132.757 264.949C132.757 263.969 131.962 263.175 130.982 263.175C130.002 263.175 129.208 263.969 129.208 264.949C129.208 265.929 130.002 266.724 130.982 266.724Z" fill="#72AE1E"/>
<path fill-rule="evenodd" clip-rule="evenodd" d="M563.084 205.502H60V205.502H563.084V205.502Z" stroke="#F5F5F5" stroke-width="3" stroke-linejoin="round"/>
<path fill-rule="evenodd" clip-rule="evenodd" d="M563.084 313.749H60V313.749H563.084V313.749Z" stroke="#F5F5F5" stroke-width="3" stroke-linejoin="round"/>
<path fill-rule="evenodd" clip-rule="evenodd" d="M563.084 433.749H60V433.749H563.084V433.749Z" stroke="#F5F5F5" stroke-width="3" stroke-linejoin="round"/>
<path d="M91.232 464.557V462.203H95.368V458.397H97.766V462.203H101.88V464.557H97.766V468.363H95.368V464.557H91.232ZM104.249 469.749V467.703C105.188 466.926 106.097 466.156 106.977 465.393C107.872 464.63 108.664 463.875 109.353 463.127C110.057 462.379 110.614 461.653 111.025 460.949C111.45 460.23 111.663 459.534 111.663 458.859C111.663 458.228 111.487 457.671 111.135 457.187C110.798 456.703 110.233 456.461 109.441 456.461C108.634 456.461 108.026 456.725 107.615 457.253C107.204 457.781 106.999 458.419 106.999 459.167H104.271C104.3 458.038 104.55 457.099 105.019 456.351C105.488 455.588 106.112 455.024 106.889 454.657C107.666 454.276 108.539 454.085 109.507 454.085C111.076 454.085 112.294 454.518 113.159 455.383C114.039 456.234 114.479 457.341 114.479 458.705C114.479 459.556 114.281 460.384 113.885 461.191C113.504 461.998 112.998 462.775 112.367 463.523C111.736 464.271 111.054 464.975 110.321 465.635C109.588 466.28 108.876 466.882 108.187 467.439H114.853V469.749H104.249ZM122.713 470.013C121.584 470.013 120.609 469.815 119.787 469.419C118.981 469.023 118.343 468.48 117.873 467.791C117.419 467.087 117.155 466.295 117.081 465.415H119.831C119.963 466.046 120.286 466.574 120.799 466.999C121.313 467.41 121.951 467.615 122.713 467.615C123.535 467.615 124.202 467.314 124.715 466.713C125.243 466.112 125.507 465.364 125.507 464.469C125.507 463.545 125.243 462.812 124.715 462.269C124.202 461.726 123.549 461.455 122.757 461.455C122.097 461.455 121.525 461.616 121.041 461.939C120.557 462.262 120.213 462.665 120.007 463.149H117.301L118.621 454.349H127.157V456.813H120.733L120.029 460.377C120.352 460.025 120.792 459.739 121.349 459.519C121.907 459.284 122.53 459.167 123.219 459.167C124.319 459.167 125.236 459.416 125.969 459.915C126.703 460.399 127.26 461.044 127.641 461.851C128.023 462.643 128.213 463.508 128.213 464.447C128.213 465.518 127.979 466.471 127.509 467.307C127.055 468.143 126.409 468.803 125.573 469.287C124.752 469.771 123.799 470.013 122.713 470.013ZM136.01 469.749V458.837H138.496L138.738 460.311C139.09 459.783 139.552 459.365 140.124 459.057C140.711 458.734 141.385 458.573 142.148 458.573C143.835 458.573 145.03 459.226 145.734 460.531C146.13 459.93 146.658 459.453 147.318 459.101C147.993 458.749 148.726 458.573 149.518 458.573C150.941 458.573 152.033 458.998 152.796 459.849C153.559 460.7 153.94 461.946 153.94 463.589V469.749H151.124V463.853C151.124 462.914 150.941 462.196 150.574 461.697C150.222 461.198 149.672 460.949 148.924 460.949C148.161 460.949 147.545 461.228 147.076 461.785C146.621 462.342 146.394 463.12 146.394 464.117V469.749H143.578V463.853C143.578 462.914 143.395 462.196 143.028 461.697C142.661 461.198 142.097 460.949 141.334 460.949C140.586 460.949 139.977 461.228 139.508 461.785C139.053 462.342 138.826 463.12 138.826 464.117V469.749H136.01ZM161.85 470.013C160.794 470.013 159.84 469.771 158.99 469.287C158.154 468.803 157.486 468.136 156.988 467.285C156.504 466.42 156.262 465.422 156.262 464.293C156.262 463.164 156.511 462.174 157.01 461.323C157.508 460.458 158.176 459.783 159.012 459.299C159.862 458.815 160.816 458.573 161.872 458.573C162.913 458.573 163.852 458.815 164.688 459.299C165.538 459.783 166.206 460.458 166.69 461.323C167.188 462.174 167.438 463.164 167.438 464.293C167.438 465.422 167.188 466.42 166.69 467.285C166.206 468.136 165.538 468.803 164.688 469.287C163.837 469.771 162.891 470.013 161.85 470.013ZM161.85 467.571C162.583 467.571 163.221 467.3 163.764 466.757C164.306 466.2 164.578 465.378 164.578 464.293C164.578 463.208 164.306 462.394 163.764 461.851C163.221 461.294 162.59 461.015 161.872 461.015C161.124 461.015 160.478 461.294 159.936 461.851C159.408 462.394 159.144 463.208 159.144 464.293C159.144 465.378 159.408 466.2 159.936 466.757C160.478 467.3 161.116 467.571 161.85 467.571ZM169.955 469.749V458.837H172.463L172.727 460.883C173.123 460.179 173.659 459.622 174.333 459.211C175.023 458.786 175.829 458.573 176.753 458.573V461.543H175.961C175.345 461.543 174.795 461.638 174.311 461.829C173.827 462.02 173.446 462.35 173.167 462.819C172.903 463.288 172.771 463.941 172.771 464.777V469.749H169.955ZM183.787 470.013C182.687 470.013 181.711 469.778 180.861 469.309C180.01 468.84 179.343 468.18 178.859 467.329C178.375 466.478 178.133 465.496 178.133 464.381C178.133 463.252 178.367 462.247 178.837 461.367C179.321 460.487 179.981 459.805 180.817 459.321C181.667 458.822 182.665 458.573 183.809 458.573C184.879 458.573 185.825 458.808 186.647 459.277C187.468 459.746 188.106 460.392 188.561 461.213C189.03 462.02 189.265 462.922 189.265 463.919C189.265 464.08 189.257 464.249 189.243 464.425C189.243 464.601 189.235 464.784 189.221 464.975H180.927C180.985 465.826 181.279 466.493 181.807 466.977C182.349 467.461 183.002 467.703 183.765 467.703C184.337 467.703 184.813 467.578 185.195 467.329C185.591 467.065 185.884 466.728 186.075 466.317H188.935C188.729 467.006 188.385 467.637 187.901 468.209C187.431 468.766 186.845 469.206 186.141 469.529C185.451 469.852 184.667 470.013 183.787 470.013ZM183.809 460.861C183.119 460.861 182.511 461.059 181.983 461.455C181.455 461.836 181.117 462.423 180.971 463.215H186.405C186.361 462.496 186.097 461.924 185.613 461.499C185.129 461.074 184.527 460.861 183.809 460.861Z" fill="#8C8C8C"/>
<path d="M90.1675 338.593H143.319C150.226 338.593 155.826 344.192 155.826 351.099V391.745C155.826 398.652 150.226 404.251 143.319 404.251H102.674C95.7668 404.251 90.1675 398.652 90.1675 391.745V338.593Z" fill="#72AE1E" fill-opacity="0.1"/>
<path d="M135.985 366.624C135.533 366.095 134.977 365.671 134.354 365.38C133.73 365.09 133.054 364.939 132.369 364.938H130.11V362.344C130.11 360.281 129.314 358.302 127.896 356.843C126.479 355.383 124.557 354.564 122.553 354.564C120.549 354.564 118.626 355.383 117.209 356.843C115.792 358.302 114.996 360.281 114.996 362.344V364.938H112.736C112.052 364.938 111.376 365.088 110.753 365.378C110.13 365.668 109.573 366.09 109.121 366.618C108.668 367.146 108.33 367.767 108.128 368.44C107.926 369.113 107.866 369.822 107.95 370.521L109.419 382.621C109.611 384.182 110.35 385.618 111.496 386.659C112.642 387.701 114.117 388.277 115.646 388.28H129.46C130.989 388.277 132.465 387.701 133.611 386.659C134.757 385.618 135.496 384.181 135.688 382.62L137.157 370.521C137.24 369.823 137.179 369.114 136.977 368.443C136.775 367.771 136.437 367.151 135.985 366.624ZM117.515 362.344C117.515 360.969 118.046 359.649 118.99 358.676C119.935 357.704 121.217 357.157 122.553 357.157C123.889 357.157 125.17 357.704 126.115 358.676C127.06 359.649 127.591 360.969 127.591 362.344V364.938H117.515V362.344ZM134.657 370.199L133.188 382.298C133.073 383.233 132.631 384.093 131.945 384.716C131.259 385.34 130.375 385.685 129.46 385.686H115.646C114.73 385.685 113.847 385.34 113.161 384.716C112.474 384.093 112.032 383.233 111.918 382.298L110.449 370.199C110.408 369.865 110.437 369.526 110.534 369.205C110.63 368.883 110.792 368.586 111.008 368.334C111.225 368.082 111.49 367.88 111.788 367.741C112.086 367.603 112.409 367.531 112.736 367.531H132.369C132.696 367.531 133.019 367.603 133.317 367.741C133.615 367.88 133.881 368.082 134.097 368.334C134.314 368.586 134.476 368.883 134.572 369.205C134.668 369.526 134.697 369.865 134.657 370.199Z" fill="#72AE1E"/>
<path d="M117.673 374.971C118.653 374.971 119.448 374.176 119.448 373.196C119.448 372.216 118.653 371.422 117.673 371.422C116.693 371.422 115.898 372.216 115.898 373.196C115.898 374.176 116.693 374.971 117.673 374.971Z" fill="#72AE1E"/>
<path d="M130.982 374.971C131.962 374.971 132.757 374.176 132.757 373.196C132.757 372.216 131.962 371.422 130.982 371.422C130.002 371.422 129.208 372.216 129.208 373.196C129.208 374.176 130.002 374.971 130.982 374.971Z" fill="#72AE1E"/>
<path d="M184.247 363.468V351.013H181.691V359.252L176.228 351.013H173.042V363.468H175.598V354.632L181.561 363.468H184.247Z" fill="#273B4A"/>
<path d="M188.797 358.163C188.852 357.372 189.556 356.459 190.834 356.459C192.242 356.459 192.834 357.302 192.871 358.163H188.797ZM193.112 360.411C192.816 361.184 192.186 361.729 191.038 361.729C189.816 361.729 188.797 360.903 188.741 359.761H195.261C195.261 359.726 195.298 359.375 195.298 359.041C195.298 356.265 193.612 354.561 190.797 354.561C188.464 354.561 186.315 356.353 186.315 359.111C186.315 362.027 188.519 363.732 191.019 363.732C193.26 363.732 194.705 362.484 195.168 360.991L193.112 360.411Z" fill="#273B4A"/>
<path d="M202.26 354.825L200.278 360.376L198.593 354.825H196L198.908 363.468H201.408L203.501 357.565L205.631 363.468H208.094L210.946 354.825H208.501L206.816 360.394L204.853 354.825H202.26Z" fill="#273B4A"/>
<path d="M217.245 351.013V363.468H222.32C224.783 363.468 226.376 362.01 226.376 359.99C226.376 358.444 225.339 357.337 224.061 357.038C225.154 356.687 225.968 355.65 225.968 354.368C225.968 352.436 224.524 351.013 221.968 351.013H217.245ZM219.764 356.16V353.05H221.561C222.801 353.05 223.45 353.648 223.45 354.596C223.45 355.545 222.746 356.16 221.579 356.16H219.764ZM219.764 361.448V358.163H221.875C223.153 358.163 223.82 358.848 223.82 359.832C223.82 360.833 223.079 361.448 221.838 361.448H219.764Z" fill="#273B4A"/>
<path d="M227.79 361.114C227.79 362.467 228.976 363.714 230.92 363.714C232.272 363.714 233.143 363.117 233.606 362.432C233.606 362.765 233.643 363.24 233.698 363.468H235.958C235.902 363.169 235.847 362.554 235.847 362.098V357.846C235.847 356.107 234.773 354.561 231.883 354.561C229.439 354.561 228.124 356.054 227.976 357.407L230.161 357.846C230.235 357.091 230.828 356.441 231.902 356.441C232.939 356.441 233.439 356.95 233.439 357.565C233.439 357.864 233.272 358.11 232.754 358.18L230.513 358.496C228.994 358.707 227.79 359.568 227.79 361.114ZM231.439 361.975C230.643 361.975 230.254 361.483 230.254 360.973C230.254 360.306 230.754 359.972 231.383 359.884L233.439 359.586V359.972C233.439 361.5 232.476 361.975 231.439 361.975Z" fill="#273B4A"/>
<path d="M240.793 363.468V350.749H238.33V363.468H240.793Z" fill="#273B4A"/>
<path d="M242.82 361.114C242.82 362.467 244.006 363.714 245.95 363.714C247.302 363.714 248.173 363.117 248.636 362.432C248.636 362.765 248.673 363.24 248.728 363.468H250.988C250.932 363.169 250.877 362.554 250.877 362.098V357.846C250.877 356.107 249.803 354.561 246.913 354.561C244.469 354.561 243.154 356.054 243.005 357.407L245.191 357.846C245.265 357.091 245.858 356.441 246.932 356.441C247.969 356.441 248.469 356.95 248.469 357.565C248.469 357.864 248.302 358.11 247.784 358.18L245.543 358.496C244.024 358.707 242.82 359.568 242.82 361.114ZM246.469 361.975C245.672 361.975 245.284 361.483 245.284 360.973C245.284 360.306 245.784 359.972 246.413 359.884L248.469 359.586V359.972C248.469 361.5 247.506 361.975 246.469 361.975Z" fill="#273B4A"/>
<path d="M255.823 358.496C255.823 357.495 256.453 356.704 257.527 356.704C258.712 356.704 259.212 357.46 259.212 358.426V363.468H261.675V358.022C261.675 356.125 260.638 354.596 258.379 354.596C257.397 354.596 256.304 355 255.749 355.896V354.825H253.36V363.468H255.823V358.496Z" fill="#273B4A"/>
<path d="M268.268 356.722C269.491 356.722 270.065 357.46 270.287 358.18L272.491 357.477C272.102 356.019 270.695 354.561 268.213 354.561C265.564 354.561 263.49 356.476 263.49 359.146C263.49 361.799 265.601 363.732 268.287 363.732C270.713 363.732 272.139 362.256 272.547 360.815L270.38 360.13C270.176 360.798 269.546 361.588 268.287 361.588C267.027 361.588 265.953 360.71 265.953 359.146C265.953 357.583 267.009 356.722 268.268 356.722Z" fill="#273B4A"/>
<path d="M276.064 358.163C276.12 357.372 276.823 356.459 278.101 356.459C279.509 356.459 280.102 357.302 280.139 358.163H276.064ZM280.379 360.411C280.083 361.184 279.453 361.729 278.305 361.729C277.083 361.729 276.064 360.903 276.008 359.761H282.528C282.528 359.726 282.565 359.375 282.565 359.041C282.565 356.265 280.879 354.561 278.064 354.561C275.731 354.561 273.582 356.353 273.582 359.111C273.582 362.027 275.786 363.732 278.287 363.732C280.527 363.732 281.972 362.484 282.435 360.991L280.379 360.411Z" fill="#273B4A"/>
<path d="M296.989 352.067H287.858V354.157H294.044C294.044 354.157 290.025 357.337 289.525 363.468H292.173C292.71 357.723 296.081 354.825 296.989 354.087V352.067Z" fill="#273B4A"/>
<path d="M300.392 356.476C300.337 356.283 300.3 356.054 300.3 355.844C300.3 354.772 300.93 353.946 302.208 353.946C303.411 353.946 304.023 354.684 304.023 355.51C304.023 356.3 303.615 356.898 302.596 357.477L300.615 358.602C298.466 359.832 297.8 361.465 297.781 363.468H306.671V361.377H300.911C301.096 360.938 301.485 360.622 301.948 360.341L304.263 359.006C305.745 358.145 306.597 356.95 306.597 355.475C306.597 353.49 304.949 351.803 302.263 351.803C299.466 351.803 297.874 353.613 297.874 355.615C297.874 355.896 297.929 356.248 297.966 356.406L300.392 356.476Z" fill="#273B4A"/>
<path d="M310.56 357.776C310.56 356.582 310.745 355.563 311.208 354.877C311.578 354.315 312.152 353.946 313.023 353.946C313.912 353.946 314.449 354.315 314.819 354.877C315.301 355.563 315.486 356.582 315.486 357.776C315.486 358.971 315.301 359.99 314.819 360.675C314.449 361.237 313.912 361.606 313.023 361.606C312.152 361.606 311.578 361.237 311.208 360.675C310.745 359.99 310.56 358.971 310.56 357.776ZM308.004 357.776C308.004 359.234 308.245 360.657 309.06 361.834C309.856 362.959 311.152 363.749 313.023 363.749C314.893 363.749 316.19 362.959 316.968 361.834C317.783 360.657 318.042 359.234 318.042 357.776C318.042 356.318 317.783 354.895 316.968 353.718C316.19 352.594 314.893 351.803 313.023 351.803C311.152 351.803 309.856 352.594 309.06 353.718C308.245 354.895 308.004 356.318 308.004 357.776Z" fill="#273B4A"/>
<path d="M174.596 385.954V382.371H176.848C178.196 382.371 179.02 383.079 179.02 384.185C179.02 385.261 178.196 385.954 176.848 385.954H174.596ZM177.133 387.252C179.21 387.252 180.606 385.939 180.606 384.17C180.606 382.415 179.21 381.073 177.133 381.073H173.042V391.528H174.596V387.252H177.133Z" fill="#8C8C8C"/>
<path d="M181.389 389.626C181.389 390.746 182.388 391.749 183.942 391.749C185.306 391.749 186.067 391.071 186.4 390.569C186.4 391.086 186.448 391.351 186.479 391.528H187.938C187.907 391.351 187.843 390.982 187.843 390.363V386.809C187.843 385.423 186.955 384.214 184.672 384.214C183.023 384.214 181.706 385.158 181.548 386.515L182.975 386.824C183.07 385.998 183.657 385.394 184.703 385.394C185.861 385.394 186.353 385.969 186.353 386.662C186.353 386.913 186.226 387.134 185.766 387.193L183.704 387.473C182.388 387.65 181.389 388.358 181.389 389.626ZM184.148 390.584C183.387 390.584 182.912 390.083 182.912 389.552C182.912 388.918 183.387 388.579 184.022 388.49L186.353 388.166V388.49C186.353 390.039 185.369 390.584 184.148 390.584Z" fill="#8C8C8C"/>
<path d="M191.64 391.528V384.435H190.165V391.528H191.64ZM189.832 381.752C189.832 382.297 190.308 382.74 190.895 382.74C191.497 382.74 191.973 382.297 191.973 381.752C191.973 381.191 191.497 380.749 190.895 380.749C190.308 380.749 189.832 381.191 189.832 381.752Z" fill="#8C8C8C"/>
<path d="M195.064 387.96C195.064 386.5 195.952 385.468 197.316 385.468C198.679 385.468 199.504 386.47 199.504 387.93C199.504 389.39 198.663 390.496 197.3 390.496C195.873 390.496 195.064 389.419 195.064 387.96ZM199.52 390.569C199.52 390.997 199.567 391.366 199.599 391.528H201.042C201.026 391.41 200.963 390.894 200.963 390.216V380.852H199.488V385.438C199.234 384.863 198.505 384.244 197.157 384.244C195 384.244 193.542 385.954 193.542 387.96C193.542 390.068 194.921 391.72 197.157 391.72C198.346 391.72 199.155 391.13 199.52 390.451V390.569Z" fill="#8C8C8C"/>
<path d="M463.042 355.507H464.113V350.749H467.011L468.487 355.507H470.125V350.749H472.167V355.507H473.22V356.926H472.167V358.318H473.22V359.737H472.167V364.495H469.261L467.785 359.737H466.165V364.495H464.113V359.737H463.042V358.318H464.113V356.926H463.042V355.507ZM466.165 358.318H467.344L466.921 356.926H466.165V358.318ZM469.369 358.318H470.125V356.926H468.928L469.369 358.318ZM465.994 353.908L466.102 355.507H466.471L465.994 353.908ZM470.287 361.261C470.269 361.098 470.233 360.59 470.179 359.737H469.81L470.287 361.261Z" fill="#72AE1E"/>
<path d="M476.598 356.831C476.543 356.619 476.506 356.369 476.506 356.138C476.506 354.963 477.132 354.058 478.404 354.058C479.602 354.058 480.21 354.867 480.21 355.772C480.21 356.639 479.805 357.293 478.791 357.929L476.819 359.161C474.681 360.509 474.018 362.3 473.999 364.495H482.846V362.204H477.114C477.298 361.722 477.685 361.376 478.146 361.067L480.45 359.604C481.925 358.661 482.772 357.351 482.772 355.734C482.772 353.558 481.132 351.709 478.459 351.709C475.676 351.709 474.091 353.693 474.091 355.888C474.091 356.196 474.147 356.581 474.184 356.754L476.598 356.831Z" fill="#72AE1E"/>
<path d="M488.651 357.12C487.545 357.101 486.9 356.369 486.9 355.483C486.9 354.655 487.545 353.904 488.651 353.904C489.776 353.904 490.421 354.655 490.421 355.483C490.421 356.369 489.776 357.101 488.651 357.12ZM488.651 362.589C487.343 362.589 486.642 361.741 486.642 360.856C486.642 359.951 487.306 359.084 488.651 359.084C489.997 359.084 490.679 359.951 490.679 360.856C490.679 361.741 489.978 362.589 488.651 362.589ZM488.651 364.784C491.379 364.784 493.167 363.282 493.167 361.125C493.167 359.777 492.319 358.564 491.066 358.083C492.264 357.621 492.927 356.388 492.927 355.291C492.927 353.192 491.139 351.709 488.651 351.709C486.163 351.709 484.375 353.192 484.375 355.291C484.375 356.408 485.057 357.621 486.255 358.083C484.983 358.583 484.136 359.777 484.136 361.125C484.136 363.282 485.923 364.784 488.651 364.784Z" fill="#72AE1E"/>
<path d="M494.945 362.954C494.945 363.879 495.571 364.553 496.474 364.553C496.677 364.553 496.88 364.495 496.954 364.437C496.917 365.496 496.032 366.324 495.203 366.517V367.749C496.566 367.576 498.446 366.382 498.446 363.551C498.446 362.3 497.764 361.337 496.622 361.337C495.663 361.337 494.945 362.03 494.945 362.954Z" fill="#72AE1E"/>
<path d="M502.75 356.831C502.695 356.619 502.658 356.369 502.658 356.138C502.658 354.963 503.285 354.058 504.557 354.058C505.755 354.058 506.363 354.867 506.363 355.772C506.363 356.639 505.957 357.293 504.944 357.929L502.972 359.161C500.834 360.509 500.17 362.3 500.152 364.495H508.999V362.204H503.267C503.451 361.722 503.838 361.376 504.299 361.067L506.603 359.604C508.077 358.661 508.925 357.351 508.925 355.734C508.925 353.558 507.284 351.709 504.612 351.709C501.829 351.709 500.244 353.693 500.244 355.888C500.244 356.196 500.299 356.581 500.336 356.754L502.75 356.831Z" fill="#72AE1E"/>
<path d="M519.485 352.287C518.988 351.979 518.084 351.709 516.979 351.709C513.034 351.709 510.343 354.559 510.343 359.046C510.343 362.82 512.574 364.784 515.191 364.784C517.826 364.784 519.817 362.954 519.817 360.394C519.817 357.813 518.14 356.196 515.688 356.196C514.288 356.196 513.292 356.889 512.85 357.582C513.127 355.233 514.785 354.001 516.813 354.001C517.568 354.001 518.269 354.213 518.785 354.444L519.485 352.287ZM513.071 360.451C513.071 359.161 514.03 358.372 515.172 358.372C516.334 358.372 517.292 359.161 517.292 360.451C517.292 361.741 516.334 362.55 515.172 362.55C514.067 362.55 513.071 361.722 513.071 360.451Z" fill="#72AE1E"/>
<path d="M523.596 358.256C523.596 356.947 523.78 355.83 524.241 355.079C524.61 354.463 525.181 354.058 526.047 354.058C526.932 354.058 527.466 354.463 527.835 355.079C528.314 355.83 528.499 356.947 528.499 358.256C528.499 359.566 528.314 360.682 527.835 361.433C527.466 362.049 526.932 362.454 526.047 362.454C525.181 362.454 524.61 362.049 524.241 361.433C523.78 360.682 523.596 359.566 523.596 358.256ZM521.052 358.256C521.052 359.854 521.292 361.414 522.103 362.704C522.896 363.937 524.186 364.803 526.047 364.803C527.909 364.803 529.199 363.937 529.973 362.704C530.784 361.414 531.042 359.854 531.042 358.256C531.042 356.658 530.784 355.098 529.973 353.808C529.199 352.576 527.909 351.709 526.047 351.709C524.186 351.709 522.896 352.576 522.103 353.808C521.292 355.098 521.052 356.658 521.052 358.256Z" fill="#72AE1E"/>
<path d="M449.566 390.065V382.052H451.851C453.888 382.052 455.567 383.4 455.567 386.081C455.567 388.747 453.857 390.065 451.82 390.065H449.566ZM451.867 391.368C454.665 391.368 457.137 389.556 457.137 386.081C457.137 382.591 454.696 380.749 451.898 380.749H448.042V391.368H451.867Z" fill="#8C8C8C"/>
<path d="M460.025 387.024C460.087 386.096 460.834 385.182 462.062 385.182C463.383 385.182 464.083 385.991 464.114 387.024H460.025ZM464.332 388.897C464.052 389.705 463.446 390.349 462.233 390.349C460.973 390.349 460.01 389.451 459.978 388.163H465.607C465.622 388.073 465.638 387.893 465.638 387.713C465.638 385.467 464.347 383.939 462.046 383.939C460.165 383.939 458.47 385.482 458.47 387.743C458.47 390.185 460.227 391.592 462.233 391.592C463.974 391.592 465.171 390.589 465.591 389.316L464.332 388.897Z" fill="#8C8C8C"/>
<path d="M470.644 385.242C471.919 385.242 472.463 386.066 472.65 386.77L473.971 386.231C473.66 385.137 472.634 383.939 470.644 383.939C468.514 383.939 466.882 385.512 466.882 387.758C466.882 389.945 468.483 391.592 470.66 391.592C472.603 391.592 473.676 390.379 474.033 389.346L472.743 388.807C472.572 389.376 472.059 390.289 470.66 390.289C469.447 390.289 468.374 389.406 468.374 387.758C468.374 386.081 469.462 385.242 470.644 385.242Z" fill="#8C8C8C"/>
<path d="M480.583 385.152C480.568 385.003 480.552 384.853 480.552 384.718C480.552 383.61 481.174 382.726 482.496 382.726C483.771 382.726 484.393 383.55 484.393 384.433C484.393 385.182 483.957 385.871 483.009 386.455L481.33 387.504C479.619 388.567 478.966 389.78 478.935 391.368H485.994V390.005H480.817C480.956 389.406 481.47 389.001 482.045 388.642L484.035 387.414C485.185 386.71 485.932 385.691 485.932 384.418C485.932 382.801 484.688 381.438 482.527 381.438C480.319 381.438 479.044 382.921 479.044 384.583C479.044 384.703 479.044 384.838 479.06 384.973L480.583 385.152Z" fill="#8C8C8C"/>
<path d="M491.095 391.368V381.663H489.757C489.524 382.711 488.56 383.46 487.161 383.49V384.523H489.602V391.368H491.095Z" fill="#8C8C8C"/>
<path d="M493.19 390.409C493.19 391.053 493.656 391.428 494.232 391.428C494.403 391.428 494.527 391.383 494.574 391.353C494.558 392.072 494.045 392.806 493.283 392.97V393.749C494.247 393.629 495.584 392.806 495.584 390.829C495.584 389.885 494.994 389.406 494.325 389.406C493.672 389.406 493.19 389.87 493.19 390.409Z" fill="#8C8C8C"/>
<path d="M502.751 385.152C502.735 385.003 502.72 384.853 502.72 384.718C502.72 383.61 503.342 382.726 504.663 382.726C505.938 382.726 506.56 383.55 506.56 384.433C506.56 385.182 506.125 385.871 505.176 386.455L503.497 387.504C501.787 388.567 501.134 389.78 501.103 391.368H508.162V390.005H502.984C503.124 389.406 503.637 389.001 504.213 388.642L506.203 387.414C507.353 386.71 508.099 385.691 508.099 384.418C508.099 382.801 506.856 381.438 504.694 381.438C502.487 381.438 501.212 382.921 501.212 384.583C501.212 384.703 501.212 384.838 501.227 384.973L502.751 385.152Z" fill="#8C8C8C"/>
<path d="M511.074 386.515C511.074 385.032 511.354 383.984 511.96 383.37C512.349 382.981 512.846 382.741 513.561 382.741C514.277 382.741 514.774 382.981 515.163 383.37C515.769 383.984 516.049 385.032 516.049 386.515C516.049 387.998 515.769 389.046 515.163 389.66C514.774 390.05 514.277 390.289 513.561 390.289C512.846 390.289 512.349 390.05 511.96 389.66C511.354 389.046 511.074 387.998 511.074 386.515ZM509.566 386.515C509.566 387.848 509.799 389.076 510.467 390.035C511.12 390.978 512.131 391.592 513.561 391.592C514.992 391.592 516.002 390.978 516.655 390.035C517.324 389.076 517.557 387.848 517.557 386.515C517.557 385.182 517.324 383.954 516.655 382.996C516.002 382.052 514.992 381.438 513.561 381.438C512.131 381.438 511.12 382.052 510.467 382.996C509.799 383.954 509.566 385.182 509.566 386.515Z" fill="#8C8C8C"/>
<path d="M520.531 385.152C520.515 385.003 520.5 384.853 520.5 384.718C520.5 383.61 521.122 382.726 522.443 382.726C523.718 382.726 524.34 383.55 524.34 384.433C524.34 385.182 523.905 385.871 522.956 386.455L521.277 387.504C519.567 388.567 518.914 389.78 518.883 391.368H525.941V390.005H520.764C520.904 389.406 521.417 389.001 521.992 388.642L523.982 387.414C525.133 386.71 525.879 385.691 525.879 384.418C525.879 382.801 524.635 381.438 522.474 381.438C520.266 381.438 518.992 382.921 518.992 384.583C518.992 384.703 518.992 384.838 519.007 384.973L520.531 385.152Z" fill="#8C8C8C"/>
<path d="M531.042 391.368V381.663H529.705C529.472 382.711 528.508 383.46 527.108 383.49V384.523H529.549V391.368H531.042Z" fill="#8C8C8C"/>
<defs>
<filter id="filter0_d_1702_16385" x="0" y="0" width="623" height="592" filterUnits="userSpaceOnUse" color-interpolation-filters="sRGB">
<feFlood flood-opacity="0" result="BackgroundImageFix"/>
<feColorMatrix in="SourceAlpha" type="matrix" values="0 0 0 0 0 0 0 0 0 0 0 0 0 0 0 0 0 0 127 0" result="hardAlpha"/>
<feOffset/>
<feGaussianBlur stdDeviation="30"/>
<feComposite in2="hardAlpha" operator="out"/>
<feColorMatrix type="matrix" values="0 0 0 0 0 0 0 0 0 0 0 0 0 0 0 0 0 0 0.05 0"/>
<feBlend mode="normal" in2="BackgroundImageFix" result="effect1_dropShadow_1702_16385"/>
<feBlend mode="normal" in="SourceGraphic" in2="effect1_dropShadow_1702_16385" result="shape"/>
</filter>
</defs>
</svg>
