<svg width="159" height="25" viewBox="0 0 159 25" fill="none" xmlns="http://www.w3.org/2000/svg">
<path d="M51.2473 5.84229H48.4644V20.1613H51.2473V5.84229Z" fill="#A9BAC7"/>
<path d="M62.018 15.0809C62.018 17.0571 60.7466 17.9451 59.0537 17.9451C57.3607 17.9451 56.2293 17.0571 56.2293 15.1811V10.0781H53.4463V15.8272C53.4463 18.6896 55.2411 20.3635 58.2262 20.3635C60.1023 20.3635 61.1508 19.6725 61.8539 18.8917H62.0163L62.2581 20.1631H64.8183V10.0781H62.018V15.0809Z" fill="#A9BAC7"/>
<path d="M89.3175 18.1661C87.2808 18.1661 86.132 17.2385 85.9506 15.8876H94.7832C94.824 15.6067 94.8442 15.3232 94.8437 15.0394C94.8247 11.4117 92.0797 9.87598 89.143 9.87598C85.7347 9.87598 83.1729 11.9144 83.1729 15.2018C83.1729 18.3268 85.6345 20.3635 89.3244 20.3635C92.4114 20.3635 94.4671 18.9936 94.892 16.8947H92.1419C91.7981 17.7222 90.81 18.1661 89.3175 18.1661ZM89.1447 12.0751C90.9206 12.0751 91.9484 12.8611 92.1108 13.9753H86.0111C86.2719 12.9077 87.3015 12.0751 89.1361 12.0751H89.1447Z" fill="#A9BAC7"/>
<path d="M99.5718 11.5257H99.399L99.1364 10.0729H96.6074V20.1631H99.3904V15.8271C99.3904 13.8699 100.518 12.7816 102.617 12.7816C102.999 12.7763 103.379 12.8098 103.754 12.8818V10.0781H103.365C101.51 10.0781 100.358 10.4616 99.5718 11.5257Z" fill="#A9BAC7"/>
<path d="M117.418 17.0157H117.258L114.877 10.7035H112.013L109.674 16.9967H109.493L107.275 10.0781H104.511L107.919 20.1631H110.946L113.366 13.7283H113.526L115.907 20.1631H118.952L122.361 10.0781H119.597L117.418 17.0157Z" fill="#A9BAC7"/>
<path d="M133.437 17.2264V13.8509C133.437 11.1077 131.117 9.87769 128.232 9.87769C125.168 9.87769 123.252 11.3305 122.99 13.5054H125.772C125.975 12.557 126.781 12.0336 128.232 12.0336C129.683 12.0336 130.651 12.5777 130.651 13.6868V13.9442L126.113 14.2897C124.016 14.452 122.485 15.3797 122.485 17.3559C122.485 19.3926 124.24 20.36 126.821 20.36C128.904 20.36 130.174 19.7796 130.951 18.9038H131.09C131.527 19.8884 132.413 20.1596 133.377 20.1596H134.546V18.1057H134.284C133.698 18.1057 133.437 17.8241 133.437 17.2264ZM130.653 16.1571C130.653 17.7515 128.752 18.275 127.123 18.275C126.014 18.275 125.289 17.9934 125.289 17.2264C125.289 16.5354 125.914 16.1985 126.844 16.1173L130.654 15.8358L130.653 16.1571Z" fill="#A9BAC7"/>
<path d="M143.726 10.0781L140.478 17.3802H140.297L137.01 10.0781H134.004L138.703 20.1631H142.031L146.709 10.0781H143.726Z" fill="#A9BAC7"/>
<path d="M155.606 16.8947C155.261 17.7222 154.274 18.1661 152.782 18.1661C150.745 18.1661 149.596 17.2385 149.415 15.8876H158.247C158.288 15.6067 158.308 15.3232 158.308 15.0394C158.289 11.4117 155.544 9.87598 152.607 9.87598C149.199 9.87598 146.639 11.9144 146.639 15.2018C146.639 18.3268 149.099 20.3635 152.788 20.3635C155.875 20.3635 157.931 18.9936 158.356 16.8947H155.606ZM152.6 12.0751C154.376 12.0751 155.404 12.8611 155.566 13.9753H149.468C149.733 12.9077 150.759 12.0751 152.593 12.0751H152.6Z" fill="#A9BAC7"/>
<path d="M43.9419 9.33521C43.9419 8.44728 44.5673 8.06551 45.374 8.06551C45.7492 8.06898 46.1223 8.12302 46.483 8.22617L46.9477 6.20847C46.2741 5.97027 45.5651 5.84762 44.8506 5.8457C42.7932 5.8457 41.14 6.93574 41.14 9.19355V10.078H38.7388V12.2875H41.14V20.163H43.9419V12.2857H47.079V10.078H43.9419V9.33521Z" fill="#A9BAC7"/>
<path d="M70.9595 7.23462H68.3683L68.2232 10.078H66.0327V12.2875H68.1713V17.2592C68.1713 18.9521 69.0351 20.3686 71.6263 20.3686C72.298 20.3686 72.9678 20.2945 73.6232 20.1475V18.0244C73.2453 18.1092 72.86 18.1566 72.4727 18.1661C71.0821 18.1661 70.9612 17.3801 70.9612 16.7737V12.2823H73.7252V10.078H70.9595V7.23462Z" fill="#A9BAC7"/>
<path d="M79.6987 7.23462H77.1161L76.971 10.078H74.7754V12.2875H76.914V17.2592C76.914 18.9521 77.7777 20.3686 80.369 20.3686C81.0392 20.3665 81.7071 20.2907 82.3607 20.1423V18.0244C81.9828 18.1092 81.5975 18.1566 81.2102 18.1661C79.8196 18.1661 79.6987 17.3801 79.6987 16.7737V12.2823H82.4713V10.078H79.6987V7.23462Z" fill="#A9BAC7"/>
<path d="M0 5.46048C0 3.84183 0.473329 2.45985 1.46663 1.46655L3.1941 3.19403C1.27142 5.1098 2.95053 11.0661 8.4249 16.5457C13.8993 22.0252 19.8591 23.7026 21.78 21.7834L23.5075 23.5109C20.2668 26.7516 12.8852 24.4524 6.70606 18.2714C2.4202 13.9838 0 9.11927 0 5.46048Z" fill="#A9BAC7"/>
<path d="M10.8936 25C9.27496 25 7.89298 24.5267 6.89795 23.5334L8.62543 21.8059C10.5447 23.7251 16.501 22.046 21.9805 16.5682C27.4601 11.0903 29.1358 5.13401 27.2165 3.21478L28.944 1.4873C32.1865 4.72805 29.8855 12.1096 23.7046 18.2887C19.417 22.5815 14.5524 25 10.8936 25Z" fill="#A9BAC7"/>
<path d="M24.276 15.8167C23.2274 12.7971 21.0853 9.57014 18.2436 6.73017C12.0645 0.549262 4.68296 -1.75174 1.44221 1.49074C1.21246 1.72222 1.41112 2.29401 1.8879 2.7708C2.36469 3.24758 2.93648 3.44451 3.16624 3.21476C5.08719 1.29553 11.0435 2.97464 16.5214 8.45419C19.1126 11.0454 21.0439 13.9389 21.975 16.6165C22.7904 18.9642 22.7109 20.8575 21.7608 21.8076C21.5293 22.0373 21.7297 22.6109 22.2048 23.0859C22.6798 23.561 23.2533 23.7614 23.4848 23.5299C25.1449 21.8698 25.4265 19.1265 24.276 15.8167Z" fill="#A9BAC7"/>
<path d="M28.9402 1.49077C27.2766 -0.172789 24.5369 -0.454368 21.2236 0.697859C18.2057 1.74471 14.977 3.88851 12.137 6.72848C5.95785 12.9077 3.65685 20.2892 6.89759 23.5316C7.12908 23.7614 7.70087 23.5627 8.17765 23.0877C8.65444 22.6126 8.8531 22.0391 8.62161 21.8076C6.69721 19.8884 8.3815 13.9321 13.8611 8.4525C16.4523 5.86129 19.3458 3.92997 22.0234 2.99886C24.371 2.18522 26.2643 2.26295 27.2162 3.21306C27.4459 3.44282 28.0194 3.24416 28.4945 2.76738C28.9696 2.29059 29.1699 1.72052 28.9402 1.49077Z" fill="#A9BAC7"/>
</svg>
