<svg width="136" height="52" viewBox="0 0 136 52" fill="none" xmlns="http://www.w3.org/2000/svg">
<path d="M0 9.8617C0 4.7685 4.12127 0.639648 9.2051 0.639648H125.803C130.887 0.639648 135.008 4.7685 135.008 9.8617V42.1389C135.008 47.2321 130.887 51.361 125.803 51.361H9.2051C4.12126 51.361 0 47.2321 0 42.1389V9.8617Z" fill="#273B4A"/>
<path d="M51.9971 20.7787V15.5574H53.6903C54.3019 15.5574 54.8041 15.6643 55.197 15.8781C55.5948 16.0919 55.8882 16.3953 56.0772 16.7881C56.2711 17.176 56.3681 17.6384 56.3681 18.1755C56.3681 18.7076 56.2711 19.17 56.0772 19.5629C55.8882 19.9507 55.5948 20.2516 55.197 20.4654C54.8041 20.6743 54.3019 20.7787 53.6903 20.7787H51.9971ZM52.7877 20.1074H53.6604C54.1328 20.1074 54.5058 20.0303 54.7793 19.8762C55.0578 19.722 55.2567 19.5007 55.376 19.2123C55.5003 18.9239 55.5625 18.5783 55.5625 18.1755C55.5625 17.7727 55.5003 17.4246 55.376 17.1312C55.2567 16.8378 55.0578 16.6141 54.7793 16.4599C54.5058 16.3008 54.1328 16.2212 53.6604 16.2212H52.7877V20.1074Z" fill="#D9D9D9"/>
<path d="M58.9423 20.8682C58.5893 20.8682 58.271 20.7886 57.9876 20.6295C57.7091 20.4654 57.4878 20.2392 57.3237 19.9507C57.1596 19.6574 57.0776 19.3167 57.0776 18.9289C57.0776 18.541 57.1596 18.2028 57.3237 17.9144C57.4928 17.621 57.7191 17.3948 58.0025 17.2357C58.286 17.0716 58.6017 16.9895 58.9498 16.9895C59.3029 16.9895 59.6186 17.0716 59.8971 17.2357C60.1805 17.3948 60.4043 17.621 60.5684 17.9144C60.7375 18.2028 60.822 18.541 60.822 18.9289C60.822 19.3167 60.7375 19.6574 60.5684 19.9507C60.4043 20.2392 60.1805 20.4654 59.8971 20.6295C59.6137 20.7886 59.2954 20.8682 58.9423 20.8682ZM58.9423 20.1894C59.1313 20.1894 59.3054 20.1422 59.4645 20.0477C59.6286 19.9532 59.7604 19.814 59.8598 19.63C59.9593 19.441 60.009 19.2073 60.009 18.9289C60.009 18.6504 59.9593 18.4192 59.8598 18.2352C59.7653 18.0462 59.636 17.9045 59.4719 17.81C59.3128 17.7155 59.1388 17.6683 58.9498 17.6683C58.7608 17.6683 58.5843 17.7155 58.4202 17.81C58.2611 17.9045 58.1318 18.0462 58.0323 18.2352C57.9329 18.4192 57.8832 18.6504 57.8832 18.9289C57.8832 19.2073 57.9329 19.441 58.0323 19.63C58.1318 19.814 58.2611 19.9532 58.4202 20.0477C58.5793 20.1422 58.7534 20.1894 58.9423 20.1894Z" fill="#D9D9D9"/>
<path d="M62.2771 20.7787L61.1881 17.079H61.9787L62.6948 19.8687L63.5004 17.079H64.3806L65.1861 19.8687L65.9022 17.079H66.6928L65.6038 20.7787H64.7908L63.9405 17.8697L63.0901 20.7787H62.2771Z" fill="#D9D9D9"/>
<path d="M67.3442 20.7787V17.079H68.0453L68.105 17.728C68.2194 17.4992 68.3859 17.3202 68.6047 17.1909C68.8285 17.0566 69.0846 16.9895 69.373 16.9895C69.8206 16.9895 70.1711 17.1287 70.4247 17.4072C70.6833 17.6857 70.8126 18.1009 70.8126 18.6529V20.7787H70.0294V18.7349C70.0294 18.0189 69.736 17.6608 69.1493 17.6608C68.8559 17.6608 68.6122 17.7653 68.4183 17.9741C68.2293 18.183 68.1348 18.4813 68.1348 18.8692V20.7787H67.3442Z" fill="#D9D9D9"/>
<path d="M71.7438 20.7787V15.4082H72.5345V20.7787H71.7438Z" fill="#D9D9D9"/>
<path d="M75.2662 20.8682C74.9132 20.8682 74.5949 20.7886 74.3115 20.6295C74.033 20.4654 73.8117 20.2392 73.6476 19.9507C73.4835 19.6574 73.4015 19.3167 73.4015 18.9289C73.4015 18.541 73.4835 18.2028 73.6476 17.9144C73.8167 17.621 74.043 17.3948 74.3264 17.2357C74.6098 17.0716 74.9256 16.9895 75.2737 16.9895C75.6267 16.9895 75.9425 17.0716 76.221 17.2357C76.5044 17.3948 76.7282 17.621 76.8923 17.9144C77.0614 18.2028 77.1459 18.541 77.1459 18.9289C77.1459 19.3167 77.0614 19.6574 76.8923 19.9507C76.7282 20.2392 76.5044 20.4654 76.221 20.6295C75.9375 20.7886 75.6193 20.8682 75.2662 20.8682ZM75.2662 20.1894C75.4552 20.1894 75.6292 20.1422 75.7884 20.0477C75.9525 19.9532 76.0842 19.814 76.1837 19.63C76.2831 19.441 76.3329 19.2073 76.3329 18.9289C76.3329 18.6504 76.2831 18.4192 76.1837 18.2352C76.0892 18.0462 75.9599 17.9045 75.7958 17.81C75.6367 17.7155 75.4627 17.6683 75.2737 17.6683C75.0847 17.6683 74.9082 17.7155 74.7441 17.81C74.585 17.9045 74.4557 18.0462 74.3562 18.2352C74.2568 18.4192 74.2071 18.6504 74.2071 18.9289C74.2071 19.2073 74.2568 19.441 74.3562 19.63C74.4557 19.814 74.585 19.9532 74.7441 20.0477C74.9032 20.1422 75.0773 20.1894 75.2662 20.1894Z" fill="#D9D9D9"/>
<path d="M79.2541 20.8682C78.9408 20.8682 78.6822 20.816 78.4783 20.7116C78.2744 20.6071 78.1228 20.4704 78.0233 20.3013C77.9239 20.1273 77.8741 19.9383 77.8741 19.7344C77.8741 19.3764 78.0134 19.093 78.2919 18.8841C78.5703 18.6753 78.9681 18.5708 79.4853 18.5708H80.455V18.5037C80.455 18.2153 80.3754 17.999 80.2163 17.8548C80.0621 17.7106 79.8607 17.6384 79.6121 17.6384C79.3933 17.6384 79.2019 17.6931 79.0378 17.8025C78.8786 17.907 78.7817 18.0636 78.7469 18.2725H77.9562C77.9811 18.0039 78.0706 17.7752 78.2247 17.5862C78.3838 17.3923 78.5828 17.2456 78.8214 17.1462C79.0651 17.0417 79.3311 16.9895 79.6196 16.9895C80.1367 16.9895 80.537 17.1263 80.8205 17.3998C81.1039 17.6683 81.2456 18.0363 81.2456 18.5037V20.7787H80.5594L80.4923 20.1447C80.3878 20.3486 80.2362 20.5201 80.0373 20.6594C79.8384 20.7986 79.5773 20.8682 79.2541 20.8682ZM79.4107 20.2267C79.6245 20.2267 79.8035 20.177 79.9478 20.0775C80.0969 19.9731 80.2113 19.8364 80.2909 19.6673C80.3754 19.4982 80.4276 19.3118 80.4475 19.1079H79.5673C79.2541 19.1079 79.0303 19.1626 78.896 19.272C78.7667 19.3814 78.7021 19.5181 78.7021 19.6822C78.7021 19.8513 78.7643 19.9856 78.8886 20.085C79.0179 20.1795 79.1919 20.2267 79.4107 20.2267Z" fill="#D9D9D9"/>
<path d="M83.8532 20.8682C83.4952 20.8682 83.1795 20.7837 82.906 20.6146C82.6325 20.4455 82.4186 20.2143 82.2645 19.9209C82.1103 19.6275 82.0332 19.2944 82.0332 18.9214C82.0332 18.5484 82.1103 18.2178 82.2645 17.9294C82.4186 17.636 82.6325 17.4072 82.906 17.2431C83.1844 17.0741 83.5027 16.9895 83.8607 16.9895C84.1541 16.9895 84.4102 17.0467 84.629 17.1611C84.8528 17.2754 85.0268 17.4371 85.1511 17.6459V15.4082H85.9418V20.7787H85.2332L85.1511 20.2044C85.0318 20.3784 84.8677 20.5325 84.6588 20.6668C84.45 20.8011 84.1814 20.8682 83.8532 20.8682ZM83.995 20.182C84.3331 20.182 84.6091 20.0651 84.8229 19.8314C85.0417 19.5977 85.1511 19.2968 85.1511 18.9289C85.1511 18.5559 85.0417 18.2551 84.8229 18.0263C84.6091 17.7926 84.3331 17.6757 83.995 17.6757C83.6568 17.6757 83.3784 17.7926 83.1596 18.0263C82.9408 18.2551 82.8314 18.5559 82.8314 18.9289C82.8314 19.1725 82.8811 19.3888 82.9805 19.5778C83.08 19.7668 83.2167 19.9159 83.3908 20.0253C83.5698 20.1298 83.7712 20.182 83.995 20.182Z" fill="#D9D9D9"/>
<path d="M90.5485 20.8682C90.1954 20.8682 89.8772 20.7886 89.5937 20.6295C89.3152 20.4654 89.094 20.2392 88.9299 19.9507C88.7658 19.6574 88.6837 19.3167 88.6837 18.9289C88.6837 18.541 88.7658 18.2028 88.9299 17.9144C89.0989 17.621 89.3252 17.3948 89.6086 17.2357C89.8921 17.0716 90.2078 16.9895 90.5559 16.9895C90.909 16.9895 91.2248 17.0716 91.5032 17.2357C91.7867 17.3948 92.0104 17.621 92.1745 17.9144C92.3436 18.2028 92.4281 18.541 92.4281 18.9289C92.4281 19.3167 92.3436 19.6574 92.1745 19.9507C92.0104 20.2392 91.7867 20.4654 91.5032 20.6295C91.2198 20.7886 90.9015 20.8682 90.5485 20.8682ZM90.5485 20.1894C90.7374 20.1894 90.9115 20.1422 91.0706 20.0477C91.2347 19.9532 91.3665 19.814 91.4659 19.63C91.5654 19.441 91.6151 19.2073 91.6151 18.9289C91.6151 18.6504 91.5654 18.4192 91.4659 18.2352C91.3715 18.0462 91.2422 17.9045 91.0781 17.81C90.9189 17.7155 90.7449 17.6683 90.5559 17.6683C90.367 17.6683 90.1904 17.7155 90.0263 17.81C89.8672 17.9045 89.7379 18.0462 89.6385 18.2352C89.539 18.4192 89.4893 18.6504 89.4893 18.9289C89.4893 19.2073 89.539 19.441 89.6385 19.63C89.7379 19.814 89.8672 19.9532 90.0263 20.0477C90.1855 20.1422 90.3595 20.1894 90.5485 20.1894Z" fill="#D9D9D9"/>
<path d="M93.2832 20.7787V17.079H93.9843L94.044 17.728C94.1584 17.4992 94.325 17.3202 94.5438 17.1909C94.7675 17.0566 95.0236 16.9895 95.312 16.9895C95.7596 16.9895 96.1102 17.1287 96.3638 17.4072C96.6223 17.6857 96.7516 18.1009 96.7516 18.6529V20.7787H95.9684V18.7349C95.9684 18.0189 95.6751 17.6608 95.0883 17.6608C94.7949 17.6608 94.5512 17.7653 94.3573 17.9741C94.1683 18.183 94.0738 18.4813 94.0738 18.8692V20.7787H93.2832Z" fill="#D9D9D9"/>
<path d="M101.114 20.7787C100.751 20.7787 100.462 20.6917 100.248 20.5176C100.035 20.3386 99.9277 20.0228 99.9277 19.5703V17.7429H99.2936V17.079H99.9277L100.025 16.1392H100.718V17.079H101.763V17.7429H100.718V19.5703C100.718 19.7742 100.761 19.9159 100.845 19.9955C100.935 20.0701 101.086 20.1074 101.3 20.1074H101.725V20.7787H101.114Z" fill="#D9D9D9"/>
<path d="M102.578 20.7787V15.4082H103.368V17.6757C103.493 17.4619 103.664 17.2953 103.883 17.176C104.107 17.0517 104.353 16.9895 104.622 16.9895C105.064 16.9895 105.412 17.1287 105.666 17.4072C105.919 17.6857 106.046 18.1009 106.046 18.6529V20.7787H105.263V18.7349C105.263 18.0189 104.977 17.6608 104.405 17.6608C104.107 17.6608 103.858 17.7653 103.659 17.9741C103.465 18.183 103.368 18.4813 103.368 18.8692V20.7787H102.578Z" fill="#D9D9D9"/>
<path d="M108.708 20.8682C108.345 20.8682 108.022 20.7886 107.738 20.6295C107.46 20.4654 107.241 20.2392 107.082 19.9507C106.923 19.6623 106.843 19.3267 106.843 18.9438C106.843 18.5559 106.92 18.2153 107.074 17.9219C107.234 17.6285 107.452 17.3998 107.731 17.2357C108.014 17.0716 108.342 16.9895 108.715 16.9895C109.078 16.9895 109.394 17.0716 109.663 17.2357C109.931 17.3948 110.14 17.6086 110.289 17.8771C110.438 18.1457 110.513 18.4415 110.513 18.7648C110.513 18.8145 110.511 18.8692 110.506 18.9289C110.506 18.9836 110.503 19.0457 110.498 19.1153H107.619C107.644 19.4734 107.761 19.7469 107.97 19.9358C108.183 20.1198 108.43 20.2118 108.708 20.2118C108.932 20.2118 109.118 20.1621 109.267 20.0626C109.422 19.9582 109.536 19.819 109.611 19.6449H110.401C110.302 19.993 110.103 20.2839 109.804 20.5176C109.511 20.7513 109.146 20.8682 108.708 20.8682ZM108.708 17.6384C108.444 17.6384 108.211 17.718 108.007 17.8771C107.803 18.0313 107.679 18.265 107.634 18.5783H109.722C109.707 18.2899 109.606 18.0611 109.417 17.8921C109.228 17.723 108.991 17.6384 108.708 17.6384Z" fill="#D9D9D9"/>
<path d="M51.7422 34.9509L54.7974 26.5968H56.516L59.5712 34.9509H57.9481L57.2798 33.0175H54.0217L53.3414 34.9509H51.7422ZM54.4394 31.8241H56.8621L55.6447 28.3512L54.4394 31.8241Z" fill="white"/>
<path d="M60.6115 37.5765V29.0314H61.972L62.1391 29.8788C62.3301 29.6162 62.5807 29.3855 62.891 29.1866C63.2092 28.9877 63.619 28.8882 64.1202 28.8882C64.6772 28.8882 65.1744 29.0235 65.612 29.294C66.0496 29.5645 66.3957 29.9345 66.6503 30.4039C66.9049 30.8733 67.0322 31.4064 67.0322 32.0031C67.0322 32.5998 66.9049 33.1329 66.6503 33.6023C66.3957 34.0638 66.0496 34.4298 65.612 34.7003C65.1744 34.9629 64.6772 35.0941 64.1202 35.0941C63.6747 35.0941 63.2848 35.0106 62.9507 34.8435C62.6165 34.6764 62.346 34.4417 62.1391 34.1394V37.5765H60.6115ZM63.798 33.7575C64.2833 33.7575 64.6851 33.5944 65.0034 33.2682C65.3216 32.942 65.4808 32.5203 65.4808 32.0031C65.4808 31.486 65.3216 31.0603 65.0034 30.7261C64.6851 30.392 64.2833 30.2249 63.798 30.2249C63.3047 30.2249 62.8989 30.392 62.5807 30.7261C62.2704 31.0523 62.1153 31.474 62.1153 31.9912C62.1153 32.5083 62.2704 32.934 62.5807 33.2682C62.8989 33.5944 63.3047 33.7575 63.798 33.7575Z" fill="white"/>
<path d="M68.3969 37.5765V29.0314H69.7574L69.9245 29.8788C70.1154 29.6162 70.366 29.3855 70.6763 29.1866C70.9946 28.9877 71.4043 28.8882 71.9056 28.8882C72.4625 28.8882 72.9598 29.0235 73.3974 29.294C73.835 29.5645 74.1811 29.9345 74.4357 30.4039C74.6903 30.8733 74.8176 31.4064 74.8176 32.0031C74.8176 32.5998 74.6903 33.1329 74.4357 33.6023C74.1811 34.0638 73.835 34.4298 73.3974 34.7003C72.9598 34.9629 72.4625 35.0941 71.9056 35.0941C71.46 35.0941 71.0702 35.0106 70.736 34.8435C70.4018 34.6764 70.1313 34.4417 69.9245 34.1394V37.5765H68.3969ZM71.5834 33.7575C72.0687 33.7575 72.4705 33.5944 72.7887 33.2682C73.107 32.942 73.2661 32.5203 73.2661 32.0031C73.2661 31.486 73.107 31.0603 72.7887 30.7261C72.4705 30.392 72.0687 30.2249 71.5834 30.2249C71.0901 30.2249 70.6843 30.392 70.366 30.7261C70.0558 31.0523 69.9006 31.474 69.9006 31.9912C69.9006 32.5083 70.0558 32.934 70.366 33.2682C70.6843 33.5944 71.0901 33.7575 71.5834 33.7575Z" fill="white"/>
<path d="M81.9141 35.0941C81.3015 35.0941 80.7604 34.9907 80.291 34.7838C79.8216 34.569 79.4516 34.2667 79.1811 33.8768C78.9106 33.479 78.7714 32.9977 78.7634 32.4328H80.3746C80.3905 32.8226 80.5297 33.1528 80.7923 33.4233C81.0628 33.6859 81.4327 33.8172 81.9022 33.8172C82.3079 33.8172 82.6302 33.7217 82.8689 33.5307C83.1075 33.3318 83.2269 33.0693 83.2269 32.7431C83.2269 32.4009 83.1195 32.1344 82.9047 31.9434C82.6978 31.7525 82.4193 31.5974 82.0692 31.478C81.7192 31.3587 81.3452 31.2314 80.9474 31.0961C80.3029 30.8733 79.8097 30.5869 79.4675 30.2368C79.1334 29.8868 78.9663 29.4213 78.9663 28.8405C78.9583 28.3472 79.0737 27.9255 79.3124 27.5754C79.559 27.2174 79.8932 26.9429 80.3149 26.752C80.7366 26.5531 81.2219 26.4536 81.7709 26.4536C82.3278 26.4536 82.8171 26.5531 83.2388 26.752C83.6685 26.9509 84.0026 27.2294 84.2413 27.5874C84.488 27.9454 84.6192 28.3711 84.6351 28.8644H83.0001C82.9922 28.57 82.8768 28.3114 82.654 28.0886C82.4392 27.8579 82.1369 27.7425 81.747 27.7425C81.4128 27.7346 81.1304 27.8181 80.8997 27.9932C80.6769 28.1602 80.5655 28.4069 80.5655 28.7331C80.5655 29.0116 80.653 29.2343 80.8281 29.4014C81.0031 29.5605 81.2418 29.6958 81.5441 29.8072C81.8465 29.9186 82.1926 30.0379 82.5824 30.1652C82.9961 30.3084 83.3741 30.4755 83.7162 30.6665C84.0583 30.8574 84.3328 31.112 84.5397 31.4303C84.7465 31.7406 84.85 32.1424 84.85 32.6356C84.85 33.0732 84.7386 33.479 84.5158 33.853C84.293 34.2269 83.9628 34.5292 83.5252 34.76C83.0876 34.9828 82.5506 35.0941 81.9141 35.0941Z" fill="white"/>
<path d="M88.7845 34.9509C88.1639 34.9509 87.6666 34.7998 87.2927 34.4974C86.9188 34.1951 86.7318 33.658 86.7318 32.8863V30.3084H85.7174V29.0314H86.7318L86.9108 27.4442H88.2594V29.0314H89.8586V30.3084H88.2594V32.8982C88.2594 33.1846 88.3191 33.3835 88.4384 33.4949C88.5657 33.5984 88.7805 33.6501 89.0829 33.6501H89.8228V34.9509H88.7845Z" fill="white"/>
<path d="M93.8591 35.0941C93.2862 35.0941 92.769 34.9629 92.3076 34.7003C91.8541 34.4377 91.4921 34.0757 91.2215 33.6143C90.959 33.1448 90.8277 32.6038 90.8277 31.9912C90.8277 31.3786 90.963 30.8415 91.2335 30.38C91.504 29.9106 91.866 29.5446 92.3195 29.2821C92.781 29.0195 93.2981 28.8882 93.871 28.8882C94.4359 28.8882 94.9451 29.0195 95.3986 29.2821C95.8601 29.5446 96.2221 29.9106 96.4846 30.38C96.7551 30.8415 96.8904 31.3786 96.8904 31.9912C96.8904 32.6038 96.7551 33.1448 96.4846 33.6143C96.2221 34.0757 95.8601 34.4377 95.3986 34.7003C94.9371 34.9629 94.424 35.0941 93.8591 35.0941ZM93.8591 33.7694C94.2569 33.7694 94.603 33.6222 94.8974 33.3278C95.1917 33.0255 95.3389 32.58 95.3389 31.9912C95.3389 31.4024 95.1917 30.9608 94.8974 30.6665C94.603 30.3641 94.2608 30.213 93.871 30.213C93.4652 30.213 93.1151 30.3641 92.8208 30.6665C92.5343 30.9608 92.3911 31.4024 92.3911 31.9912C92.3911 32.58 92.5343 33.0255 92.8208 33.3278C93.1151 33.6222 93.4612 33.7694 93.8591 33.7694Z" fill="white"/>
<path d="M98.2562 34.9509V29.0314H99.6168L99.76 30.1414C99.9748 29.7594 100.265 29.4571 100.631 29.2343C101.005 29.0036 101.443 28.8882 101.944 28.8882V30.4994H101.514C101.18 30.4994 100.882 30.5511 100.619 30.6545C100.357 30.758 100.15 30.937 99.9987 31.1916C99.8554 31.4462 99.7838 31.8002 99.7838 32.2537V34.9509H98.2562Z" fill="white"/>
<path d="M105.759 35.0941C105.163 35.0941 104.634 34.9668 104.172 34.7122C103.711 34.4576 103.349 34.0996 103.086 33.6381C102.823 33.1767 102.692 32.6436 102.692 32.0389C102.692 31.4263 102.82 30.8813 103.074 30.4039C103.337 29.9265 103.695 29.5566 104.148 29.294C104.61 29.0235 105.151 28.8882 105.771 28.8882C106.352 28.8882 106.865 29.0155 107.311 29.2701C107.756 29.5247 108.102 29.8748 108.349 30.3204C108.604 30.758 108.731 31.2473 108.731 31.7883C108.731 31.8758 108.727 31.9673 108.719 32.0628C108.719 32.1583 108.715 32.2577 108.707 32.3612H104.208C104.24 32.8226 104.399 33.1846 104.685 33.4472C104.98 33.7097 105.334 33.841 105.747 33.841C106.058 33.841 106.316 33.7734 106.523 33.6381C106.738 33.4949 106.897 33.3119 107.001 33.0892H108.552C108.441 33.4631 108.254 33.8052 107.991 34.1155C107.736 34.4179 107.418 34.6565 107.036 34.8316C106.662 35.0066 106.237 35.0941 105.759 35.0941ZM105.771 30.1294C105.397 30.1294 105.067 30.2368 104.781 30.4516C104.494 30.6585 104.311 30.9768 104.232 31.4064H107.18C107.156 31.0165 107.012 30.7062 106.75 30.4755C106.487 30.2448 106.161 30.1294 105.771 30.1294Z" fill="white"/>
<path d="M38.2999 14.8115C37.0322 14.8865 35.5768 15.6052 34.7115 16.5204C33.9298 17.3528 33.313 18.5891 33.5648 19.7851C34.9424 19.8221 36.3252 19.0848 37.1531 18.1528C37.9261 17.2812 38.5121 16.0646 38.2999 14.8115ZM38.375 19.7829C36.3861 19.7829 35.5545 21.0264 34.1768 21.0264C32.7596 21.0264 31.464 19.8616 29.7488 19.8616C27.4157 19.8627 23.8691 22.062 23.8691 27.2434C23.8691 31.9571 28.0666 37.1884 30.436 37.1884C31.8752 37.2029 32.2241 36.2676 34.1768 36.2575C36.1317 36.2429 36.5535 37.2007 37.9949 37.1884C39.6178 37.1761 40.8852 35.3614 41.8109 33.9237C42.475 32.8943 42.748 32.3688 43.2626 31.2052C39.4441 30.2206 38.6843 23.9543 43.2626 22.6587C42.3984 21.1584 39.8758 19.7829 38.375 19.7829Z" fill="#FCFCFC"/>
</svg>
