<svg width="181" height="68" viewBox="0 0 181 68" fill="none" xmlns="http://www.w3.org/2000/svg">
<path d="M0 12.3636C0 5.53539 5.52521 0 12.3409 0H168.659C175.475 0 181 5.53539 181 12.3636V55.6364C181 62.4646 175.475 68 168.659 68H12.3409C5.52521 68 0 62.4646 0 55.6364V12.3636Z" fill="#273B4A"/>
<path d="M66.75 27.12C66.09 27.12 65.5133 26.97 65.02 26.67C64.5267 26.37 64.1433 25.95 63.87 25.41C63.5967 24.87 63.46 24.24 63.46 23.52C63.46 22.8067 63.6 22.1767 63.88 21.63C64.16 21.0833 64.5567 20.6567 65.07 20.35C65.59 20.0367 66.2033 19.88 66.91 19.88C67.71 19.88 68.3767 20.0733 68.91 20.46C69.4433 20.8467 69.79 21.38 69.95 22.06H68.75C68.6433 21.6867 68.4333 21.3933 68.12 21.18C67.8067 20.9667 67.4033 20.86 66.91 20.86C66.1767 20.86 65.6 21.0967 65.18 21.57C64.76 22.0433 64.55 22.6967 64.55 23.53C64.55 24.3633 64.7567 25.0133 65.17 25.48C65.5833 25.9467 66.1333 26.18 66.82 26.18C67.5133 26.18 68.0333 25.9833 68.38 25.59C68.7333 25.1967 68.94 24.6733 69 24.02H67.1V23.2H70.07V27H69.1L69.01 25.97C68.7767 26.3367 68.4833 26.62 68.13 26.82C67.7767 27.02 67.3167 27.12 66.75 27.12ZM73.6365 27.12C73.1498 27.12 72.7165 27.0133 72.3365 26.8C71.9632 26.58 71.6698 26.2767 71.4565 25.89C71.2432 25.5033 71.1365 25.0533 71.1365 24.54C71.1365 24.02 71.2398 23.5633 71.4465 23.17C71.6598 22.7767 71.9532 22.47 72.3265 22.25C72.7065 22.03 73.1465 21.92 73.6465 21.92C74.1332 21.92 74.5565 22.03 74.9165 22.25C75.2765 22.4633 75.5565 22.75 75.7565 23.11C75.9565 23.47 76.0565 23.8667 76.0565 24.3C76.0565 24.3667 76.0532 24.44 76.0465 24.52C76.0465 24.5933 76.0432 24.6767 76.0365 24.77H72.1765C72.2098 25.25 72.3665 25.6167 72.6465 25.87C72.9332 26.1167 73.2632 26.24 73.6365 26.24C73.9365 26.24 74.1865 26.1733 74.3865 26.04C74.5932 25.9 74.7465 25.7133 74.8465 25.48H75.9065C75.7732 25.9467 75.5065 26.3367 75.1065 26.65C74.7132 26.9633 74.2232 27.12 73.6365 27.12ZM73.6365 22.79C73.2832 22.79 72.9698 22.8967 72.6965 23.11C72.4232 23.3167 72.2565 23.63 72.1965 24.05H74.9965C74.9765 23.6633 74.8398 23.3567 74.5865 23.13C74.3332 22.9033 74.0165 22.79 73.6365 22.79ZM79.1094 27C78.6227 27 78.236 26.8833 77.9494 26.65C77.6627 26.41 77.5194 25.9867 77.5194 25.38V22.93H76.6694V22.04H77.5194L77.6494 20.78H78.5794V22.04H79.9794V22.93H78.5794V25.38C78.5794 25.6533 78.636 25.8433 78.7494 25.95C78.8694 26.05 79.0727 26.1 79.3594 26.1H79.9294V27H79.1094ZM84.1919 21.1C83.9919 21.1 83.8252 21.04 83.6919 20.92C83.5652 20.7933 83.5019 20.6367 83.5019 20.45C83.5019 20.2633 83.5652 20.11 83.6919 19.99C83.8252 19.8633 83.9919 19.8 84.1919 19.8C84.3919 19.8 84.5552 19.8633 84.6819 19.99C84.8152 20.11 84.8819 20.2633 84.8819 20.45C84.8819 20.6367 84.8152 20.7933 84.6819 20.92C84.5552 21.04 84.3919 21.1 84.1919 21.1ZM83.6619 27V22.04H84.7219V27H83.6619ZM88.2012 27C87.7145 27 87.3278 26.8833 87.0412 26.65C86.7545 26.41 86.6112 25.9867 86.6112 25.38V22.93H85.7612V22.04H86.6112L86.7412 20.78H87.6712V22.04H89.0712V22.93H87.6712V25.38C87.6712 25.6533 87.7278 25.8433 87.8412 25.95C87.9612 26.05 88.1645 26.1 88.4512 26.1H89.0212V27H88.2012ZM95.0037 27.12C94.5303 27.12 94.1037 27.0133 93.7237 26.8C93.3503 26.58 93.0537 26.2767 92.8337 25.89C92.6137 25.4967 92.5037 25.04 92.5037 24.52C92.5037 24 92.6137 23.5467 92.8337 23.16C93.0603 22.7667 93.3637 22.4633 93.7437 22.25C94.1237 22.03 94.547 21.92 95.0137 21.92C95.487 21.92 95.9103 22.03 96.2837 22.25C96.6637 22.4633 96.9637 22.7667 97.1837 23.16C97.4103 23.5467 97.5237 24 97.5237 24.52C97.5237 25.04 97.4103 25.4967 97.1837 25.89C96.9637 26.2767 96.6637 26.58 96.2837 26.8C95.9037 27.0133 95.477 27.12 95.0037 27.12ZM95.0037 26.21C95.257 26.21 95.4903 26.1467 95.7037 26.02C95.9237 25.8933 96.1003 25.7067 96.2337 25.46C96.367 25.2067 96.4337 24.8933 96.4337 24.52C96.4337 24.1467 96.367 23.8367 96.2337 23.59C96.107 23.3367 95.9337 23.1467 95.7137 23.02C95.5003 22.8933 95.267 22.83 95.0137 22.83C94.7603 22.83 94.5237 22.8933 94.3037 23.02C94.0903 23.1467 93.917 23.3367 93.7837 23.59C93.6503 23.8367 93.5837 24.1467 93.5837 24.52C93.5837 24.8933 93.6503 25.2067 93.7837 25.46C93.917 25.7067 94.0903 25.8933 94.3037 26.02C94.517 26.1467 94.7503 26.21 95.0037 26.21ZM98.67 27V22.04H99.61L99.69 22.91C99.8433 22.6033 100.067 22.3633 100.36 22.19C100.66 22.01 101.003 21.92 101.39 21.92C101.99 21.92 102.46 22.1067 102.8 22.48C103.147 22.8533 103.32 23.41 103.32 24.15V27H102.27V24.26C102.27 23.3 101.877 22.82 101.09 22.82C100.697 22.82 100.37 22.96 100.11 23.24C99.8567 23.52 99.73 23.92 99.73 24.44V27H98.67Z" fill="#D9D9D9"/>
<path d="M68.984 46.192C67.928 46.192 67.0053 45.952 66.216 45.472C65.4267 44.992 64.8133 44.3253 64.376 43.472C63.9387 42.608 63.72 41.6053 63.72 40.464C63.72 39.312 63.944 38.2987 64.392 37.424C64.8507 36.5387 65.496 35.8507 66.328 35.36C67.1707 34.8587 68.168 34.608 69.32 34.608C70.632 34.608 71.72 34.9227 72.584 35.552C73.448 36.1813 74.008 37.0507 74.264 38.16H71.976C71.8053 37.6373 71.496 37.232 71.048 36.944C70.6 36.6453 70.024 36.496 69.32 36.496C68.2 36.496 67.336 36.8533 66.728 37.568C66.12 38.272 65.816 39.2427 65.816 40.48C65.816 41.7173 66.1147 42.6773 66.712 43.36C67.32 44.032 68.1413 44.368 69.176 44.368C70.1893 44.368 70.952 44.096 71.464 43.552C71.9867 42.9973 72.3013 42.272 72.408 41.376H69.576V39.84H74.472V46H72.584L72.424 44.528C72.0613 45.0613 71.608 45.472 71.064 45.76C70.52 46.048 69.8267 46.192 68.984 46.192ZM80.223 46.192C79.455 46.192 78.7617 46.016 78.143 45.664C77.535 45.312 77.0497 44.8267 76.687 44.208C76.335 43.5787 76.159 42.8533 76.159 42.032C76.159 41.2107 76.3403 40.4907 76.703 39.872C77.0657 39.2427 77.551 38.752 78.159 38.4C78.7777 38.048 79.471 37.872 80.239 37.872C80.9963 37.872 81.679 38.048 82.287 38.4C82.9057 38.752 83.391 39.2427 83.743 39.872C84.1057 40.4907 84.287 41.2107 84.287 42.032C84.287 42.8533 84.1057 43.5787 83.743 44.208C83.391 44.8267 82.9057 45.312 82.287 45.664C81.6683 46.016 80.9803 46.192 80.223 46.192ZM80.223 44.416C80.7563 44.416 81.2203 44.2187 81.615 43.824C82.0097 43.4187 82.207 42.8213 82.207 42.032C82.207 41.2427 82.0097 40.6507 81.615 40.256C81.2203 39.8507 80.7617 39.648 80.239 39.648C79.695 39.648 79.2257 39.8507 78.831 40.256C78.447 40.6507 78.255 41.2427 78.255 42.032C78.255 42.8213 78.447 43.4187 78.831 43.824C79.2257 44.2187 79.6897 44.416 80.223 44.416ZM89.9261 46.192C89.1581 46.192 88.4648 46.016 87.8461 45.664C87.2381 45.312 86.7528 44.8267 86.3901 44.208C86.0381 43.5787 85.8621 42.8533 85.8621 42.032C85.8621 41.2107 86.0435 40.4907 86.4061 39.872C86.7688 39.2427 87.2541 38.752 87.8621 38.4C88.4808 38.048 89.1741 37.872 89.9421 37.872C90.6995 37.872 91.3821 38.048 91.9901 38.4C92.6088 38.752 93.0941 39.2427 93.4461 39.872C93.8088 40.4907 93.9901 41.2107 93.9901 42.032C93.9901 42.8533 93.8088 43.5787 93.4461 44.208C93.0941 44.8267 92.6088 45.312 91.9901 45.664C91.3715 46.016 90.6835 46.192 89.9261 46.192ZM89.9261 44.416C90.4595 44.416 90.9235 44.2187 91.3181 43.824C91.7128 43.4187 91.9101 42.8213 91.9101 42.032C91.9101 41.2427 91.7128 40.6507 91.3181 40.256C90.9235 39.8507 90.4648 39.648 89.9421 39.648C89.3981 39.648 88.9288 39.8507 88.5341 40.256C88.1501 40.6507 87.9581 41.2427 87.9581 42.032C87.9581 42.8213 88.1501 43.4187 88.5341 43.824C88.9288 44.2187 89.3928 44.416 89.9261 44.416ZM98.6813 43.632C98.2973 43.632 97.9399 43.5893 97.6093 43.504L97.0173 44.096C97.1986 44.192 97.4439 44.272 97.7533 44.336C98.0626 44.4 98.5639 44.464 99.2573 44.528C100.313 44.624 101.081 44.8747 101.561 45.28C102.041 45.6853 102.281 46.2453 102.281 46.96C102.281 47.4293 102.153 47.872 101.897 48.288C101.641 48.7147 101.247 49.056 100.713 49.312C100.18 49.5787 99.4973 49.712 98.6653 49.712C97.5346 49.712 96.6226 49.4987 95.9293 49.072C95.2359 48.656 94.8893 48.0267 94.8893 47.184C94.8893 46.4693 95.2359 45.8507 95.9293 45.328C95.7159 45.232 95.5293 45.1307 95.3693 45.024C95.2199 44.9173 95.0866 44.8053 94.9693 44.688V44.32L96.3613 42.848C95.7426 42.304 95.4333 41.6053 95.4333 40.752C95.4333 40.2187 95.5613 39.7333 95.8173 39.296C96.0839 38.8587 96.4573 38.512 96.9373 38.256C97.4173 38 97.9986 37.872 98.6813 37.872C99.1293 37.872 99.5453 37.936 99.9293 38.064H102.937V39.312L101.577 39.408C101.791 39.8133 101.897 40.2613 101.897 40.752C101.897 41.2853 101.769 41.7707 101.513 42.208C101.257 42.6453 100.884 42.992 100.393 43.248C99.9133 43.504 99.3426 43.632 98.6813 43.632ZM98.6813 42.064C99.0973 42.064 99.4386 41.952 99.7053 41.728C99.9826 41.504 100.121 41.184 100.121 40.768C100.121 40.352 99.9826 40.032 99.7053 39.808C99.4386 39.584 99.0973 39.472 98.6813 39.472C98.2439 39.472 97.8919 39.584 97.6253 39.808C97.3586 40.032 97.2253 40.352 97.2253 40.768C97.2253 41.184 97.3586 41.504 97.6253 41.728C97.8919 41.952 98.2439 42.064 98.6813 42.064ZM96.7613 46.976C96.7613 47.3707 96.9426 47.664 97.3053 47.856C97.6786 48.0587 98.1319 48.16 98.6653 48.16C99.1773 48.16 99.5933 48.0533 99.9133 47.84C100.233 47.6373 100.393 47.36 100.393 47.008C100.393 46.72 100.287 46.48 100.073 46.288C99.8706 46.096 99.4599 45.9787 98.8413 45.936C98.4039 45.904 97.9986 45.856 97.6253 45.792C97.3159 45.9627 97.0919 46.1493 96.9533 46.352C96.8253 46.5547 96.7613 46.7627 96.7613 46.976ZM104.431 46V34.48H106.479V46H104.431ZM112.427 46.192C111.627 46.192 110.918 46.0213 110.299 45.68C109.681 45.3387 109.195 44.8587 108.843 44.24C108.491 43.6213 108.315 42.9067 108.315 42.096C108.315 41.2747 108.486 40.544 108.827 39.904C109.179 39.264 109.659 38.768 110.267 38.416C110.886 38.0533 111.611 37.872 112.443 37.872C113.222 37.872 113.91 38.0427 114.507 38.384C115.105 38.7253 115.569 39.1947 115.899 39.792C116.241 40.3787 116.411 41.0347 116.411 41.76C116.411 41.8773 116.406 42 116.395 42.128C116.395 42.256 116.39 42.3893 116.379 42.528H110.347C110.39 43.1467 110.603 43.632 110.987 43.984C111.382 44.336 111.857 44.512 112.411 44.512C112.827 44.512 113.174 44.4213 113.451 44.24C113.739 44.048 113.953 43.8027 114.091 43.504H116.171C116.022 44.0053 115.771 44.464 115.419 44.88C115.078 45.2853 114.651 45.6053 114.139 45.84C113.638 46.0747 113.067 46.192 112.427 46.192ZM112.443 39.536C111.942 39.536 111.499 39.68 111.115 39.968C110.731 40.2453 110.486 40.672 110.379 41.248H114.331C114.299 40.7253 114.107 40.3093 113.755 40C113.403 39.6907 112.966 39.536 112.443 39.536ZM121.994 46V34.8H126.138C127.034 34.8 127.776 34.9493 128.362 35.248C128.949 35.5467 129.386 35.9573 129.674 36.48C129.962 37.0027 130.106 37.5893 130.106 38.24C130.106 38.8587 129.968 39.4293 129.69 39.952C129.413 40.464 128.981 40.88 128.394 41.2C127.808 41.5093 127.056 41.664 126.138 41.664H124.042V46H121.994ZM124.042 40H126.01C126.725 40 127.237 39.8453 127.546 39.536C127.866 39.216 128.026 38.784 128.026 38.24C128.026 37.6853 127.866 37.2533 127.546 36.944C127.237 36.624 126.725 36.464 126.01 36.464H124.042V40ZM131.665 46V34.48H133.713V46H131.665ZM138.542 46.192C137.859 46.192 137.299 46.0853 136.862 45.872C136.424 45.648 136.099 45.3547 135.886 44.992C135.672 44.6293 135.566 44.2293 135.566 43.792C135.566 43.056 135.854 42.4587 136.43 42C137.006 41.5413 137.87 41.312 139.022 41.312H141.038V41.12C141.038 40.576 140.883 40.176 140.574 39.92C140.264 39.664 139.88 39.536 139.422 39.536C139.006 39.536 138.643 39.6373 138.334 39.84C138.024 40.032 137.832 40.32 137.758 40.704H135.758C135.811 40.128 136.003 39.6267 136.334 39.2C136.675 38.7733 137.112 38.448 137.646 38.224C138.179 37.9893 138.776 37.872 139.438 37.872C140.568 37.872 141.459 38.1547 142.11 38.72C142.76 39.2853 143.086 40.0853 143.086 41.12V46H141.342L141.15 44.72C140.915 45.1467 140.584 45.4987 140.158 45.776C139.742 46.0533 139.203 46.192 138.542 46.192ZM139.006 44.592C139.592 44.592 140.046 44.4 140.366 44.016C140.696 43.632 140.904 43.1573 140.99 42.592H139.246C138.702 42.592 138.312 42.6933 138.078 42.896C137.843 43.088 137.726 43.328 137.726 43.616C137.726 43.9253 137.843 44.1653 138.078 44.336C138.312 44.5067 138.622 44.592 139.006 44.592ZM145.766 49.52L147.606 45.472H147.126L144.038 38.064H146.262L148.486 43.648L150.806 38.064H152.982L147.942 49.52H145.766Z" fill="white"/>
<path d="M27.3107 20.0001L40.6684 34.0314L44.3306 30.1565L28.1395 20.2652C27.8697 20.0995 27.5806 20.0078 27.3107 20.0001ZM26.1928 20.6527C26.0723 20.8796 26 21.1473 26 21.4481V48.7153C26 48.9345 26.0434 49.1308 26.1157 49.3067L39.7817 34.9491L26.1928 20.6527ZM45.4486 30.8295L41.5357 34.9491L45.4486 39.0484L50.2288 36.1524C50.9083 35.7369 51.0047 35.2092 50.9998 34.9287C50.9926 34.4648 50.7155 34.0314 50.2481 33.7663C49.8409 33.5343 46.8171 31.6708 45.4486 30.8295ZM40.6684 35.8669L27.1951 50.0001C27.4191 49.9874 27.6625 49.9364 27.889 49.7962C28.4166 49.4724 39.0878 42.9437 39.0878 42.9437L44.3499 39.7418L40.6684 35.8669Z" fill="#FCFCFC"/>
</svg>
