<svg width="561" height="261" viewBox="0 0 561 261" fill="none" xmlns="http://www.w3.org/2000/svg">
<path d="M38.9345 96.3253C21.1592 96.3253 6.73279 110.752 6.73279 128.527C6.73279 146.302 21.1592 160.729 38.9345 160.729C56.7099 160.729 71.1363 146.302 71.1363 128.527C71.1363 110.752 56.7099 96.3253 38.9345 96.3253ZM28.147 137.447C27.7927 138.413 26.8589 139.025 25.8928 139.025C25.603 139.025 25.3454 138.993 25.0556 138.864C22.4472 137.898 20.2575 135.998 18.8729 133.518C15.6527 127.722 17.6492 120.155 23.2845 116.645L30.8197 111.975C33.5891 110.269 36.8414 109.753 39.9328 110.558C43.0242 111.363 45.6325 113.392 47.2104 116.226C50.4306 122.022 48.4341 129.59 42.7988 133.1L41.9615 133.711C40.8667 134.484 39.3532 134.227 38.5803 133.164C37.8075 132.069 38.0651 130.556 39.1278 129.783L40.126 129.074C43.7326 126.82 44.9563 122.151 42.992 118.577C42.0581 116.902 40.5446 115.711 38.7413 115.228C36.938 114.745 35.0381 115.034 33.3958 116.065L25.7962 120.766C22.3184 122.924 21.0948 127.593 23.0591 131.2C23.8641 132.649 25.1522 133.776 26.6979 134.356C27.9537 134.806 28.5978 136.191 28.147 137.447ZM54.7778 140.281L47.2426 144.95C45.3427 146.141 43.2174 146.721 41.0599 146.721C40.0938 146.721 39.0956 146.592 38.1295 146.335C35.0381 145.53 32.4298 143.501 30.8841 140.667C27.6639 134.871 29.6604 127.303 35.2957 123.793L36.133 123.182C37.2279 122.409 38.7413 122.666 39.5142 123.729C40.287 124.824 40.0294 126.337 38.9668 127.11L37.9685 127.819C34.3619 130.073 33.1382 134.742 35.1025 138.316C36.0364 139.991 37.5499 141.182 39.3532 141.665C41.1565 142.148 43.0564 141.859 44.6987 140.828L52.2339 136.159C55.7117 134.001 56.9353 129.332 54.971 125.725C54.166 124.276 52.8779 123.149 51.3322 122.57C50.0764 122.119 49.4323 120.734 49.9153 119.478C50.3662 118.222 51.7831 117.578 53.0067 118.061C55.6151 119.027 57.8048 120.927 59.1895 123.407C62.3774 129.203 60.4131 136.771 54.7778 140.281Z" fill="#D6AA1B"/>
<path d="M85.9772 132.307H141.84M141.84 132.307V58.9816C141.84 42.413 155.272 28.9816 171.84 28.9816H236.765M141.84 132.307H236.765M141.84 132.307V201.853C141.84 218.421 155.272 231.853 171.84 231.853H236.765" stroke="#E0E0E0" stroke-width="5"/>
<path d="M249 10C249 4.47715 253.477 0 259 0H536C549.807 0 561 11.1929 561 25V34C561 47.8071 549.807 59 536 59H274C260.193 59 249 47.8071 249 34V10Z" fill="#D6AA1B"/>
<path d="M344.66 36.24C343.273 36.24 342.073 35.94 341.06 35.34C340.06 34.7267 339.287 33.88 338.74 32.8C338.193 31.7067 337.92 30.4467 337.92 29.02C337.92 27.58 338.193 26.32 338.74 25.24C339.287 24.1467 340.06 23.2933 341.06 22.68C342.073 22.0667 343.273 21.76 344.66 21.76C346.3 21.76 347.64 22.16 348.68 22.96C349.72 23.76 350.38 24.88 350.66 26.32H348.3C348.113 25.5067 347.713 24.86 347.1 24.38C346.487 23.9 345.667 23.66 344.64 23.66C343.24 23.66 342.133 24.14 341.32 25.1C340.507 26.0467 340.1 27.3533 340.1 29.02C340.1 30.6733 340.507 31.9733 341.32 32.92C342.133 33.8667 343.24 34.34 344.64 34.34C345.667 34.34 346.487 34.1133 347.1 33.66C347.713 33.2067 348.113 32.5867 348.3 31.8H350.66C350.38 33.1867 349.72 34.2733 348.68 35.06C347.64 35.8467 346.3 36.24 344.66 36.24ZM356.27 36.24C355.43 36.24 354.737 36.1 354.19 35.82C353.644 35.54 353.237 35.1733 352.97 34.72C352.704 34.2533 352.57 33.7467 352.57 33.2C352.57 32.24 352.944 31.48 353.69 30.92C354.437 30.36 355.504 30.08 356.89 30.08H359.49V29.9C359.49 29.1267 359.277 28.5467 358.85 28.16C358.437 27.7733 357.897 27.58 357.23 27.58C356.644 27.58 356.13 27.7267 355.69 28.02C355.264 28.3 355.004 28.72 354.91 29.28H352.79C352.857 28.56 353.097 27.9467 353.51 27.44C353.937 26.92 354.47 26.5267 355.11 26.26C355.764 25.98 356.477 25.84 357.25 25.84C358.637 25.84 359.71 26.2067 360.47 26.94C361.23 27.66 361.61 28.6467 361.61 29.9V36H359.77L359.59 34.3C359.31 34.8467 358.904 35.3067 358.37 35.68C357.837 36.0533 357.137 36.24 356.27 36.24ZM356.69 34.52C357.264 34.52 357.744 34.3867 358.13 34.12C358.53 33.84 358.837 33.4733 359.05 33.02C359.277 32.5667 359.417 32.0667 359.47 31.52H357.11C356.27 31.52 355.67 31.6667 355.31 31.96C354.964 32.2533 354.79 32.62 354.79 33.06C354.79 33.5133 354.957 33.8733 355.29 34.14C355.637 34.3933 356.104 34.52 356.69 34.52ZM364.082 36V26.08H365.982L366.162 27.96C366.509 27.3067 366.989 26.7933 367.602 26.42C368.229 26.0333 368.982 25.84 369.862 25.84V28.06H369.282C368.696 28.06 368.169 28.16 367.702 28.36C367.249 28.5467 366.882 28.8733 366.602 29.34C366.336 29.7933 366.202 30.4267 366.202 31.24V36H364.082ZM375.926 36.24C374.966 36.24 374.12 36.0133 373.386 35.56C372.653 35.1067 372.08 34.4867 371.666 33.7C371.253 32.9133 371.046 32.02 371.046 31.02C371.046 30.02 371.253 29.1333 371.666 28.36C372.08 27.5733 372.653 26.96 373.386 26.52C374.133 26.0667 374.986 25.84 375.946 25.84C376.733 25.84 377.42 25.9933 378.006 26.3C378.606 26.6067 379.073 27.04 379.406 27.6V21.6H381.526V36H379.626L379.406 34.46C379.086 34.9267 378.646 35.34 378.086 35.7C377.526 36.06 376.806 36.24 375.926 36.24ZM376.306 34.4C377.213 34.4 377.953 34.0867 378.526 33.46C379.113 32.8333 379.406 32.0267 379.406 31.04C379.406 30.04 379.113 29.2333 378.526 28.62C377.953 27.9933 377.213 27.68 376.306 27.68C375.4 27.68 374.653 27.9933 374.066 28.62C373.48 29.2333 373.186 30.04 373.186 31.04C373.186 31.6933 373.32 32.2733 373.586 32.78C373.853 33.2867 374.22 33.6867 374.686 33.98C375.166 34.26 375.706 34.4 376.306 34.4ZM389.238 40.4V26.08H391.138L391.358 27.62C391.678 27.1533 392.118 26.74 392.678 26.38C393.238 26.02 393.958 25.84 394.838 25.84C395.798 25.84 396.645 26.0667 397.378 26.52C398.112 26.9733 398.685 27.5933 399.098 28.38C399.525 29.1667 399.738 30.06 399.738 31.06C399.738 32.06 399.525 32.9533 399.098 33.74C398.685 34.5133 398.112 35.1267 397.378 35.58C396.645 36.02 395.792 36.24 394.818 36.24C394.045 36.24 393.358 36.0867 392.758 35.78C392.172 35.4733 391.705 35.04 391.358 34.48V40.4H389.238ZM394.458 34.4C395.365 34.4 396.112 34.0933 396.698 33.48C397.285 32.8533 397.578 32.04 397.578 31.04C397.578 30.3867 397.445 29.8067 397.178 29.3C396.912 28.7933 396.545 28.4 396.078 28.12C395.612 27.8267 395.072 27.68 394.458 27.68C393.552 27.68 392.805 27.9933 392.218 28.62C391.645 29.2467 391.358 30.0533 391.358 31.04C391.358 32.04 391.645 32.8533 392.218 33.48C392.805 34.0933 393.552 34.4 394.458 34.4ZM405.391 36.24C404.551 36.24 403.858 36.1 403.311 35.82C402.765 35.54 402.358 35.1733 402.091 34.72C401.825 34.2533 401.691 33.7467 401.691 33.2C401.691 32.24 402.065 31.48 402.811 30.92C403.558 30.36 404.625 30.08 406.011 30.08H408.611V29.9C408.611 29.1267 408.398 28.5467 407.971 28.16C407.558 27.7733 407.018 27.58 406.351 27.58C405.765 27.58 405.251 27.7267 404.811 28.02C404.385 28.3 404.125 28.72 404.031 29.28H401.911C401.978 28.56 402.218 27.9467 402.631 27.44C403.058 26.92 403.591 26.5267 404.231 26.26C404.885 25.98 405.598 25.84 406.371 25.84C407.758 25.84 408.831 26.2067 409.591 26.94C410.351 27.66 410.731 28.6467 410.731 29.9V36H408.891L408.711 34.3C408.431 34.8467 408.025 35.3067 407.491 35.68C406.958 36.0533 406.258 36.24 405.391 36.24ZM405.811 34.52C406.385 34.52 406.865 34.3867 407.251 34.12C407.651 33.84 407.958 33.4733 408.171 33.02C408.398 32.5667 408.538 32.0667 408.591 31.52H406.231C405.391 31.52 404.791 31.6667 404.431 31.96C404.085 32.2533 403.911 32.62 403.911 33.06C403.911 33.5133 404.078 33.8733 404.411 34.14C404.758 34.3933 405.225 34.52 405.811 34.52ZM414.051 40.4L416.431 35.18H415.851L411.931 26.08H414.231L417.271 33.42L420.451 26.08H422.691L416.291 40.4H414.051ZM424.434 36V26.08H426.314L426.494 27.48C426.814 26.9733 427.234 26.5733 427.754 26.28C428.287 25.9867 428.9 25.84 429.594 25.84C431.167 25.84 432.26 26.46 432.874 27.7C433.234 27.1267 433.714 26.6733 434.314 26.34C434.927 26.0067 435.587 25.84 436.294 25.84C437.534 25.84 438.507 26.2133 439.214 26.96C439.92 27.7067 440.274 28.82 440.274 30.3V36H438.154V30.52C438.154 28.6 437.42 27.64 435.954 27.64C435.207 27.64 434.594 27.92 434.114 28.48C433.647 29.04 433.414 29.84 433.414 30.88V36H431.294V30.52C431.294 28.6 430.554 27.64 429.074 27.64C428.34 27.64 427.734 27.92 427.254 28.48C426.787 29.04 426.554 29.84 426.554 30.88V36H424.434ZM447.394 36.24C446.421 36.24 445.554 36.0267 444.794 35.6C444.047 35.16 443.461 34.5533 443.034 33.78C442.607 33.0067 442.394 32.1067 442.394 31.08C442.394 30.04 442.601 29.1267 443.014 28.34C443.441 27.5533 444.027 26.94 444.774 26.5C445.534 26.06 446.414 25.84 447.414 25.84C448.387 25.84 449.234 26.06 449.954 26.5C450.674 26.9267 451.234 27.5 451.634 28.22C452.034 28.94 452.234 29.7333 452.234 30.6C452.234 30.7333 452.227 30.88 452.214 31.04C452.214 31.1867 452.207 31.3533 452.194 31.54H444.474C444.541 32.5 444.854 33.2333 445.414 33.74C445.987 34.2333 446.647 34.48 447.394 34.48C447.994 34.48 448.494 34.3467 448.894 34.08C449.307 33.8 449.614 33.4267 449.814 32.96H451.934C451.667 33.8933 451.134 34.6733 450.334 35.3C449.547 35.9267 448.567 36.24 447.394 36.24ZM447.394 27.58C446.687 27.58 446.061 27.7933 445.514 28.22C444.967 28.6333 444.634 29.26 444.514 30.1H450.114C450.074 29.3267 449.801 28.7133 449.294 28.26C448.787 27.8067 448.154 27.58 447.394 27.58ZM454.434 36V26.08H456.314L456.474 27.82C456.78 27.2067 457.227 26.7267 457.814 26.38C458.414 26.02 459.1 25.84 459.874 25.84C461.074 25.84 462.014 26.2133 462.694 26.96C463.387 27.7067 463.734 28.82 463.734 30.3V36H461.634V30.52C461.634 28.6 460.847 27.64 459.274 27.64C458.487 27.64 457.834 27.92 457.314 28.48C456.807 29.04 456.554 29.84 456.554 30.88V36H454.434ZM470.391 36C469.417 36 468.644 35.7667 468.071 35.3C467.497 34.82 467.211 33.9733 467.211 32.76V27.86H465.511V26.08H467.211L467.471 23.56H469.331V26.08H472.131V27.86H469.331V32.76C469.331 33.3067 469.444 33.6867 469.671 33.9C469.911 34.1 470.317 34.2 470.891 34.2H472.031V36H470.391Z" fill="white"/>
<path d="M249 114C249 108.477 253.477 104 259 104H536C549.807 104 561 115.193 561 129V138C561 151.807 549.807 163 536 163H274C260.193 163 249 151.807 249 138V114Z" fill="#D6AA1B"/>
<path d="M343.42 140V126H348.7C350.153 126 351.253 126.34 352 127.02C352.747 127.7 353.12 128.553 353.12 129.58C353.12 130.473 352.88 131.187 352.4 131.72C351.92 132.24 351.34 132.593 350.66 132.78C351.193 132.887 351.667 133.1 352.08 133.42C352.507 133.74 352.84 134.14 353.08 134.62C353.32 135.1 353.44 135.62 353.44 136.18C353.44 136.9 353.26 137.553 352.9 138.14C352.553 138.713 352.04 139.167 351.36 139.5C350.68 139.833 349.847 140 348.86 140H343.42ZM345.54 132H348.44C349.253 132 349.873 131.813 350.3 131.44C350.727 131.053 350.94 130.527 350.94 129.86C350.94 129.207 350.727 128.687 350.3 128.3C349.887 127.913 349.253 127.72 348.4 127.72H345.54V132ZM345.54 138.26H348.58C349.433 138.26 350.093 138.06 350.56 137.66C351.04 137.26 351.28 136.7 351.28 135.98C351.28 135.26 351.033 134.693 350.54 134.28C350.047 133.853 349.38 133.64 348.54 133.64H345.54V138.26ZM359.044 140.24C358.204 140.24 357.51 140.1 356.964 139.82C356.417 139.54 356.01 139.173 355.744 138.72C355.477 138.253 355.344 137.747 355.344 137.2C355.344 136.24 355.717 135.48 356.464 134.92C357.21 134.36 358.277 134.08 359.664 134.08H362.264V133.9C362.264 133.127 362.05 132.547 361.624 132.16C361.21 131.773 360.67 131.58 360.004 131.58C359.417 131.58 358.904 131.727 358.464 132.02C358.037 132.3 357.777 132.72 357.684 133.28H355.564C355.63 132.56 355.87 131.947 356.284 131.44C356.71 130.92 357.244 130.527 357.884 130.26C358.537 129.98 359.25 129.84 360.024 129.84C361.41 129.84 362.484 130.207 363.244 130.94C364.004 131.66 364.384 132.647 364.384 133.9V140H362.544L362.364 138.3C362.084 138.847 361.677 139.307 361.144 139.68C360.61 140.053 359.91 140.24 359.044 140.24ZM359.464 138.52C360.037 138.52 360.517 138.387 360.904 138.12C361.304 137.84 361.61 137.473 361.824 137.02C362.05 136.567 362.19 136.067 362.244 135.52H359.884C359.044 135.52 358.444 135.667 358.084 135.96C357.737 136.253 357.564 136.62 357.564 137.06C357.564 137.513 357.73 137.873 358.064 138.14C358.41 138.393 358.877 138.52 359.464 138.52ZM366.856 140V130.08H368.736L368.896 131.82C369.202 131.207 369.649 130.727 370.236 130.38C370.836 130.02 371.522 129.84 372.296 129.84C373.496 129.84 374.436 130.213 375.116 130.96C375.809 131.707 376.156 132.82 376.156 134.3V140H374.056V134.52C374.056 132.6 373.269 131.64 371.696 131.64C370.909 131.64 370.256 131.92 369.736 132.48C369.229 133.04 368.976 133.84 368.976 134.88V140H366.856ZM378.653 140V125.6H380.773V134.18L384.573 130.08H387.113L382.893 134.58L387.733 140H385.053L380.773 134.92V140H378.653ZM398.574 140C397.601 140 396.828 139.767 396.254 139.3C395.681 138.82 395.394 137.973 395.394 136.76V131.86H393.694V130.08H395.394L395.654 127.56H397.514V130.08H400.314V131.86H397.514V136.76C397.514 137.307 397.628 137.687 397.854 137.9C398.094 138.1 398.501 138.2 399.074 138.2H400.214V140H398.574ZM402.5 140V130.08H404.4L404.58 131.96C404.927 131.307 405.407 130.793 406.02 130.42C406.647 130.033 407.4 129.84 408.28 129.84V132.06H407.7C407.113 132.06 406.587 132.16 406.12 132.36C405.667 132.547 405.3 132.873 405.02 133.34C404.753 133.793 404.62 134.427 404.62 135.24V140H402.5ZM413.458 140.24C412.618 140.24 411.924 140.1 411.378 139.82C410.831 139.54 410.424 139.173 410.158 138.72C409.891 138.253 409.758 137.747 409.758 137.2C409.758 136.24 410.131 135.48 410.878 134.92C411.624 134.36 412.691 134.08 414.078 134.08H416.678V133.9C416.678 133.127 416.464 132.547 416.038 132.16C415.624 131.773 415.084 131.58 414.418 131.58C413.831 131.58 413.318 131.727 412.878 132.02C412.451 132.3 412.191 132.72 412.098 133.28H409.978C410.044 132.56 410.284 131.947 410.698 131.44C411.124 130.92 411.658 130.527 412.298 130.26C412.951 129.98 413.664 129.84 414.438 129.84C415.824 129.84 416.898 130.207 417.658 130.94C418.418 131.66 418.798 132.647 418.798 133.9V140H416.958L416.778 138.3C416.498 138.847 416.091 139.307 415.558 139.68C415.024 140.053 414.324 140.24 413.458 140.24ZM413.878 138.52C414.451 138.52 414.931 138.387 415.318 138.12C415.718 137.84 416.024 137.473 416.238 137.02C416.464 136.567 416.604 136.067 416.658 135.52H414.298C413.458 135.52 412.858 135.667 412.498 135.96C412.151 136.253 411.978 136.62 411.978 137.06C411.978 137.513 412.144 137.873 412.478 138.14C412.824 138.393 413.291 138.52 413.878 138.52ZM421.27 140V130.08H423.15L423.31 131.82C423.616 131.207 424.063 130.727 424.65 130.38C425.25 130.02 425.936 129.84 426.71 129.84C427.91 129.84 428.85 130.213 429.53 130.96C430.223 131.707 430.57 132.82 430.57 134.3V140H428.47V134.52C428.47 132.6 427.683 131.64 426.11 131.64C425.323 131.64 424.67 131.92 424.15 132.48C423.643 133.04 423.39 133.84 423.39 134.88V140H421.27ZM437.027 140.24C435.773 140.24 434.74 139.933 433.927 139.32C433.113 138.707 432.647 137.893 432.527 136.88H434.667C434.773 137.333 435.027 137.727 435.427 138.06C435.827 138.38 436.353 138.54 437.007 138.54C437.647 138.54 438.113 138.407 438.407 138.14C438.7 137.873 438.847 137.567 438.847 137.22C438.847 136.713 438.64 136.373 438.227 136.2C437.827 136.013 437.267 135.847 436.547 135.7C435.987 135.58 435.427 135.42 434.867 135.22C434.32 135.02 433.86 134.74 433.487 134.38C433.127 134.007 432.947 133.507 432.947 132.88C432.947 132.013 433.28 131.293 433.947 130.72C434.613 130.133 435.547 129.84 436.747 129.84C437.853 129.84 438.747 130.107 439.427 130.64C440.12 131.173 440.527 131.927 440.647 132.9H438.607C438.54 132.473 438.34 132.14 438.007 131.9C437.687 131.66 437.253 131.54 436.707 131.54C436.173 131.54 435.76 131.653 435.467 131.88C435.173 132.093 435.027 132.373 435.027 132.72C435.027 133.067 435.227 133.34 435.627 133.54C436.04 133.74 436.58 133.92 437.247 134.08C437.913 134.227 438.527 134.4 439.087 134.6C439.66 134.787 440.12 135.067 440.467 135.44C440.813 135.813 440.987 136.36 440.987 137.08C441 137.987 440.647 138.74 439.927 139.34C439.22 139.94 438.253 140.24 437.027 140.24ZM443.801 140V131.86H442.381V130.08H443.801V128.64C443.801 127.56 444.068 126.787 444.601 126.32C445.148 125.84 445.914 125.6 446.901 125.6H447.941V127.4H447.221C446.754 127.4 446.421 127.5 446.221 127.7C446.021 127.887 445.921 128.207 445.921 128.66V130.08H448.201V131.86H445.921V140H443.801ZM454.464 140.24C453.491 140.24 452.624 140.027 451.864 139.6C451.118 139.16 450.531 138.553 450.104 137.78C449.678 137.007 449.464 136.107 449.464 135.08C449.464 134.04 449.671 133.127 450.084 132.34C450.511 131.553 451.098 130.94 451.844 130.5C452.604 130.06 453.484 129.84 454.484 129.84C455.458 129.84 456.304 130.06 457.024 130.5C457.744 130.927 458.304 131.5 458.704 132.22C459.104 132.94 459.304 133.733 459.304 134.6C459.304 134.733 459.298 134.88 459.284 135.04C459.284 135.187 459.278 135.353 459.264 135.54H451.544C451.611 136.5 451.924 137.233 452.484 137.74C453.058 138.233 453.718 138.48 454.464 138.48C455.064 138.48 455.564 138.347 455.964 138.08C456.378 137.8 456.684 137.427 456.884 136.96H459.004C458.738 137.893 458.204 138.673 457.404 139.3C456.618 139.927 455.638 140.24 454.464 140.24ZM454.464 131.58C453.758 131.58 453.131 131.793 452.584 132.22C452.038 132.633 451.704 133.26 451.584 134.1H457.184C457.144 133.327 456.871 132.713 456.364 132.26C455.858 131.807 455.224 131.58 454.464 131.58ZM461.504 140V130.08H463.404L463.584 131.96C463.931 131.307 464.411 130.793 465.024 130.42C465.651 130.033 466.404 129.84 467.284 129.84V132.06H466.704C466.117 132.06 465.591 132.16 465.124 132.36C464.671 132.547 464.304 132.873 464.024 133.34C463.757 133.793 463.624 134.427 463.624 135.24V140H461.504Z" fill="white"/>
<path d="M249 212C249 206.477 253.477 202 259 202H536C549.807 202 561 213.193 561 227V236C561 249.807 549.807 261 536 261H274C260.193 261 249 249.807 249 236V212Z" fill="#D6AA1B"/>
<path d="M310.66 238.24C309.273 238.24 308.073 237.94 307.06 237.34C306.06 236.727 305.287 235.88 304.74 234.8C304.193 233.707 303.92 232.447 303.92 231.02C303.92 229.58 304.193 228.32 304.74 227.24C305.287 226.147 306.06 225.293 307.06 224.68C308.073 224.067 309.273 223.76 310.66 223.76C312.3 223.76 313.64 224.16 314.68 224.96C315.72 225.76 316.38 226.88 316.66 228.32H314.3C314.113 227.507 313.713 226.86 313.1 226.38C312.487 225.9 311.667 225.66 310.64 225.66C309.24 225.66 308.133 226.14 307.32 227.1C306.507 228.047 306.1 229.353 306.1 231.02C306.1 232.673 306.507 233.973 307.32 234.92C308.133 235.867 309.24 236.34 310.64 236.34C311.667 236.34 312.487 236.113 313.1 235.66C313.713 235.207 314.113 234.587 314.3 233.8H316.66C316.38 235.187 315.72 236.273 314.68 237.06C313.64 237.847 312.3 238.24 310.66 238.24ZM318.91 238V223.6H321.03V229.68C321.364 229.107 321.824 228.66 322.41 228.34C323.01 228.007 323.67 227.84 324.39 227.84C325.577 227.84 326.51 228.213 327.19 228.96C327.87 229.707 328.21 230.82 328.21 232.3V238H326.11V232.52C326.11 230.6 325.344 229.64 323.81 229.64C323.01 229.64 322.344 229.92 321.81 230.48C321.29 231.04 321.03 231.84 321.03 232.88V238H318.91ZM334.067 238.24C333.227 238.24 332.534 238.1 331.987 237.82C331.441 237.54 331.034 237.173 330.767 236.72C330.501 236.253 330.367 235.747 330.367 235.2C330.367 234.24 330.741 233.48 331.487 232.92C332.234 232.36 333.301 232.08 334.687 232.08H337.287V231.9C337.287 231.127 337.074 230.547 336.647 230.16C336.234 229.773 335.694 229.58 335.027 229.58C334.441 229.58 333.927 229.727 333.487 230.02C333.061 230.3 332.801 230.72 332.707 231.28H330.587C330.654 230.56 330.894 229.947 331.307 229.44C331.734 228.92 332.267 228.527 332.907 228.26C333.561 227.98 334.274 227.84 335.047 227.84C336.434 227.84 337.507 228.207 338.267 228.94C339.027 229.66 339.407 230.647 339.407 231.9V238H337.567L337.387 236.3C337.107 236.847 336.701 237.307 336.167 237.68C335.634 238.053 334.934 238.24 334.067 238.24ZM334.487 236.52C335.061 236.52 335.541 236.387 335.927 236.12C336.327 235.84 336.634 235.473 336.847 235.02C337.074 234.567 337.214 234.067 337.267 233.52H334.907C334.067 233.52 333.467 233.667 333.107 233.96C332.761 234.253 332.587 234.62 332.587 235.06C332.587 235.513 332.754 235.873 333.087 236.14C333.434 236.393 333.901 236.52 334.487 236.52ZM341.879 238V228.08H343.779L343.959 229.96C344.306 229.307 344.786 228.793 345.399 228.42C346.026 228.033 346.779 227.84 347.659 227.84V230.06H347.079C346.492 230.06 345.966 230.16 345.499 230.36C345.046 230.547 344.679 230.873 344.399 231.34C344.132 231.793 343.999 232.427 343.999 233.24V238H341.879ZM353.302 234.96C352.782 234.96 352.302 234.9 351.862 234.78L351.002 235.62C351.149 235.713 351.329 235.793 351.542 235.86C351.756 235.927 352.056 235.987 352.442 236.04C352.829 236.093 353.356 236.147 354.022 236.2C355.342 236.32 356.296 236.64 356.882 237.16C357.469 237.667 357.762 238.347 357.762 239.2C357.762 239.787 357.602 240.34 357.282 240.86C356.976 241.393 356.489 241.82 355.822 242.14C355.169 242.473 354.329 242.64 353.302 242.64C351.916 242.64 350.789 242.373 349.922 241.84C349.069 241.32 348.642 240.527 348.642 239.46C348.642 239.047 348.749 238.633 348.962 238.22C349.189 237.82 349.542 237.44 350.022 237.08C349.742 236.96 349.496 236.833 349.282 236.7C349.082 236.553 348.902 236.407 348.742 236.26V235.78L350.462 234.02C349.689 233.353 349.302 232.48 349.302 231.4C349.302 230.747 349.456 230.153 349.762 229.62C350.082 229.073 350.542 228.64 351.142 228.32C351.742 228 352.462 227.84 353.302 227.84C353.862 227.84 354.382 227.92 354.862 228.08H358.562V229.48L356.802 229.58C357.122 230.127 357.282 230.733 357.282 231.4C357.282 232.067 357.122 232.667 356.802 233.2C356.496 233.733 356.042 234.16 355.442 234.48C354.856 234.8 354.142 234.96 353.302 234.96ZM353.302 233.3C353.916 233.3 354.409 233.14 354.782 232.82C355.169 232.487 355.362 232.02 355.362 231.42C355.362 230.807 355.169 230.34 354.782 230.02C354.409 229.7 353.916 229.54 353.302 229.54C352.676 229.54 352.169 229.7 351.782 230.02C351.409 230.34 351.222 230.807 351.222 231.42C351.222 232.02 351.409 232.487 351.782 232.82C352.169 233.14 352.676 233.3 353.302 233.3ZM350.642 239.26C350.642 239.833 350.896 240.26 351.402 240.54C351.909 240.833 352.542 240.98 353.302 240.98C354.036 240.98 354.629 240.82 355.082 240.5C355.536 240.193 355.762 239.78 355.762 239.26C355.762 238.873 355.609 238.54 355.302 238.26C354.996 237.993 354.416 237.827 353.562 237.76C352.922 237.72 352.356 237.66 351.862 237.58C351.396 237.833 351.076 238.107 350.902 238.4C350.729 238.693 350.642 238.98 350.642 239.26ZM364.703 238.24C363.729 238.24 362.863 238.027 362.103 237.6C361.356 237.16 360.769 236.553 360.343 235.78C359.916 235.007 359.703 234.107 359.703 233.08C359.703 232.04 359.909 231.127 360.323 230.34C360.749 229.553 361.336 228.94 362.083 228.5C362.843 228.06 363.723 227.84 364.723 227.84C365.696 227.84 366.543 228.06 367.263 228.5C367.983 228.927 368.543 229.5 368.943 230.22C369.343 230.94 369.543 231.733 369.543 232.6C369.543 232.733 369.536 232.88 369.523 233.04C369.523 233.187 369.516 233.353 369.503 233.54H361.783C361.849 234.5 362.163 235.233 362.723 235.74C363.296 236.233 363.956 236.48 364.703 236.48C365.303 236.48 365.803 236.347 366.203 236.08C366.616 235.8 366.923 235.427 367.123 234.96H369.243C368.976 235.893 368.443 236.673 367.643 237.3C366.856 237.927 365.876 238.24 364.703 238.24ZM364.703 229.58C363.996 229.58 363.369 229.793 362.823 230.22C362.276 230.633 361.943 231.26 361.823 232.1H367.423C367.383 231.327 367.109 230.713 366.603 230.26C366.096 229.807 365.463 229.58 364.703 229.58ZM382.361 238.24C381.588 238.24 380.901 238.087 380.301 237.78C379.715 237.473 379.248 237.04 378.901 236.48L378.681 238H376.781V223.6H378.901V229.62C379.221 229.153 379.661 228.74 380.221 228.38C380.781 228.02 381.501 227.84 382.381 227.84C383.341 227.84 384.188 228.067 384.921 228.52C385.655 228.973 386.228 229.593 386.641 230.38C387.068 231.167 387.281 232.06 387.281 233.06C387.281 234.06 387.068 234.953 386.641 235.74C386.228 236.513 385.655 237.127 384.921 237.58C384.188 238.02 383.335 238.24 382.361 238.24ZM382.001 236.4C382.908 236.4 383.655 236.093 384.241 235.48C384.828 234.853 385.121 234.04 385.121 233.04C385.121 232.387 384.988 231.807 384.721 231.3C384.455 230.793 384.088 230.4 383.621 230.12C383.155 229.827 382.615 229.68 382.001 229.68C381.095 229.68 380.348 229.993 379.761 230.62C379.188 231.247 378.901 232.053 378.901 233.04C378.901 234.04 379.188 234.853 379.761 235.48C380.348 236.093 381.095 236.4 382.001 236.4ZM392.934 238.24C392.094 238.24 391.401 238.1 390.854 237.82C390.308 237.54 389.901 237.173 389.634 236.72C389.368 236.253 389.234 235.747 389.234 235.2C389.234 234.24 389.608 233.48 390.354 232.92C391.101 232.36 392.168 232.08 393.554 232.08H396.154V231.9C396.154 231.127 395.941 230.547 395.514 230.16C395.101 229.773 394.561 229.58 393.894 229.58C393.308 229.58 392.794 229.727 392.354 230.02C391.928 230.3 391.668 230.72 391.574 231.28H389.454C389.521 230.56 389.761 229.947 390.174 229.44C390.601 228.92 391.134 228.527 391.774 228.26C392.428 227.98 393.141 227.84 393.914 227.84C395.301 227.84 396.374 228.207 397.134 228.94C397.894 229.66 398.274 230.647 398.274 231.9V238H396.434L396.254 236.3C395.974 236.847 395.568 237.307 395.034 237.68C394.501 238.053 393.801 238.24 392.934 238.24ZM393.354 236.52C393.928 236.52 394.408 236.387 394.794 236.12C395.194 235.84 395.501 235.473 395.714 235.02C395.941 234.567 396.081 234.067 396.134 233.52H393.774C392.934 233.52 392.334 233.667 391.974 233.96C391.628 234.253 391.454 234.62 391.454 235.06C391.454 235.513 391.621 235.873 391.954 236.14C392.301 236.393 392.768 236.52 393.354 236.52ZM400.746 238V228.08H402.626L402.786 229.82C403.093 229.207 403.54 228.727 404.126 228.38C404.726 228.02 405.413 227.84 406.186 227.84C407.386 227.84 408.326 228.213 409.006 228.96C409.7 229.707 410.046 230.82 410.046 232.3V238H407.946V232.52C407.946 230.6 407.16 229.64 405.586 229.64C404.8 229.64 404.146 229.92 403.626 230.48C403.12 231.04 402.866 231.84 402.866 232.88V238H400.746ZM412.543 238V223.6H414.663V232.18L418.463 228.08H421.003L416.783 232.58L421.623 238H418.943L414.663 232.92V238H412.543ZM431.665 238.24C430.825 238.24 430.132 238.1 429.585 237.82C429.038 237.54 428.632 237.173 428.365 236.72C428.098 236.253 427.965 235.747 427.965 235.2C427.965 234.24 428.338 233.48 429.085 232.92C429.832 232.36 430.898 232.08 432.285 232.08H434.885V231.9C434.885 231.127 434.672 230.547 434.245 230.16C433.832 229.773 433.292 229.58 432.625 229.58C432.038 229.58 431.525 229.727 431.085 230.02C430.658 230.3 430.398 230.72 430.305 231.28H428.185C428.252 230.56 428.492 229.947 428.905 229.44C429.332 228.92 429.865 228.527 430.505 228.26C431.158 227.98 431.872 227.84 432.645 227.84C434.032 227.84 435.105 228.207 435.865 228.94C436.625 229.66 437.005 230.647 437.005 231.9V238H435.165L434.985 236.3C434.705 236.847 434.298 237.307 433.765 237.68C433.232 238.053 432.532 238.24 431.665 238.24ZM432.085 236.52C432.658 236.52 433.138 236.387 433.525 236.12C433.925 235.84 434.232 235.473 434.445 235.02C434.672 234.567 434.812 234.067 434.865 233.52H432.505C431.665 233.52 431.065 233.667 430.705 233.96C430.358 234.253 430.185 234.62 430.185 235.06C430.185 235.513 430.352 235.873 430.685 236.14C431.032 236.393 431.498 236.52 432.085 236.52ZM444.177 238.24C443.203 238.24 442.33 238.02 441.557 237.58C440.797 237.14 440.197 236.533 439.757 235.76C439.33 234.973 439.117 234.067 439.117 233.04C439.117 232.013 439.33 231.113 439.757 230.34C440.197 229.553 440.797 228.94 441.557 228.5C442.33 228.06 443.203 227.84 444.177 227.84C445.403 227.84 446.43 228.16 447.257 228.8C448.097 229.44 448.637 230.307 448.877 231.4H446.657C446.523 230.853 446.23 230.427 445.777 230.12C445.323 229.813 444.79 229.66 444.177 229.66C443.657 229.66 443.177 229.793 442.737 230.06C442.297 230.313 441.943 230.693 441.677 231.2C441.41 231.693 441.277 232.307 441.277 233.04C441.277 233.773 441.41 234.393 441.677 234.9C441.943 235.393 442.297 235.773 442.737 236.04C443.177 236.307 443.657 236.44 444.177 236.44C444.79 236.44 445.323 236.287 445.777 235.98C446.23 235.673 446.523 235.24 446.657 234.68H448.877C448.65 235.747 448.117 236.607 447.277 237.26C446.437 237.913 445.403 238.24 444.177 238.24ZM455.876 238.24C454.903 238.24 454.029 238.02 453.256 237.58C452.496 237.14 451.896 236.533 451.456 235.76C451.029 234.973 450.816 234.067 450.816 233.04C450.816 232.013 451.029 231.113 451.456 230.34C451.896 229.553 452.496 228.94 453.256 228.5C454.029 228.06 454.903 227.84 455.876 227.84C457.103 227.84 458.129 228.16 458.956 228.8C459.796 229.44 460.336 230.307 460.576 231.4H458.356C458.223 230.853 457.929 230.427 457.476 230.12C457.023 229.813 456.489 229.66 455.876 229.66C455.356 229.66 454.876 229.793 454.436 230.06C453.996 230.313 453.643 230.693 453.376 231.2C453.109 231.693 452.976 232.307 452.976 233.04C452.976 233.773 453.109 234.393 453.376 234.9C453.643 235.393 453.996 235.773 454.436 236.04C454.876 236.307 455.356 236.44 455.876 236.44C456.489 236.44 457.023 236.287 457.476 235.98C457.929 235.673 458.223 235.24 458.356 234.68H460.576C460.349 235.747 459.816 236.607 458.976 237.26C458.136 237.913 457.103 238.24 455.876 238.24ZM467.515 238.24C466.568 238.24 465.715 238.027 464.955 237.6C464.208 237.16 463.615 236.553 463.175 235.78C462.735 234.993 462.515 234.08 462.515 233.04C462.515 232 462.735 231.093 463.175 230.32C463.628 229.533 464.235 228.927 464.995 228.5C465.755 228.06 466.602 227.84 467.535 227.84C468.482 227.84 469.328 228.06 470.075 228.5C470.835 228.927 471.435 229.533 471.875 230.32C472.328 231.093 472.555 232 472.555 233.04C472.555 234.08 472.328 234.993 471.875 235.78C471.435 236.553 470.835 237.16 470.075 237.6C469.315 238.027 468.462 238.24 467.515 238.24ZM467.515 236.42C468.022 236.42 468.488 236.293 468.915 236.04C469.355 235.787 469.708 235.413 469.975 234.92C470.242 234.413 470.375 233.787 470.375 233.04C470.375 232.293 470.242 231.673 469.975 231.18C469.722 230.673 469.375 230.293 468.935 230.04C468.508 229.787 468.042 229.66 467.535 229.66C467.028 229.66 466.555 229.787 466.115 230.04C465.688 230.293 465.342 230.673 465.075 231.18C464.808 231.673 464.675 232.293 464.675 233.04C464.675 233.787 464.808 234.413 465.075 234.92C465.342 235.413 465.688 235.787 466.115 236.04C466.542 236.293 467.008 236.42 467.515 236.42ZM483.968 228.08V238H482.088L481.928 236.26C481.621 236.873 481.168 237.36 480.568 237.72C479.981 238.067 479.301 238.24 478.528 238.24C477.328 238.24 476.381 237.867 475.688 237.12C475.008 236.373 474.668 235.26 474.668 233.78V228.08H476.768V233.56C476.768 235.48 477.554 236.44 479.128 236.44C479.914 236.44 480.561 236.16 481.068 235.6C481.588 235.04 481.848 234.24 481.848 233.2V228.08H483.968ZM486.645 238V228.08H488.525L488.685 229.82C488.991 229.207 489.438 228.727 490.025 228.38C490.625 228.02 491.311 227.84 492.085 227.84C493.285 227.84 494.225 228.213 494.905 228.96C495.598 229.707 495.945 230.82 495.945 232.3V238H493.845V232.52C493.845 230.6 493.058 229.64 491.485 229.64C490.698 229.64 490.045 229.92 489.525 230.48C489.018 231.04 488.765 231.84 488.765 232.88V238H486.645ZM502.602 238C501.628 238 500.855 237.767 500.282 237.3C499.708 236.82 499.422 235.973 499.422 234.76V229.86H497.722V228.08H499.422L499.682 225.56H501.542V228.08H504.342V229.86H501.542V234.76C501.542 235.307 501.655 235.687 501.882 235.9C502.122 236.1 502.528 236.2 503.102 236.2H504.242V238H502.602Z" fill="white"/>
</svg>
