<svg width="25" height="31" viewBox="0 0 25 31" fill="none" xmlns="http://www.w3.org/2000/svg">
<path d="M18.0123 0.916626H6.98734C1.47484 0.916626 0.104004 2.38954 0.104004 8.26663V24.6875C0.104004 28.5666 2.23317 29.4854 4.81442 26.7145L4.829 26.7C6.02484 25.4312 7.84776 25.5333 8.88317 26.9187L10.3561 28.8875C11.5373 30.4479 13.4478 30.4479 14.629 28.8875L16.1019 26.9187C17.1519 25.5187 18.9748 25.4166 20.1707 26.7C22.7665 29.4708 24.8811 28.552 24.8811 24.6729V8.26663C24.8957 2.38954 23.5248 0.916626 18.0123 0.916626ZM6.34567 15.5C5.54359 15.5 4.88734 14.8437 4.88734 14.0416C4.88734 13.2395 5.54359 12.5833 6.34567 12.5833C7.14776 12.5833 7.804 13.2395 7.804 14.0416C7.804 14.8437 7.14776 15.5 6.34567 15.5ZM6.34567 9.66663C5.54359 9.66663 4.88734 9.01038 4.88734 8.20829C4.88734 7.40621 5.54359 6.74996 6.34567 6.74996C7.14776 6.74996 7.804 7.40621 7.804 8.20829C7.804 9.01038 7.14776 9.66663 6.34567 9.66663ZM18.6686 15.1354H10.6478C10.0498 15.1354 9.554 14.6395 9.554 14.0416C9.554 13.4437 10.0498 12.9479 10.6478 12.9479H18.6686C19.2665 12.9479 19.7623 13.4437 19.7623 14.0416C19.7623 14.6395 19.2665 15.1354 18.6686 15.1354ZM18.6686 9.30204H10.6478C10.0498 9.30204 9.554 8.80621 9.554 8.20829C9.554 7.61038 10.0498 7.11454 10.6478 7.11454H18.6686C19.2665 7.11454 19.7623 7.61038 19.7623 8.20829C19.7623 8.80621 19.2665 9.30204 18.6686 9.30204Z" fill="#273B4A"/>
</svg>
