<svg width="34" height="40" viewBox="0 0 34 40" fill="none" xmlns="http://www.w3.org/2000/svg">
<path d="M11.2822 18.3594C12.3609 18.3594 13.2354 17.4849 13.2354 16.4062C13.2354 15.3276 12.3609 14.4531 11.2822 14.4531C10.2035 14.4531 9.3291 15.3276 9.3291 16.4062C9.3291 17.4849 10.2035 18.3594 11.2822 18.3594Z" fill="#D6AA1B"/>
<path d="M23.862 40H9.48371C4.3152 40 0.110352 35.7952 0.110352 30.6266V9.37336C0.110352 4.20484 4.3152 0 9.48371 0H23.8619C29.0305 0 33.2354 4.20484 33.2354 9.37336V30.6266C33.2354 35.7952 29.0305 40 23.862 40ZM9.48371 3.125C6.0384 3.125 3.23535 5.92805 3.23535 9.37336V30.6266C3.23535 34.072 6.0384 36.875 9.48371 36.875H23.8619C27.3073 36.875 30.1104 34.072 30.1104 30.6266V9.37336C30.1104 5.92805 27.3073 3.125 23.862 3.125H9.48371Z" fill="#D6AA1B"/>
<path d="M25.3447 15.9375H22.6885C19.673 15.9375 17.2197 13.4842 17.2197 10.4688V7.8125C17.2197 6.94953 17.9193 6.25 18.7822 6.25C19.6452 6.25 20.3447 6.94953 20.3447 7.8125V10.4688C20.3447 11.7611 21.3961 12.8125 22.6885 12.8125H25.3447C26.2077 12.8125 26.9072 13.512 26.9072 14.375C26.9072 15.238 26.2077 15.9375 25.3447 15.9375Z" fill="#D6AA1B"/>
<path d="M21.4385 30.8594H10.6572C9.79426 30.8594 9.09473 30.1598 9.09473 29.2969C9.09473 28.4339 9.79426 27.7344 10.6572 27.7344H21.4385C22.3014 27.7344 23.001 28.4339 23.001 29.2969C23.001 30.1598 22.3014 30.8594 21.4385 30.8594Z" fill="#D6AA1B"/>
<path d="M21.4385 24.8438H10.6572C9.79426 24.8438 9.09473 24.1442 9.09473 23.2812C9.09473 22.4183 9.79426 21.7188 10.6572 21.7188H21.4385C22.3014 21.7188 23.001 22.4183 23.001 23.2812C23.001 24.1442 22.3014 24.8438 21.4385 24.8438Z" fill="#D6AA1B"/>
</svg>
