<svg width="92" height="85" viewBox="0 0 92 85" fill="none" xmlns="http://www.w3.org/2000/svg">
<path d="M0 8C0 3.58172 3.58172 0 8 0H73.0714C83.0126 0 91.0714 8.05888 91.0714 18V67C91.0714 76.9411 83.0126 85 73.0714 85H18C8.05886 85 0 76.9411 0 67V8Z" fill="#D6AA1B"/>
<path d="M58.6338 37.8049C57.0958 31.0439 51.1927 28 46.0073 28C46.0073 28 46.0073 28 45.9927 28C40.822 28 34.9042 31.0293 33.3662 37.7902C31.6524 45.3415 36.2811 51.7366 40.4704 55.761C42.0231 57.2537 44.0152 58 46.0073 58C47.9994 58 49.9916 57.2537 51.5296 55.761C55.7189 51.7366 60.3476 45.3561 58.6338 37.8049ZM46.0073 45.1366C43.4586 45.1366 41.3932 43.0732 41.3932 40.5268C41.3932 37.9805 43.4586 35.9171 46.0073 35.9171C48.5561 35.9171 50.6214 37.9805 50.6214 40.5268C50.6214 43.0732 48.5561 45.1366 46.0073 45.1366Z" fill="white"/>
</svg>
