<svg width="91" height="85" viewBox="0 0 91 85" fill="none" xmlns="http://www.w3.org/2000/svg">
<path d="M0 8C0 3.58172 3.58172 0 8 0H72.0714C82.0126 0 90.0714 8.05888 90.0714 18V67C90.0714 76.9411 82.0126 85 72.0714 85H18C8.05885 85 0 76.9411 0 67V8Z" fill="#D6AA1B"/>
<path d="M45.5 49.6875C46.5877 49.6875 47.4696 48.7753 47.4696 47.65C47.4696 46.5247 46.5877 45.6125 45.5 45.6125C44.4122 45.6125 43.5304 46.5247 43.5304 47.65C43.5304 48.7753 44.4122 49.6875 45.5 49.6875Z" fill="white"/>
<path d="M53.0884 39.9125V38.35C53.0884 34.975 52.3029 30.5 45.5 30.5C38.6971 30.5 37.9117 34.975 37.9117 38.35V39.9125C34.5284 40.35 33.4167 42.125 33.4167 46.4875V48.8125C33.4167 53.9375 34.9271 55.5 39.8813 55.5H51.1188C56.0729 55.5 57.5834 53.9375 57.5834 48.8125V46.4875C57.5834 42.125 56.4717 40.35 53.0884 39.9125ZM45.5 51.425C43.4821 51.425 41.8509 49.725 41.8509 47.65C41.8509 45.5625 43.4942 43.875 45.5 43.875C47.5059 43.875 49.1492 45.575 49.1492 47.65C49.1492 49.7375 47.5179 51.425 45.5 51.425ZM39.8813 39.8C39.7846 39.8 39.7 39.8 39.6034 39.8V38.35C39.6034 34.6875 40.6063 32.25 45.5 32.25C50.3938 32.25 51.3967 34.6875 51.3967 38.35V39.8125C51.3 39.8125 51.2154 39.8125 51.1188 39.8125H39.8813V39.8Z" fill="white"/>
</svg>
