<svg width="173" height="26" viewBox="0 0 173 26" fill="none" xmlns="http://www.w3.org/2000/svg">
<g clip-path="url(#clip0_636_11565)">
<path d="M84.0292 0.00493706C82.064 -0.0275268 80.1487 0.627112 78.6129 1.85629C76.9933 3.19903 75.8704 5.04747 75.4239 7.10554C75.0861 2.37181 72.8082 0.00493706 68.59 0.00493706C66.6929 -0.0390569 64.843 0.599877 63.3761 1.80577C61.87 3.09738 60.8371 4.85544 60.4408 6.80159V6.44635C60.4578 5.05291 60.2514 3.66577 59.8294 2.33789C59.6873 1.74358 59.4836 1.1657 59.2219 0.613608H54.1089V25.2115H60.5417V11.9214C60.5753 9.68981 61.0815 7.96532 62.0601 6.74795C62.5366 6.15026 63.147 5.67346 63.8419 5.35622C64.5366 5.03897 65.2962 4.8902 66.059 4.92195C67.3412 4.92141 68.244 5.23429 68.7672 5.86059C69.2905 6.48693 69.552 7.5267 69.552 8.97988V25.2115H75.981V11.9253C76.0147 9.69368 76.5124 7.96919 77.4743 6.75182C77.9525 6.14952 78.5668 5.66981 79.2664 5.35229C79.966 5.03477 80.7311 4.88856 81.4984 4.92573C82.7806 4.92521 83.6834 5.23812 84.2067 5.86446C84.7297 6.49073 84.9914 7.53047 84.9914 8.98367V25.2154H91.4204V8.67741C91.4224 5.80314 90.7643 3.63916 89.4457 2.18547C88.1273 0.731785 86.3218 0.00493706 84.0292 0.00493706Z" fill="black"/>
<path d="M106.819 0.00848668C103.175 0.00643869 100.213 1.12936 97.9357 3.37726C95.6578 5.62526 94.519 8.67688 94.519 12.5321V12.6332C94.5215 16.9611 95.7037 20.2325 98.0655 22.4473C100.491 24.5876 103.612 25.7688 106.844 25.7693C110.076 25.7701 113.198 24.5904 115.624 22.451C117.986 20.2368 119.167 16.9486 119.167 12.5865V12.4854C119.169 8.63063 118.023 5.58745 115.729 3.35588C113.434 1.12426 110.464 0.00846042 106.819 0.00848668ZM112.644 13.3422C112.643 18.8195 110.703 21.5582 106.822 21.5582V21.5599C102.973 21.5599 101.049 18.8211 101.052 13.3437V11.5176C101.052 9.21865 101.567 7.44365 102.596 6.1926C103.107 5.57332 103.755 5.08149 104.488 4.75584C105.222 4.43019 106.021 4.27962 106.822 4.31599C107.627 4.28041 108.43 4.43121 109.167 4.75666C109.905 5.08212 110.557 5.57348 111.075 6.1926C112.121 7.44567 112.644 9.22067 112.644 11.5176V13.3422Z" fill="black"/>
<path d="M137.356 0.00456546C135.324 -0.061646 133.334 0.594103 131.737 1.85591C130.18 3.155 129.124 4.95745 128.751 6.95278V6.44598C128.77 5.05267 128.565 3.66535 128.143 2.33753C128 1.74307 127.795 1.16519 127.532 0.613237H122.412V25.2112H128.85V11.9249C128.85 9.72699 129.398 8.01092 130.496 6.77671C131.028 6.17097 131.688 5.69085 132.428 5.37078C133.168 5.0507 133.969 4.8986 134.775 4.92538C137.508 4.92538 138.875 6.27803 138.875 8.98332V25.2149H145.254V8.67705C145.254 5.80277 144.563 3.63879 143.178 2.18511C141.793 0.731413 139.853 0.00456546 137.356 0.00456546Z" fill="black"/>
<path d="M169.557 3.35587C167.262 1.12425 164.294 0.00846042 160.649 0.00848668C157.003 0.00643869 154.042 1.12936 151.764 3.37726C149.487 5.62526 148.348 8.67688 148.348 12.5321V12.6332C148.348 16.9611 149.53 20.2325 151.891 22.4473C154.319 24.5882 157.44 25.7693 160.674 25.7693C163.908 25.7693 167.03 24.5882 169.457 22.4473C171.819 20.2329 173 16.9448 173 12.5827V12.4816C173 8.62933 171.853 5.58742 169.557 3.35587ZM166.471 13.3422C166.469 18.8195 164.529 21.5582 160.649 21.5582V21.5599C156.802 21.5599 154.878 18.8211 154.878 13.3437V11.5176C154.88 9.21865 155.395 7.44365 156.422 6.1926C156.934 5.57324 157.582 5.08135 158.315 4.75569C159.049 4.43003 159.848 4.2795 160.649 4.31599C161.454 4.28059 162.257 4.43146 162.994 4.75691C163.732 5.08234 164.383 5.57361 164.901 6.1926C165.948 7.44567 166.471 9.22067 166.471 11.5176V13.3422Z" fill="black"/>
<path d="M32.118 0.176462C31.9848 0.0792065 31.8274 0.0208105 31.663 0.00774661C31.4987 -0.00531728 31.334 0.0274615 31.1871 0.102449C31.0404 0.177437 30.9171 0.291702 30.8312 0.432579C30.7451 0.573457 30.6997 0.735441 30.7 0.900575V10.4148L16.768 0.176462C16.6348 0.0792065 16.4772 0.0208105 16.313 0.00774661C16.1487 -0.00531728 15.984 0.0274615 15.8371 0.102449C15.6904 0.177437 15.5671 0.291702 15.4811 0.432579C15.3951 0.573457 15.3497 0.735441 15.35 0.900575V10.4148L1.41798 0.176462C1.28478 0.079206 1.1273 0.0208098 0.963002 0.00774636C0.798702 -0.00531708 0.634 0.0274626 0.487158 0.102451C0.340314 0.177439 0.217067 0.291708 0.131079 0.432586C0.0450912 0.573466 -0.000278168 0.735451 1.2832e-06 0.900586V14.3438C0.000514332 14.4845 0.0340376 14.6231 0.0978638 14.7484C0.16169 14.8736 0.25403 14.9821 0.367426 15.0651L14.6995 25.5974C14.8327 25.6947 14.9902 25.753 15.1545 25.7662C15.3187 25.7792 15.4835 25.7464 15.6303 25.6714C15.7772 25.5964 15.9004 25.4822 15.9864 25.3413C16.0724 25.2004 16.1177 25.0384 16.1174 24.8733V15.3591L30.0495 25.5974C30.1827 25.6948 30.3402 25.7532 30.5044 25.7663C30.6687 25.7793 30.8334 25.7465 30.9803 25.6715C31.127 25.5966 31.2503 25.4823 31.3362 25.3413C31.4221 25.2005 31.4673 25.0384 31.467 24.8733V15.3586L45.4018 25.5974C45.5349 25.6948 45.6923 25.7532 45.8567 25.7663C46.021 25.7793 46.1857 25.7465 46.3324 25.6715C46.4793 25.5966 46.6025 25.4823 46.6884 25.3413C46.7743 25.2005 46.8196 25.0384 46.8191 24.8733V11.4318C46.8187 11.2907 46.785 11.1517 46.7208 11.0261C46.6567 10.9005 46.564 10.7918 46.4501 10.7088L32.118 0.176462Z" fill="black"/>
</g>
<defs>
<clipPath id="clip0_636_11565">
<rect width="173" height="26" fill="white"/>
</clipPath>
</defs>
</svg>
