<svg width="135" height="20" viewBox="0 0 135 20" fill="none" xmlns="http://www.w3.org/2000/svg">
<g clip-path="url(#clip0_1628_16108)">
<path d="M65.4394 0.0038353C63.9247 -0.0211369 62.4486 0.482432 61.2649 1.42795C60.0167 2.46083 59.1513 3.8827 58.8072 5.46584C58.5468 1.8245 56.7912 0.0038353 53.5402 0.0038353C52.0781 -0.0300062 50.6523 0.461481 49.5217 1.38909C48.3609 2.38264 47.565 3.73499 47.2595 5.23203V4.95877C47.2726 3.88689 47.1135 2.81986 46.7883 1.79842C46.6787 1.34125 46.5217 0.896731 46.3201 0.472044H42.3794V19.3935H47.3373V9.17037C47.3632 7.45374 47.7533 6.1272 48.5075 5.19077C48.8747 4.731 49.3452 4.36424 49.8807 4.1202C50.4162 3.87617 51.0016 3.76173 51.5895 3.78615C52.5777 3.78574 53.2735 4.02642 53.6767 4.50818C54.0801 4.98998 54.2816 5.7898 54.2816 6.90764V19.3935H59.2365V9.17335C59.2625 7.45672 59.6461 6.13018 60.3874 5.19375C60.7559 4.73044 61.2294 4.36143 61.7686 4.11718C62.3078 3.87294 62.8975 3.76047 63.4888 3.78906C64.4771 3.78866 65.1728 4.02936 65.5762 4.51116C65.9793 4.9929 66.1809 5.7927 66.1809 6.91055V19.3965H71.1358V6.67497C71.1374 4.46399 70.6302 2.79939 69.6139 1.68117C68.5978 0.562949 67.2063 0.0038353 65.4394 0.0038353Z" fill="#A9BAC7"/>
<path d="M83.0039 0.00647188C80.1951 0.0048965 77.9128 0.868685 76.1574 2.59784C74.4018 4.32707 73.5242 6.67447 73.5242 9.64005V9.71777C73.5261 13.047 74.4372 15.5634 76.2575 17.2671C78.1268 18.9135 80.5322 19.8221 83.0232 19.8225C85.5142 19.8231 87.9199 18.9156 89.7899 17.27C91.6106 15.5667 92.5209 13.0373 92.5209 9.68184V9.60411C92.5225 6.63889 91.6392 4.29798 89.8707 2.58139C88.1023 0.864758 85.8134 0.00645168 83.0039 0.00647188ZM87.4931 10.2632C87.4926 14.4765 85.9971 16.5832 83.0064 16.5832V16.5845C80.0396 16.5845 78.5572 14.4777 78.5592 10.2643V8.85966C78.5595 7.09122 78.9561 5.72583 79.7488 4.76348C80.143 4.28712 80.6424 3.90878 81.2077 3.65828C81.7729 3.40778 82.3887 3.29196 83.0064 3.31994C83.6268 3.29257 84.2453 3.40857 84.8137 3.65892C85.3822 3.90927 85.8852 4.28724 86.284 4.76348C87.0901 5.72738 87.4931 7.09277 87.4931 8.85966V10.2632Z" fill="#A9BAC7"/>
<path d="M106.539 0.00351189C104.973 -0.04742 103.439 0.457002 102.209 1.42762C101.009 2.42692 100.195 3.81342 99.9072 5.34829V4.95845C99.9221 3.88667 99.7639 2.8195 99.4389 1.7981C99.3283 1.34082 99.1704 0.896301 98.9677 0.471721H95.0217V19.3932H99.9837V9.17302C99.9833 7.4823 100.406 6.16224 101.252 5.21286C101.662 4.7469 102.171 4.37758 102.741 4.13137C103.312 3.88516 103.929 3.76816 104.55 3.78876C106.656 3.78876 107.71 4.82926 107.71 6.91024V19.3961H112.626V6.67466C112.626 4.46367 112.094 2.79907 111.026 1.68086C109.959 0.562626 108.463 0.00351189 106.539 0.00351189Z" fill="#A9BAC7"/>
<path d="M131.357 2.58138C129.588 0.864755 127.3 0.00645168 124.491 0.00647188C121.681 0.0048965 119.399 0.868685 117.644 2.59784C115.888 4.32707 115.01 6.67447 115.01 9.64005V9.71777C115.01 13.047 115.921 15.5634 117.741 17.2671C119.613 18.914 122.018 19.8225 124.51 19.8225C127.003 19.8225 129.409 18.914 131.279 17.2671C133.1 15.5637 134.01 13.0344 134.01 9.67892V9.60119C134.01 6.63789 133.126 4.29796 131.357 2.58138ZM128.978 10.2632C128.977 14.4765 127.481 16.5832 124.491 16.5832V16.5845C121.526 16.5845 120.044 14.4777 120.044 10.2643V8.85966C120.045 7.09122 120.441 5.72583 121.234 4.76348C121.628 4.28705 122.127 3.90867 122.693 3.65817C123.258 3.40766 123.874 3.29187 124.491 3.31994C125.111 3.2927 125.73 3.40876 126.298 3.6591C126.867 3.90944 127.369 4.28734 127.768 4.76348C128.575 5.72738 128.978 7.09277 128.978 8.85966V10.2632Z" fill="#A9BAC7"/>
<path d="M25.4308 0.135721C25.3281 0.0609093 25.2068 0.0159893 25.0801 0.00594015C24.9534 -0.004109 24.8266 0.0211054 24.7133 0.078788C24.6002 0.136471 24.5052 0.224368 24.439 0.332734C24.3727 0.441102 24.3377 0.565705 24.3379 0.692731V8.01133L13.6003 0.135721C13.4977 0.0609093 13.3762 0.0159893 13.2497 0.00594015C13.123 -0.004109 12.9961 0.0211054 12.8829 0.078788C12.7698 0.136471 12.6748 0.224368 12.6084 0.332734C12.5422 0.441102 12.5072 0.565705 12.5074 0.692731V8.01133L1.76986 0.135721C1.6672 0.0609089 1.54583 0.0159888 1.4192 0.00593996C1.29257 -0.00410884 1.16563 0.0211063 1.05246 0.0787899C0.939286 0.136473 0.844299 0.224372 0.778026 0.33274C0.711754 0.441109 0.676788 0.565713 0.677003 0.69274V11.0337C0.677398 11.1419 0.703235 11.2485 0.752427 11.3449C0.801619 11.4412 0.872786 11.5247 0.960182 11.5885L12.0061 19.6903C12.1088 19.7651 12.2301 19.81 12.3568 19.8201C12.4833 19.8301 12.6103 19.8049 12.7234 19.7472C12.8367 19.6895 12.9317 19.6017 12.9979 19.4933C13.0642 19.3849 13.0991 19.2603 13.0989 19.1333V11.8147L23.8366 19.6903C23.9392 19.7652 24.0606 19.8101 24.1871 19.8202C24.3138 19.8302 24.4407 19.805 24.5539 19.7473C24.667 19.6897 24.762 19.6018 24.8282 19.4933C24.8944 19.385 24.9292 19.2603 24.929 19.1333V11.8143L35.6688 19.6903C35.7713 19.7652 35.8927 19.8101 36.0193 19.8202C36.146 19.8302 36.2729 19.805 36.386 19.7473C36.4992 19.6897 36.5941 19.6018 36.6603 19.4933C36.7266 19.385 36.7614 19.2603 36.7611 19.1333V8.79366C36.7608 8.68514 36.7348 8.57823 36.6853 8.48161C36.6359 8.38499 36.5644 8.30136 36.4767 8.23752L25.4308 0.135721Z" fill="#A9BAC7"/>
</g>
<defs>
<clipPath id="clip0_1628_16108">
<rect width="133.333" height="20" fill="white" transform="translate(0.677002)"/>
</clipPath>
</defs>
</svg>
