<svg width="35" height="35" viewBox="0 0 35 35" fill="none" xmlns="http://www.w3.org/2000/svg">
<path d="M28.204 21.1312L26.7457 18.7104C26.4394 18.1708 26.1623 17.15 26.1623 16.552V12.8625C26.1623 9.43538 24.1498 6.47496 21.2478 5.08954C20.4894 3.74788 19.0894 2.91663 17.4853 2.91663C15.8957 2.91663 14.4665 3.77704 13.7082 5.13329C10.8644 6.54788 8.89567 9.47913 8.89567 12.8625V16.552C8.89567 17.15 8.61859 18.1708 8.31234 18.6958L6.83942 21.1312C6.25609 22.1083 6.12484 23.1875 6.48942 24.1791C6.83942 25.1562 7.67067 25.9145 8.74984 26.2791C11.579 27.2416 14.554 27.7083 17.529 27.7083C20.504 27.7083 23.479 27.2416 26.3082 26.2937C27.329 25.9583 28.1165 25.1854 28.4957 24.1791C28.8748 23.1729 28.7728 22.0645 28.204 21.1312Z" fill="#273B4A"/>
<path d="M21.6273 29.1812C21.0148 30.8729 19.396 32.0833 17.5002 32.0833C16.3481 32.0833 15.2106 31.6166 14.4085 30.7854C13.9419 30.3479 13.5919 29.7645 13.3877 29.1666C13.5773 29.1958 13.7669 29.2104 13.971 29.2395C14.3064 29.2833 14.6564 29.327 15.0064 29.3562C15.8377 29.4291 16.6835 29.4729 17.5294 29.4729C18.3606 29.4729 19.1919 29.4291 20.0085 29.3562C20.3148 29.327 20.621 29.3125 20.9127 29.2687C21.146 29.2395 21.3794 29.2104 21.6273 29.1812Z" fill="#273B4A"/>
</svg>
