<svg width="75" height="70" viewBox="0 0 75 70" fill="none" xmlns="http://www.w3.org/2000/svg">
<path d="M0 8C0 3.58172 3.58172 0 8 0H57C66.9411 0 75 8.05888 75 18V52C75 61.9411 66.9411 70 57 70H18C8.05888 70 0 61.9411 0 52V8Z" fill="#D6AA1B"/>
<path d="M42.8487 24.7255C42.8487 26.3694 41.5097 27.7085 39.8658 27.7085H35.2256C34.4037 27.7085 33.6612 27.377 33.1177 26.8335C32.5741 26.2899 32.2427 25.5475 32.2427 24.7255C32.2427 23.0816 33.5817 21.7426 35.2256 21.7426H39.8658C40.6878 21.7426 41.4302 22.074 41.9737 22.6176C42.5173 23.1611 42.8487 23.9035 42.8487 24.7255Z" fill="white"/>
<path d="M46.6008 25.7596C46.2959 25.5077 45.9512 25.3088 45.58 25.163C45.1955 25.0172 44.811 25.3221 44.7315 25.7198C44.2807 27.9869 42.2788 29.6971 39.866 29.6971H35.2258C33.9 29.6971 32.6538 29.1801 31.7125 28.2388C31.0232 27.5494 30.5459 26.6744 30.3603 25.7331C30.2807 25.3354 29.883 25.0172 29.4985 25.1763C27.9607 25.7994 26.9398 27.2047 26.9398 30.0285V42.9547C26.9398 46.932 29.3129 48.2577 32.2428 48.2577H42.8489C45.7788 48.2577 48.1519 46.932 48.1519 42.9547V30.0285C48.1519 27.8676 47.5553 26.5418 46.6008 25.7596ZM32.2428 35.3316H37.5459C38.0894 35.3316 38.5402 35.7823 38.5402 36.3259C38.5402 36.8695 38.0894 37.3202 37.5459 37.3202H32.2428C31.6993 37.3202 31.2485 36.8695 31.2485 36.3259C31.2485 35.7823 31.6993 35.3316 32.2428 35.3316ZM42.8489 42.6232H32.2428C31.6993 42.6232 31.2485 42.1725 31.2485 41.6289C31.2485 41.0854 31.6993 40.6346 32.2428 40.6346H42.8489C43.3925 40.6346 43.8432 41.0854 43.8432 41.6289C43.8432 42.1725 43.3925 42.6232 42.8489 42.6232Z" fill="white"/>
</svg>
