<svg width="141" height="25" viewBox="0 0 141 25" fill="none" xmlns="http://www.w3.org/2000/svg">
<path d="M20.3279 2.38538H1.52527C0.893843 2.38538 0.355957 2.92326 0.355957 3.57808V5.70624C0.355957 6.36105 0.893843 6.89894 1.52527 6.89894H20.3279C20.9827 6.89894 21.4972 6.36105 21.5206 5.70624V3.60147C21.5206 2.92326 20.9827 2.38538 20.3279 2.38538ZM20.3279 14.1955H1.52527C1.22125 14.1955 0.917229 14.3124 0.706752 14.5463C0.472889 14.7801 0.355957 15.0608 0.355957 15.3882V17.5163C0.355957 18.1712 0.893843 18.709 1.52527 18.709H20.3279C20.9827 18.709 21.4972 18.1945 21.5206 17.5163V15.3882C21.4972 14.71 20.9827 14.1955 20.3279 14.1955ZM12.1193 20.0888H1.52527C1.22125 20.0888 0.917229 20.2058 0.706752 20.4396C0.496275 20.6735 0.355957 20.9541 0.355957 21.2815V23.4097C0.355957 24.0645 0.893843 24.6024 1.52527 24.6024H12.0959C12.7507 24.6024 13.2652 24.0645 13.2652 23.4331V21.3049C13.2886 20.6033 12.7741 20.0655 12.1193 20.0888ZM21.5206 8.27873H1.52527C1.22125 8.27873 0.917229 8.39567 0.706752 8.62953C0.496275 8.86339 0.355957 9.14403 0.355957 9.47144V11.5996C0.355957 12.2544 0.893843 12.7923 1.52527 12.7923H21.4972C22.152 12.7923 22.6665 12.2544 22.6665 11.5996V9.47144C22.6899 8.81662 22.152 8.30212 21.5206 8.27873Z" fill="#A9BAC7"/>
<path d="M43.3869 7.15622C42.8022 6.54818 42.124 6.08045 41.3523 5.75304C40.5805 5.42563 39.762 5.26193 38.9201 5.26193C38.1016 5.23854 37.3064 5.42563 36.5581 5.77643C36.0669 6.01029 35.6226 6.3377 35.2484 6.73527V6.36108C35.2484 6.17399 35.1783 5.9869 35.0613 5.84659C34.9444 5.70627 34.7573 5.61272 34.5468 5.61272H31.9509C31.7639 5.61272 31.5768 5.68288 31.4598 5.84659C31.3195 5.9869 31.2494 6.17399 31.2727 6.36108V23.8541C31.2727 24.0412 31.3429 24.2283 31.4598 24.3686C31.6002 24.5089 31.7639 24.5791 31.9509 24.5791H34.617C34.8041 24.5791 34.9678 24.5089 35.1081 24.3686C35.2484 24.2516 35.342 24.0645 35.3186 23.8541V17.8672C35.6928 18.2881 36.1839 18.5921 36.7218 18.7792C37.4234 19.0365 38.1483 19.1768 38.8967 19.1768C39.7386 19.1768 40.5805 19.0131 41.3523 18.6857C42.124 18.3583 42.8256 17.8906 43.4103 17.2825C44.0183 16.6511 44.486 15.9027 44.8134 15.0842C45.1876 14.1721 45.3513 13.1899 45.3279 12.2077C45.3513 11.2254 45.1642 10.2432 44.8134 9.30776C44.4626 8.53601 43.9949 7.78765 43.3869 7.15622ZM41.0015 13.4939C40.8611 13.8681 40.6507 14.1955 40.37 14.4995C39.8321 15.0842 39.0604 15.4116 38.2653 15.4116C37.8677 15.4116 37.4701 15.3414 37.0959 15.1543C36.7451 14.9906 36.4177 14.7802 36.1371 14.4995C35.8565 14.2189 35.646 13.8681 35.5057 13.4939C35.2016 12.6988 35.2016 11.8335 35.5057 11.0384C35.646 10.6642 35.8799 10.3368 36.1371 10.0561C36.4177 9.77549 36.7451 9.54163 37.0959 9.37792C37.4701 9.21422 37.8677 9.12067 38.2653 9.12067C38.6862 9.12067 39.0604 9.19083 39.458 9.37792C39.8088 9.54163 40.1362 9.7521 40.3934 10.0327C40.6741 10.3134 40.8611 10.6408 41.0248 11.015C41.3055 11.8335 41.2821 12.6988 41.0015 13.4939ZM59.617 5.63611H56.9743C56.7872 5.63611 56.6002 5.70627 56.4832 5.84659C56.3429 5.9869 56.2727 6.174 56.2727 6.38447V6.71188C55.9453 6.31431 55.5244 6.01029 55.08 5.79981C54.3551 5.44902 53.5599 5.28532 52.7648 5.28532C51.0576 5.28532 49.4439 5.96352 48.2278 7.15622C47.5964 7.78765 47.1053 8.53602 46.7779 9.35454C46.4037 10.2666 46.2166 11.2488 46.24 12.2544C46.2166 13.2367 46.4037 14.2189 46.7779 15.1543C47.1287 15.9729 47.5964 16.7212 48.2278 17.3527C49.4205 18.5688 51.0576 19.247 52.7414 19.247C53.5365 19.2703 54.3317 19.0833 55.0567 18.7325C55.501 18.4986 55.9453 18.1946 56.2727 17.8204V18.1712C56.2727 18.3583 56.3429 18.5454 56.4832 18.6857C56.6235 18.8026 56.7872 18.8962 56.9743 18.8962H59.617C59.8041 18.8962 59.9912 18.826 60.1081 18.6857C60.2484 18.5454 60.3186 18.3583 60.3186 18.1712V6.40786C60.3186 6.22077 60.2484 6.03368 60.1315 5.89336C59.9912 5.72965 59.8041 5.63611 59.617 5.63611ZM56.0389 13.4939C55.8986 13.8681 55.6881 14.1955 55.4074 14.4995C55.1268 14.7802 54.8228 15.014 54.472 15.1777C53.7236 15.5285 52.8583 15.5285 52.11 15.1777C51.7592 15.014 51.4318 14.7802 51.1511 14.4995C50.8705 14.2189 50.66 13.8681 50.5197 13.4939C50.2391 12.6988 50.2391 11.8335 50.5197 11.0384C50.66 10.6642 50.8705 10.3602 51.1511 10.0561C51.4318 9.77549 51.7358 9.54163 52.11 9.37792C52.8583 9.02713 53.7236 9.02713 54.4486 9.37792C54.7994 9.54163 55.1268 9.7521 55.3841 10.0327C55.6413 10.3134 55.8518 10.6408 56.0155 11.015C56.3429 11.8335 56.3429 12.6988 56.0389 13.4939ZM85.95 11.9036C85.5758 11.5762 85.1315 11.2956 84.6638 11.1085C84.1727 10.898 83.6348 10.7577 83.1203 10.6408L81.109 10.2432C80.5945 10.1497 80.2204 10.0094 80.0333 9.84565C79.8696 9.72872 79.7526 9.54163 79.7526 9.33115C79.7526 9.12067 79.8696 8.93358 80.1268 8.76988C80.4776 8.58279 80.8518 8.48924 81.2494 8.51263C81.7639 8.51263 82.2784 8.62956 82.7461 8.81665C83.2138 9.02713 83.6582 9.23761 84.0791 9.51824C84.6638 9.89243 85.1783 9.82227 85.5291 9.40131L86.4879 8.30215C86.675 8.11506 86.7685 7.8812 86.7919 7.62395C86.7685 7.34331 86.6282 7.10945 86.4177 6.92236C86.0202 6.57156 85.3654 6.19738 84.5001 5.8232C83.6348 5.44902 82.5356 5.26193 81.2494 5.26193C80.4542 5.23854 79.6825 5.35547 78.9341 5.58933C78.3027 5.79981 77.6946 6.10384 77.1567 6.5014C76.6656 6.87559 76.2915 7.34331 76.0108 7.90458C75.7536 8.44247 75.6133 9.02713 75.6133 9.61179C75.6133 10.7109 75.9407 11.5996 76.5955 12.2544C77.2503 12.9093 78.1156 13.3536 79.1914 13.5641L81.2961 14.0318C81.7405 14.102 82.2082 14.2423 82.6292 14.4528C82.863 14.5463 83.0033 14.7802 83.0033 15.0374C83.0033 15.2713 82.8864 15.4818 82.6292 15.6688C82.3719 15.8559 81.951 15.9729 81.3897 15.9729C80.8284 15.9729 80.2437 15.8559 79.7292 15.5987C79.2381 15.3648 78.7938 15.0608 78.3728 14.71C78.1857 14.5697 77.9987 14.4528 77.7648 14.3592C77.5309 14.2891 77.2269 14.3592 76.9229 14.6165L75.777 15.4818C75.4495 15.7156 75.2858 16.1132 75.3794 16.4874C75.4495 16.8849 75.7536 17.2591 76.3382 17.7035C77.7882 18.6857 79.5188 19.2002 81.2727 19.1534C82.0913 19.1534 82.9098 19.0599 83.6815 18.826C84.3597 18.6155 84.9912 18.3115 85.5524 17.8906C86.0669 17.5164 86.4879 17.0253 86.7685 16.4406C87.0492 15.8793 87.1895 15.2713 87.1895 14.6399C87.2129 14.0786 87.0959 13.5173 86.8621 13.0028C86.6282 12.6286 86.3242 12.2311 85.95 11.9036ZM97.5029 15.1076C97.3859 14.8971 97.1755 14.7568 96.9182 14.71C96.6843 14.71 96.4271 14.7802 96.24 14.9205C95.9126 15.131 95.5384 15.2479 95.1642 15.2713C95.0473 15.2713 94.907 15.2479 94.7901 15.2245C94.6497 15.2011 94.5328 15.131 94.4393 15.0374C94.3223 14.9205 94.2288 14.7802 94.1586 14.6399C94.0651 14.406 94.0183 14.1721 94.0417 13.9383V9.14406H97.4561C97.6666 9.14406 97.8537 9.05052 97.994 8.9102C98.1343 8.76988 98.2278 8.60617 98.2278 8.3957V6.36108C98.2278 6.15061 98.1577 5.96352 97.994 5.84659C97.8537 5.70627 97.6666 5.63611 97.4795 5.63611H94.0417V2.36202C94.0417 2.17493 93.9715 1.96445 93.8312 1.84752C93.6909 1.73059 93.5272 1.66043 93.3401 1.63704H90.6741C90.487 1.63704 90.2999 1.7072 90.1596 1.84752C90.0192 1.98784 89.9257 2.17493 89.9257 2.36202V5.63611H88.4056C88.2185 5.63611 88.0314 5.70627 87.8911 5.86997C87.7742 6.01029 87.704 6.19738 87.704 6.38447V8.41908C87.704 8.60617 87.7742 8.79327 87.8911 8.93359C88.008 9.09729 88.1951 9.16745 88.4056 9.16745H89.9257V14.8737C89.9023 15.5519 90.0426 16.2301 90.3233 16.8382C90.5805 17.3527 90.9079 17.797 91.3523 18.1712C91.7732 18.522 92.2643 18.7792 92.8022 18.9195C93.3401 19.0833 93.9014 19.1768 94.4626 19.1768C95.1876 19.1768 95.936 19.0599 96.6376 18.826C97.2924 18.6155 97.877 18.2413 98.3448 17.7502C98.6488 17.4462 98.6722 16.9551 98.4383 16.6043L97.5029 15.1076ZM111.956 5.63611H109.313C109.126 5.63611 108.962 5.70627 108.822 5.84659C108.682 5.9869 108.611 6.174 108.611 6.38447V6.71188C108.284 6.31431 107.886 6.01029 107.419 5.79981C106.694 5.44902 105.899 5.28532 105.103 5.28532C103.396 5.28532 101.783 5.96352 100.566 7.15622C99.935 7.78765 99.4439 8.53602 99.1165 9.35454C98.7423 10.2666 98.5553 11.2488 98.5786 12.2311C98.5553 13.2133 98.7423 14.1955 99.1165 15.131C99.4439 15.9495 99.9584 16.6979 100.566 17.3293C101.759 18.5454 103.373 19.2236 105.08 19.2236C105.875 19.247 106.67 19.0599 107.395 18.7325C107.863 18.4986 108.284 18.1946 108.611 17.8204V18.1712C108.611 18.3583 108.682 18.5454 108.822 18.6623C108.962 18.8026 109.126 18.8728 109.313 18.8728H111.956C112.353 18.8728 112.657 18.5688 112.657 18.1712V6.40786C112.657 6.22077 112.587 6.03368 112.47 5.89336C112.353 5.72965 112.166 5.63611 111.956 5.63611ZM108.401 13.4939C108.261 13.8681 108.05 14.1955 107.769 14.4995C107.489 14.7802 107.185 15.014 106.834 15.1777C106.46 15.3414 106.062 15.435 105.641 15.435C105.22 15.435 104.846 15.3414 104.472 15.1777C104.121 15.014 103.794 14.7802 103.513 14.4995C103.233 14.2189 103.022 13.8681 102.905 13.4939C102.624 12.6988 102.624 11.8335 102.905 11.0384C103.045 10.6642 103.256 10.3368 103.513 10.0561C103.794 9.77549 104.121 9.54163 104.472 9.37792C104.846 9.21422 105.244 9.12067 105.641 9.12067C106.039 9.12067 106.436 9.19083 106.834 9.37792C107.185 9.54163 107.489 9.7521 107.769 10.0327C108.05 10.3134 108.261 10.6408 108.401 11.015C108.705 11.8101 108.705 12.6988 108.401 13.4939ZM126.455 14.9205L124.935 13.7512C124.654 13.5173 124.374 13.4471 124.14 13.5407C123.929 13.6342 123.742 13.7746 123.579 13.9383C123.251 14.3358 122.854 14.6866 122.433 14.9906C121.965 15.2479 121.474 15.3882 120.959 15.3414C120.351 15.3414 119.79 15.1777 119.299 14.8269C118.808 14.4761 118.434 14.0084 118.247 13.4238C118.106 13.0262 118.036 12.6286 118.036 12.2311C118.036 11.8101 118.106 11.4125 118.247 10.9916C118.387 10.6174 118.574 10.29 118.855 10.0094C119.135 9.72872 119.439 9.49485 119.79 9.35454C120.164 9.19083 120.562 9.09729 120.983 9.09729C121.497 9.0739 122.012 9.21422 122.456 9.47147C122.9 9.7521 123.275 10.1029 123.602 10.5239C123.742 10.6876 123.929 10.8279 124.14 10.9214C124.374 11.015 124.654 10.9448 124.935 10.7109L126.455 9.56501C126.642 9.44808 126.783 9.26099 126.853 9.05052C126.946 8.81665 126.923 8.5594 126.783 8.34893C126.198 7.43686 125.403 6.6885 124.444 6.15061C123.438 5.58934 122.246 5.28532 120.913 5.28532C119.977 5.28532 119.042 5.4724 118.153 5.8232C117.311 6.17399 116.563 6.66511 115.931 7.29654C115.3 7.92797 114.785 8.67634 114.435 9.51824C113.71 11.2722 113.71 13.2367 114.435 14.9906C114.785 15.8092 115.276 16.5809 115.931 17.189C117.264 18.4986 119.042 19.2002 120.913 19.2002C122.246 19.2002 123.438 18.8962 124.444 18.3349C125.403 17.797 126.221 17.0486 126.806 16.1132C126.923 15.9027 126.946 15.6455 126.876 15.435C126.783 15.2479 126.642 15.0608 126.455 14.9205ZM140.534 17.6567L136.348 11.5295L139.926 6.80543C140.089 6.59495 140.16 6.29093 140.066 6.03368C139.996 5.84659 139.832 5.65949 139.388 5.65949H136.558C136.394 5.65949 136.231 5.70627 136.09 5.77643C135.903 5.86997 135.763 6.01029 135.669 6.17399L132.816 10.1731H132.138V0.724978C132.138 0.537887 132.068 0.350794 131.928 0.210476C131.787 0.0701576 131.624 0 131.436 0H128.794C128.607 0 128.42 0.0701576 128.279 0.210476C128.139 0.350794 128.069 0.514501 128.069 0.724978V18.1478C128.069 18.3583 128.139 18.522 128.279 18.6623C128.42 18.8026 128.607 18.8728 128.794 18.8728H131.436C131.624 18.8728 131.811 18.8026 131.928 18.6623C132.068 18.522 132.138 18.3349 132.138 18.1478V13.5407H132.886L135.997 18.3115C136.184 18.6623 136.535 18.8728 136.909 18.8728H139.879C140.323 18.8728 140.51 18.6623 140.604 18.4752C140.721 18.1946 140.697 17.8906 140.534 17.6567ZM74.631 5.63611H71.661C71.4271 5.63611 71.2166 5.70627 71.0529 5.86997C70.9126 6.01029 70.819 6.17399 70.7723 6.36108L68.574 14.4995H68.0361L65.6974 6.36108C65.6507 6.19738 65.5805 6.03368 65.4636 5.86997C65.3233 5.70627 65.1362 5.61272 64.9257 5.61272H61.9089C61.5113 5.61272 61.2774 5.72965 61.1605 6.01029C61.0903 6.24415 61.0903 6.5014 61.1605 6.73527L64.9023 18.1946C64.9725 18.3583 65.0426 18.5454 65.1829 18.6623C65.3233 18.8026 65.5337 18.8728 65.7442 18.8728H67.3345L67.1942 19.247L66.8434 20.2993C66.7264 20.6268 66.5394 20.9074 66.2587 21.1179C66.0015 21.305 65.6974 21.4219 65.37 21.3985C65.0894 21.3985 64.8321 21.3283 64.5749 21.2348C64.3176 21.1179 64.0838 20.9776 63.8733 20.8138C63.6862 20.6735 63.4524 20.6034 63.1951 20.6034H63.1717C62.8911 20.6268 62.6338 20.7671 62.4935 21.0243L61.5581 22.4041C61.1839 23.0122 61.3944 23.3863 61.6282 23.5968C62.1427 24.0645 62.7274 24.4153 63.3822 24.6258C64.1072 24.8831 64.8555 25 65.6039 25C66.9603 25 68.0828 24.6258 68.9481 23.9008C69.8368 23.1057 70.515 22.0767 70.8424 20.9074L75.1923 6.73527C75.2858 6.47802 75.3092 6.22077 75.2157 5.98691C75.1923 5.8232 75.0286 5.63611 74.631 5.63611Z" fill="#A9BAC7"/>
</svg>
