<svg width="23" height="24" viewBox="0 0 23 24" fill="none" xmlns="http://www.w3.org/2000/svg">
<g clip-path="url(#clip0_636_5929)">
<path d="M11.2313 21.9622L1.28804 12.0189C-0.429216 10.3016 -0.42948 7.52196 1.28804 5.80443L2.53094 4.56154C3.55899 3.53352 5.23165 3.53352 6.2597 4.56154L8.74549 7.04732C9.7735 8.07534 9.7735 9.74804 8.74549 10.7761C8.40277 11.1187 8.40277 11.6763 8.74549 12.0189L11.2313 14.5048C11.574 14.8474 12.1315 14.8474 12.4742 14.5048C13.5023 13.4768 15.1749 13.4768 16.2029 14.5048L18.6887 16.9906C19.7191 18.021 19.7192 19.6888 18.6887 20.7193L17.4458 21.9622C15.7284 23.6795 12.9488 23.6797 11.2313 21.9622Z" fill="#8C8C8C"/>
<path opacity="0.3" d="M21.6212 11.2964C21.1358 11.2964 20.7423 10.9029 20.7423 10.4175C20.7423 6.05607 17.194 2.50773 12.8325 2.50773C12.3471 2.50773 11.9536 2.11427 11.9536 1.62887C11.9536 1.14347 12.3471 0.75 12.8325 0.75C18.1632 0.75 22.5 5.08681 22.5 10.4175C22.5001 10.9029 22.1066 11.2964 21.6212 11.2964Z" fill="#8C8C8C"/>
<path opacity="0.3" d="M14.5902 11.2962C14.1048 11.2962 13.7114 10.9028 13.7114 10.4174C13.7114 9.93275 13.3171 9.53849 12.8325 9.53849C12.3471 9.53849 11.9536 9.14502 11.9536 8.65963C11.9536 8.17423 12.3471 7.78076 12.8325 7.78076C14.2863 7.78076 15.4691 8.96354 15.4691 10.4174C15.4691 10.9028 15.0756 11.2962 14.5902 11.2962Z" fill="#8C8C8C"/>
<path opacity="0.3" d="M18.1057 11.2966C17.6203 11.2966 17.2268 10.9031 17.2268 10.4177C17.2268 7.99466 15.2556 6.02336 12.8325 6.02336C12.3471 6.02336 11.9536 5.62989 11.9536 5.14449C11.9536 4.65909 12.3471 4.26562 12.8325 4.26562C16.2247 4.26562 18.9846 7.02545 18.9846 10.4177C18.9846 10.9031 18.5911 11.2966 18.1057 11.2966Z" fill="#8C8C8C"/>
</g>
<defs>
<clipPath id="clip0_636_5929">
<rect width="22.5" height="22.5" fill="white" transform="translate(0 0.75)"/>
</clipPath>
</defs>
</svg>
