<svg width="26" height="41" viewBox="0 0 26 41" fill="none" xmlns="http://www.w3.org/2000/svg">
<path d="M17.509 40.5H8.06784C3.72962 40.5 0.200195 36.9953 0.200195 32.6875V8.3125C0.200195 4.00469 3.72962 0.5 8.06784 0.5H17.509C21.8472 0.5 25.3766 4.00469 25.3766 8.3125V32.6875C25.3766 36.9953 21.8472 40.5 17.509 40.5ZM8.06784 3.625C5.46491 3.625 3.34725 5.72781 3.34725 8.3125V32.6875C3.34725 35.2722 5.46491 37.375 8.06784 37.375H17.509C20.1119 37.375 22.2296 35.2722 22.2296 32.6875V8.3125C22.2296 5.72781 20.1119 3.625 17.509 3.625H8.06784Z" fill="#D6AA1B"/>
<path d="M14.3622 34.25H11.2151C10.3461 34.25 9.6416 33.5505 9.6416 32.6875C9.6416 31.8245 10.3461 31.125 11.2151 31.125H14.3622C15.2312 31.125 15.9357 31.8245 15.9357 32.6875C15.9357 33.5505 15.2312 34.25 14.3622 34.25Z" fill="#D6AA1B"/>
<path d="M14.3622 9.875H11.2151C10.3461 9.875 9.6416 9.17547 9.6416 8.3125C9.6416 7.44953 10.3461 6.75 11.2151 6.75H14.3622C15.2312 6.75 15.9357 7.44953 15.9357 8.3125C15.9357 9.17547 15.2312 9.875 14.3622 9.875Z" fill="#D6AA1B"/>
</svg>
