<svg width="75" height="70" viewBox="0 0 75 70" fill="none" xmlns="http://www.w3.org/2000/svg">
<path d="M0 8C0 3.58172 3.58172 0 8 0H57C66.9411 0 75 8.05888 75 18V52C75 61.9411 66.9411 70 57 70H18C8.05888 70 0 61.9411 0 52V8Z" fill="#D6AA1B"/>
<path d="M31.1976 29.1973L36.9744 23.4234C37.1092 23.2887 37.2632 23.1925 37.4366 23.1155C37.7832 22.9615 38.1875 22.9615 38.5342 23.1155C38.7075 23.1925 38.8615 23.2887 38.9963 23.4234L44.7732 29.1973C45.3316 29.7554 45.3316 30.6792 44.7732 31.2374C44.4843 31.5261 44.1184 31.6608 43.7526 31.6608C43.3867 31.6608 43.0208 31.5261 42.732 31.2374L39.4199 27.927V39.8404C39.4199 40.6295 38.7652 41.2839 37.9757 41.2839C37.1862 41.2839 36.5315 40.6295 36.5315 39.8404V27.927L33.2195 31.2374C32.661 31.7955 31.7367 31.7955 31.1783 31.2374C30.6199 30.6792 30.6391 29.7747 31.1976 29.1973ZM50.0108 45.0561C46.1403 46.3456 42.0773 47 37.995 47C33.9127 47 29.8496 46.3456 25.9791 45.0561C25.2281 44.8059 24.8238 43.9784 25.0741 43.2278C25.3244 42.4771 26.1524 42.0537 26.9034 42.3232C34.0667 44.7097 41.9425 44.7097 49.1058 42.3232C49.8568 42.073 50.6848 42.4771 50.9351 43.2278C51.1662 43.9976 50.7618 44.8059 50.0108 45.0561Z" fill="white"/>
</svg>
