<svg width="35" height="35" viewBox="0 0 35 35" fill="none" xmlns="http://www.w3.org/2000/svg">
<path d="M30.625 32.0833H4.375C3.77708 32.0833 3.28125 31.5875 3.28125 30.9896C3.28125 30.3916 3.77708 29.8958 4.375 29.8958H30.625C31.2229 29.8958 31.7188 30.3916 31.7188 30.9896C31.7188 31.5875 31.2229 32.0833 30.625 32.0833Z" fill="#273B4A"/>
<path d="M27.7375 5.07503C24.9083 2.24586 22.1375 2.17294 19.2354 5.07503L17.4708 6.83961C17.325 6.98544 17.2666 7.21878 17.325 7.42294C18.4333 11.2875 21.525 14.3792 25.3896 15.4875C25.4479 15.5021 25.5062 15.5167 25.5646 15.5167C25.725 15.5167 25.8708 15.4584 25.9875 15.3417L27.7375 13.5771C29.1812 12.1479 29.8812 10.7625 29.8812 9.36253C29.8958 7.91878 29.1958 6.51878 27.7375 5.07503Z" fill="#273B4A"/>
<path d="M22.7646 16.8146C22.3417 16.6104 21.9334 16.4063 21.5396 16.1729C21.2188 15.9834 20.9126 15.7792 20.6063 15.5604C20.3584 15.4 20.0667 15.1667 19.7896 14.9334C19.7605 14.9188 19.6584 14.8313 19.5417 14.7146C19.0605 14.3063 18.5209 13.7813 18.0396 13.1979C17.9959 13.1688 17.923 13.0667 17.8209 12.9354C17.6751 12.7604 17.4271 12.4688 17.2084 12.1334C17.0334 11.9146 16.8292 11.5938 16.6396 11.2729C16.4063 10.8792 16.2021 10.4854 15.998 10.0771C15.9148 9.89886 15.8389 9.72303 15.7682 9.55062C15.6301 9.2133 15.1938 9.11671 14.936 9.37447L6.32922 17.9813C6.13964 18.1709 5.96464 18.5354 5.92089 18.7834L5.13339 24.3688C4.98756 25.3604 5.26464 26.2938 5.87714 26.9209C6.40214 27.4313 7.13131 27.7084 7.91881 27.7084C8.09381 27.7084 8.26881 27.6938 8.44381 27.6646L14.0438 26.8771C14.3063 26.8334 14.6709 26.6584 14.8459 26.4688L23.4455 17.8691C23.7051 17.6096 23.6065 17.1659 23.2669 17.0268C23.1039 16.96 22.9377 16.8896 22.7646 16.8146Z" fill="#273B4A"/>
</svg>
