<svg width="24" height="24" viewBox="0 0 24 24" fill="none" xmlns="http://www.w3.org/2000/svg">
<path d="M8.67177 14.1566C8.67177 13.6388 9.09148 13.2191 9.60924 13.2191H14.3903C15.6341 13.2686 15.6332 15.045 14.3903 15.0941H9.60924C9.09148 15.0941 8.67177 14.6744 8.67177 14.1566ZM23.9607 4.34516L22.1244 10.5427V18.3752C22.1244 21.4767 19.6011 24 16.4996 24H7.49994C4.39843 24 1.87514 21.4767 1.87514 18.3752V10.4067C1.87514 10.4023 1.87575 10.3981 1.8758 10.3937L0.0407063 4.35125C-0.109757 3.85585 0.169889 3.33227 0.665293 3.18181C1.16093 3.03125 1.68432 3.31099 1.83469 3.8064L3.55452 9.46926H20.487L22.163 3.81249C22.3101 3.31605 22.8321 3.03289 23.3282 3.17998C23.8247 3.32707 24.1078 3.84877 23.9607 4.34516ZM20.2495 11.3442H3.75007V18.3752C3.75007 20.4429 5.43226 22.1251 7.49994 22.1251H16.4996C18.5673 22.1251 20.2495 20.4429 20.2495 18.3752V11.3442ZM11.9529 7.59123C11.4207 7.59128 10.8886 7.42619 10.4444 7.09606C8.70519 5.8033 7.76815 4.24551 7.73449 2.59111C7.7105 0.42003 10.2827 -0.782365 11.9529 0.571994C13.6241 -0.782646 16.1953 0.420546 16.1713 2.59111C16.1376 4.24551 15.2006 5.8033 13.4614 7.09606C13.0174 7.42614 12.4851 7.59119 11.9529 7.59123ZM9.60929 2.56374C9.64177 3.88964 10.6889 4.94158 11.563 5.59129C11.7926 5.76205 12.1133 5.76195 12.3429 5.59129C13.2169 4.94158 14.264 3.8896 14.2966 2.56369C14.2662 1.66808 12.9213 1.64394 12.8904 2.53196C12.8904 3.04972 12.4707 3.46942 11.953 3.46942C11.4352 3.46942 11.0155 3.04972 11.0155 2.53196C11.0155 2.15786 10.7132 1.87573 10.3124 1.87573C9.92742 1.87578 9.61379 2.18364 9.60929 2.56374Z" fill="#273B4A"/>
</svg>
