<svg width="41" height="41" viewBox="0 0 41 41" fill="none" xmlns="http://www.w3.org/2000/svg">
<path d="M22.0621 20.0108C21.662 20.0108 21.262 19.8583 20.9569 19.5532C20.3464 18.9431 20.3464 17.9539 20.9569 17.3438L27.5882 10.7154C28.1987 10.1053 29.1883 10.1053 29.7987 10.7154C30.409 11.3256 30.4091 12.3148 29.7987 12.9249L23.1673 19.5532C22.8621 19.8583 22.4621 20.0108 22.0621 20.0108Z" fill="#D6AA1B"/>
<path d="M34.0878 0.669945L9.77275 7.29831H9.77283C6.30994 8.24203 5.14994 12.5913 7.69377 15.134L15.4304 22.8671L12.1146 26.1813C11.5042 26.7915 11.5042 27.7807 12.1146 28.3908C12.725 29.0009 13.7146 29.0009 14.3251 28.3908L17.6408 25.0766L25.3774 32.8096C27.9129 35.3441 32.2709 34.1982 33.2167 30.7316L39.8481 6.42763C40.8017 2.93281 37.5867 -0.28385 34.0878 0.669945ZM36.8322 5.60554L30.2008 29.9096C29.8901 31.0485 28.4416 31.4535 27.5879 30.6002L9.90428 12.9245C9.05407 12.0746 9.44717 10.6257 10.5952 10.3128H10.5953L34.9102 3.68444C36.0846 3.36424 37.149 4.4445 36.8322 5.60554Z" fill="#D6AA1B"/>
<path d="M2.62531 37.8757C2.01487 37.2655 2.01487 36.2763 2.62531 35.6663L7.69366 30.6002C8.3041 29.99 9.29373 29.99 9.90409 30.6002C10.5145 31.2104 10.5145 32.1995 9.90409 32.8096L4.83574 37.8757C4.22538 38.4858 3.23575 38.4858 2.62531 37.8757Z" fill="#D6AA1B"/>
<path d="M9.25666 40.0427C8.64622 39.4326 8.64622 38.4434 9.25666 37.8333L14.325 32.7672C14.9355 32.157 15.9251 32.157 16.5354 32.7672C17.1458 33.3774 17.1459 34.3666 16.5354 34.9766L11.4672 40.0427C10.8567 40.6529 9.8671 40.6529 9.25666 40.0427Z" fill="#D6AA1B"/>
<path d="M0.45783 31.2468C-0.15261 30.6366 -0.15261 29.6474 0.45783 29.0374L5.52618 23.9713C6.13662 23.3611 7.12625 23.3611 7.73661 23.9713C8.34705 24.5815 8.34705 25.5706 7.73661 26.1807L2.66826 31.2468C2.0579 31.8569 1.06827 31.857 0.45783 31.2468Z" fill="#D6AA1B"/>
</svg>
