<svg width="44" height="43" viewBox="0 0 44 43" fill="none" xmlns="http://www.w3.org/2000/svg">
<path d="M2 1.5H15.2415C17.4506 1.5 19.2415 3.29086 19.2415 5.5V14.7415C19.2415 16.9506 17.4506 18.7415 15.2415 18.7415H6C3.79086 18.7415 2 16.9506 2 14.7415V1.5Z" stroke="#D6AA1B" stroke-width="3" stroke-linejoin="round"/>
<path d="M13.2004 7.89941H8.40039" stroke="#D6AA1B" stroke-width="3" stroke-linecap="round" stroke-linejoin="round"/>
<path d="M2 24.2578H15.2415C17.4506 24.2578 19.2415 26.0487 19.2415 28.2578V37.4993C19.2415 39.7085 17.4506 41.4993 15.2415 41.4993H6C3.79086 41.4993 2 39.7085 2 37.4993V24.2578Z" stroke="#D6AA1B" stroke-width="3" stroke-linejoin="round"/>
<path d="M13.2004 31.0996H8.40039" stroke="#D6AA1B" stroke-width="3" stroke-linecap="round" stroke-linejoin="round"/>
<path d="M24.7598 1.5H38.0013C40.2104 1.5 42.0013 3.29086 42.0013 5.5V14.7415C42.0013 16.9506 40.2104 18.7415 38.0013 18.7415H28.7598C26.5506 18.7415 24.7598 16.9506 24.7598 14.7415V1.5Z" stroke="#D6AA1B" stroke-width="3" stroke-linejoin="round"/>
<path d="M35.6018 7.89941H30.8018" stroke="#D6AA1B" stroke-width="3" stroke-linecap="round" stroke-linejoin="round"/>
<path d="M24.7598 24.2578H38.0013C40.2104 24.2578 42.0013 26.0487 42.0013 28.2578V37.4993C42.0013 39.7085 40.2104 41.4993 38.0013 41.4993H28.7598C26.5506 41.4993 24.7598 39.7085 24.7598 37.4993V24.2578Z" stroke="#D6AA1B" stroke-width="3" stroke-linejoin="round"/>
<path d="M35.6018 31.0996H30.8018" stroke="#D6AA1B" stroke-width="3" stroke-linecap="round" stroke-linejoin="round"/>
</svg>
