<svg width="91" height="85" viewBox="0 0 91 85" fill="none" xmlns="http://www.w3.org/2000/svg">
<path d="M0 8C0 3.58172 3.58172 0 8 0H72.0714C82.0126 0 90.0714 8.05888 90.0714 18V67C90.0714 76.9411 82.0126 85 72.0714 85H18C8.05885 85 0 76.9411 0 67V8Z" fill="#D6AA1B"/>
<path d="M37.0417 46.75C34.3713 46.75 32.2084 48.9875 32.2084 51.75C32.2084 52.6875 32.4621 53.575 32.9092 54.325C33.743 55.775 35.2775 56.75 37.0417 56.75C38.8059 56.75 40.3405 55.775 41.1742 54.325C41.6213 53.575 41.875 52.6875 41.875 51.75C41.875 48.9875 39.7121 46.75 37.0417 46.75ZM39.4221 51.3375L36.8484 53.8C36.6792 53.9625 36.4496 54.05 36.2321 54.05C36.0025 54.05 35.773 53.9625 35.5917 53.775L34.3955 52.5375C34.045 52.175 34.045 51.575 34.3955 51.2125C34.7459 50.85 35.3259 50.85 35.6763 51.2125L36.2563 51.8125L38.1896 49.9625C38.5521 49.6125 39.1321 49.6375 39.4705 50.0125C39.8088 50.3875 39.7846 50.9875 39.4221 51.3375Z" fill="white"/>
<path d="M56.9791 43.625H53.9583C52.6291 43.625 51.5416 44.75 51.5416 46.125C51.5416 47.5 52.6291 48.625 53.9583 48.625H56.9791C57.3175 48.625 57.5833 48.35 57.5833 48V44.25C57.5833 43.9 57.3175 43.625 56.9791 43.625Z" fill="white"/>
<path d="M50.9737 34.75C51.3362 35.1125 51.0341 35.675 50.5266 35.675L40.5216 35.6625C39.9416 35.6625 39.6516 34.9375 40.0625 34.5125L42.177 32.3125C43.9654 30.475 46.8533 30.475 48.6416 32.3125L50.9254 34.7C50.9375 34.7125 50.9616 34.7375 50.9737 34.75Z" fill="white"/>
<path d="M57.4262 51.325C56.6891 53.9 54.5625 55.5 51.6625 55.5H43.8083C43.3371 55.5 43.035 54.9625 43.2283 54.5125C43.5908 53.6375 43.8204 52.65 43.8204 51.75C43.8204 47.9625 40.8358 44.875 37.1746 44.875C36.2562 44.875 35.3621 45.075 34.5404 45.45C34.0933 45.65 33.5496 45.3375 33.5496 44.8375V43C33.5496 39.6 35.5312 37.225 38.6125 36.825C38.9146 36.775 39.2408 36.75 39.5791 36.75H51.6625C51.9766 36.75 52.2787 36.7625 52.5687 36.8125C55.0096 37.1 56.7737 38.6375 57.4262 40.925C57.5471 41.3375 57.2571 41.75 56.8462 41.75H54.0791C51.4571 41.75 49.3787 44.225 49.9466 47.0375C50.3454 49.0875 52.1821 50.5 54.2 50.5H56.8462C57.2691 50.5 57.5471 50.925 57.4262 51.325Z" fill="white"/>
</svg>
