<svg width="35" height="35" viewBox="0 0 35 35" fill="none" xmlns="http://www.w3.org/2000/svg">
<path d="M23.3332 6.19788C23.3332 8.00621 21.8603 9.47913 20.0519 9.47913H14.9478C14.0436 9.47913 13.2269 9.11454 12.629 8.51663C12.0311 7.91871 11.6665 7.10204 11.6665 6.19788C11.6665 4.38954 13.1394 2.91663 14.9478 2.91663H20.0519C20.9561 2.91663 21.7728 3.28121 22.3707 3.87913C22.9686 4.47704 23.3332 5.29371 23.3332 6.19788Z" fill="#273B4A"/>
<path d="M27.4606 7.33545C27.1252 7.05837 26.746 6.83962 26.3377 6.6792C25.9147 6.51879 25.4918 6.8542 25.4043 7.2917C24.9085 9.78545 22.7064 11.6667 20.0522 11.6667H14.9481C13.4897 11.6667 12.1189 11.098 11.0835 10.0625C10.3252 9.3042 9.80016 8.3417 9.596 7.30629C9.5085 6.86879 9.071 6.51879 8.64808 6.69379C6.95641 7.3792 5.8335 8.92504 5.8335 12.0313V26.25C5.8335 30.625 8.44391 32.0834 11.6668 32.0834H23.3335C26.5564 32.0834 29.1668 30.625 29.1668 26.25V12.0313C29.1668 9.6542 28.5106 8.19587 27.4606 7.33545ZM11.6668 17.8646H17.5002C18.0981 17.8646 18.5939 18.3605 18.5939 18.9584C18.5939 19.5563 18.0981 20.0521 17.5002 20.0521H11.6668C11.0689 20.0521 10.5731 19.5563 10.5731 18.9584C10.5731 18.3605 11.0689 17.8646 11.6668 17.8646ZM23.3335 25.8855H11.6668C11.0689 25.8855 10.5731 25.3896 10.5731 24.7917C10.5731 24.1938 11.0689 23.698 11.6668 23.698H23.3335C23.9314 23.698 24.4272 24.1938 24.4272 24.7917C24.4272 25.3896 23.9314 25.8855 23.3335 25.8855Z" fill="#273B4A"/>
</svg>
