<svg width="63" height="63" viewBox="0 0 63 63" fill="none" xmlns="http://www.w3.org/2000/svg">
<path d="M0 0H54.5C58.9183 0 62.5 3.58172 62.5 8V54.5C62.5 58.9183 58.9183 62.5 54.5 62.5H8C3.58172 62.5 0 58.9183 0 54.5V0Z" fill="#FDF9ED"/>
<path d="M39.2188 41.1719H30.3125C29.6653 41.1719 29.1406 40.6472 29.1406 40C29.1406 39.3528 29.6653 38.8281 30.3125 38.8281H39.2188C41.8034 38.8281 43.9062 36.7253 43.9062 34.1406V24.5312C43.9062 21.9466 41.8034 19.8438 39.2188 19.8438H23.2812C20.6966 19.8438 18.5938 21.9466 18.5938 24.5312V33.5547C18.5938 33.8778 18.8566 34.1406 19.1797 34.1406H22.6953C23.3425 34.1406 23.8672 34.6653 23.8672 35.3125C23.8672 35.9597 23.3425 36.4844 22.6953 36.4844H19.1797C17.5643 36.4844 16.25 35.1701 16.25 33.5547V24.5312C16.25 20.6542 19.4042 17.5 23.2812 17.5H39.2188C43.0958 17.5 46.25 20.6542 46.25 24.5312V34.1406C46.25 38.0177 43.0958 41.1719 39.2188 41.1719ZM26.7969 39.9988C26.7969 39.3515 26.2722 38.8269 25.625 38.8269H17.4219C16.7746 38.8269 16.25 39.3515 16.25 39.9988C16.25 40.646 16.7746 41.1706 17.4219 41.1706H25.625C26.2722 41.1706 26.7969 40.646 26.7969 39.9988ZM30.3125 44.6289C30.3125 43.9817 29.7879 43.457 29.1406 43.457H17.4219C16.7746 43.457 16.25 43.9817 16.25 44.6289C16.25 45.2761 16.7746 45.8008 17.4219 45.8008H29.1406C29.7879 45.8008 30.3125 45.2761 30.3125 44.6289ZM35.9375 29.3359C35.9375 26.7513 33.8347 24.6484 31.25 24.6484C28.6653 24.6484 26.5625 26.7513 26.5625 29.3359C26.5625 31.9206 28.6653 34.0234 31.25 34.0234C33.8347 34.0234 35.9375 31.9206 35.9375 29.3359ZM33.5938 29.3359C33.5938 30.6283 32.5423 31.6797 31.25 31.6797C29.9577 31.6797 28.9062 30.6283 28.9062 29.3359C28.9062 28.0436 29.9577 26.9922 31.25 26.9922C32.5423 26.9922 33.5938 28.0436 33.5938 29.3359ZM41.6211 25.4102C41.6211 24.7629 41.0964 24.2383 40.4492 24.2383C39.9646 24.2383 39.5703 23.844 39.5703 23.3594C39.5703 22.7121 39.0457 22.1875 38.3984 22.1875C37.7512 22.1875 37.2266 22.7121 37.2266 23.3594C37.2266 25.1363 38.6722 26.582 40.4492 26.582C41.0964 26.582 41.6211 26.0574 41.6211 25.4102ZM25.3906 23.4766C25.3906 22.8293 24.866 22.3047 24.2188 22.3047C23.5715 22.3047 23.0469 22.8293 23.0469 23.4766C23.0469 23.9612 22.6526 24.3555 22.168 24.3555C21.5207 24.3555 20.9961 24.8801 20.9961 25.5273C20.9961 26.1746 21.5207 26.6992 22.168 26.6992C23.9449 26.6992 25.3906 25.2535 25.3906 23.4766ZM39.5703 35.3125C39.5703 34.8279 39.9646 34.4336 40.4492 34.4336C41.0964 34.4336 41.6211 33.9089 41.6211 33.2617C41.6211 32.6145 41.0964 32.0898 40.4492 32.0898C38.6722 32.0898 37.2266 33.5355 37.2266 35.3125C37.2266 35.9597 37.7512 36.4844 38.3984 36.4844C39.0457 36.4844 39.5703 35.9597 39.5703 35.3125Z" fill="#D6AA1B"/>
</svg>
