<svg width="92" height="85" viewBox="0 0 92 85" fill="none" xmlns="http://www.w3.org/2000/svg">
<path d="M0 8C0 3.58172 3.58172 0 8 0H73.0714C83.0126 0 91.0714 8.05888 91.0714 18V67C91.0714 76.9411 83.0126 85 73.0714 85H18C8.05886 85 0 76.9411 0 67V8Z" fill="#D6AA1B"/>
<path d="M55.05 34.975H54.55L50.325 30.75C49.9875 30.4125 49.4375 30.4125 49.0875 30.75C48.75 31.0875 48.75 31.6375 49.0875 31.9875L52.075 34.975H39.925L42.9125 31.9875C43.25 31.65 43.25 31.1 42.9125 30.75C42.575 30.4125 42.025 30.4125 41.675 30.75L37.4625 34.975H36.9625C35.8375 34.975 33.5 34.975 33.5 38.175C33.5 39.3875 33.75 40.1875 34.275 40.7125C34.575 41.025 34.9375 41.1875 35.325 41.275C35.6875 41.3625 36.075 41.375 36.45 41.375H55.55C55.9375 41.375 56.3 41.35 56.65 41.275C57.7 41.025 58.5 40.275 58.5 38.175C58.5 34.975 56.1625 34.975 55.05 34.975Z" fill="white"/>
<path d="M54.8124 43H37.0874C36.3124 43 35.7249 43.6875 35.8499 44.45L36.8999 50.875C37.2499 53.025 38.1874 55.5 42.3499 55.5H49.3624C53.5749 55.5 54.325 53.3875 54.775 51.025L56.0374 44.4875C56.1874 43.7125 55.5999 43 54.8124 43ZM44.2624 51.0625C44.2624 51.55 43.8749 51.9375 43.3999 51.9375C42.9124 51.9375 42.5249 51.55 42.5249 51.0625V46.9375C42.5249 46.4625 42.9124 46.0625 43.3999 46.0625C43.8749 46.0625 44.2624 46.4625 44.2624 46.9375V51.0625ZM49.6125 51.0625C49.6125 51.55 49.2249 51.9375 48.7374 51.9375C48.2624 51.9375 47.8624 51.55 47.8624 51.0625V46.9375C47.8624 46.4625 48.2624 46.0625 48.7374 46.0625C49.2249 46.0625 49.6125 46.4625 49.6125 46.9375V51.0625Z" fill="white"/>
</svg>
