<svg width="63" height="63" viewBox="0 0 63 63" fill="none" xmlns="http://www.w3.org/2000/svg">
<path d="M0 0H54.5C58.9183 0 62.5 3.58172 62.5 8V54.5C62.5 58.9183 58.9183 62.5 54.5 62.5H8C3.58172 62.5 0 58.9183 0 54.5V0Z" fill="#FDF9ED"/>
<path d="M32.7885 30.8829C32.4885 30.8829 32.1887 30.7685 31.9599 30.5397C31.5023 30.0821 31.5023 29.3402 31.9599 28.8826L36.9312 23.9113C37.3888 23.4537 38.1307 23.4537 38.5883 23.9113C39.0458 24.369 39.0459 25.1108 38.5883 25.5684L33.617 30.5397C33.3882 30.7685 33.0884 30.8829 32.7885 30.8829Z" fill="#D6AA1B"/>
<path d="M38.931 29.7108C38.931 30.0107 38.8166 30.3106 38.5878 30.5394C38.1302 30.997 37.3883 30.997 36.9307 30.5394L31.9594 25.5681C31.5018 25.1104 31.5018 24.3685 31.9594 23.911C32.4171 23.4534 33.1589 23.4534 33.6165 23.911L38.5878 28.8823C38.8166 29.1111 38.931 29.4109 38.931 29.7108Z" fill="#D6AA1B"/>
<path d="M36.1022 31.5691C35.8901 31.7812 35.5972 31.9123 35.2737 31.9123C34.6265 31.9123 34.1019 31.3877 34.1019 30.7406L34.1019 23.7101C34.1019 23.0629 34.6265 22.5383 35.2737 22.5384C35.9208 22.5384 36.4454 23.063 36.4454 23.7101L36.4454 30.7406C36.4454 31.0641 36.3143 31.3571 36.1022 31.5691Z" fill="#D6AA1B"/>
<path d="M30.9297 28.0541C30.7176 27.8421 30.5865 27.5491 30.5865 27.2256C30.5865 26.5784 31.1111 26.0538 31.7582 26.0538L38.7887 26.0538C39.4358 26.0538 39.9604 26.5784 39.9604 27.2256C39.9604 27.8727 39.4358 28.3973 38.7887 28.3973L31.7582 28.3973C31.4347 28.3973 31.1417 28.2662 30.9297 28.0541Z" fill="#D6AA1B"/>
<path d="M41.8045 16.3775L23.5764 21.3488H23.5765C20.9805 22.0565 20.1109 25.3185 22.0179 27.2256L27.8177 33.0254L25.3321 35.5111C24.8744 35.9687 24.8744 36.7106 25.3321 37.1681C25.7896 37.6257 26.5315 37.6258 26.9891 37.1681L29.4748 34.6825L35.2747 40.4823C37.1755 42.3832 40.4424 41.5237 41.1515 38.9238L46.1228 20.6957C46.8376 18.0746 44.4275 15.6621 41.8045 16.3775ZM43.8619 20.0792L38.8906 38.3073C38.6576 39.1615 37.5718 39.4652 36.9318 38.8252L23.675 25.5684C23.0377 24.931 23.3324 23.8443 24.193 23.6096H24.1931L42.4211 18.6383C43.3014 18.3982 44.0993 19.2084 43.8619 20.0792Z" fill="#D6AA1B"/>
<path d="M18.218 44.2813C17.7603 43.8237 17.7603 43.0818 18.218 42.6242L22.0175 38.8247C22.4751 38.367 23.217 38.367 23.6746 38.8247C24.1322 39.2823 24.1322 40.0242 23.6746 40.4817L19.875 44.2813C19.4175 44.7389 18.6756 44.7389 18.218 44.2813Z" fill="#D6AA1B"/>
<path d="M23.1894 45.9073C22.7318 45.4497 22.7318 44.7078 23.1894 44.2502L26.989 40.4506C27.4466 39.993 28.1885 39.993 28.646 40.4506C29.1036 40.9083 29.1037 41.6502 28.646 42.1077L24.8465 45.9073C24.3889 46.3649 23.647 46.3649 23.1894 45.9073Z" fill="#D6AA1B"/>
<path d="M16.5932 39.3106C16.1356 38.853 16.1356 38.1111 16.5932 37.6535L20.3928 33.854C20.8504 33.3963 21.5923 33.3963 22.0498 33.854C22.5075 34.3116 22.5075 35.0535 22.0498 35.511L18.2503 39.3106C17.7927 39.7682 17.0508 39.7683 16.5932 39.3106Z" fill="#D6AA1B"/>
</svg>
