<svg width="35" height="35" viewBox="0 0 35 35" fill="none" xmlns="http://www.w3.org/2000/svg">
<path d="M22.1957 9.55212H8.429C8.02067 9.55212 7.6415 9.56671 7.2915 9.58129C3.83525 9.78546 2.9165 11.0542 2.9165 14.9917V15.8375C2.9165 16.6396 3.57275 17.2959 4.37484 17.2959H26.2498C27.0519 17.2959 27.7082 16.6396 27.7082 15.8375V14.9917C27.7082 10.6459 26.5998 9.55212 22.1957 9.55212Z" fill="#273B4A"/>
<path d="M4.37484 19.4834C3.57275 19.4834 2.9165 20.1396 2.9165 20.9417V25.1855C2.9165 29.5313 4.02484 30.6251 8.429 30.6251H22.1957C26.5269 30.6251 27.6644 29.5751 27.7082 25.4188V20.9417C27.7082 20.1396 27.0519 19.4834 26.2498 19.4834H4.37484ZM10.1498 27.0667H7.65609C7.05817 27.0667 6.56234 26.5709 6.56234 25.973C6.56234 25.3751 7.05817 24.8792 7.65609 24.8792H10.1644C10.7623 24.8792 11.2582 25.3751 11.2582 25.973C11.2582 26.5709 10.7623 27.0667 10.1498 27.0667ZM18.3019 27.0667H13.2853C12.6873 27.0667 12.1915 26.5709 12.1915 25.973C12.1915 25.3751 12.6873 24.8792 13.2853 24.8792H18.3019C18.8998 24.8792 19.3957 25.3751 19.3957 25.973C19.3957 26.5709 18.9144 27.0667 18.3019 27.0667Z" fill="#273B4A"/>
<path d="M32.0834 19.4396V11.7979C32.0834 7.23333 29.4729 5.25 25.5354 5.25H12.5125C11.4042 5.25 10.4125 5.41042 9.53752 5.74583C8.8521 5.99375 8.2396 6.35833 7.74377 6.83958C7.48127 7.0875 7.68543 7.49583 8.0646 7.49583H23.9167C27.1979 7.49583 29.8521 10.15 29.8521 13.4313V23.8875C29.8521 24.2521 30.2459 24.4563 30.5084 24.1938C31.5146 23.1292 32.0834 21.5688 32.0834 19.4396Z" fill="#273B4A"/>
</svg>
