<svg width="136" height="51" viewBox="0 0 136 51" fill="none" xmlns="http://www.w3.org/2000/svg">
<path d="M0 9.50038C0 4.40718 4.12127 0.27832 9.2051 0.27832H125.803C130.887 0.27832 135.008 4.40718 135.008 9.50038V41.7776C135.008 46.8708 130.887 50.9996 125.803 50.9996H9.2051C4.12126 50.9996 0 46.8708 0 41.7776V9.50038Z" fill="#273B4A"/>
<path d="M39.7863 14.4507H27.3111C24.5923 14.4507 22.377 16.666 22.377 19.3848V26.6574V26.8811C22.377 29.6111 24.5923 31.8153 27.3111 31.8153H31.6075C32.2229 31.8153 32.7263 32.3188 32.7263 32.9341V34.0194C32.7263 34.6348 32.2229 35.1383 31.6075 35.1383H28.8999C28.4411 35.1383 28.0607 35.5187 28.0607 35.9774C28.0607 36.4361 28.4299 36.8277 28.8999 36.8277H38.2423C38.701 36.8277 39.0814 36.4473 39.0814 35.9886C39.0814 35.5299 38.701 35.1495 38.2423 35.1495H35.5347C34.9193 35.1495 34.4158 34.646 34.4158 34.0306V32.9453C34.4158 32.3299 34.9193 31.8265 35.5347 31.8265H39.7975C42.5275 31.8265 44.7316 29.6111 44.7316 26.8923V26.6686V19.396C44.7204 16.666 42.5051 14.4507 39.7863 14.4507Z" fill="#FCFCFC"/>
<path d="M57.3076 20.5074C56.7905 20.5074 56.3429 20.3955 55.965 20.1717C55.5921 19.943 55.3036 19.6272 55.0998 19.2244C54.8959 18.8167 54.7939 18.3467 54.7939 17.8147C54.7939 17.2776 54.8959 16.8077 55.0998 16.4049C55.3036 15.9971 55.5921 15.6789 55.965 15.4502C56.3429 15.2214 56.7905 15.107 57.3076 15.107C57.9193 15.107 58.419 15.2562 58.8069 15.5546C59.1948 15.8529 59.4409 16.2706 59.5453 16.8077H58.6652C58.5956 16.5044 58.4464 16.2632 58.2176 16.0842C57.9889 15.9051 57.6831 15.8156 57.3002 15.8156C56.778 15.8156 56.3653 15.9947 56.062 16.3527C55.7586 16.7058 55.607 17.1931 55.607 17.8147C55.607 18.4313 55.7586 18.9161 56.062 19.2692C56.3653 19.6222 56.778 19.7988 57.3002 19.7988C57.6831 19.7988 57.9889 19.7142 58.2176 19.5452C58.4464 19.3761 58.5956 19.1448 58.6652 18.8515H59.5453C59.4409 19.3686 59.1948 19.7739 58.8069 20.0673C58.419 20.3607 57.9193 20.5074 57.3076 20.5074Z" fill="#D9D9D9"/>
<path d="M62.1151 20.5074C61.762 20.5074 61.4438 20.4278 61.1603 20.2687C60.8819 20.1046 60.6606 19.8783 60.4965 19.5899C60.3324 19.2965 60.2503 18.9559 60.2503 18.568C60.2503 18.1802 60.3324 17.842 60.4965 17.5536C60.6656 17.2602 60.8918 17.0339 61.1753 16.8748C61.4587 16.7107 61.7745 16.6287 62.1225 16.6287C62.4756 16.6287 62.7914 16.7107 63.0698 16.8748C63.3533 17.0339 63.5771 17.2602 63.7412 17.5536C63.9102 17.842 63.9948 18.1802 63.9948 18.568C63.9948 18.9559 63.9102 19.2965 63.7412 19.5899C63.5771 19.8783 63.3533 20.1046 63.0698 20.2687C62.7864 20.4278 62.4681 20.5074 62.1151 20.5074ZM62.1151 19.8286C62.304 19.8286 62.4781 19.7814 62.6372 19.6869C62.8013 19.5924 62.9331 19.4532 63.0325 19.2692C63.132 19.0802 63.1817 18.8465 63.1817 18.568C63.1817 18.2895 63.132 18.0583 63.0325 17.8743C62.9381 17.6854 62.8088 17.5436 62.6447 17.4492C62.4856 17.3547 62.3115 17.3074 62.1225 17.3074C61.9336 17.3074 61.7571 17.3547 61.593 17.4492C61.4338 17.5436 61.3045 17.6854 61.2051 17.8743C61.1056 18.0583 61.0559 18.2895 61.0559 18.568C61.0559 18.8465 61.1056 19.0802 61.2051 19.2692C61.3045 19.4532 61.4338 19.5924 61.593 19.6869C61.7521 19.7814 61.9261 19.8286 62.1151 19.8286Z" fill="#D9D9D9"/>
<path d="M64.8498 20.4179V16.7182H65.551L65.6106 17.3671C65.725 17.1384 65.8916 16.9594 66.1104 16.8301C66.3342 16.6958 66.5902 16.6287 66.8787 16.6287C67.3262 16.6287 67.6768 16.7679 67.9304 17.0464C68.189 17.3248 68.3182 17.7401 68.3182 18.292V20.4179H67.5351V18.3741C67.5351 17.658 67.2417 17.3 66.6549 17.3C66.3615 17.3 66.1178 17.4044 65.9239 17.6133C65.7349 17.8221 65.6405 18.1205 65.6405 18.5083V20.4179H64.8498Z" fill="#D9D9D9"/>
<path d="M70.8009 20.4179C70.4379 20.4179 70.1495 20.3308 69.9357 20.1568C69.7219 19.9778 69.615 19.662 69.615 19.2095V17.382H68.9809V16.7182H69.615L69.7119 15.7783H70.4056V16.7182H71.4499V17.382H70.4056V19.2095C70.4056 19.4134 70.4479 19.5551 70.5324 19.6347C70.6219 19.7092 70.7736 19.7465 70.9874 19.7465H71.4126V20.4179H70.8009Z" fill="#D9D9D9"/>
<path d="M72.7127 16.017C72.5635 16.017 72.4392 15.9723 72.3397 15.8828C72.2452 15.7883 72.198 15.6714 72.198 15.5322C72.198 15.393 72.2452 15.2786 72.3397 15.1891C72.4392 15.0946 72.5635 15.0474 72.7127 15.0474C72.8618 15.0474 72.9837 15.0946 73.0781 15.1891C73.1776 15.2786 73.2273 15.393 73.2273 15.5322C73.2273 15.6714 73.1776 15.7883 73.0781 15.8828C72.9837 15.9723 72.8618 16.017 72.7127 16.017ZM72.3173 20.4179V16.7182H73.108V20.4179H72.3173Z" fill="#D9D9D9"/>
<path d="M74.1517 20.4179V16.7182H74.8529L74.9125 17.3671C75.0269 17.1384 75.1935 16.9594 75.4123 16.8301C75.6361 16.6958 75.8922 16.6287 76.1806 16.6287C76.6281 16.6287 76.9787 16.7679 77.2323 17.0464C77.4909 17.3248 77.6202 17.7401 77.6202 18.292V20.4179H76.837V18.3741C76.837 17.658 76.5436 17.3 75.9568 17.3C75.6634 17.3 75.4198 17.4044 75.2258 17.6133C75.0369 17.8221 74.9424 18.1205 74.9424 18.5083V20.4179H74.1517Z" fill="#D9D9D9"/>
<path d="M81.9527 16.7182V20.4179H81.2515L81.1919 19.7689C81.0775 19.9977 80.9084 20.1792 80.6847 20.3134C80.4659 20.4427 80.2123 20.5074 79.9238 20.5074C79.4763 20.5074 79.1232 20.3681 78.8647 20.0897C78.6111 19.8112 78.4842 19.396 78.4842 18.844V16.7182H79.2674V18.762C79.2674 19.478 79.5608 19.8361 80.1476 19.8361C80.441 19.8361 80.6822 19.7316 80.8711 19.5228C81.0651 19.3139 81.162 19.0156 81.162 18.6277V16.7182H81.9527Z" fill="#D9D9D9"/>
<path d="M84.6815 20.5074C84.3185 20.5074 83.9953 20.4278 83.7119 20.2687C83.4334 20.1046 83.2146 19.8783 83.0555 19.5899C82.8963 19.3015 82.8168 18.9658 82.8168 18.5829C82.8168 18.1951 82.8938 17.8544 83.048 17.5611C83.2071 17.2677 83.4259 17.0389 83.7044 16.8748C83.9878 16.7107 84.316 16.6287 84.689 16.6287C85.052 16.6287 85.3678 16.7107 85.6363 16.8748C85.9048 17.0339 86.1137 17.2478 86.2628 17.5163C86.412 17.7848 86.4866 18.0807 86.4866 18.4039C86.4866 18.4536 86.4841 18.5083 86.4791 18.568C86.4791 18.6227 86.4767 18.6849 86.4717 18.7545H83.5925C83.6174 19.1125 83.7342 19.386 83.9431 19.575C84.1569 19.759 84.4031 19.851 84.6815 19.851C84.9053 19.851 85.0918 19.8012 85.241 19.7018C85.3951 19.5974 85.5095 19.4581 85.5841 19.2841H86.3747C86.2753 19.6322 86.0764 19.9231 85.778 20.1568C85.4846 20.3905 85.1191 20.5074 84.6815 20.5074ZM84.6815 17.2776C84.418 17.2776 84.1843 17.3572 83.9804 17.5163C83.7765 17.6705 83.6522 17.9042 83.6074 18.2174H85.696C85.681 17.929 85.5791 17.7003 85.3901 17.5312C85.2012 17.3621 84.965 17.2776 84.6815 17.2776Z" fill="#D9D9D9"/>
<path d="M90.9168 20.5074C90.5637 20.5074 90.2455 20.4278 89.962 20.2687C89.6836 20.1046 89.4623 19.8783 89.2982 19.5899C89.1341 19.2965 89.052 18.9559 89.052 18.568C89.052 18.1802 89.1341 17.842 89.2982 17.5536C89.4673 17.2602 89.6935 17.0339 89.977 16.8748C90.2604 16.7107 90.5762 16.6287 90.9243 16.6287C91.2773 16.6287 91.5931 16.7107 91.8716 16.8748C92.155 17.0339 92.3788 17.2602 92.5429 17.5536C92.7119 17.842 92.7965 18.1802 92.7965 18.568C92.7965 18.9559 92.7119 19.2965 92.5429 19.5899C92.3788 19.8783 92.155 20.1046 91.8716 20.2687C91.5881 20.4278 91.2699 20.5074 90.9168 20.5074ZM90.9168 19.8286C91.1058 19.8286 91.2798 19.7814 91.4389 19.6869C91.603 19.5924 91.7348 19.4532 91.8343 19.2692C91.9337 19.0802 91.9834 18.8465 91.9834 18.568C91.9834 18.2895 91.9337 18.0583 91.8343 17.8743C91.7398 17.6854 91.6105 17.5436 91.4464 17.4492C91.2873 17.3547 91.1132 17.3074 90.9243 17.3074C90.7353 17.3074 90.5588 17.3547 90.3947 17.4492C90.2355 17.5436 90.1063 17.6854 90.0068 17.8743C89.9073 18.0583 89.8576 18.2895 89.8576 18.568C89.8576 18.8465 89.9073 19.0802 90.0068 19.2692C90.1063 19.4532 90.2355 19.5924 90.3947 19.6869C90.5538 19.7814 90.7278 19.8286 90.9168 19.8286Z" fill="#D9D9D9"/>
<path d="M93.6515 20.4179V16.7182H94.3527L94.4123 17.3671C94.5267 17.1384 94.6933 16.9594 94.9121 16.8301C95.1359 16.6958 95.392 16.6287 95.6804 16.6287C96.1279 16.6287 96.4785 16.7679 96.7321 17.0464C96.9907 17.3248 97.12 17.7401 97.12 18.292V20.4179H96.3368V18.3741C96.3368 17.658 96.0434 17.3 95.4566 17.3C95.1632 17.3 94.9196 17.4044 94.7256 17.6133C94.5367 17.8221 94.4422 18.1205 94.4422 18.5083V20.4179H93.6515Z" fill="#D9D9D9"/>
<path d="M101.482 20.4179C101.119 20.4179 100.831 20.3308 100.617 20.1568C100.403 19.9778 100.296 19.662 100.296 19.2095V17.382H99.662V16.7182H100.296L100.393 15.7783H101.087V16.7182H102.131V17.382H101.087V19.2095C101.087 19.4134 101.129 19.5551 101.213 19.6347C101.303 19.7092 101.455 19.7465 101.668 19.7465H102.094V20.4179H101.482Z" fill="#D9D9D9"/>
<path d="M102.946 20.4179V15.0474H103.737V17.3149C103.861 17.1011 104.033 16.9345 104.251 16.8152C104.475 16.6908 104.721 16.6287 104.99 16.6287C105.432 16.6287 105.781 16.7679 106.034 17.0464C106.288 17.3248 106.415 17.7401 106.415 18.292V20.4179H105.631V18.3741C105.631 17.658 105.345 17.3 104.774 17.3C104.475 17.3 104.227 17.4044 104.028 17.6133C103.834 17.8221 103.737 18.1205 103.737 18.5083V20.4179H102.946Z" fill="#D9D9D9"/>
<path d="M109.076 20.5074C108.713 20.5074 108.39 20.4278 108.107 20.2687C107.828 20.1046 107.609 19.8783 107.45 19.5899C107.291 19.3015 107.212 18.9658 107.212 18.5829C107.212 18.1951 107.289 17.8544 107.443 17.5611C107.602 17.2677 107.821 17.0389 108.099 16.8748C108.383 16.7107 108.711 16.6287 109.084 16.6287C109.447 16.6287 109.763 16.7107 110.031 16.8748C110.3 17.0339 110.508 17.2478 110.658 17.5163C110.807 17.7848 110.881 18.0807 110.881 18.4039C110.881 18.4536 110.879 18.5083 110.874 18.568C110.874 18.6227 110.871 18.6849 110.866 18.7545H107.987C108.012 19.1125 108.129 19.386 108.338 19.575C108.552 19.759 108.798 19.851 109.076 19.851C109.3 19.851 109.487 19.8012 109.636 19.7018C109.79 19.5974 109.904 19.4581 109.979 19.2841H110.769C110.67 19.6322 110.471 19.9231 110.173 20.1568C109.879 20.3905 109.514 20.5074 109.076 20.5074ZM109.076 17.2776C108.813 17.2776 108.579 17.3572 108.375 17.5163C108.171 17.6705 108.047 17.9042 108.002 18.2174H110.091C110.076 17.929 109.974 17.7003 109.785 17.5312C109.596 17.3621 109.36 17.2776 109.076 17.2776Z" fill="#D9D9D9"/>
<path d="M56.9569 34.5899L54.749 26.2358H56.384L57.8878 32.8832L59.6541 26.2358H61.3368L63.0554 32.8832L64.5591 26.2358H66.2061L63.9385 34.5899H62.1245L60.4656 28.3959L58.759 34.5899H56.9569Z" fill="white"/>
<path d="M69.5242 34.7331C68.9275 34.7331 68.3984 34.6058 67.9369 34.3512C67.4755 34.0966 67.1135 33.7385 66.8509 33.2771C66.5883 32.8156 66.4571 32.2825 66.4571 31.6779C66.4571 31.0652 66.5844 30.5202 66.839 30.0428C67.1015 29.5655 67.4596 29.1955 67.9131 28.9329C68.3745 28.6624 68.9156 28.5272 69.5362 28.5272C70.117 28.5272 70.6301 28.6545 71.0757 28.9091C71.5212 29.1637 71.8673 29.5137 72.114 29.9593C72.3686 30.3969 72.4959 30.8862 72.4959 31.4272C72.4959 31.5148 72.4919 31.6063 72.484 31.7017C72.484 31.7972 72.48 31.8967 72.472 32.0001H67.9727C68.0046 32.4616 68.1637 32.8236 68.4501 33.0861C68.7445 33.3487 69.0986 33.48 69.5123 33.48C69.8226 33.48 70.0812 33.4123 70.288 33.2771C70.5028 33.1339 70.662 32.9509 70.7654 32.7281H72.3169C72.2055 33.102 72.0185 33.4442 71.756 33.7544C71.5014 34.0568 71.1831 34.2955 70.8012 34.4705C70.4273 34.6456 70.0016 34.7331 69.5242 34.7331ZM69.5362 29.7683C69.1622 29.7683 68.832 29.8758 68.5456 30.0906C68.2592 30.2974 68.0762 30.6157 67.9966 31.0453H70.9444C70.9205 30.6555 70.7773 30.3452 70.5148 30.1144C70.2522 29.8837 69.926 29.7683 69.5362 29.7683Z" fill="white"/>
<path d="M77.2894 34.7331C76.8439 34.7331 76.454 34.6495 76.1199 34.4824C75.7857 34.3154 75.5152 34.0807 75.3083 33.7783L75.1412 34.5899H73.7807V25.9971H75.3083V29.5177C75.4993 29.2552 75.7499 29.0244 76.0602 28.8255C76.3784 28.6266 76.7882 28.5272 77.2894 28.5272C77.8464 28.5272 78.3436 28.6624 78.7812 28.9329C79.2188 29.2035 79.5649 29.5734 79.8195 30.0428C80.0741 30.5123 80.2014 31.0453 80.2014 31.6421C80.2014 32.2388 80.0741 32.7718 79.8195 33.2413C79.5649 33.7027 79.2188 34.0687 78.7812 34.3392C78.3436 34.6018 77.8464 34.7331 77.2894 34.7331ZM76.9672 33.3964C77.4525 33.3964 77.8543 33.2333 78.1726 32.9071C78.4908 32.5809 78.65 32.1592 78.65 31.6421C78.65 31.1249 78.4908 30.6992 78.1726 30.3651C77.8543 30.0309 77.4525 29.8638 76.9672 29.8638C76.4739 29.8638 76.0681 30.0309 75.7499 30.3651C75.4396 30.6913 75.2844 31.113 75.2844 31.6301C75.2844 32.1473 75.4396 32.5729 75.7499 32.9071C76.0681 33.2333 76.4739 33.3964 76.9672 33.3964Z" fill="white"/>
<path d="M86.4506 34.7331C85.9414 34.7331 85.5237 34.6535 85.1975 34.4944C84.8713 34.3273 84.6286 34.1085 84.4695 33.838C84.3103 33.5675 84.2308 33.2691 84.2308 32.9429C84.2308 32.3939 84.4456 31.9484 84.8752 31.6063C85.3049 31.2641 85.9493 31.0931 86.8086 31.0931H88.3124V30.9499C88.3124 30.5441 88.197 30.2457 87.9663 30.0548C87.7355 29.8638 87.4491 29.7683 87.107 29.7683C86.7967 29.7683 86.5262 29.8439 86.2954 29.9951C86.0647 30.1383 85.9215 30.3531 85.8658 30.6396H84.374C84.4138 30.2099 84.557 29.836 84.8036 29.5177C85.0582 29.1995 85.3844 28.9568 85.7823 28.7897C86.1801 28.6147 86.6256 28.5272 87.1189 28.5272C87.9623 28.5272 88.6266 28.738 89.112 29.1597C89.5973 29.5814 89.84 30.1781 89.84 30.9499V34.5899H88.5391L88.3959 33.6351C88.2209 33.9534 87.9742 34.2159 87.656 34.4228C87.3457 34.6296 86.9439 34.7331 86.4506 34.7331ZM86.7967 33.5396C87.2343 33.5396 87.5724 33.3964 87.8111 33.11C88.0578 32.8236 88.2129 32.4695 88.2766 32.0478H86.9757C86.5699 32.0478 86.2795 32.1234 86.1045 32.2746C85.9295 32.4178 85.8419 32.5968 85.8419 32.8116C85.8419 33.0424 85.9295 33.2214 86.1045 33.3487C86.2795 33.476 86.5103 33.5396 86.7967 33.5396Z" fill="white"/>
<path d="M91.2977 37.2154V28.6704H92.6583L92.8253 29.5177C93.0163 29.2552 93.2669 29.0244 93.5772 28.8255C93.8955 28.6266 94.3052 28.5272 94.8065 28.5272C95.3634 28.5272 95.8607 28.6624 96.2983 28.9329C96.7359 29.2035 97.082 29.5734 97.3366 30.0428C97.5912 30.5123 97.7185 31.0453 97.7185 31.6421C97.7185 32.2388 97.5912 32.7718 97.3366 33.2413C97.082 33.7027 96.7359 34.0687 96.2983 34.3392C95.8607 34.6018 95.3634 34.7331 94.8065 34.7331C94.3609 34.7331 93.971 34.6495 93.6369 34.4824C93.3027 34.3154 93.0322 34.0807 92.8253 33.7783V37.2154H91.2977ZM94.4842 33.3964C94.9696 33.3964 95.3714 33.2333 95.6896 32.9071C96.0079 32.5809 96.167 32.1592 96.167 31.6421C96.167 31.1249 96.0079 30.6992 95.6896 30.3651C95.3714 30.0309 94.9696 29.8638 94.4842 29.8638C93.9909 29.8638 93.5852 30.0309 93.2669 30.3651C92.9566 30.6913 92.8015 31.113 92.8015 31.6301C92.8015 32.1473 92.9566 32.5729 93.2669 32.9071C93.5852 33.2333 93.9909 33.3964 94.4842 33.3964Z" fill="white"/>
<path d="M99.0831 37.2154V28.6704H100.444L100.611 29.5177C100.802 29.2552 101.052 29.0244 101.363 28.8255C101.681 28.6266 102.091 28.5272 102.592 28.5272C103.149 28.5272 103.646 28.6624 104.084 28.9329C104.521 29.2035 104.867 29.5734 105.122 30.0428C105.377 30.5123 105.504 31.0453 105.504 31.6421C105.504 32.2388 105.377 32.7718 105.122 33.2413C104.867 33.7027 104.521 34.0687 104.084 34.3392C103.646 34.6018 103.149 34.7331 102.592 34.7331C102.146 34.7331 101.756 34.6495 101.422 34.4824C101.088 34.3154 100.818 34.0807 100.611 33.7783V37.2154H99.0831ZM102.27 33.3964C102.755 33.3964 103.157 33.2333 103.475 32.9071C103.793 32.5809 103.952 32.1592 103.952 31.6421C103.952 31.1249 103.793 30.6992 103.475 30.3651C103.157 30.0309 102.755 29.8638 102.27 29.8638C101.776 29.8638 101.371 30.0309 101.052 30.3651C100.742 30.6913 100.587 31.113 100.587 31.6301C100.587 32.1473 100.742 32.5729 101.052 32.9071C101.371 33.2333 101.776 33.3964 102.27 33.3964Z" fill="white"/>
</svg>
